<?xml version="1.0" encoding="UTF-8" standalone="no"?>
<svg
   id="v"
   width="356.35294"
   height="104.38318"
   viewBox="0 0 356.35294 104.38318"
   version="1.1"
   sodipodi:docname="UKEnavn_logo_scale_1to60_w_offsets.svg"
   inkscape:version="1.2.2 (b0a8486541, 2022-12-01)"
   xmlns:inkscape="http://www.inkscape.org/namespaces/inkscape"
   xmlns:sodipodi="http://sodipodi.sourceforge.net/DTD/sodipodi-0.dtd"
   xmlns:xlink="http://www.w3.org/1999/xlink"
   xmlns="http://www.w3.org/2000/svg"
   xmlns:svg="http://www.w3.org/2000/svg"
   xmlns:rdf="http://www.w3.org/1999/02/22-rdf-syntax-ns#"
   xmlns:cc="http://creativecommons.org/ns#"
   xmlns:dc="http://purl.org/dc/elements/1.1/">
  <metadata
     id="metadata68">
    <rdf:RDF>
      <cc:Work
         rdf:about="">
        <dc:format>image/svg+xml</dc:format>
        <dc:type
           rdf:resource="http://purl.org/dc/dcmitype/StillImage" />
      </cc:Work>
    </rdf:RDF>
  </metadata>
  <sodipodi:namedview
     pagecolor="#ffffff"
     bordercolor="#666666"
     borderopacity="1"
     objecttolerance="10"
     gridtolerance="10"
     guidetolerance="10"
     inkscape:pageopacity="0"
     inkscape:pageshadow="2"
     inkscape:window-width="2558"
     inkscape:window-height="2071"
     id="namedview66"
     showgrid="false"
     inkscape:zoom="2.8284271"
     inkscape:cx="165.81654"
     inkscape:cy="-17.854446"
     inkscape:window-x="1272"
     inkscape:window-y="0"
     inkscape:window-maximized="0"
     inkscape:current-layer="v"
     showguides="false"
     inkscape:showpageshadow="2"
     inkscape:pagecheckerboard="0"
     inkscape:deskcolor="#d1d1d1" />
  <defs
     id="defs4">
    <style
       id="style2">
      .cls-1 {
        fill: #949494;
        stroke: #000;
        stroke-width: 1px;
      }

      .cls-2 {
        fill: #cf2e2e;
      }
    </style>
  </defs>
  <path
     id="path3222"
     style="fill:#28170b;stroke-width:0.999998"
     inkscape:label="Black"
     d="m 5576.7109,97.859375 c -8.3368,0.12554 -16.7377,0.03562 -24.979,1.478007 -7.3461,1.440388 -14.3612,4.142928 -21.3571,6.741658 -7.245,2.66498 -14.4161,5.55481 -21.3255,9.00819 -13.6608,6.70522 -26.3841,15.14776 -38.5934,24.19245 -17.2591,12.94794 -35.8421,24.07212 -55.111,33.75171 -11.4429,5.71345 -23.2781,10.58384 -35.0827,15.48798 -15.5909,6.37476 -31.3508,12.36713 -47.3923,17.51525 -6.1463,1.96684 -12.3912,3.60324 -18.6781,5.05227 -18.9613,4.57231 -37.9689,8.9563 -57.0401,13.04688 -30.3397,6.70386 -60.0011,17.0034 -87.3456,31.84931 -16.8276,9.10952 -32.6869,20.01432 -47.14,32.55905 -17.1821,14.8816 -32.5371,31.85229 -45.8042,50.30267 -15.3383,21.39995 -27.4342,45.16454 -35.2938,70.30927 -11.0979,35.474 -22.2453,70.93273 -33.363,106.40062 0,0 -34.7487,9.24202 -34.8184,9.23633 -16.1276,-34.22758 -32.2517,-68.45686 -48.3769,-102.68555 -2.5795,-3.86914 -5.1589,-7.73828 -7.7383,-11.60742 -0.073,-1.25433 -0.028,-2.54127 -0.175,-3.77523 -7.0458,-12.77699 -14.912,-25.10079 -23.5184,-36.88298 0.1156,0.16671 -0.6583,-0.8941 -0.8993,-1.21944 -28.1082,-38.13421 -64.2112,-70.49979 -105.7193,-93.43139 -29.929,-16.57829 -62.6523,-28.17729 -96.4277,-33.73435 -18.474,-3.06409 -37.238,-4.30033 -55.9557,-3.84608 -35.1348,0.64881 -70.3985,6.07615 -103.4491,18.26008 -22.8795,8.41534 -44.6459,20.02923 -63.9469,34.96122 -14.308,11.03324 -27.421,23.6131 -39.0895,37.40568 -15.1641,18.03294 -27.7309,38.05794 -39.5421,58.39237 -10.5952,18.30294 -20.5395,36.97213 -30.3317,55.71387 -0.087,0.17701 -0.5524,1.06328 -0.7859,1.51477 -7.6978,14.62315 -14.9708,29.46337 -22.2219,44.3114 -20.5159,41.83701 -41.02,83.6801 -61.5313,125.51953 -17.6854,-49.50377 -35.3261,-99.02347 -53.0477,-148.51413 -18.6076,-50.97367 -43.2888,-99.84208 -74.453,-144.31263 -27.2326,-38.92802 -59.4481,-74.39731 -95.786,-105.01356 -35.1109,-29.54536 -74.461,-54.40191 -117.2581,-71.19492 -23.0371,-9.03319 -47.0098,-15.75824 -71.46,-19.62476 -14.7562,-2.23539 -29.7095,-2.73719 -44.6143,-2.67532 -16.0166,-0.0361 -32.112,0.88839 -47.8213,4.17251 -11.982,2.49926 -23.7957,5.82133 -35.322,9.93932 -28.4259,10.16027 -55.0787,25.38361 -78.0002,45.0541 -17.8795,15.32536 -33.4921,33.28136 -46.2276,53.08736 -0.2818,0.44105 -0.762,1.17501 -1.1198,1.72833 -17.1755,26.46534 -34.3518,52.93023 -51.5286,79.39472 -18.8915,-27.79467 -37.7292,-55.626 -56.6628,-83.39191 -15.498,-22.19709 -34.3128,-42.13415 -55.9415,-58.44872 -20.2778,-15.3836 -42.7306,-27.94049 -66.5582,-36.91307 -39.3989,-14.76195 -82.2141,-19.63722 -124.0286,-15.77886 -28.2657,2.60849 -56.1419,9.33396 -82.4979,19.87298 -32.4381,12.86672 -62.8222,31.11796 -88.8895,54.36668 -10.1931,9.09293 -19.7893,18.89682 -28.2168,29.66118 -13.9526,17.6908 -25.0464,37.551 -33.4069,58.45111 -12.3596,30.82619 -19.0369,63.68542 -22.0879,96.6814 -0.6084,6.61214 -1.0599,13.23791 -1.4131,19.86835 0.01,-0.19228 -0.056,1.11079 -0.077,1.51623 -0.087,1.64776 -0.1551,3.29637 -0.2295,4.9447 0.01,-0.0668 -0.045,1.13078 -0.06,1.55215 -0.02,0.49526 -0.064,1.63475 -0.068,1.66107 -0.8135,20.77545 -0.6196,41.69538 2.6092,62.27763 2.5893,16.66511 7.3401,33.02775 14.5159,48.30606 4.6907,10.09536 10.5164,19.63187 17.0463,28.63745 10.1665,14.34468 20.3206,28.69815 30.4825,43.04611 -13.6937,12.93068 -27.4218,25.82479 -41.1092,38.76207 -18.8122,17.64065 -35.3723,37.64554 -49.4476,59.24565 -16.9472,25.40958 -33.8944,50.81911 -50.8417,76.22861 -18.8247,-27.80035 -37.5995,-55.63453 -56.4608,-83.41004 -9.4823,-13.72721 -20.8231,-26.09239 -33.0408,-37.421 -11.9732,-11.03694 -25.0489,-20.93545 -39.2582,-28.9225 -21.8368,-12.39093 -45.9014,-20.56416 -70.5075,-25.31989 -12.1908,-2.3722 -24.5292,-3.9476 -36.9084,-4.91485 0.1588,0.009 -1.1148,-0.0844 -1.5234,-0.11589 -14.6898,-1.06501 -29.4313,-1.34849 -44.1549,-1.06647 -37.5629,0.74686 -75.1187,7.64305 -110.1173,21.4302 -16.8664,6.63424 -33.0893,14.90201 -48.3491,24.68288 -17.8441,11.41319 -34.8645,24.17859 -50.4111,38.58305 -9.8099,9.16829 -18.8938,19.06838 -28.2494,28.69011 -9.902,10.29674 -19.8056,20.59203 -29.7085,30.88792 -15.6361,-14.03248 -31.2389,-28.10201 -46.8822,-42.12635 -32.6181,-29.43345 -70.3168,-53.47182 -111.4038,-69.20698 -20.1076,-7.68601 -40.9568,-13.53332 -62.2332,-16.88402 -14.8963,-2.33995 -29.9832,-3.4438 -45.0609,-3.35492 0.2053,0.002 -1.1098,0.0129 -1.5143,0.0185 -25.7724,0.30024 -51.4628,4.60509 -76.0073,12.44014 -33.8808,10.78159 -65.4751,28.14966 -93.6876,49.69008 -15.5833,11.90476 -30.161,25.10669 -43.6947,39.29375 -18.8809,19.62797 -37.7602,39.25753 -56.641,58.88567 -15.5472,-24.88045 -31.0451,-49.7919 -46.6318,-74.64759 -4.2211,-6.33733 -8.9182,-12.33788 -13.3649,-18.51537 -8.2707,-11.26219 -16.5402,-22.52532 -24.8099,-33.78822 13.2346,-13.55377 26.5162,-27.06156 39.7295,-40.63607 17.0998,-17.67419 31.0263,-38.19445 42.7554,-59.74903 10.8823,-20.09234 20.031,-41.08131 28.2026,-62.40661 7.4045,-19.57989 13.4444,-39.84475 15.7129,-60.71783 0.9184,-7.94105 1.1496,-15.94045 1.1406,-23.92868 5e-4,-6.83215 0.2117,-13.67214 -0.1574,-20.49823 -0.188,-4.08974 -0.9257,-8.13074 -2.0064,-12.07449 -2.2395,-8.34233 -5.338,-16.42037 -8.4272,-24.47641 -5.6718,-14.3947 -13.03,-28.17385 -22.3787,-40.52611 -8.8496,-11.76638 -19.0912,-22.41707 -29.8263,-32.46572 -25.9155,-24.01832 -56.3842,-42.93573 -88.9853,-56.45866 -24.7967,-10.29936 -50.8088,-17.62494 -77.2844,-22.05449 -15.4035,-2.48322 -31.0413,-3.02591 -46.6199,-2.94181 -2.1165,-0.002 -4.233,-0.004 -6.3496,-0.005 0.2053,-0.003 -1.1098,0.005 -1.5144,0.006 -13.3025,0.0192 -26.6366,0.55589 -39.8102,2.50392 -5.2812,0.75097 -10.5534,1.74464 -15.7265,2.79038 -30.2131,6.05496 -59.9266,15.71842 -86.8518,30.8779 -20.5095,11.52213 -39.266,26.21663 -55.106,43.62599 -18.6106,20.38537 -33.2871,44.23916 -43.8159,69.72272 -4.696,11.64657 -8.088,23.78524 -10.7048,36.05538 -10.2701,53.55761 -20.5434,107.11461 -30.818,160.67135 -29.5255,-46.51887 -59.0168,-93.05953 -88.5686,-139.5616 -15.6387,-24.14477 -35.3905,-45.72196 -58.6101,-62.76138 -20.1616,-14.86298 -42.7077,-26.31776 -66.2283,-34.83448 -23.9567,-8.69908 -48.8817,-14.48232 -74.0071,-18.59254 -0.2208,-0.031 -1.184,-0.18881 -1.6915,-0.26876 -0.4829,-0.078 -1.6621,-0.26419 -1.628,-0.26217 -19.025,-3.00633 -38.20302,-5.20721 -57.46602,-5.7945 -33.05821,-1.07305 -66.39975,1.90003 -98.38314,10.54932 -24.3964,6.62777 -47.937,16.69494 -69.12591,30.54045 -13.75141,8.91445 -26.47579,19.41987 -37.74302,31.32486 -15.94838,16.76311 -29.1228,35.9543 -40.71351,55.92331 -21.01616,36.13533 -37.04909,74.92481 -50.8114,114.32538 -8.56205,24.59065 -16.16931,49.5013 -23.4183,74.50666 -7.54737,25.7556 -15.0948,51.51119 -22.64225,77.26678 -25.58458,-17.54731 -51.1331,-35.14734 -76.74763,-52.65084 -14.35666,-9.66101 -29.55437,-18.05744 -45.33831,-25.14709 -27.01821,-12.19245 -55.60532,-20.8479 -84.7841,-26.01465 -22.46973,-3.7261 -45.48699,-3.16506 -67.98204,0.0473 -37.28744,5.38194 -73.31072,18.38101 -106.04288,36.9304 -32.62858,18.4231 -62.10047,42.1055 -88.39592,68.72408 -20.32984,20.4588 -37.06874,44.36811 -50.00305,70.11868 -17.856179,35.46998 -28.759518,74.11194 -34.904732,113.24777 -3.213415,20.28733 -5.011203,40.78905 -5.559097,61.31947 -0.583607,21.08862 0.0389,42.19956 1.540962,63.2393 -0.004,-0.11702 0.08329,1.12154 0.115039,1.53525 0.870314,11.82528 2.036773,23.62599 3.03722,35.44054 1.836622,21.19146 3.797131,42.37246 5.565592,63.56966 1.2779,15.5674 2.304003,31.1566 2.936433,46.7641 1.753216,36.6803 6.892807,73.1586 14.614183,109.0466 2.560206,12.3623 5.213065,24.7061 8.137807,36.988 4.028676,17.2981 8.131023,34.5802 11.846163,51.9493 5.14547,23.4264 10.26008,46.8602 15.4248,70.282 0.3662,1.3905 0.7349,2.7804 1.10206,4.1706 -0.012,-0.033 0.29465,1.0969 0.40456,1.5088 0.2115,0.7862 0.423,1.5723 0.6345,2.3584 -0.0214,-0.097 0.29882,1.087 0.41048,1.4891 1.621,5.9411 3.31416,11.8623 5.05046,17.7707 -0.005,-0.035 0.32415,1.0885 0.44704,1.4968 6.75635,22.7855 14.30985,45.3268 22.22483,67.7336 0.0206,0.046 0.38376,1.0785 0.53217,1.4925 4.28192,12.0838 8.66124,24.133 13.11627,36.154 0.0855,0.2399 0.41822,1.1245 0.59892,1.6126 5.63365,15.2012 11.43896,30.3381 17.13281,45.5166 8.01516,21.5362 15.69662,43.1952 23.13473,64.9372 10.04972,28.767 20.6977,57.3671 33.40698,85.0801 -0.0627,-0.1495 0.46976,1.014 0.64298,1.3849 8.96588,19.3911 18.95341,38.34 30.44486,56.3607 29.79291,46.6494 70.98064,86.1972 119.54474,112.912 32.04113,17.6619 67.2615,29.6295 103.51336,34.6988 31.14717,4.358 62.92112,3.8592 93.99069,-0.9041 37.30545,-5.7176 73.56548,-17.5269 107.54872,-33.8622 35.7209,-17.1342 68.96821,-39.2543 99.11755,-64.9196 36.59627,-31.1057 68.78419,-67.0434 98.44652,-104.7248 27.21896,-34.5759 52.36534,-70.7244 76.7874,-107.3118 9.38055,-14.246 18.75795,-28.5013 27.55679,-43.1172 7.33269,-12.0932 14.68589,-24.1747 21.88039,-36.3509 13.4444,-22.8517 26.0943,-46.1565 38.7614,-69.4439 34.1336,-62.635 68.2682,-125.2694 102.4033,-187.9035 3.0403,80.7448 6.0438,161.4911 9.1194,242.2346 0.4954,11.6843 1.1999,23.3603 2.1657,35.0154 -0.013,-0.2067 0.096,1.1053 0.1324,1.5081 1.8529,22.1023 4.8891,44.1004 8.9423,65.9048 7.6856,40.7118 20.6466,80.6642 40.6876,117.0272 10.3261,18.7682 22.548,36.4971 36.4985,52.7565 28.3686,33.3243 62.5834,61.383 99.6398,84.5298 21.035,13.1393 42.961,24.8714 65.6425,34.9111 26.816,11.849 54.765,21.22 83.4525,27.33 8.9047,1.9846 17.8011,4.0587 26.8368,5.3703 11.4037,1.7227 22.8845,2.8976 34.3778,3.8269 26.6823,1.9514 53.4976,0.562 80.0629,-2.2867 24.5426,-2.6688 48.984,-7.204 72.3988,-15.1539 29.6894,-10.0272 57.8573,-25.2604 81.2833,-46.2059 16.8544,-15.0499 31.0897,-33.0477 41.6806,-53.0165 6.8235,-12.833 12.3588,-26.3311 16.8807,-40.1366 6.2042,-19.0695 10.4774,-38.7376 13.28,-58.5838 0.3118,-2.2959 0.6003,-4.5949 0.8656,-6.8966 -0.036,0.3465 0.1185,-1.0557 0.1563,-1.3869 2.7093,-24.5782 2.6363,-49.3779 1.2842,-74.0413 -0.2,-3.811 -0.456,-8.0374 -0.6813,-11.5798 -0.2329,-3.9365 -0.552,-7.8743 -0.7306,-11.8102 6.0011,-63.3432 12.0032,-126.6863 18.0046,-190.0294 34.2717,53.7451 68.5442,107.4896 102.8164,161.2344 11.6038,27.3117 24.3568,54.1442 38.5096,80.2302 27.8349,51.3693 61.1462,99.925 100.54,143.141 9.9038,10.9359 20.2411,21.5065 31.4092,31.1614 34.6697,30.2175 75.9235,53.0168 120.258,65.4133 20.2256,5.6772 41.0587,9.1637 62.0266,10.4314 21.8407,1.4512 43.7802,1.0515 65.5887,-0.7348 -0.1662,0.016 1.1128,-0.092 1.5203,-0.1256 0.564,-0.048 1.4229,-0.1166 1.5344,-0.1303 0.9941,-0.088 1.9882,-0.1757 2.9824,-0.2636 -0.025,0 1.132,-0.1049 1.5579,-0.1437 26.9571,-2.5871 54.0034,-5.6113 80.2828,-12.3828 13.9332,-3.7128 27.7201,-8.0099 41.2147,-13.0983 21.0384,-7.9214 41.3557,-18.0331 59.6353,-31.1843 8.6711,-6.1875 16.7816,-13.1139 24.7924,-20.1226 20.349,-18.028 39.1522,-37.794 56.2422,-58.9338 7.9533,-9.9511 15.0917,-20.5245 21.8112,-31.3387 12.8456,-19.7861 25.9799,-39.3824 39.2168,-58.9084 24.4613,-36.447 44.8571,-75.5328 61.8735,-115.9674 31.1545,-73.0217 62.3095,-146.0432 93.465,-219.0645 9.5384,82.774 19.0415,165.5521 28.613,248.3221 2.9819,24.8354 6.5486,49.6138 11.3264,74.172 -0.019,-0.1172 0.2191,1.1029 0.3009,1.5094 7.2656,36.6795 17.3564,73.035 33.2827,106.9666 12.7864,27.2853 29.5008,52.8218 50.1104,74.8474 19.9072,21.125 44.0074,38.1606 70.2292,50.5399 27.4328,12.996 57.0699,21.1285 87.17,24.8169 15.5985,1.8246 31.3404,2.2844 47.0304,1.7725 39.9991,-1.4521 79.7891,-11.1185 115.6489,-28.9894 17.597,-8.7552 34.3259,-19.3582 49.3486,-32.059 13.0841,-11.0164 25.0446,-23.3594 35.7633,-36.6849 14.3521,-17.9841 26.136,-37.9229 35.8844,-58.7363 10.4974,-22.4272 18.6122,-45.8939 25.4637,-69.6667 -0.025,0.071 0.3103,-1.0871 0.4246,-1.4918 0.1677,-0.5861 0.3354,-1.1721 0.5031,-1.7582 -0.018,0.076 0.3062,-1.0879 0.4207,-1.4921 5.3123,-18.8785 9.8734,-37.9552 14.6922,-56.9627 16.3179,-64.9895 32.6348,-129.9792 48.9515,-194.969 23.1482,73.3161 46.2595,146.644 69.4399,219.9499 15.4614,47.6957 37.5369,93.4133 66.8152,134.1912 28.1014,39.212 62.7004,73.8548 102.3556,101.3782 32.6604,22.6263 68.8284,40.3228 107.0093,51.4221 18.6803,5.3952 37.8046,9.2666 57.1172,11.5252 38.6134,4.3898 78.0009,1.0279 115.488,-9.1007 28.0544,-7.5628 55.1182,-18.7828 80.3293,-33.2232 39.8436,-22.9481 74.7058,-54.7785 100.2876,-93.0514 5.3609,-7.9665 10.1599,-16.2884 15.1939,-24.4607 12.4114,-20.3976 24.8225,-40.7954 37.2336,-61.1931 20.5592,23.4425 41.0699,46.9277 61.6657,70.3381 3.6275,4.0233 7.2753,8.0377 11.1125,11.8612 5.0722,4.9948 9.9991,10.146 15.3222,14.8806 27.8849,25.4863 59.6576,46.8725 94.279,62.0886 26.7713,11.7675 55.2581,19.7142 84.3257,23.0493 27.3259,3.0812 55.0746,2.3923 82.22,-1.9973 27.6478,-4.5204 54.659,-12.8099 80.18,-24.3483 37.8949,-17.1067 72.37,-41.4744 101.8371,-70.7505 11.6311,-11.5392 22.5023,-23.8412 32.5675,-36.7682 -0.1017,0.1226 0.6842,-0.8841 0.9341,-1.2089 12.963,-16.7676 24.5152,-34.6089 34.7037,-53.1893 18.4728,-33.3767 36.9693,-66.7403 55.4521,-100.1116 21.1801,38.9697 42.4077,77.9138 63.5527,116.9024 8.7543,16.8702 18.3251,33.3282 28.9639,49.0836 23.2365,34.4828 51.3562,65.876 84.281,91.3744 29.5253,22.8702 63.0002,40.9549 98.9441,51.3695 20.1219,5.827 40.9496,9.312 61.8941,10.0346 9.0351,0.3111 18.0747,0 27.1005,-0.4266 3.4269,-0.13 6.8553,-0.2088 10.2832,-0.3027 0.8842,-0.021 2.0577,-0.059 3.0515,-0.084 14.1385,-0.3452 28.2864,-1.04 42.3253,-2.8178 34.6368,-4.0187 69.1648,-10.4096 102.2038,-21.76 13.6682,-4.7073 27.0769,-10.1296 40.4296,-15.6585 4.0288,-1.688 8.0494,-3.3953 12.0621,-5.1214 0.085,-0.033 1.0538,-0.4557 1.4644,-0.6323 24.9484,-10.7921 49.5731,-22.3911 73.3749,-35.5388 32.3296,-17.8258 63.2734,-38.1914 92.2583,-61.0652 -0.059,0.039 0.8858,-0.7036 1.2149,-0.9665 45.6374,-36.169 86.3179,-78.7126 119.6353,-126.5089 19.2288,-27.5852 36.0225,-56.8763 50.0198,-87.4521 8.1957,-18.0429 14.9682,-36.8333 18.7604,-56.3218 3.8989,-19.6721 5.0878,-40.0356 1.9433,-59.9031 -2.884,-18.3066 -9.2655,-35.9779 -18.0439,-52.2664 -9.5651,-17.5524 -22.677,-33.0781 -37.9882,-45.8917 -10.0235,-8.4472 -20.97,-15.7438 -32.3487,-22.2296 -26.6893,-15.6383 -53.3786,-31.2766 -80.0679,-46.915 26.8353,-20.3491 53.71,-40.6464 80.5158,-61.0342 23.6674,-18.3517 44.903,-39.8965 62.5258,-64.1293 18.906,-25.8657 33.7889,-54.627 44.2779,-84.8897 8.2598,-23.675 14.0868,-48.1584 18.0966,-72.896 2.8647,-19.423 3.0613,-39.10486 3.1032,-58.69922 -0.035,-28.28808 -2.1871,-56.69811 -8.3989,-84.34429 -11.5321,-50.78394 -33.2274,-99.23069 -63.4148,-141.66442 -28.0892,-39.54733 -63.5016,-73.89113 -103.9762,-100.63796 -29.6626,-19.63293 -62.0362,-35.15318 -95.9051,-46.02203 -29.7193,-9.80804 -59.4387,-19.61573 -89.1582,-29.42311 22.2074,-25.55394 44.4631,-51.06605 66.6348,-76.65087 16.6658,-19.53529 31.5011,-40.69423 43.5048,-63.41549 17.7263,-32.94735 32.6211,-67.70447 41.01,-104.26531 5.3217,-23.24942 7.9659,-47.1782 7.0359,-71.03356 -1.0499,-22.92115 -5.7808,-45.71127 -14.2942,-67.03287 -8.4879,-21.1966 -21.0419,-40.94709 -37.7135,-56.64895 -11.8258,-11.1846 -25.611,-20.24277 -40.4522,-26.90378 -6.3746,-2.87492 -12.5623,-6.2177 -19.2305,-8.39394 -3.4328,-1.14694 -6.949,-2.09134 -10.5154,-2.69255 -2.0021,-0.0385 -3.9824,-0.2917 -5.9538,-0.629539 -5.0613,-0.895053 -10.1993,-1.344808 -15.3287,-1.659313 -4.3981,-0.246055 -8.8044,-0.331514 -13.209,-0.283203 z"
     transform="matrix(0.06299338,0,0,0.06299338,-10.705221,-13.040197)"
     sodipodi:nodetypes="sccccccccccccccccccccccccccccccccccccccccccccccscccccccccccccccccccccccccccccccccccccccccccccccccccccccccccccccccccccccccccccccccccccccccccccccccccccccccccccccccccccccccccccccsccccccccccccccccccccccccccccccccccccccccccccccccccccccccccccccccccccccccccccccccscccccccccccsccccccccccccccccccccccccccccss" />
  <path
     style="fill:#ffff00;stroke-width:0.0629933"
     sodipodi:type="inkscape:offset"
     inkscape:radius="1.7832699"
     inkscape:original="M 340.78125 0 C 340.38543 0 340.19263 0.037678321 339.78711 0.19335938 C 339.12307 0.44827947 338.87313 0.59909923 337.90039 1.3261719 C 336.23344 2.5721306 334.28812 3.7010765 332.32422 4.5625 C 329.71876 5.7053266 327.71727 6.4369822 326.13867 6.8261719 C 324.8297 7.1488917 323.0816 7.5531336 322.15039 7.7480469 C 319.98403 8.2014898 318.83506 8.6605506 317.36328 9.6601562 C 316.63339 10.15588 315.22998 11.552683 314.66602 12.345703 C 314.07032 13.183341 313.5837 14.204283 313.34961 15.105469 C 313.17172 15.790316 313.15757 15.923337 313.1543 16.976562 C 313.15037 18.227428 313.24852 18.823474 313.61133 19.757812 C 314.42496 21.853188 316.24062 23.089751 319.00195 23.427734 C 319.31377 23.465895 319.63995 23.507021 319.72656 23.519531 C 320.15886 23.581977 321.87114 23.548795 322.62305 23.462891 C 324.38689 23.26137 325.60273 22.982082 327.56836 22.330078 C 329.28725 21.759922 330.30097 21.31088 331.59961 20.544922 C 332.87558 19.792331 333.80105 19.148557 335.22266 18.023438 C 338.54123 15.396973 339.93954 13.883329 341.25 11.496094 C 342.92755 8.4401235 343.60485 6.2754487 343.59766 4.0019531 C 343.59167 2.1076005 342.94631 0.76098697 341.79883 0.24804688 C 341.62866 0.17197678 341.44102 0.084829172 341.38086 0.0546875 C 341.32069 0.024551497 341.05102 0 340.78125 0 z M 195.77539 1.3925781 C 194.52614 1.4157154 193.26127 1.6394889 192.07031 2.0625 C 190.41536 2.650307 188.76109 3.6694701 187.62109 4.8027344 C 185.88134 6.5321964 185.19988 8.4814814 184.98438 12.345703 C 184.83933 14.946391 184.93956 15.955658 185.44141 16.935547 C 185.87043 17.773254 186.63765 18.463065 187.72461 18.990234 C 189.09548 19.655114 191.03165 20.143428 192.69922 20.244141 C 193.37124 20.284727 195.01419 20.21588 195.62891 20.121094 C 197.26686 19.868536 198.63901 19.444513 200.01562 18.765625 C 202.69931 17.442134 204.6031 15.596437 205.36133 13.582031 C 206.61881 10.2412 205.54878 6.3917294 202.65234 3.8320312 C 201.83497 3.1096831 200.38414 2.263519 199.38672 1.9277344 C 198.25783 1.547691 197.02464 1.3694408 195.77539 1.3925781 z M 228.13477 1.6621094 C 226.23052 2.060893 224.87282 2.7756258 223.59375 4.0546875 C 221.88021 5.7682248 220.93515 8.214303 220.94922 10.898438 C 220.95692 12.367404 221.15694 13.424326 221.69141 14.833984 C 222.17417 16.107301 222.65321 17.01474 224.28711 19.748047 C 226.05802 22.710554 227.26109 25.468945 227.98438 28.220703 C 228.8903 31.667318 229.24931 34.518501 229.24805 38.267578 C 229.24718 40.844221 229.12436 42.559913 228.76172 45.072266 C 228.44874 47.2405 228.08665 48.996238 227.47656 51.308594 C 227.26526 52.109459 227.12722 52.598465 226.52734 54.646484 C 225.17966 59.247567 224.52007 61.896205 223.98047 64.882812 C 223.90849 65.281239 223.82195 65.748643 223.78906 65.921875 C 223.43225 67.801627 223.03999 70.965986 222.80664 73.828125 C 222.68488 75.321571 222.60004 79.696956 222.66602 81.134766 C 223.00826 88.593697 225.12152 94.419377 229.03516 98.695312 C 231.19397 101.05398 233.74573 102.75104 236.50391 103.66406 C 237.44236 103.97471 237.90523 104.08554 238.96875 104.25195 C 241.52123 104.65136 244.50061 104.12739 247.02539 102.83594 C 250.10056 101.26295 252.19524 98.79647 253.03906 95.75 C 253.30971 94.772873 253.35919 94.301514 253.35742 92.757812 C 253.35539 90.949816 253.24118 90.1401 252.70117 88.126953 C 252.58647 87.699354 252.20255 86.515365 252.00781 85.986328 C 251.89941 85.691841 251.7874 85.379585 251.75977 85.292969 C 251.71362 85.14833 251.17976 83.827864 250.23047 81.513672 C 249.26049 79.149029 248.6383 77.236845 248.33203 75.685547 C 247.85175 73.252795 247.7924 69.499807 248.16797 65.292969 C 248.42875 62.371956 248.754 59.471284 249.13672 56.662109 C 249.22917 55.983577 249.2708 55.680778 249.70898 52.537109 C 249.8273 51.688281 250.02422 50.212544 250.14648 49.259766 C 250.26874 48.306995 250.39861 47.316487 250.43359 47.056641 C 250.49819 46.576772 250.54843 46.108486 250.71875 44.472656 C 250.90946 42.6409 250.99648 41.645642 251.0625 40.535156 C 251.09957 39.911525 251.14276 39.341916 251.1582 39.269531 C 251.26118 38.78703 251.31036 33.991198 251.23242 32.03125 C 250.82674 21.829831 247.62408 13.41855 241.92969 7.5976562 C 238.69702 4.2931787 235.24992 2.2947172 231.69336 1.6621094 C 230.81107 1.505307 228.88386 1.5052377 228.13477 1.6621094 z M 87.941406 4.8066406 C 85.979586 5.1580413 84.358713 5.7866251 83.246094 6.625 C 82.197318 7.4152732 81.4373 8.4225608 80.855469 9.7949219 C 80.764154 10.010314 80.616632 10.529161 80.498047 11.054688 C 80.327411 11.810888 80.341822 13.546439 80.525391 14.373047 C 80.939068 16.235828 81.727981 17.692023 83.029297 18.994141 C 84.602523 20.568331 86.613809 21.509375 89.013672 21.796875 C 89.728526 21.882514 91.508614 21.81664 92.257812 21.675781 C 93.860356 21.374466 95.285956 20.812283 96.246094 20.105469 C 97.675828 19.052962 98.629162 17.575092 99.871094 14.480469 C 100.57608 12.723806 100.6565 12.409773 100.66016 11.402344 C 100.66296 10.633897 100.64766 10.5107 100.5 10.126953 C 100.22708 9.4176761 99.943249 9.0072644 99.21875 8.28125 C 97.442792 6.5015886 95.078341 5.3389578 92.162109 4.8085938 C 91.269481 4.6462228 88.843615 4.6450382 87.941406 4.8066406 z M 281.77344 8.7988281 C 279.66566 8.7948847 277.63225 9.2049015 276.17188 9.9296875 C 275.27536 10.374633 274.76757 10.746034 273.99219 11.523438 C 272.71481 12.804156 272.1485 13.718439 269.66211 18.519531 C 268.9028 19.985708 267.75673 22.491047 267.41406 23.433594 C 266.8103 25.094305 266.51477 26.055957 266.15039 27.558594 C 265.27782 31.156934 264.85027 35.07086 264.70312 40.787109 C 264.6844 41.51468 264.65461 42.407699 264.63672 42.771484 C 264.61882 43.13527 264.56196 45.559739 264.51172 48.158203 C 264.46148 50.756665 264.40665 53.165256 264.38867 53.511719 C 264.3707 53.858182 264.3407 54.894379 264.32227 55.8125 C 264.27321 58.256124 264.17547 62.586616 264.06445 67.277344 C 263.9025 74.120434 263.88062 79.172866 264.00391 81.072266 C 264.14017 83.171782 264.40706 85.362342 264.67578 86.583984 C 265.22006 89.058349 265.73653 90.657617 266.5293 92.326172 C 267.53984 94.453053 268.9994 96.514697 270.53711 97.988281 C 273.00567 100.3539 275.88281 101.73223 278.74805 101.92188 C 279.85975 101.99546 280.96347 101.9213 282.02539 101.70117 C 286.39504 100.79538 290.19352 97.734302 292.53711 93.228516 C 293.81289 90.775676 294.76515 87.702413 295.06445 85.072266 C 295.35854 82.487914 295.02374 80.831759 293.51953 77.417969 C 293.34129 77.013451 292.83333 75.767342 292.67188 75.339844 C 292.62608 75.218582 292.52459 74.963961 292.44727 74.773438 C 292.04404 73.779875 291.08551 70.949593 290.6543 69.480469 C 290.43796 68.743422 290.17816 67.824787 290.125 67.609375 C 290.09262 67.478166 289.97798 67.030984 289.87109 66.615234 C 289.64835 65.748843 289.17494 63.610216 289.01953 62.773438 C 288.68502 60.972194 288.54689 60.103358 288.35938 58.583984 C 287.42885 51.044598 287.95021 43.943634 289.9082 37.449219 C 290.58306 35.210804 291.15688 33.762187 292.74805 30.298828 C 293.85273 27.894364 294.33008 26.516028 294.63086 24.851562 C 294.79065 23.967139 294.79292 21.391924 294.63477 20.566406 C 294.31131 18.877978 293.92977 17.695151 293.30273 16.441406 C 290.94771 11.732643 286.5354 8.807748 281.77344 8.7988281 z M 51.564453 10.138672 C 47.894528 9.6596852 44.714753 10.239105 42.712891 11.751953 C 41.952457 12.326626 41.283885 13.136245 40.527344 14.396484 C 38.855132 17.182032 37.148261 21.858604 35.46875 28.251953 C 35.423243 28.425184 35.085686 29.771678 34.71875 31.244141 C 34.071238 33.84251 33.948404 34.315837 33.683594 35.244141 C 33.28169 36.653018 32.925085 38.212044 32.447266 40.662109 C 32.011507 42.896499 31.536289 44.973732 31.089844 46.595703 C 30.477435 48.820637 29.62447 50.431529 28.34375 51.777344 C 27.557198 52.603873 27.131841 52.769426 26.722656 52.410156 C 26.431798 52.154781 26.219977 51.690641 26.03125 50.898438 C 25.696032 49.491318 25.571614 47.765167 25.482422 43.212891 C 25.409847 39.508759 25.317698 38.739071 24.728516 36.976562 C 23.659219 33.7778 21.506165 31.237653 18.554688 29.689453 C 17.386906 29.07689 15.651241 28.483377 14.255859 28.21875 C 13.512596 28.07779 12.199971 28.147578 11.154297 28.384766 C 8.7431307 28.931671 5.8344533 30.694774 3.6132812 32.957031 C 1.6448629 34.961862 0.61888955 37.433198 0.11328125 41.386719 C -0.021732326 42.442414 -0.041372658 46.338943 0.08203125 47.716797 C 0.12547774 48.201844 0.19080812 48.939716 0.2265625 49.355469 C 0.26232381 49.771225 0.36195378 50.890976 0.44726562 51.84375 C 0.61957062 53.768026 0.70627767 54.994677 0.7578125 56.220703 C 0.83589272 58.078452 1.0770552 59.962537 1.4882812 61.921875 C 1.5573597 62.251009 1.6561138 62.718401 1.7070312 62.960938 C 1.8171996 63.485722 1.8872453 63.798068 2.2382812 65.292969 C 2.3847218 65.916603 2.5289743 66.539149 2.5585938 66.677734 C 2.5882132 66.816313 2.6566121 67.128569 2.7109375 67.371094 C 2.7652566 67.613618 2.9237264 68.393266 3.0625 69.103516 C 3.7661032 72.704459 4.6686474 75.566739 7.1542969 82.080078 C 7.5861469 83.211684 8.2480745 85.045823 8.6660156 86.269531 C 9.9414331 90.00392 10.889806 92.216223 12.025391 94.103516 C 14.474321 98.173571 17.746927 100.3336 22.050781 100.7207 C 25.199264 101.0039 28.72362 100.08379 31.955078 98.136719 C 35.794787 95.823163 39.233438 92.137414 43.791016 85.449219 C 44.610077 84.247256 44.838257 83.906304 45.591797 82.742188 C 46.008276 82.09878 46.090429 81.962483 47.310547 79.9375 C 49.451135 76.384847 51.820892 71.79299 53.435547 68.064453 C 55.48579 63.330064 57.055527 58.953287 58.398438 54.236328 C 58.796524 52.838053 59.464332 50.239308 59.716797 49.103516 C 59.770707 48.860993 59.871357 48.421446 59.939453 48.126953 C 60.745812 44.639588 61.645244 38.931859 61.984375 35.150391 C 62.275782 31.901051 62.381401 30.511875 62.494141 28.441406 C 62.904964 20.8966 61.845515 15.661181 59.408203 13.189453 C 58.002671 11.764083 54.965881 10.582609 51.564453 10.138672 z M 200.32227 26.605469 C 199.66801 26.460767 197.18483 26.466281 195.71484 26.615234 C 191.44589 27.047814 188.73445 28.15066 185.20508 30.892578 C 183.33695 32.343901 182.39912 33.513389 181.35938 35.685547 C 179.5656 39.432936 178.45388 45.561975 178.23828 52.900391 C 178.16736 55.314402 178.23221 59.70207 178.36719 61.576172 C 178.39963 62.026568 178.44431 62.678927 178.46484 63.025391 C 178.51118 63.807327 178.60644 65.124936 178.68555 66.080078 C 178.79922 67.45257 178.93517 69.010269 178.99609 69.638672 C 179.02968 69.985129 179.10114 70.736929 179.15625 71.308594 C 179.32801 73.090278 179.5754 75.549145 179.75391 77.261719 C 179.79001 77.608182 179.9036 78.855234 180.00781 80.033203 C 180.3862 84.31026 180.45354 85.028225 180.57617 86.132812 C 181.29876 92.641647 182.56923 96.705685 184.625 99.087891 C 185.95021 100.62354 187.95392 101.61197 190.43164 101.94922 C 190.7781 101.99637 191.45117 102.03692 191.92578 102.04102 C 194.18073 102.06042 196.2683 101.4639 198.02148 100.29883 C 198.67453 99.864848 199.80947 98.743103 200.29883 98.048828 C 201.16346 96.822134 201.92181 95.123229 202.54688 93.009766 C 202.867 91.927358 202.96186 91.566263 203.4043 89.759766 C 204.86172 83.80897 205.99226 77.717063 206.99805 70.394531 C 207.12178 69.493733 207.25171 68.572851 207.28516 68.347656 C 207.34478 67.946257 207.38295 67.633807 207.56836 66.111328 C 207.78225 64.35493 207.86457 63.621568 208.03906 61.890625 C 208.25017 59.796469 208.3929 58.234734 208.44727 57.417969 C 208.46802 57.106158 208.51094 56.525386 208.54297 56.126953 C 208.68449 54.366743 208.80317 52.226937 208.92188 49.292969 C 209.00314 47.284271 209.14442 45.857274 209.58203 42.615234 C 209.96772 39.757793 210.08529 37.320644 209.90039 36 C 209.66113 34.291068 208.69476 32.377668 207.16602 30.583984 C 205.63886 28.792159 202.83111 27.160349 200.32227 26.605469 z M 87.658203 29.4375 C 86.975299 29.4574 86.376658 29.511044 86.083984 29.576172 C 82.154795 30.450503 78.540007 33.678571 76.353516 38.267578 C 75.340961 40.392712 74.352572 43.513408 73.361328 47.716797 C 73.255115 48.167197 73.126604 48.706186 73.076172 48.914062 C 72.680404 50.545523 71.845433 54.76016 71.554688 56.595703 C 71.182491 58.945442 71.059361 59.78746 70.867188 61.292969 C 70.601091 63.377644 70.428952 65.078517 70.214844 67.716797 C 69.933037 71.189373 69.808091 74.871249 69.851562 78.490234 C 69.90156 82.651611 70.012031 84.104002 70.474609 86.742188 C 70.989718 89.679994 72.123316 92.39997 73.59375 94.224609 C 74.880048 95.820772 77.01842 97.612194 79.117188 98.851562 C 81.200131 100.0816 83.656071 101.08282 85.642578 101.51367 C 85.902426 101.57003 86.228602 101.64357 86.367188 101.67578 C 86.790704 101.77422 87.461625 101.86911 88.320312 101.95312 C 89.438853 102.06255 90.003867 102.06188 91.4375 101.95312 C 93.077285 101.82873 93.85094 101.71086 94.933594 101.41797 C 97.278677 100.78354 98.698249 99.759265 99.517578 98.111328 C 99.9745 97.192306 100.28495 96.175629 100.51953 94.835938 C 100.70024 93.803931 100.74288 91.063722 100.60742 89.134766 C 100.55511 88.38987 100.4821 87.270118 100.44531 86.646484 C 100.40852 86.022851 100.35145 85.088054 100.31836 84.568359 C 100.28527 84.048671 100.21589 82.928907 100.16406 82.080078 C 100.11223 81.231243 100.04112 80.083632 100.00586 79.529297 C 99.879123 77.53719 99.818971 76.557001 99.785156 75.9375 C 99.766246 75.591037 99.738291 75.181299 99.722656 75.025391 C 99.707021 74.869482 99.67717 74.429938 99.658203 74.048828 C 99.63923 73.667719 99.611955 73.200314 99.595703 73.009766 C 99.563671 72.634042 99.5357 72.226037 99.4375 70.583984 C 99.363999 69.354928 99.261434 67.700388 99.21875 67.056641 C 99.202668 66.814116 99.161196 66.090176 99.125 65.449219 C 99.08881 64.808268 99.046564 64.128055 99.03125 63.9375 C 99.015936 63.746945 98.972663 63.110472 98.935547 62.521484 C 98.898431 61.932503 98.840922 61.081262 98.808594 60.630859 C 98.565988 57.250411 98.579415 56.243142 98.904297 53.449219 C 99.141851 51.40632 99.421719 48.800757 99.46875 48.189453 C 99.718273 44.946393 99.243333 41.466933 98.085938 38.048828 C 97.475532 36.246099 96.792476 34.734593 96.15625 33.78125 C 95.678546 33.065447 94.511383 31.932086 93.683594 31.380859 C 92.345628 30.489923 90.81089 29.826639 89.421875 29.541016 C 88.843036 29.42199 88.622933 29.409392 87.658203 29.4375 z M 156.81445 30.695312 C 153.50112 30.613806 151.49863 31.082577 149.32422 32.445312 C 148.67515 32.852091 147.7818 33.510218 147.25 33.974609 C 145.91472 35.140642 143.86799 37.95942 142.74805 40.173828 C 141.93919 41.77314 141.62704 42.71774 140.70703 46.363281 C 140.05136 48.961405 139.45066 50.909146 139.24023 51.119141 C 139.10981 51.249304 138.68601 50.564305 138.31055 49.619141 C 138.07815 49.034125 137.815 48.245257 137.52734 47.275391 C 136.71359 44.531753 136.50246 43.846037 136.24609 43.087891 C 135.61229 41.213532 135.17374 40.290102 134.31055 39.023438 C 131.7558 35.27455 128.26488 32.683521 124.57227 31.791016 C 123.63353 31.564128 123.02625 31.492692 122.04883 31.494141 C 118.83326 31.498827 115.76313 33.081665 113.01562 36.152344 C 112.1704 37.096981 111.67388 37.804196 111.2207 38.708984 C 110.34285 40.461685 110.0167 42.020759 110.01367 44.478516 C 110.01192 45.909756 110.05481 46.499743 110.27734 48.064453 C 110.57004 50.122501 111.09891 52.492146 111.83008 55.025391 C 112.02008 55.683664 112.2112 56.347998 112.25586 56.503906 C 112.66578 57.934957 113.82104 61.38415 114.93555 64.505859 C 115.6499 66.506722 115.94207 67.414628 116.60352 69.701172 C 116.82401 70.463385 117.10864 71.441927 117.23633 71.875 C 117.36402 72.308079 117.57674 73.032026 117.70898 73.482422 C 118.84571 77.353991 120.27071 81.441785 121.43945 84.189453 C 123.6061 89.283168 126.21375 93.400652 129.39648 96.751953 C 131.7893 99.271516 134.16983 100.45294 137.4082 100.72461 C 138.05225 100.77865 140.4045 100.75497 141.14062 100.6875 C 143.65488 100.45706 144.33585 100.35194 145.55859 100 C 147.31233 99.495222 148.74676 98.836052 149.61328 98.136719 C 150.31961 97.566667 152.29522 95.596335 152.92773 94.832031 C 153.18806 94.517468 153.61139 93.920822 153.86719 93.507812 C 154.28294 92.836531 155.32364 91.266374 156.41211 89.669922 C 159.35197 85.358061 161.42605 80.085052 163.08984 72.693359 C 163.20336 72.189022 163.27696 71.870101 163.5293 70.773438 C 163.61699 70.392328 163.80042 69.568946 163.9375 68.945312 C 164.514 66.322661 164.73234 65.385254 165.17578 63.628906 C 165.9202 60.68046 166.10849 59.81078 166.49023 57.513672 C 167.01661 54.346286 167.21743 51.973185 167.21875 48.914062 C 167.22046 45.00533 166.8484 41.911845 165.94922 38.363281 C 165.49304 36.562978 164.71266 34.77921 163.92383 33.732422 C 163.52037 33.197025 162.63098 32.349807 162.10742 32.001953 C 160.76965 31.11314 159.33023 30.757197 156.81445 30.695312 z M 336.38867 30.695312 C 331.51923 30.633353 327.99549 31.029635 324.21094 32.066406 C 317.76243 33.832959 312.56906 37.531213 309.66602 42.421875 C 308.79573 43.888014 308.10961 45.41562 307.50391 47.234375 C 306.04842 51.604759 305.50154 56.660619 305.67578 64.158203 C 305.71363 65.786574 305.74477 68.034521 305.74414 69.154297 C 305.74323 71.937405 305.95654 74.882056 306.41016 78.363281 C 306.58961 79.740416 306.7693 80.652247 307.34961 83.119141 C 307.39851 83.327019 307.53938 83.937598 307.66211 84.474609 C 308.07266 86.27099 308.63383 88.093981 309.14844 89.304688 C 309.51668 90.171072 309.92719 90.975909 310.78125 92.505859 C 311.18749 93.233596 311.75506 94.281596 312.04297 94.835938 C 313.12223 96.913974 314.27822 98.531717 315.7207 99.980469 C 317.91925 102.18858 320.34503 103.46007 322.84375 103.71289 C 323.40938 103.77012 326.42668 103.69051 327.28516 103.5957 C 329.83833 103.31376 331.25614 103.00877 332.95508 102.38086 C 334.06902 101.96916 336.82281 100.7794 337.96289 100.2168 C 344.74924 96.867871 349.70276 92.11654 352.73438 86.048828 C 353.97244 83.57086 354.21254 82.168729 353.61719 80.896484 C 353.0388 79.660474 351.20959 78.591742 348.48242 77.896484 C 346.04792 77.275836 343.35767 77.264404 340.82812 77.863281 C 340.04061 78.049723 339.68703 78.168096 338.10742 78.765625 C 336.08261 79.531567 335.8417 79.588521 334.6875 79.589844 C 333.63738 79.591028 333.36873 79.532872 332.66211 79.144531 C 332.15753 78.867228 331.74711 78.401927 331.44727 77.769531 C 330.97029 76.763503 330.79348 75.635326 330.82812 73.820312 C 330.85085 72.629827 330.86851 72.429594 330.99023 72.099609 C 331.30465 71.247335 332.26717 69.990246 333.14648 69.279297 C 333.6933 68.837178 334.7158 68.390664 336.45117 67.839844 C 337.27225 67.579228 338.48987 67.146943 338.84375 66.990234 C 338.94769 66.944211 339.35938 66.776882 339.75781 66.617188 C 340.15625 66.457481 340.53813 66.300694 340.60742 66.269531 C 340.67671 66.238368 340.86167 66.157001 341.01758 66.089844 C 347.69202 63.214974 350.26975 61.760288 352.29492 59.722656 C 353.34213 58.669017 354.00416 57.746429 354.68945 56.382812 C 355.43398 54.90131 355.85236 53.547289 356.21289 51.464844 C 356.33144 50.780056 356.35074 50.432554 356.35352 48.789062 C 356.35689 46.784094 356.28698 46.078294 355.94531 44.662109 C 354.32351 37.939842 349.12566 32.793367 342.4668 31.316406 C 340.30146 30.836122 339.28418 30.732157 336.38867 30.695312 z M 330.03125 44.613281 C 330.88521 44.718316 331.84171 44.944561 332.92383 45.296875 C 334.4246 45.785493 335.23401 46.24434 336.04102 47.0625 C 337.15941 48.196356 337.54455 49.450289 337.14844 50.667969 C 337.05482 50.95576 336.89974 51.312462 336.80273 51.458984 C 336.59651 51.770493 336.06398 52.333461 335.69922 52.626953 C 334.81417 53.339086 333.19364 53.97822 331.78906 54.167969 C 331.04172 54.268934 330.36086 54.290848 329.86719 54.232422 C 327.34374 53.933771 325.68772 52.623935 324.97656 50.363281 C 324.81005 49.833961 324.79883 49.724429 324.79883 48.724609 C 324.79864 47.879752 324.82154 47.567169 324.91211 47.244141 C 325.31893 45.793039 326.22814 44.965251 327.74805 44.660156 C 328.42521 44.52423 329.17729 44.508247 330.03125 44.613281 z "
     xlink:href="#path3235"
     id="path3245"
     inkscape:href="#path3235"
     d="m 5579.7324,178.70117 c -8.059,0 -18.0964,1.94359 -25.9101,4.94336 -11.7979,4.52915 -20.9653,9.91769 -36.7774,21.73633 a 28.311676,28.311676 0 0 0 -0,0 c -24.5727,18.36678 -53.7793,35.33442 -82.9219,48.11719 -40.5545,17.78836 -71.1586,28.86042 -93.5977,34.39257 -20.4213,5.03475 -48.2681,11.46096 -62.33,14.4043 -36.1748,7.57178 -60.4069,17.19049 -86.1055,34.64453 -18.0973,12.29126 -37.2829,31.80177 -49.9844,49.66211 -11.5252,16.20624 -20.4201,34.56531 -25.2305,53.08399 -2.9586,11.39012 -3.9511,19.77417 -4.0039,36.73437 -0.067,21.36316 2.5624,37.47639 9.1719,54.49805 16.6989,43.00502 57.9041,69.89944 108.5117,76.09375 4.8562,0.5943 10.7014,1.35324 10.8926,1.38086 9.3888,1.3562 15.9741,0.90589 25.7051,0.71289 9.731,-0.193 19.5955,-0.60826 27.5547,-1.51758 29.4619,-3.36605 51.9688,-8.52983 84.1992,-19.2207 28.3454,-9.40217 47.4696,-17.85073 69.4687,-30.82617 a 28.311676,28.311676 0 0 0 0,0 c 21.1836,-12.49453 37.5533,-23.90116 60.6855,-42.20899 53.7994,-42.57916 80.4639,-71.28645 102.9239,-112.20117 27.7949,-50.63367 40.9134,-90.90455 40.7812,-132.68555 -0.1153,-36.45712 -13.8514,-71.282 -45.3086,-85.34375 -2.4741,-1.10604 -6.2427,-2.89557 -5.5195,-2.5332 a 28.311676,28.311676 0 0 0 -0,0 c -6.4392,-3.22535 -7.4457,-2.63036 -9.1602,-2.92578 -1.7145,-0.29543 -3.0681,-0.44342 -4.4589,-0.57031 -2.7817,-0.25378 -5.5799,-0.3711 -8.5821,-0.3711 z m -2302.4453,22.10742 c -22.8584,0.42337 -45.8719,4.48931 -67.7656,12.26563 -30.3846,10.79205 -59.3202,28.42774 -81.1133,50.0918 -32.5431,32.35066 -46.5973,74.13591 -50.1738,138.26562 -2.3657,42.41743 -0.5322,66.12669 10.3281,87.33203 10.1718,19.86142 27.7974,34.86939 49.0801,45.19141 26.2919,12.75168 58.9962,20.84028 89.6465,22.6914 15.3715,0.92837 37.308,0.10754 52.5214,-2.23828 28.3643,-4.37351 53.488,-12.0961 77.8399,-24.10547 47.206,-23.28021 83.3028,-56.45068 98.834,-97.71289 24.3522,-64.69788 3.2019,-138.30206 -50.7422,-185.97461 -17.2145,-15.21325 -39.9687,-28.57804 -61.5625,-35.84765 -21.3049,-7.17238 -44.0351,-10.38233 -66.8926,-9.95899 z m 541.6641,2.39844 c -11.9665,-1.4e-4 -22.5445,0.22481 -33.2598,2.46875 -34.2339,7.16921 -62.6334,22.02409 -86.2852,45.67578 -33.0457,33.04559 -50.532,79.45964 -50.2734,128.80469 0.1353,25.80934 4.2868,47.79846 13.6094,72.38672 8.2852,21.85258 17.2768,38.82473 43.3789,82.49023 27.0412,45.23667 44.9261,86.46018 55.6269,127.17188 13.8722,52.77706 19.1425,94.58513 19.1231,152.29101 -0.014,40.01064 -1.7983,64.99223 -7.4238,103.96485 -4.8365,33.50577 -10.2646,59.86279 -19.752,95.82226 -3.2971,12.4969 -5.3716,19.7871 -14.8848,52.2656 -21.5183,73.4652 -32.3453,116.9271 -41.1074,165.4239 -1.1318,6.2648 -2.5182,13.8086 -2.9824,16.2539 -6.038,31.8092 -12.2449,82.1543 -16.0215,128.4765 -2.2118,27.1289 -3.4913,93.0549 -2.2734,119.5977 5.6466,123.0626 41.1471,222.9887 108.4941,296.5703 37.204,40.6482 81.7787,70.5124 130.5606,86.6601 15.6342,5.1754 26.1058,7.6729 43.6367,10.4161 a 28.311676,28.311676 0 0 0 0.012,0 c 47.5761,7.4417 99.813,-2.0427 145.168,-25.2422 54.8656,-28.0645 94.2695,-73.9679 109.8301,-130.1465 4.6806,-16.8991 6.1223,-29.9624 6.0937,-55.0879 -0.034,-29.8893 -2.5884,-47.9809 -11.3926,-80.8027 -2.5191,-9.3915 -8.1081,-26.4879 -11.7734,-36.4453 -1.6521,-4.4881 -3.7923,-10.6687 -3.5235,-9.8262 -1.2029,-3.7704 -1.4563,-4.0212 -2.6367,-7 -1.1804,-2.9789 -2.7978,-7.0046 -4.8613,-12.1016 -4.127,-10.1939 -10.0261,-24.6458 -17.5703,-43.0371 -14.9805,-36.5198 -24.2594,-65.4321 -28.5645,-87.2383 -6.638,-33.6233 -7.9837,-91.9658 -2.1777,-157 4.1018,-45.944 9.2225,-91.5523 15.2363,-135.6933 1.4646,-10.7494 2.1262,-15.5101 9.0821,-65.4141 1.9042,-13.6619 5.0245,-37.0317 6.9843,-52.30468 1.9374,-15.09829 4.0088,-31.0474 4.5176,-34.82617 1.0828,-8.04332 1.943,-15.84187 4.6504,-41.8457 3.0451,-29.24772 4.4826,-45.65429 5.5586,-63.75196 0.2861,-4.81279 0.5961,-9.4378 0.8555,-12.875 0.1296,-1.71859 0.2487,-3.15412 0.332,-4.05468 0.083,-0.90056 0.7144,-3.43086 -0.2461,1.07031 1.1555,-5.41406 0.9385,-6.72965 1.1406,-10.04492 0.2022,-3.31528 0.3684,-7.2354 0.5157,-11.75196 0.2945,-9.0331 0.5069,-20.38631 0.6308,-32.48046 0.2479,-24.18832 0.1567,-50.95707 -0.5078,-67.66602 -6.6506,-167.2377 -59.5067,-308.19531 -155.7266,-406.55274 -54.3623,-55.56998 -114.3134,-91.02526 -177.7929,-102.3164 a 28.311676,28.311676 0 0 0 -0,-0.002 c -10.4999,-1.86607 -22.0297,-2.30258 -33.9961,-2.30274 z M 1599.5664,253.0957 c -14.1076,-0.006 -27.0541,0.29641 -38.5605,2.35742 -34.2378,6.13266 -63.7991,16.93031 -86.5977,34.10938 a 28.311676,28.311676 0 0 0 -0,0 c -20.6391,15.552 -36.2295,36.53632 -46.9804,61.89453 a 28.311676,28.311676 0 0 0 0,0.002 c -3.5655,8.41014 -5.1112,15.47847 -7.2188,24.81836 -4.8308,21.40876 -4.2531,44.04307 0.4121,65.05078 7.5406,33.95507 23.2784,63.1229 47.3477,87.20704 29.5101,29.52816 68.1661,47.40229 111.6641,52.61328 18.5924,2.22735 41.8055,1.21258 60.0976,-2.22656 28.7154,-5.39917 54.6221,-15.02287 74.8848,-29.93946 28.0557,-20.65338 46.6018,-50.68201 67.0195,-101.55859 11.3485,-28.27786 14.503,-41.82893 14.5664,-59.31055 0.046,-12.58936 -1.5995,-23.14651 -4.4336,-30.51172 -5.3886,-14.00418 -14.0862,-26.44263 -26.7285,-39.11133 -32.7042,-32.77244 -76.1579,-53.75232 -126.9726,-62.99414 h -0 c -11.5152,-2.09442 -24.3874,-2.39454 -38.4961,-2.40039 z m 3043.4805,65.27735 c -37.1718,-0.0695 -72.8095,6.65163 -101.5469,20.91406 -16.0388,7.96016 -28.581,17.14553 -42.0742,30.67383 -22.0823,22.13991 -34.2219,41.55913 -73.8242,118.02929 -12.7601,24.63891 -30.2892,62.473 -37.1504,81.34571 -9.7744,26.88526 -14.9976,43.94036 -20.9532,68.5 -14.4596,59.6292 -21.4116,124.11701 -23.7753,215.9414 -0.2926,11.36644 -0.7864,25.77861 -1.0352,30.83789 -0.4455,9.05617 -1.1953,45.02937 -1.9941,86.34375 -0.7963,41.18302 -1.847,82.33612 -1.9375,84.08012 -0.3526,6.796 -0.7858,22.6384 -1.0821,37.3984 -0.7771,38.7135 -2.3183,107.4563 -4.08,181.8984 -2.5774,108.9 -3.0996,187.8907 -0.918,221.502 2.2356,34.4453 6.3257,69.2642 11.2715,91.748 8.8969,40.4469 17.9439,68.6976 31.4941,97.2168 17.5318,36.8989 42.1204,71.8364 69.5938,98.1641 43.1575,41.3578 94.8275,66.7383 148.0898,70.2637 20.133,1.3326 40.2042,-0 59.6387,-4.0332 78.5884,-16.2907 145.6679,-71.1842 186.2265,-149.1621 22.058,-42.409 37.897,-93.3368 43.1309,-139.3301 5.0944,-44.7674 -2.1152,-80.2467 -26.7324,-136.1153 -2.1937,-4.9786 -10.854,-26.1796 -12.8965,-31.5878 -0.943,-2.4968 -2.4927,-6.4052 -3.8067,-9.6426 -5.2389,-12.9091 -21.113,-59.4596 -27.5312,-81.3262 -3.3694,-11.4792 -7.8967,-27.7646 -8.084,-28.5234 -0.6269,-2.54 -2.3772,-9.4064 -4.0859,-16.0528 -3.1546,-12.2702 -10.9732,-47.5012 -13.1309,-59.1191 v -0 c -5.2639,-28.3453 -7.2566,-41.0333 -10.1894,-64.7968 -14.3502,-116.2691 -6.2659,-224.89644 23.5703,-323.85941 10.4033,-34.50642 18.6379,-55.2409 43.7285,-109.85352 17.9621,-39.09652 26.793,-64.40593 32.0117,-93.28515 4.2358,-23.44395 4.5786,-54.52104 0.012,-78.35938 -5.4505,-28.45158 -12.5614,-50.67542 -23.6445,-72.83594 -41.6154,-83.20817 -121.1404,-136.8094 -208.2949,-136.97265 z M 946.08203,337.07422 c -44.5931,0.55926 -84.77124,10.95786 -115.15039,33.91601 -15.89393,12.01132 -28.84898,28.24216 -41.89648,49.97657 -29.36586,48.91723 -56.43175,124.57533 -83.42969,227.34765 -1.14365,4.35351 -6.16358,24.45044 -11.99414,47.84766 -10.2715,41.21799 -12.04229,48.06747 -16.18164,62.57812 -6.68352,23.42916 -12.5098,49.0796 -20.16797,88.34766 -6.80835,34.91039 -14.24659,67.36011 -21.05664,92.10156 -7.08124,25.72678 -15.62749,43.80377 -27.36719,59.10352 -3.14776,-18.39293 -4.87428,-45.39586 -6.05859,-105.8418 -1.15989,-59.19965 -3.58521,-77.94144 -13.43946,-107.41992 -19.16667,-57.3364 -58.56619,-103.91736 -111.68945,-131.7832 -22.09129,-11.58806 -50.57494,-21.25454 -76.12305,-26.09961 -19.49839,-3.69786 -40.38335,-1.77508 -60.78906,2.85351 -46.2921,10.50006 -94.88757,40.88932 -133.65039,80.36914 -35.94773,36.6127 -54.98446,83.97042 -63.43359,150.03711 -3.21395,25.13031 -3.00045,79.77309 -0.59571,106.62305 0.68576,7.65595 1.7155,19.36725 2.27735,25.90039 0.57821,6.72222 2.14746,24.45066 3.5039,39.59956 2.71556,30.3269 4.05448,49.2476 4.84961,68.1641 1.30863,31.136 5.36004,62.6319 12.17969,95.125 1.09636,5.2237 2.65385,12.6482 3.46289,16.502 1.78949,8.5242 3.01763,13.8998 8.5957,37.6543 2.30919,9.8339 4.78043,20.619 4.95704,21.4453 a 28.311676,28.311676 0 0 0 0,0 c 0.52378,2.4506 1.59812,7.3305 2.48046,11.2696 0.59425,2.6532 3.24117,15.6092 5.41602,26.7402 a 28.311676,28.311676 0 0 0 0,0 c 11.50176,58.8645 26.65896,106.8163 66.28906,210.6622 6.65761,17.4453 17.17758,46.5931 23.6543,65.5566 20.52948,60.1098 36.39627,97.4482 55.87109,129.8145 42.33878,70.3658 104.46418,111.7723 180.86914,118.6445 57.3017,5.1541 118.65422,-11.3786 174.37305,-44.9512 65.93962,-39.7309 123.31428,-102.0682 196.66992,-209.7168 13.03695,-19.1316 16.94997,-25.0214 28.94922,-43.5586 6.66299,-10.2935 8.40323,-13.1189 27.77735,-45.2734 34.78312,-57.7282 72.67192,-131.1847 98.94722,-191.8594 32.9792,-76.1549 58.403,-146.9583 80.0508,-222.9961 6.568,-23.0699 17.0164,-63.6941 21.3321,-83.10936 0.821,-3.69385 2.412,-10.69573 3.4687,-15.26563 13.2871,-57.46455 27.5212,-147.90681 33.0762,-209.84765 4.6357,-51.69117 6.3595,-74.34835 8.164,-107.48828 6.704,-123.11921 -7.2487,-212.98828 -57.0937,-263.53711 a 28.311676,28.311676 0 0 0 -0,0 c -31.1385,-31.57806 -82.7728,-49.01394 -141.01364,-56.61524 -15.81044,-2.06352 -31.21681,-3.00675 -46.08203,-2.82031 z M 3318.2188,599.37305 c -14.8488,0.0297 -31.0012,0.62433 -44.2305,1.96484 -71.376,7.23264 -122.6635,28.13957 -181.3301,73.7168 -31.8478,24.74207 -51.5759,49.33143 -69.2383,86.23047 -31.7006,66.22591 -48.8021,165.78598 -52.2949,284.67184 -1.1705,39.8395 -0.2059,108.3283 2.1172,140.5821 0.5042,7.0003 1.1951,17.397 1.5058,22.6406 0.7598,12.8227 2.2704,33.7256 3.5489,49.1621 1.8123,21.8815 3.9563,46.4729 4.9668,56.8965 0.5321,5.4883 1.6844,17.4139 2.5586,26.4824 2.7361,28.3823 6.6492,67.4256 9.4941,94.7188 0.4887,4.6897 2.3599,24.9309 4.0078,43.5585 6.0081,67.9116 7.1075,79.7179 9.0781,97.4688 11.7296,105.6565 31.6987,175.5233 70.9707,221.0312 26.3418,30.5247 65.1787,48.8848 109.8047,54.959 8.1258,1.106 18.3041,1.659 27.2735,1.7364 40.9409,0.3523 79.9334,-10.628 112.6816,-32.3907 16.4933,-10.9606 32.2596,-26.8433 43.6406,-42.9902 16.3306,-23.1689 29.1703,-52.7183 39.6875,-88.2793 5.1344,-17.3603 6.9236,-24.1306 13.9629,-52.873 23.3934,-95.5175 41.5319,-193.3254 57.5996,-310.3047 1.9584,-14.2572 4.062,-29.2796 4.4942,-32.1895 0.992,-6.6782 1.6734,-12.0496 4.6191,-36.2383 3.4052,-27.9618 4.7489,-40.0199 7.5274,-67.582 3.3646,-33.3774 5.6329,-58.1103 6.5547,-71.959 a 28.311676,28.311676 0 0 0 0,-0 c 0.3113,-4.6788 1.0009,-13.9504 1.496,-20.1094 2.2922,-28.5097 4.1893,-62.8431 6.0821,-109.62501 1.2585,-31.10733 3.3367,-52.18338 10.2441,-103.35742 6.3065,-46.7226 8.8508,-85.38795 5.0254,-112.71094 -4.8464,-34.61684 -22.9942,-68.86569 -49.8926,-100.42578 -29.8469,-35.01969 -77.1553,-62.06655 -124.0644,-72.44141 -12.6394,-2.79542 -23.042,-2.37151 -37.8906,-2.34179 z M 1579.459,646.01758 c -5.5422,-0.32647 -10.9372,-0.21497 -18.7852,0.0137 -11.7984,0.3438 -20.8084,0.72427 -30.3242,2.8418 -73.209,16.29062 -136.1813,74.32504 -173.8848,153.45703 -17.6267,36.99482 -33.5083,87.90636 -49.4902,155.67773 -1.6755,7.10511 -3.7303,15.73213 -4.4805,18.82422 -6.7665,27.89357 -19.7201,93.40417 -24.5976,124.19727 -5.9208,37.379 -7.9578,51.2994 -11.0332,75.3926 -4.2742,33.485 -7.0869,61.1642 -10.5059,103.2929 -4.55,56.0674 -6.5385,115.303 -5.8379,173.629 0.7987,66.4778 2.7815,92.6757 10.2989,135.5488 8.8844,50.6705 27.856,97.5234 55.3613,131.6543 23.5459,29.218 58.9863,58.598 95.3379,80.0644 35.657,21.0565 76.2806,37.8254 111.9804,45.5684 4.0052,0.8687 9.3057,2.0501 11.0899,2.4648 a 28.311676,28.311676 0 0 0 0,0 c 9.21,2.1407 20.3738,3.6147 34.6524,5.0117 18.6763,1.8271 31.0767,1.8355 54.3965,0.067 26.7123,-2.0265 42.1176,-4.3705 60.7246,-9.4043 41.8607,-11.3248 74.0012,-33.5651 90.7305,-67.2129 8.677,-17.4524 14.4169,-36.6568 18.455,-59.7188 4.2089,-24.0364 4.0485,-64.4684 1.7383,-97.3652 -0.8203,-11.6819 -1.981,-29.4929 -2.5527,-39.1856 -0.5874,-9.9574 -1.4925,-24.7916 -2.0235,-33.1308 -0.5211,-8.1846 -1.6259,-25.9756 -2.4472,-39.4258 -0.8245,-13.5001 -1.954,-31.7119 -2.5176,-40.5723 -2.0106,-31.6042 -2.9626,-47.1159 -3.4883,-56.7461 -0.3176,-5.8192 -0.6952,-11.7682 -1.0976,-15.7812 -0.059,-0.592 -0.6072,-8.348 -0.8926,-14.082 a 28.311676,28.311676 0 0 0 0,-0 c -0.3149,-6.3248 -0.7339,-13.3909 -1.084,-17.4961 v -0 c -0.4726,-5.5435 -0.8761,-11.7392 -2.4336,-37.7832 -1.1702,-19.5679 -2.7951,-45.7595 -3.4863,-56.1836 -0.2286,-3.4464 -0.9188,-15.1011 -1.4903,-25.2207 -0.5806,-10.2839 -1.1892,-20.4165 -1.5312,-24.6719 -0.1774,-2.207 -0.8968,-12.7505 -1.4805,-22.0137 -0.5956,-9.4518 -1.4936,-22.9193 -2.0195,-30.2461 -3.8173,-53.1891 -3.6771,-65.0517 1.4004,-108.7168 3.7958,-32.6431 8.126,-72.46227 9.0586,-84.58397 4.2904,-55.76324 -3.8639,-114.68526 -23.3555,-172.25 v -0.002 c -10.2079,-30.14691 -21.3401,-55.5454 -33.9102,-74.38086 -11.7484,-17.60413 -29.2977,-34.08646 -47.1152,-45.95117 a 28.311676,28.311676 0 0 0 -0,0 c -24.1636,-16.09025 -51.1476,-27.90234 -77.6192,-33.3457 -5.0947,-1.04762 -10.202,-1.90425 -15.7402,-2.23047 z m 1060.4961,19.91015 c -45.169,0.91846 -80.7316,10.93287 -114.5742,32.14258 -12.0576,7.55659 -26.2294,17.97717 -36.5059,26.95117 -27.4236,23.94774 -58.4306,68.03535 -78.1133,106.95313 -13.5324,26.75698 -19.8756,45.87526 -34.5351,103.95117 -8.8013,-29.56823 -12.9982,-43.34343 -16.5977,-53.98828 -10.4309,-30.84739 -19.3786,-49.67669 -34.1641,-71.37305 -43.8913,-64.40713 -104.4873,-110.25953 -171.3164,-126.41211 -16.2918,-3.93767 -29.833,-5.53093 -46.7461,-5.50586 -60.316,0.0879 -117.094,30.44279 -164.4746,83.39649 h 0 c -14.4257,16.12242 -24.4521,30.29986 -32.709,46.78515 a 28.311676,28.311676 0 0 0 -0,0 c -15.6878,31.3221 -22.1052,62.71921 -22.1563,104.22461 -0.028,23.30358 0.8768,35.62799 4.4766,60.93946 4.8885,34.37361 13.5649,73.12091 25.4687,114.36331 3.0143,10.4434 6.0855,21.1003 6.7578,23.4472 7.0678,24.6738 25.2502,78.7797 43.0801,128.7207 11.2476,31.5036 15.4999,44.7613 25.9395,80.8496 3.5126,12.1427 8.0233,27.6277 10.0898,34.6368 2.0229,6.8612 5.4006,18.3383 7.4941,25.4687 18.3278,62.4227 41.0493,127.7999 60.3204,173.1055 35.4467,83.3344 78.6602,151.832 131.8398,207.8281 41.4041,43.5972 88.3007,66.9804 145.3652,71.7676 16.6072,1.3933 47.623,0.9242 64.1856,-0.5938 40.2376,-3.6879 54.7433,-5.9768 75.3847,-11.9179 30.1915,-8.6901 55.4396,-19.522 74.3106,-34.752 15.9325,-12.8585 43.3907,-40.3997 56.668,-56.4433 5.7279,-6.9213 12.1619,-16.0788 17.1562,-24.1426 5.8622,-9.4652 22.5835,-34.7297 39.7305,-59.8789 49.2295,-72.2045 83.3525,-159.786 110.2383,-279.2305 1.793,-7.9661 2.9372,-12.9671 6.9414,-30.3691 1.448,-6.2932 4.3512,-19.2787 6.5468,-29.2676 9.1336,-41.551 12.4647,-55.8503 19.459,-83.5528 11.866,-46.9975 15.2089,-62.5855 21.3242,-99.3847 8.5397,-51.3862 11.9297,-91.3324 11.9512,-141.12892 0.028,-63.85431 -6.2457,-116.13818 -21.0254,-174.46485 -8.0353,-31.7114 -20.5529,-61.78776 -36.9765,-83.58203 -9.7994,-13.00388 -22.1258,-24.95077 -35.7871,-34.02734 -26.1355,-17.36427 -56.6492,-24.40599 -98.9805,-25.44727 -6.9409,-0.17074 -13.6119,-0.1996 -20.0664,-0.0684 z m 2841.6543,0.0312 c -65.1071,0.7939 -117.6147,7.79023 -172.4082,22.80079 -108.3399,29.67942 -197.3105,92.22999 -247.7637,177.22656 -14.8861,25.078 -26.7003,51.44853 -36.8398,81.89453 -24.5035,73.57644 -33.2521,157.59264 -30.4473,278.28324 0.5951,25.603 1.0839,61.4112 1.0742,78.6445 a 28.311676,28.311676 0 0 0 0,0.01 c -0.015,45.6304 3.4821,93.6812 10.8008,149.8476 2.9556,22.6818 6.1683,38.9209 15.4375,78.3242 0.7175,3.05 2.972,12.8351 4.9121,21.3242 6.8383,29.9216 15.8639,59.6345 25.1387,81.4551 6.3397,14.9156 13.5147,28.9262 27.25,53.5313 6.2786,11.2475 15.3459,28.0035 19.6308,36.2539 18.1757,34.9958 38.4504,63.4746 63.4434,88.5762 38.417,38.5841 83.0073,62.6539 130.3047,67.4394 10.8117,1.0939 21.9396,0.5093 37.1035,0.1094 15.1639,-0.3999 29.8019,-0.9393 39.3535,-1.9942 41.596,-4.5934 67.7149,-10.1285 96.707,-20.8437 20.0976,-7.4278 62.1026,-25.6073 82.2129,-35.5313 112.3576,-55.4461 196.3027,-135.5826 247.2989,-237.6504 10.4532,-20.922 17.5024,-38.447 20.5,-55.9355 2.9975,-17.4885 0.8678,-35.455 -6.168,-50.4902 -16.2392,-34.7027 -53.0775,-51.0564 -100.1641,-63.0606 -43.4009,-11.0645 -90.4016,-11.2089 -135.0156,-0.6465 -13.2381,3.1341 -21.4572,5.8273 -46.6973,15.375 -31.8916,12.0639 -26.9404,11.2555 -44.3144,11.2754 -15.5958,0.018 -8.8575,1.7048 -18.4844,-3.5859 -2.0028,-1.1007 -4.5642,-3.2777 -7.3379,-9.127 v -0 c -5.2222,-11.0152 -7.6199,-23.2794 -7.1094,-50.0274 0.1781,-9.3286 0.3922,-14.5836 0.5879,-16.6425 0.1955,-2.0562 -0.2222,-0.099 0.2637,-1.4141 v -0 c 1.6424,-4.4496 16.344,-25.2172 25.4434,-32.5742 2.4802,-2.0053 16.8194,-9.4751 43.2343,-17.8593 13.949,-4.4276 30.9216,-10.1768 40.8965,-14.5938 -0.2509,0.1111 7.3803,-3.0639 13.5703,-5.5449 a 28.311676,28.311676 0 0 0 0,0 c 6.4314,-2.578 10.1932,-3.9968 14.5781,-5.9688 0.6009,-0.2702 3.7143,-1.6338 6.0879,-2.6562 106.7109,-45.9634 152.0261,-71.0457 187.8887,-107.1289 18.2509,-18.363 31.3702,-36.6832 43.2304,-60.2832 13.0083,-25.8844 20.7976,-51.2641 26.7989,-85.9278 2.0746,-11.9837 2.5845,-20.991 2.6289,-47.28317 0.055,-32.49548 -1.5454,-48.47532 -7.2656,-72.18554 -28.207,-116.91631 -119.1104,-207.07315 -235.3497,-232.85547 -35.3613,-7.84334 -55.7123,-9.9388 -102.2714,-10.53125 -9.8772,-0.12568 -19.4419,-0.13488 -28.7422,-0.0215 z m -91.0899,276.51172 c 13.5159,-0.28907 31.8283,2.76009 55.709,10.53516 21.7175,7.07074 28.2319,10.97626 38.1055,20.98633 12.7067,12.88237 13.6651,19.84832 10.8164,28.60551 -0.5296,1.628 -2.5356,5.4842 -2.8438,6.3691 -0.8232,0.788 -8.6987,9.5737 -10.998,11.4238 a 28.311676,28.311676 0 0 0 0,0 c -7.3409,5.9066 -31.2912,16.1758 -48.1055,18.4472 a 28.311676,28.311676 0 0 0 -0,0 c -10.1776,1.375 -19.4302,1.4539 -23.3809,0.9864 -31.8954,-3.7749 -45.5133,-14.9423 -53.9668,-41.81448 -2.4286,-7.71997 -1.5312,-1.86292 -1.5312,-17.50586 a 28.311676,28.311676 0 0 0 0,-0.006 c -0,-12.8705 0.2575,-14.03218 0.7675,-15.85156 4.2566,-15.18282 6.75,-17.58379 23.3204,-20.91016 3.6137,-0.72537 7.6028,-1.1712 12.1093,-1.26758 z m -3033.664,60.0781 c -0.1509,0.355 -0.4523,1.1105 -0.4688,1.1446 -0.021,0.043 -0.077,-0.2505 0.4688,-1.1446 z" />
  <g
     inkscape:groupmode="layer"
     id="layer3"
     inkscape:label="Offsets" />
  <g
     inkscape:groupmode="layer"
     id="layer1"
     inkscape:label="Text"
     transform="matrix(0.06299338,0,0,0.06299338,-10.705221,-13.040197)">
    <path
       style="fill:#ff0000;stroke-width:0.999998"
       d="m 3963.4944,1861.9776 c -16.883,-2.6418 -24.2207,-4.3904 -39.1184,-9.3218 -43.7852,-14.4939 -84.3036,-41.4541 -118.5741,-78.8972 -62.1278,-67.8792 -95.6628,-160.3463 -101.0959,-278.7546 -1.0473,-22.8248 0.2747,-92.2916 2.2076,-115.9996 3.7043,-45.4356 9.9549,-95.659 15.6192,-125.4995 0.522,-2.75 1.8841,-10.175 3.0268,-16.4999 8.566,-47.4115 19.0244,-89.4586 40.4185,-162.4994 9.5229,-32.5117 11.7366,-40.2863 15.0909,-52.9998 9.6849,-36.70795 15.4268,-64.57954 20.3952,-98.99961 5.7569,-39.88284 7.7008,-67.09613 7.7146,-107.99957 0.02,-59.51547 -5.6714,-104.78539 -20.0527,-159.49937 -11.4819,-43.68333 -30.5944,-87.47056 -58.707,-134.49947 -25.9377,-43.39043 -33.5429,-57.78618 -41.2067,-77.9997 -8.4845,-22.37791 -11.6491,-39.18034 -11.7713,-62.49975 -0.2233,-42.60983 14.7813,-81.43698 41.9833,-108.63887 20.3048,-20.30472 41.841,-31.65598 72.0703,-37.98655 11.8916,-2.49029 42.4939,-2.48919 56.4999,0 56.4594,10.04246 111.1965,41.78463 162.5141,94.24222 90.3967,92.40494 141.2348,225.93532 147.6749,387.87978 1.2373,31.11358 0.4568,107.25078 -1.178,114.91035 -0.2452,1.14909 -0.9275,10.18916 -1.516,20.08912 -1.0481,17.62863 -2.4261,33.42117 -5.4536,62.49975 -2.7037,25.9683 -3.5269,33.38207 -4.5524,40.99984 -0.5554,4.12498 -2.5977,19.87492 -4.5385,34.99986 -1.9409,15.12507 -5.0655,38.52497 -6.9437,51.99987 -6.956,49.9048 -7.6256,54.7283 -9.0932,65.4998 -6.0756,44.5948 -11.2453,90.6292 -15.3851,136.9994 -5.9621,66.7823 -5.0221,126.3802 2.6022,164.9994 4.8619,24.6264 14.7485,54.9616 30.1467,92.4996 15.0697,36.7371 23.5578,57.7037 24.2904,59.9998 0.4387,1.375 2.2056,6.325 3.9265,10.9999 3.0914,8.3983 9.177,27.2119 10.9978,33.9999 8.5725,31.9581 10.394,44.7983 10.4263,73.4997 0.028,24.5058 -0.7705,31.9882 -5.0669,47.4998 -13.3954,48.3618 -46.6252,87.5309 -95.4426,112.5016 -40.0802,20.5014 -87.3893,28.8135 -127.9091,22.473 z m 1331.4979,-8.5747 c -39.6665,-4.0134 -78.1917,-24.197 -113.093,-59.2501 -22.899,-22.9985 -41.2486,-48.6615 -58.3816,-81.6497 -4.5704,-8.8 -13.5863,-25.452 -20.0353,-37.0046 -13.558,-24.2875 -20.0698,-37.0541 -25.9156,-50.8077 -8.1692,-19.2196 -17.076,-48.1701 -23.5933,-76.6871 -1.9483,-8.5249 -4.1775,-18.1999 -4.9538,-21.4999 -9.2122,-39.1612 -12.0735,-53.6381 -14.9222,-75.4997 -7.201,-55.2634 -10.5784,-101.9981 -10.564,-146.1791 0.01,-17.7761 -0.4809,-53.4701 -1.0817,-79.32 -2.766,-119.0219 5.9007,-199.3007 29.0061,-268.67924 9.6154,-28.87219 20.5084,-53.11519 34.324,-76.3897 46.085,-77.63779 128.5307,-136.32956 230.8989,-164.37305 60.0787,-16.45844 116.0103,-22.75871 193.3112,-21.77512 45.9654,0.5849 62.1257,2.23619 96.4998,9.86056 105.7074,23.44631 188.2161,105.14379 213.9617,211.85777 5.4238,22.48151 6.5303,33.67147 6.4767,65.49974 -0.044,26.08994 -0.3325,31.62904 -2.2145,42.49984 -5.7233,33.0582 -12.3807,54.529 -24.1999,78.0474 -10.8788,21.647 -21.39,36.313 -38.0141,53.0392 -32.149,32.3468 -73.0551,55.4457 -179.0098,101.0834 -2.475,1.0661 -5.4,2.343 -6.5,2.8377 -1.1,0.4947 -7.175,2.9737 -13.5,5.509 -6.325,2.5351 -12.85,5.2073 -14.5,5.9379 -5.6178,2.4877 -24.9656,9.3599 -37.9999,13.4971 -27.5485,8.7441 -43.7876,15.8095 -52.4681,22.828 -13.9589,11.2861 -29.2128,31.2616 -34.204,44.7912 -1.9324,5.2384 -2.2342,8.4148 -2.595,27.3134 -0.55,28.8128 2.2592,46.7283 9.8311,62.6987 4.7599,10.0391 11.274,17.4058 19.284,21.8079 11.2174,6.1648 15.4816,7.1045 32.152,7.0857 18.3226,-0.021 22.154,-0.9454 54.2973,-13.1045 25.0758,-9.4856 30.7011,-11.3487 43.2026,-14.3084 40.1558,-9.507 82.8528,-9.3198 121.4998,0.5328 43.2929,11.037 72.3361,28.0053 81.5179,47.6266 9.4511,20.1965 5.6393,42.4377 -14.0146,81.7747 -48.126,96.3231 -126.7718,171.754 -234.5031,224.9172 -18.0985,8.9312 -61.8163,27.8284 -79.4998,34.364 -26.9702,9.9679 -49.4691,14.7823 -89.9999,19.2581 -13.628,1.505 -61.5207,2.7685 -70.4999,1.86 z m 141.9998,-786.5088 c 22.2973,-3.0122 48.0126,-13.1414 62.0625,-24.4463 5.7905,-4.6591 14.2393,-13.6113 17.5131,-18.5564 1.5399,-2.326 4.0158,-7.9672 5.502,-12.5358 6.2881,-19.3303 0.1721,-39.2418 -17.5821,-57.24143 -12.811,-12.98805 -25.6712,-20.27012 -49.4955,-28.02679 -34.3565,-11.18576 -60.6537,-14.42024 -82.1532,-10.10466 -24.1281,4.84328 -38.5486,17.98753 -45.0068,41.02334 -1.4377,5.12798 -1.8215,10.08806 -1.8185,23.49991 0,15.87183 0.1918,17.59713 2.8352,25.99993 11.2894,35.8872 37.5843,56.6926 77.6433,61.4336 7.8369,0.9275 18.6361,0.5574 30.5,-1.0454 z M 1571.9982,1825.482 c -13.6314,-1.3337 -24.2768,-2.8485 -31,-4.4112 -2.2,-0.5114 -7.3749,-1.6618 -11.4999,-2.5565 -31.5352,-6.8397 -70.5193,-22.7505 -103.5854,-42.277 -33.3173,-19.6746 -67.2707,-48.1159 -87.6903,-73.4545 -23.3427,-28.9656 -41.3438,-72.1424 -49.521,-118.7792 -7.3433,-41.8804 -9.0814,-64.9389 -9.8751,-130.9995 -0.6901,-57.4503 1.2733,-115.8732 5.7469,-170.9993 3.3989,-41.8819 6.1465,-68.906 10.3707,-101.9996 3.0507,-23.8995 5.0042,-37.2447 10.9127,-74.5461 4.6155,-29.1387 17.8657,-96.0542 24.1484,-121.95315 0.8006,-3.29998 2.8351,-11.84995 4.5212,-18.99992 15.7357,-66.72754 31.4203,-116.26354 47.4943,-149.99941 34.7099,-72.84911 92.1028,-124.12011 154.4775,-137.99986 4.6461,-1.03389 14.1591,-1.86289 25,-2.17879 15.3148,-0.4462 18.8111,-0.2402 28,1.64929 22.0502,4.53419 46.3907,15.03604 67.6305,29.17939 13.1409,8.75056 31.6774,26.74089 39.2608,38.10405 10.0999,15.13404 20.9531,39.12815 30.6431,67.74593 18.3733,54.26139 25.9042,109.51677 21.9431,160.99937 -0.7466,9.70426 -5.1803,51.056 -8.9514,83.4864 -5.1574,44.3527 -5.3705,60.3492 -1.5192,114.0128 0.5132,7.15 1.415,20.65 2.0042,29.9999 0.5892,9.35 1.2702,19.4749 1.5133,22.4999 0.2431,3.025 0.9122,13.825 1.4867,23.9999 0.5746,10.175 1.2535,21.6499 1.5088,25.4999 0.6776,10.2193 2.3073,36.4889 3.4741,55.9998 1.5589,26.0671 1.9764,32.5354 2.4849,38.4999 0.258,3.0249 0.7153,10.4499 1.0165,16.4999 0.3011,6.05 0.7505,13.0249 0.9987,15.4999 0.2482,2.475 0.6969,9 0.9971,14.5 0.5368,9.8344 1.4922,25.3757 3.5041,56.9998 0.5598,8.7999 1.6911,27.0248 2.514,40.4998 0.8228,13.4749 1.9258,31.2499 2.4511,39.4998 0.5253,8.25 1.4329,23.0999 2.0169,32.9999 0.584,9.9 1.7412,27.6749 2.5716,39.4999 2.1504,30.6216 1.4859,74.1168 -1.3828,90.4996 -3.7239,21.2672 -8.6661,37.4106 -15.9196,51.9998 -13.0066,26.1605 -35.5472,42.4181 -72.7747,52.4894 -17.1868,4.6496 -29.4408,6.5279 -55.4719,8.5027 -22.7585,1.7265 -31.7434,1.7241 -49.4999,-0.013 z m 1620.9974,-0.076 c -39.3331,-5.3538 -71.1536,-21.0251 -92.1909,-45.403 -32.6348,-37.8168 -52.7953,-102.3329 -64.2661,-205.6587 -1.9467,-17.535 -3.0088,-28.9431 -9.0156,-96.8401 -1.6543,-18.6999 -3.477,-38.4998 -4.0502,-43.9998 -2.8338,-27.1866 -6.7462,-66.2159 -9.4728,-94.4996 -0.8748,-9.075 -2.0268,-21 -2.56,-26.4999 -0.9671,-9.9757 -3.1255,-34.7119 -4.9301,-56.4998 -1.2558,-15.1626 -2.7668,-36.0868 -3.5023,-48.4998 -0.3259,-5.5 -1.0138,-15.85 -1.5288,-22.9999 -2.1428,-29.7508 -3.1832,-99.3947 -2.0573,-137.7164 3.4226,-116.49514 21.0585,-213.79335 49.5342,-273.28202 16.5056,-34.48236 31.413,-53.05819 61.069,-76.0975 56.0277,-43.52713 99.0496,-61.04026 166.8179,-67.90733 23.3356,-2.36459 62.7667,-2.44349 73.1528,-0.1464 39.8272,8.80856 84.3899,34.71936 108.633,63.16405 24.2683,28.47419 39.6053,58.85837 43.4035,85.98716 2.9352,20.96482 1.0766,59.63857 -5.0461,104.99959 -6.9469,51.4664 -9.1847,74.11211 -10.4748,105.99958 -1.8844,46.57587 -3.7681,80.55677 -6.0147,108.49957 -0.5085,6.325 -1.1942,15.55 -1.5236,20.4999 -0.863,12.9659 -3.1238,37.7557 -6.475,70.9998 -2.77,27.4782 -4.0662,39.1174 -7.4617,66.9997 -2.9433,24.1689 -3.5748,29.1278 -4.5213,35.4999 -0.531,3.5749 -2.5725,18.1999 -4.5367,32.4998 -15.9666,116.243 -33.9137,212.9537 -57.0498,307.4208 -7.0235,28.6776 -8.5326,34.3949 -13.6145,51.5778 -9.9227,33.5506 -21.9537,60.5263 -35.6795,79.9997 -7.7684,11.0214 -25.8028,28.8323 -36.1697,35.7216 -27.8312,18.4951 -60.9734,27.9683 -96.7701,27.6602 -7.5343,-0.065 -18.1988,-0.7304 -23.6988,-1.4789 z m 1401.9978,-0.4207 c -45.4847,-3.0106 -91.1855,-24.9045 -130.3732,-62.458 -24.4106,-23.3927 -47.5663,-56.1096 -63.6084,-89.8732 -12.585,-26.4878 -20.7768,-51.8705 -29.417,-91.1503 -4.2659,-19.3932 -8.5067,-54.1704 -10.6699,-87.4996 -1.9571,-30.1524 -1.6023,-110.3672 0.9687,-218.9992 1.7623,-74.4639 3.3047,-143.2075 4.0834,-181.9993 0.2926,-14.5749 0.7655,-30.9998 1.0508,-36.4998 0.2854,-5.5 1.1714,-43.7499 1.969,-84.9997 0.7976,-41.24984 1.6827,-79.72468 1.9668,-85.49966 0.284,-5.77498 0.7597,-19.94992 1.057,-31.49988 2.3359,-90.74374 9.138,-152.8766 22.9898,-209.99917 5.7844,-23.85391 10.4616,-39.13645 20.0462,-65.49974 5.4397,-14.96265 23.6306,-54.72459 35.6844,-77.9997 39.4707,-76.2159 48.4492,-90.72394 68.7272,-111.05496 12.309,-12.34105 20.3856,-18.24593 34.6175,-25.3093 23.183,-11.50576 55.4473,-18.02383 88.9077,-17.96123 75.5948,0.1416 145.644,46.57542 183.0293,121.32562 9.954,19.90282 16.0255,38.69645 21.1603,65.49974 2.5106,13.10485 2.4707,53.95979 -0.066,67.99974 -4.7748,26.42289 -12.3416,48.32951 -29.8781,86.49966 -25.2593,54.97978 -34.3944,77.96539 -45.1076,113.49955 -31.0825,103.09689 -39.335,215.81323 -24.5632,335.49873 2.9768,24.1196 5.1441,37.9055 10.4543,66.4997 2.467,13.2836 10.0075,47.2461 13.5435,60.9998 1.6968,6.5999 3.5057,13.7041 4.0198,15.787 0.8439,3.4196 4.9729,18.0124 8.4072,29.7128 6.8454,23.3219 22.0613,68.228 28.4624,84.0005 1.2275,3.0245 2.8267,7.0741 3.5537,8.9991 2.563,6.7864 10.6438,26.5783 13.4733,32.9999 23.8789,54.1929 29.1811,80.4737 24.5125,121.4995 -4.7513,41.7528 -19.8666,90.5315 -40.1193,129.4696 -37.2038,71.528 -97.4905,120.1254 -166.8574,134.5045 -16.8577,3.4944 -34.3763,4.6754 -52.0243,3.5073 z m -4074.99346,-19.067 c -68.32239,-6.1452 -120.27161,-40.4342 -159.14765,-105.0451 -18.02707,-29.9602 -33.09215,-65.0871 -53.33902,-124.3694 -6.63469,-19.426 -17.13737,-48.5358 -23.99286,-66.4997 -39.45894,-103.3973 -53.78651,-148.8353 -64.956,-205.9992 -2.20299,-11.275 -4.71109,-23.6499 -5.57339,-27.4999 -0.8624,-3.85 -1.95259,-8.8 -2.42279,-10.9999 -0.4702,-2.2 -2.7569,-12.1 -5.0816,-22 -5.57259,-23.7311 -6.70019,-28.669 -8.44908,-36.9998 -0.8083,-3.8502 -2.3668,-11.2752 -3.4634,-16.5001 -6.52809,-31.1039 -10.36158,-61.0085 -11.60108,-90.4997 -0.8181,-19.4628 -2.2029,-38.9524 -4.93819,-69.4997 -1.3543,-15.125 -2.9269,-32.8999 -3.4946,-39.4999 -0.56759,-6.59995 -1.59629,-18.2999 -2.28599,-25.99987 -1.959,-21.87301 -1.6638,-83.74677 0.4795,-100.50561 8.02638,-62.76095 24.30616,-101.96839 55.55421,-133.79447 35.26044,-35.91266 81.43567,-63.91455 119.71221,-72.59651 16.59977,-3.76529 37.45254,-4.88698 49.25162,-2.64929 22.15127,4.20088 49.71002,13.63224 68.2482,23.3565 46.85382,24.57721 81.01707,64.91065 97.99184,115.69005 9.35309,27.97929 10.83218,40.19764 11.98428,98.99961 1.4159,72.26602 3.3669,99.66189 8.68839,121.99949 2.99599,12.576 6.36959,19.9449 10.98688,23.9989 6.49569,5.7033 13.25748,3.061 25.74375,-10.0599 20.33105,-21.3644 33.8815,-46.92284 43.6033,-82.243 7.08718,-25.7483 14.63114,-58.72507 21.54868,-94.19533 7.58524,-38.89405 13.22525,-63.63415 19.60535,-85.99966 4.20379,-14.73654 6.14785,-22.25141 16.42691,-63.49975 5.825,-23.37491 11.18199,-44.74983 11.9044,-47.49982 26.66174,-101.4925 53.77711,-175.7495 80.32297,-219.96923 12.00987,-20.00592 22.62094,-32.84087 34.6926,-41.96363 31.77896,-24.01601 82.24082,-33.21427 140.49978,-25.6105 53.99664,7.04737 102.20914,25.79609 124.52154,48.42341 38.6916,39.23794 55.506,122.34841 48.9843,242.11994 -1.7897,32.86807 -3.4648,54.91729 -8.0908,106.49958 -5.3836,60.02967 -19.6625,150.63831 -32.4632,205.99919 -1.081,4.67498 -2.6656,11.64996 -3.5214,15.49994 -4.0078,18.03036 -14.6033,59.30246 -20.9228,81.49966 -21.3183,74.8803 -46.2562,144.3422 -78.8032,219.4992 -25.63216,59.1894 -63.23652,132.1019 -97.21772,188.4992 -19.369,32.146 -20.68153,34.286 -27.29301,44.4999 -11.96222,18.48 -15.57723,23.919 -28.57958,42.9998 -72.35017,106.1731 -126.93095,164.6828 -187.88517,201.4098 -51.29842,30.9091 -107.24696,45.5003 -157.22818,41.0046 z m 1831.26256,0.052 c -51.4082,-4.3127 -89.2207,-23.0555 -127.206,-63.0528 -50.5249,-53.2009 -91.9206,-118.5523 -126.3154,-199.4135 -18.5534,-43.6184 -41.1653,-108.5394 -59.2104,-169.9994 -2.0993,-7.1499 -5.4754,-18.6249 -7.5024,-25.4999 -2.027,-6.8749 -6.5493,-22.3999 -10.0496,-34.4998 -10.5003,-36.2982 -15.1335,-50.7366 -26.4737,-82.4997 -17.6925,-49.5562 -36.0167,-104.282 -42.524,-126.9995 -0.709,-2.475 -3.7568,-13.05 -6.773,-23.4999 -11.6071,-40.2145 -19.9951,-77.8287 -24.6415,-110.49959 -3.5326,-24.8393 -4.2223,-34.19787 -4.1945,-56.91838 0.048,-39.01615 5.2238,-63.75745 19.1594,-91.58104 7.194,-14.36324 15.0762,-25.5908 28.4939,-40.58664 43.6158,-48.74611 92.3716,-73.89121 143.4177,-73.96561 15.5163,-0.023 25.1522,1.1112 40.0543,4.71298 58.6192,14.16825 114.019,55.32679 154.5748,114.83925 13.703,20.10792 20.6789,34.74487 30.7404,64.49975 4.0697,12.03535 7.4037,22.94531 20.3218,66.49974 4.5665,15.39634 8.7523,27.91139 12.4415,37.19834 5.9603,15.0042 12.7034,25.8677 14.7739,23.8014 3.3404,-3.3336 12.8775,-34.25525 23.2861,-75.49969 14.6049,-57.87187 19.5477,-72.86731 32.3881,-98.25591 17.7787,-35.15306 50.2757,-79.89659 71.4728,-98.40701 8.4421,-7.37207 22.6134,-17.82683 32.9172,-24.28431 34.5181,-21.63301 66.314,-29.05638 118.9122,-27.76249 39.9372,0.9824 62.7727,6.61608 84.0095,20.72572 8.3114,5.52208 22.4421,18.98553 28.8469,27.48479 12.5225,16.61744 24.8992,44.92043 32.1409,73.49971 14.2743,56.33238 20.1855,105.44939 20.1584,167.49934 -0.021,48.56265 -3.2125,86.21815 -11.5685,136.49945 -6.06,36.4659 -9.028,50.2903 -20.8455,97.096 -7.0395,27.8815 -10.5072,42.7695 -19.659,84.4033 -2.1761,9.9 -5.0956,22.9499 -6.4877,28.9999 -4.0058,17.4092 -5.1677,22.4937 -6.9698,30.4999 -26.4123,117.3409 -59.3397,201.0494 -106.0091,269.4989 -17.2792,25.3432 -33.8098,50.2641 -40.4098,60.9205 -4.0607,6.5564 -10.7643,16.0063 -14.8969,20.9999 -10.041,12.1331 -41.4261,43.4129 -52.6388,52.4623 -13.7558,11.1017 -36.5222,21.5639 -64.3622,29.5771 -19.4107,5.5869 -30.2246,7.2721 -70.1376,10.9303 -11.6857,1.071 -49.0104,1.4344 -59.2344,0.5766 z M 5245.4924,580.37404 c -1.375,-0.1986 -6.55,-0.8569 -11.5,-1.46269 -43.8353,-5.36538 -72.646,-24.97571 -85.5622,-58.23917 -5.7594,-14.83235 -7.3155,-24.30711 -7.2532,-44.16423 0.052,-16.71964 0.2727,-18.83253 3.0967,-29.70428 3.7161,-14.30605 11.443,-30.49818 20.8995,-43.79543 8.9527,-12.58895 31.2325,-34.78077 42.8193,-42.65023 23.364,-15.86844 41.6095,-23.15551 75.9998,-30.35378 14.7826,-3.09419 42.528,-9.50517 63.3076,-14.62825 25.0598,-6.17827 56.8314,-17.81153 98.1922,-35.95356 31.1764,-13.67484 62.0375,-31.58687 88.4998,-51.36609 15.442,-11.54206 19.4358,-13.93815 29.9772,-17.98493 6.4375,-2.47139 9.48,-3.06239 15.7636,-3.06239 4.2825,0 8.5677,0.3915 9.5228,0.8699 0.955,0.47849 3.9467,1.85799 6.648,3.06558 18.216,8.14277 28.4583,29.51819 28.5534,59.59047 0.1142,36.09106 -10.658,70.46072 -37.2886,118.97333 -20.8032,37.89665 -42.9949,61.93236 -95.6763,103.62669 -22.5676,17.86093 -37.2443,28.07699 -57.4999,40.02415 -20.6155,12.15935 -36.713,19.28712 -63.9999,28.33818 -31.2038,10.35036 -50.4994,14.76635 -78.4999,17.96543 -11.9363,1.3637 -39.1373,1.9026 -45.9999,0.9113 z M 1582.9982,553.04095 c -38.0971,-4.56398 -70.0333,-19.52863 -95.0078,-44.51843 -20.658,-20.67072 -33.1699,-43.76062 -39.7369,-73.33171 -2.9141,-13.12215 -3.1392,-40.67804 -0.4304,-52.68249 1.8825,-8.34257 4.2164,-16.58064 5.666,-19.99992 9.2364,-21.78582 21.3044,-37.79155 37.9534,-50.3369 17.6625,-13.30895 43.4124,-23.27401 74.5557,-28.85239 14.3223,-2.56539 52.8297,-2.54959 66.9999,0.028 46.2943,8.41937 83.807,26.88729 111.9998,55.13888 11.5012,11.52526 16.0159,18.02173 20.3484,29.28129 2.3441,6.09187 2.5894,8.04266 2.5449,20.24152 -0.058,15.99263 -1.3383,20.98531 -12.5297,48.8718 -19.7153,49.12621 -34.8351,72.59622 -57.5317,89.30445 -15.2419,11.22046 -37.8918,20.13062 -63.3317,24.91391 -11.8933,2.23609 -40.1518,3.30208 -51.4999,1.94259 z m 1645.9974,-24.65181 c -26.4721,-1.59879 -57.2377,-9.35076 -78.9999,-19.90552 -17.2551,-8.36866 -29.4245,-19.32512 -36.2351,-32.62347 -7.9667,-15.55544 -9.5623,-31.56677 -7.2598,-72.85191 3.4211,-61.34336 14.2455,-92.31044 41.8635,-119.76513 18.0971,-17.99023 44.3595,-34.16207 70.6313,-43.49333 37.8123,-13.43035 80.3113,-14.21744 116.1528,-2.15129 15.8338,5.33048 38.8714,18.76272 51.8469,30.22978 45.9801,40.63444 62.9571,101.755 42.9949,154.78969 -12.0366,31.97808 -42.2588,61.28696 -84.8615,82.29698 -21.8533,10.77715 -43.6311,17.50623 -69.6332,21.51551 -9.7585,1.5047 -35.8318,2.60299 -46.4999,1.95869 z"
       id="path3243"
       inkscape:connector-curvature="0"
       inkscape:label="Text" />
  </g>
  <g
     inkscape:groupmode="layer"
     id="layer2"
     inkscape:label="Layer 2"
     transform="matrix(0.06299338,0,0,0.06299338,-10.705221,-13.040197)">
    <circle
       id="Ellipse_1_kopi_11"
       data-name="Ellipse 1 kopi 11"
       class="cls-2"
       cx="583.75085"
       cy="1267.574"
       r="50"
       style="fill:#cf2e2e" />
    <circle
       id="Ellipse_1_kopi_12"
       data-name="Ellipse 1 kopi 12"
       class="cls-2"
       cx="425.0361"
       cy="1411.8917"
       r="50"
       style="fill:#cf2e2e" />
    <circle
       id="Ellipse_1_kopi_13"
       data-name="Ellipse 1 kopi 13"
       class="cls-2"
       cx="815"
       cy="1246"
       r="50" />
    <circle
       id="Ellipse_1_kopi_2"
       data-name="Ellipse 1 kopi 2"
       class="cls-2"
       cx="965"
       cy="514"
       r="50" />
    <circle
       id="Ellipse_1_kopi_3"
       data-name="Ellipse 1 kopi 3"
       class="cls-2"
       cx="385.75089"
       cy="1128.0721"
       r="50"
       style="fill:#cf2e2e" />
    <circle
       id="Ellipse_1_kopi_8"
       data-name="Ellipse 1 kopi 8"
       class="cls-2"
       cx="915"
       cy="1010"
       r="50" />
    <ellipse
       id="Ellipse_1_kopi_10"
       data-name="Ellipse 1 kopi 10"
       class="cls-2"
       cx="965"
       cy="762"
       rx="50"
       ry="49" />
    <circle
       id="Ellipse_1_kopi"
       data-name="Ellipse 1 kopi"
       class="cls-2"
       cx="367"
       cy="861"
       r="50" />
    <circle
       id="Ellipse_1_kopi_14"
       data-name="Ellipse 1 kopi 14"
       class="cls-2"
       cx="715"
       cy="1473"
       r="50" />
    <circle
       id="Ellipse_1_kopi_15"
       data-name="Ellipse 1 kopi 15"
       class="cls-2"
       cx="565"
       cy="1642"
       r="50" />
    <circle
       id="Ellipse_1_kopi_7"
       data-name="Ellipse 1 kopi 7"
       class="cls-2"
       cx="1544"
       cy="1573"
       r="50" />
    <circle
       id="Ellipse_1_kopi_6"
       data-name="Ellipse 1 kopi 6"
       class="cls-2"
       cx="1494"
       cy="1336"
       r="50" />
    <circle
       class="cls-2"
       cx="1594"
       cy="414"
       r="50"
       id="circle20" />
    <circle
       id="Ellipse_1_kopi_5"
       data-name="Ellipse 1 kopi 5"
       class="cls-2"
       cx="1494"
       cy="1086"
       r="50" />
    <circle
       id="Ellipse_1_kopi_4"
       data-name="Ellipse 1 kopi 4"
       class="cls-2"
       cx="1544"
       cy="862"
       r="50" />
    <circle
       id="Ellipse_1_kopi_7-2"
       data-name="Ellipse 1 kopi 7"
       class="cls-2"
       cx="2386"
       cy="1623"
       r="50" />
    <circle
       id="Ellipse_1_kopi_6-2"
       data-name="Ellipse 1 kopi 6"
       class="cls-2"
       cx="2223"
       cy="1423"
       r="50" />
    <circle
       class="cls-2"
       cx="2139"
       cy="1149"
       r="50"
       id="circle26" />
    <circle
       id="Ellipse_1_kopi_9"
       data-name="Ellipse 1 kopi 9"
       class="cls-2"
       cx="2559"
       cy="1423"
       r="50" />
    <circle
       id="Ellipse_1_kopi_16"
       data-name="Ellipse 1 kopi 16"
       class="cls-2"
       cx="2633"
       cy="1149"
       r="50" />
    <circle
       id="Ellipse_1_kopi_5-2"
       data-name="Ellipse 1 kopi 5"
       class="cls-2"
       cx="2633"
       cy="910"
       r="50" />
    <circle
       id="Ellipse_1_kopi_4-2"
       data-name="Ellipse 1 kopi 4"
       class="cls-2"
       cx="2113"
       cy="910"
       r="50" />
    <circle
       id="Ellipse_1_kopi_17"
       data-name="Ellipse 1 kopi 17"
       class="cls-2"
       cx="2386"
       cy="1214"
       r="50" />
    <circle
       id="Ellipse_1_kopi_7-3"
       data-name="Ellipse 1 kopi 7"
       class="cls-2"
       cx="3227"
       cy="1542"
       r="50" />
    <circle
       id="Ellipse_1_kopi_6-3"
       data-name="Ellipse 1 kopi 6"
       class="cls-2"
       cx="3227"
       cy="1296"
       r="50" />
    <circle
       class="cls-2"
       cx="3277"
       cy="383"
       r="50"
       id="circle35" />
    <circle
       id="Ellipse_1_kopi_5-3"
       data-name="Ellipse 1 kopi 5"
       class="cls-2"
       cx="3227"
       cy="1049"
       r="50" />
    <circle
       id="Ellipse_1_kopi_4-3"
       data-name="Ellipse 1 kopi 4"
       class="cls-2"
       cx="3277"
       cy="812"
       r="50" />
    <circle
       id="Ellipse_1_kopi_7-4"
       data-name="Ellipse 1 kopi 7"
       class="cls-2"
       cx="4615"
       cy="1623"
       r="50" />
    <circle
       id="Ellipse_1_kopi_6-4"
       data-name="Ellipse 1 kopi 6"
       class="cls-2"
       cx="4565"
       cy="1373"
       r="50" />
    <circle
       id="Ellipse_1_kopi_5-4"
       data-name="Ellipse 1 kopi 5"
       class="cls-2"
       cx="4565"
       cy="1086"
       r="50" />
    <circle
       id="Ellipse_1_kopi_4-4"
       data-name="Ellipse 1 kopi 4"
       class="cls-2"
       cx="4565"
       cy="825"
       r="50" />
    <circle
       class="cls-2"
       cx="4615"
       cy="564"
       r="50"
       id="circle43" />
    <circle
       id="Ellipse_1_kopi_7-5"
       data-name="Ellipse 1 kopi 7"
       class="cls-2"
       cx="5209"
       cy="1486"
       r="50" />
    <circle
       id="Ellipse_1_kopi_6-5"
       data-name="Ellipse 1 kopi 6"
       class="cls-2"
       cx="5359"
       cy="1673"
       r="50" />
    <circle
       id="Ellipse_1_kopi_5-5"
       data-name="Ellipse 1 kopi 5"
       class="cls-2"
       cx="5594"
       cy="1573"
       r="50" />
    <circle
       id="Ellipse_1_kopi_19"
       data-name="Ellipse 1 kopi 19"
       class="cls-2"
       cx="5459"
       cy="1186"
       r="50" />
    <circle
       id="Ellipse_1_kopi_20"
       data-name="Ellipse 1 kopi 20"
       class="cls-2"
       cx="5209"
       cy="915"
       r="50" />
    <circle
       id="Ellipse_1_kopi_22"
       data-name="Ellipse 1 kopi 22"
       class="cls-2"
       cx="5694"
       cy="999"
       r="50" />
    <circle
       id="Ellipse_1_kopi_23"
       data-name="Ellipse 1 kopi 23"
       class="cls-2"
       cx="5509"
       cy="810"
       r="50" />
    <circle
       id="Ellipse_1_kopi_21"
       data-name="Ellipse 1 kopi 21"
       class="cls-2"
       cx="5159"
       cy="1199"
       r="50" />
    <circle
       id="Ellipse_1_kopi_4-5"
       data-name="Ellipse 1 kopi 4"
       class="cls-2"
       cx="5485"
       cy="364"
       r="50" />
    <circle
       class="cls-2"
       cx="5309"
       cy="457"
       r="50"
       id="circle54" />
    <circle
       id="Ellipse_1_kopi_18"
       data-name="Ellipse 1 kopi 18"
       class="cls-2"
       cx="3971"
       cy="1673"
       r="50" />
    <circle
       id="Ellipse_1_kopi_7-6"
       data-name="Ellipse 1 kopi 7"
       class="cls-2"
       cx="3921"
       cy="1442"
       r="50" />
    <circle
       id="Ellipse_1_kopi_6-6"
       data-name="Ellipse 1 kopi 6"
       class="cls-2"
       cx="3921"
       cy="1149"
       r="50" />
    <circle
       id="Ellipse_1_kopi_5-6"
       data-name="Ellipse 1 kopi 5"
       class="cls-2"
       cx="3971"
       cy="865"
       r="50" />
    <circle
       id="Ellipse_1_kopi_4-6"
       data-name="Ellipse 1 kopi 4"
       class="cls-2"
       cx="3971"
       cy="614"
       r="50" />
    <circle
       class="cls-2"
       cx="3871"
       cy="407"
       r="50"
       id="circle61" />
  </g>
</svg>
