999
"DXF R12 Output" (www.mydxf.blogspot.com)
 0 
SECTION
 2 
HEADER
 9 
$ACADVER
 1 
AC1009
 9 
$EXTMIN
 10 
 0 
 20 
 0 
 9 
$EXTMAX
 10 
 8.5 
 20 
 11 
 0 
ENDSEC
 0 
SECTION
 2 
ENTITIES
0
LINE
8
Layer 1
10
90.114600
20
29.437300
11
89.698275
21
29.412666
0
LINE
8
Layer 1
10
89.698275
20
29.412666
11
89.342316
21
29.300303
0
LINE
8
Layer 1
10
89.342316
20
29.300303
11
88.986884
21
29.150163
0
LINE
8
Layer 1
10
88.986884
20
29.150163
11
88.343648
21
28.746947
0
LINE
8
Layer 1
10
88.343648
20
28.746947
11
87.425113
21
28.184407
0
LINE
8
Layer 1
10
87.425113
20
28.184407
11
86.840390
21
27.926269
0
LINE
8
Layer 1
10
86.840390
20
27.926269
11
86.050503
21
27.634342
0
LINE
8
Layer 1
10
86.050503
20
27.634342
11
85.739195
21
27.550136
0
LINE
8
Layer 1
10
85.739195
20
27.550136
11
84.788508
21
27.332684
0
LINE
8
Layer 1
10
84.788508
20
27.332684
11
83.332718
21
26.801852
0
LINE
8
Layer 1
10
83.332718
20
26.801852
11
82.547036
21
26.259190
0
LINE
8
Layer 1
10
82.547036
20
26.259190
11
81.783617
21
25.420795
0
LINE
8
Layer 1
10
81.783617
20
25.420795
11
81.195375
21
24.248955
0
LINE
8
Layer 1
10
81.195375
20
24.248955
11
80.639314
21
22.475575
0
LINE
8
Layer 1
10
80.639314
20
22.475575
11
80.058996
21
22.321633
0
LINE
8
Layer 1
10
80.058996
20
22.321633
11
79.252698
21
24.033093
0
LINE
8
Layer 1
10
79.252698
20
24.033093
11
79.123724
21
24.226554
0
LINE
8
Layer 1
10
79.123724
20
24.226554
11
79.120807
21
24.289476
0
LINE
8
Layer 1
10
79.120807
20
24.289476
11
78.728826
21
24.904205
0
LINE
8
Layer 1
10
78.728826
20
24.904205
11
78.713838
21
24.924529
0
LINE
8
Layer 1
10
78.713838
20
24.924529
11
77.916577
21
25.798158
0
LINE
8
Layer 1
10
77.916577
20
25.798158
11
76.951818
21
26.481749
0
LINE
8
Layer 1
10
76.951818
20
26.481749
11
75.344658
21
27.043999
0
LINE
8
Layer 1
10
75.344658
20
27.043999
11
74.412044
21
27.108102
0
LINE
8
Layer 1
10
74.412044
20
27.108102
11
73.536924
21
27.028027
0
LINE
8
Layer 1
10
73.536924
20
27.028027
11
72.687854
21
26.803761
0
LINE
8
Layer 1
10
72.687854
20
26.803761
11
71.622054
21
26.221062
0
LINE
8
Layer 1
10
71.622054
20
26.221062
11
70.970549
21
25.597622
0
LINE
8
Layer 1
10
70.970549
20
25.597622
11
70.311501
21
24.624396
0
LINE
8
Layer 1
10
70.311501
20
24.624396
11
69.805963
21
23.695813
0
LINE
8
Layer 1
10
69.805963
20
23.695813
11
69.792864
21
23.670566
0
LINE
8
Layer 1
10
69.792864
20
23.670566
11
69.422492
21
22.932028
0
LINE
8
Layer 1
10
69.422492
20
22.932028
11
68.396952
21
20.839998
0
LINE
8
Layer 1
10
68.396952
20
20.839998
11
67.512806
21
23.315288
0
LINE
8
Layer 1
10
67.512806
20
23.315288
11
66.970832
21
24.558563
0
LINE
8
Layer 1
10
66.970832
20
24.558563
11
66.271896
21
25.720548
0
LINE
8
Layer 1
10
66.271896
20
25.720548
11
65.530572
21
26.647628
0
LINE
8
Layer 1
10
65.530572
20
26.647628
11
64.675426
21
27.470808
0
LINE
8
Layer 1
10
64.675426
20
27.470808
11
63.746296
21
28.143816
0
LINE
8
Layer 1
10
63.746296
20
28.143816
11
62.721086
21
28.657418
0
LINE
8
Layer 1
10
62.721086
20
28.657418
11
61.530066
21
28.984504
0
LINE
8
Layer 1
10
61.530066
20
28.984504
11
60.786479
21
29.029094
0
LINE
8
Layer 1
10
60.786479
20
29.029094
11
59.989441
21
28.959550
0
LINE
8
Layer 1
10
59.989441
20
28.959550
11
59.400729
21
28.793891
0
LINE
8
Layer 1
10
59.400729
20
28.793891
11
58.100699
21
28.042974
0
LINE
8
Layer 1
10
58.100699
20
28.042974
11
57.330224
21
27.158167
0
LINE
8
Layer 1
10
57.330224
20
27.158167
11
57.311560
21
27.129361
0
LINE
8
Layer 1
10
57.311560
20
27.129361
11
56.452733
21
25.806091
0
LINE
8
Layer 1
10
56.452733
20
25.806091
11
55.508334
21
27.195981
0
LINE
8
Layer 1
10
55.508334
20
27.195981
11
54.575957
21
28.170146
0
LINE
8
Layer 1
10
54.575957
20
28.170146
11
53.466627
21
28.785376
0
LINE
8
Layer 1
10
53.466627
20
28.785376
11
52.448135
21
29.033249
0
LINE
8
Layer 1
10
52.448135
20
29.033249
11
51.399447
21
29.048362
0
LINE
8
Layer 1
10
51.399447
20
29.048362
11
50.024457
21
28.717139
0
LINE
8
Layer 1
10
50.024457
20
28.717139
11
49.243878
21
28.328963
0
LINE
8
Layer 1
10
49.243878
20
28.328963
11
48.542937
21
27.811010
0
LINE
8
Layer 1
10
48.542937
20
27.811010
11
48.072648
21
27.316647
0
LINE
8
Layer 1
10
48.072648
20
27.316647
11
47.515855
21
26.342442
0
LINE
8
Layer 1
10
47.515855
20
26.342442
11
47.147716
21
24.731052
0
LINE
8
Layer 1
10
47.147716
20
24.731052
11
47.124164
21
24.399906
0
LINE
8
Layer 1
10
47.124164
20
24.399906
11
47.122881
21
24.374635
0
LINE
8
Layer 1
10
47.122881
20
24.374635
11
47.119056
21
24.292222
0
LINE
8
Layer 1
10
47.119056
20
24.292222
11
47.118056
21
24.266352
0
LINE
8
Layer 1
10
47.118056
20
24.266352
11
47.116922
21
24.238667
0
LINE
8
Layer 1
10
47.116922
20
24.238667
11
47.160410
21
23.200687
0
LINE
8
Layer 1
10
47.160410
20
23.200687
11
47.402347
21
22.395570
0
LINE
8
Layer 1
10
47.402347
20
22.395570
11
47.686458
21
21.918270
0
LINE
8
Layer 1
10
47.686458
20
21.918270
11
48.194510
21
21.200820
0
LINE
8
Layer 1
10
48.194510
20
21.200820
11
47.509343
21
20.554773
0
LINE
8
Layer 1
10
47.509343
20
20.554773
11
46.685200
21
19.567326
0
LINE
8
Layer 1
10
46.685200
20
19.567326
11
45.837821
21
18.296826
0
LINE
8
Layer 1
10
45.837821
20
18.296826
11
44.896789
21
19.687026
0
LINE
8
Layer 1
10
44.896789
20
19.687026
11
44.346098
21
20.310722
0
LINE
8
Layer 1
10
44.346098
20
20.310722
11
43.691782
21
20.792773
0
LINE
8
Layer 1
10
43.691782
20
20.792773
11
42.516632
21
21.214780
0
LINE
8
Layer 1
10
42.516632
20
21.214780
11
41.901480
21
21.296696
0
LINE
8
Layer 1
10
41.901480
20
21.296696
11
41.876089
21
21.298628
0
LINE
8
Layer 1
10
41.876089
20
21.298628
11
41.140159
21
21.316402
0
LINE
8
Layer 1
10
41.140159
20
21.316402
11
40.206470
21
21.219317
0
LINE
8
Layer 1
10
40.206470
20
21.219317
11
39.304829
21
20.959225
0
LINE
8
Layer 1
10
39.304829
20
20.959225
11
38.498995
21
20.547835
0
LINE
8
Layer 1
10
38.498995
20
20.547835
11
37.658793
21
19.904771
0
LINE
8
Layer 1
10
37.658793
20
19.904771
11
37.187960
21
19.426593
0
LINE
8
Layer 1
10
37.187960
20
19.426593
11
36.692808
21
18.911784
0
LINE
8
Layer 1
10
36.692808
20
18.911784
11
35.911422
21
19.613904
0
LINE
8
Layer 1
10
35.911422
20
19.613904
11
35.035970
21
20.276256
0
LINE
8
Layer 1
10
35.035970
20
20.276256
11
34.054652
21
20.767374
0
LINE
8
Layer 1
10
34.054652
20
20.767374
11
33.017412
21
21.048780
0
LINE
8
Layer 1
10
33.017412
20
21.048780
11
32.266382
21
21.104697
0
LINE
8
Layer 1
10
32.266382
20
21.104697
11
32.241144
21
21.104389
0
LINE
8
Layer 1
10
32.241144
20
21.104389
11
30.974334
21
20.897049
0
LINE
8
Layer 1
10
30.974334
20
20.897049
11
30.158162
21
20.550200
0
LINE
8
Layer 1
10
30.158162
20
20.550200
11
29.412844
21
20.068864
0
LINE
8
Layer 1
10
29.412844
20
20.068864
11
28.684584
21
19.413955
0
LINE
8
Layer 1
10
28.684584
20
19.413955
11
27.740548
21
18.432508
0
LINE
8
Layer 1
10
27.740548
20
18.432508
11
26.963336
21
19.676658
0
LINE
8
Layer 1
10
26.963336
20
19.676658
11
26.740583
21
19.985254
0
LINE
8
Layer 1
10
26.740583
20
19.985254
11
26.327076
21
20.548402
0
LINE
8
Layer 1
10
26.327076
20
20.548402
11
26.989248
21
21.225683
0
LINE
8
Layer 1
10
26.989248
20
21.225683
11
27.701852
21
22.221520
0
LINE
8
Layer 1
10
27.701852
20
22.221520
11
28.171905
21
23.261650
0
LINE
8
Layer 1
10
28.171905
20
23.261650
11
28.433792
21
24.273630
0
LINE
8
Layer 1
10
28.433792
20
24.273630
11
28.452802
21
24.672449
0
LINE
8
Layer 1
10
28.452802
20
24.672449
11
28.450179
21
25.014093
0
LINE
8
Layer 1
10
28.450179
20
25.014093
11
28.416738
21
25.215339
0
LINE
8
Layer 1
10
28.416738
20
25.215339
11
28.276282
21
25.623287
0
LINE
8
Layer 1
10
28.276282
20
25.623287
11
27.903296
21
26.298736
0
LINE
8
Layer 1
10
27.903296
20
26.298736
11
27.406181
21
26.839842
0
LINE
8
Layer 1
10
27.406181
20
26.839842
11
26.706408
21
27.375937
0
LINE
8
Layer 1
10
26.706408
20
27.375937
11
25.923061
21
27.780838
0
LINE
8
Layer 1
10
25.923061
20
27.780838
11
24.634961
21
28.148420
0
LINE
8
Layer 1
10
24.634961
20
28.148420
11
23.857947
21
28.197451
0
LINE
8
Layer 1
10
23.857947
20
28.197451
11
23.752118
21
28.197534
0
LINE
8
Layer 1
10
23.752118
20
28.197534
11
23.726877
21
28.197434
0
LINE
8
Layer 1
10
23.726877
20
28.197434
11
23.063360
21
28.155701
0
LINE
8
Layer 1
10
23.063360
20
28.155701
11
22.801246
21
28.109194
0
LINE
8
Layer 1
10
22.801246
20
28.109194
11
21.353686
21
27.594552
0
LINE
8
Layer 1
10
21.353686
20
27.594552
11
20.435234
21
26.867438
0
LINE
8
Layer 1
10
20.435234
20
26.867438
11
19.704954
21
25.705368
0
LINE
8
Layer 1
10
19.704954
20
25.705368
11
19.526537
21
25.104433
0
LINE
8
Layer 1
10
19.526537
20
25.104433
11
19.012893
21
22.426523
0
LINE
8
Layer 1
10
19.012893
20
22.426523
11
17.536723
21
24.752593
0
LINE
8
Layer 1
10
17.536723
20
24.752593
11
16.559868
21
25.798633
0
LINE
8
Layer 1
10
16.559868
20
25.798633
11
15.456038
21
26.379219
0
LINE
8
Layer 1
10
15.456038
20
26.379219
11
14.222558
21
26.689101
0
LINE
8
Layer 1
10
14.222558
20
26.689101
11
14.194366
21
26.693580
0
LINE
8
Layer 1
10
14.194366
20
26.693580
11
14.167232
21
26.697950
0
LINE
8
Layer 1
10
14.167232
20
26.697950
11
13.209446
21
26.794527
0
LINE
8
Layer 1
10
13.209446
20
26.794527
11
11.569696
21
26.618701
0
LINE
8
Layer 1
10
11.569696
20
26.618701
11
10.417576
21
26.109683
0
LINE
8
Layer 1
10
10.417576
20
26.109683
11
9.788513
21
25.587592
0
LINE
8
Layer 1
10
9.788513
20
25.587592
11
9.109941
21
24.655518
0
LINE
8
Layer 1
10
9.109941
20
24.655518
11
8.263067
21
22.750058
0
LINE
8
Layer 1
10
8.263067
20
22.750058
11
7.872754
21
21.508258
0
LINE
8
Layer 1
10
7.872754
20
21.508258
11
7.495376
21
20.220448
0
LINE
8
Layer 1
10
7.495376
20
20.220448
11
6.216226
21
21.097980
0
LINE
8
Layer 1
10
6.216226
20
21.097980
11
5.460572
21
21.517107
0
LINE
8
Layer 1
10
5.460572
20
21.517107
11
4.047472
21
21.950693
0
LINE
8
Layer 1
10
4.047472
20
21.950693
11
2.914412
21
21.949904
0
LINE
8
Layer 1
10
2.914412
20
21.949904
11
2.002232
21
21.724443
0
LINE
8
Layer 1
10
2.002232
20
21.724443
11
1.146992
21
21.334385
0
LINE
8
Layer 1
10
1.146992
20
21.334385
11
-0.326298
21
20.188965
0
LINE
8
Layer 1
10
-0.326298
20
20.188965
11
-1.159699
21
19.020295
0
LINE
8
Layer 1
10
-1.159699
20
19.020295
11
-1.523772
21
18.099459
0
LINE
8
Layer 1
10
-1.523772
20
18.099459
11
-1.741456
21
17.132795
0
LINE
8
Layer 1
10
-1.741456
20
17.132795
11
-1.834109
21
16.110785
0
LINE
8
Layer 1
10
-1.834109
20
16.110785
11
-1.808426
21
15.056775
0
LINE
8
Layer 1
10
-1.808426
20
15.056775
11
-1.806509
21
15.031187
0
LINE
8
Layer 1
10
-1.806509
20
15.031187
11
-1.755887
21
14.440500
0
LINE
8
Layer 1
10
-1.755887
20
14.440500
11
-1.663126
21
13.380980
0
LINE
8
Layer 1
10
-1.663126
20
13.380980
11
-1.614184
21
12.601563
0
LINE
8
Layer 1
10
-1.614184
20
12.601563
11
-1.370609
21
10.784083
0
LINE
8
Layer 1
10
-1.370609
20
10.784083
11
-1.234976
21
10.167604
0
LINE
8
Layer 1
10
-1.234976
20
10.167604
11
-1.037536
21
9.301765
0
LINE
8
Layer 1
10
-1.037536
20
9.301765
11
-0.780451
21
8.130375
0
LINE
8
Layer 1
10
-0.780451
20
8.130375
11
-0.762083
21
8.060864
0
LINE
8
Layer 1
10
-0.762083
20
8.060864
11
-0.755340
21
8.035717
0
LINE
8
Layer 1
10
-0.755340
20
8.035717
11
-0.744765
21
7.996409
0
LINE
8
Layer 1
10
-0.744765
20
7.996409
11
-0.737924
21
7.971591
0
LINE
8
Layer 1
10
-0.737924
20
7.971591
11
-0.653748
21
7.675407
0
LINE
8
Layer 1
10
-0.653748
20
7.675407
11
-0.646297
21
7.650459
0
LINE
8
Layer 1
10
-0.646297
20
7.650459
11
-0.275876
21
6.521539
0
LINE
8
Layer 1
10
-0.275876
20
6.521539
11
-0.267006
21
6.496664
0
LINE
8
Layer 1
10
-0.267006
20
6.496664
11
-0.048397
21
5.894085
0
LINE
8
Layer 1
10
-0.048397
20
5.894085
11
-0.038415
21
5.867208
0
LINE
8
Layer 1
10
-0.038415
20
5.867208
11
0.247138
21
5.108583
0
LINE
8
Layer 1
10
0.247138
20
5.108583
11
0.632725
21
4.026273
0
LINE
8
Layer 1
10
0.632725
20
4.026273
11
1.189519
21
2.608243
0
LINE
8
Layer 1
10
1.189519
20
2.608243
11
1.200236
21
2.585161
0
LINE
8
Layer 1
10
1.200236
20
2.585161
11
1.707660
21
1.645797
0
LINE
8
Layer 1
10
1.707660
20
1.645797
11
2.586561
21
0.580251
0
LINE
8
Layer 1
10
2.586561
20
0.580251
11
3.700110
21
-0.236103
0
LINE
8
Layer 1
10
3.700110
20
-0.236103
11
4.536422
21
-0.603971
0
LINE
8
Layer 1
10
4.536422
20
-0.603971
11
5.425370
21
-0.814428
0
LINE
8
Layer 1
10
5.425370
20
-0.814428
11
6.991910
21
-0.799360
0
LINE
8
Layer 1
10
6.991910
20
-0.799360
11
8.784420
21
-0.234979
0
LINE
8
Layer 1
10
8.784420
20
-0.234979
11
10.436410
21
0.847031
0
LINE
8
Layer 1
10
10.436410
20
0.847031
11
12.077220
21
2.592481
0
LINE
8
Layer 1
10
12.077220
20
2.592481
11
13.357040
21
4.381051
0
LINE
8
Layer 1
10
13.357040
20
4.381051
11
13.816329
21
5.099685
0
LINE
8
Layer 1
10
13.816329
20
5.099685
11
14.181009
21
5.705545
0
LINE
8
Layer 1
10
14.181009
20
5.705545
11
14.827045
21
6.862965
0
LINE
8
Layer 1
10
14.827045
20
6.862965
11
16.533805
21
9.994755
0
LINE
8
Layer 1
10
16.533805
20
9.994755
11
16.685798
21
5.957435
0
LINE
8
Layer 1
10
16.685798
20
5.957435
11
16.721893
21
5.373833
0
LINE
8
Layer 1
10
16.721893
20
5.373833
11
16.724100
21
5.348698
0
LINE
8
Layer 1
10
16.724100
20
5.348698
11
16.873141
21
4.250258
0
LINE
8
Layer 1
10
16.873141
20
4.250258
11
17.134988
21
3.247831
0
LINE
8
Layer 1
10
17.134988
20
3.247831
11
17.551281
21
2.299768
0
LINE
8
Layer 1
10
17.551281
20
2.299768
11
18.159601
21
1.420475
0
LINE
8
Layer 1
10
18.159601
20
1.420475
11
18.935651
21
0.652435
0
LINE
8
Layer 1
10
18.935651
20
0.652435
11
19.820301
21
0.011615
0
LINE
8
Layer 1
10
19.820301
20
0.011615
11
20.914361
21
-0.570248
0
LINE
8
Layer 1
10
20.914361
20
-0.570248
11
22.305261
21
-1.025757
0
LINE
8
Layer 1
10
22.305261
20
-1.025757
11
22.752550
21
-1.115264
0
LINE
8
Layer 1
10
22.752550
20
-1.115264
11
23.325525
21
-1.179047
0
LINE
8
Layer 1
10
23.325525
20
-1.179047
11
24.659935
21
-1.140935
0
LINE
8
Layer 1
10
24.659935
20
-1.140935
11
25.866605
21
-0.888365
0
LINE
8
Layer 1
10
25.866605
20
-0.888365
11
26.583127
21
-0.571549
0
LINE
8
Layer 1
10
26.583127
20
-0.571549
11
27.221355
21
-0.118251
0
LINE
8
Layer 1
10
27.221355
20
-0.118251
11
27.916046
21
0.765375
0
LINE
8
Layer 1
10
27.916046
20
0.765375
11
28.197397
21
1.434332
0
LINE
8
Layer 1
10
28.197397
20
1.434332
11
28.418735
21
2.410748
0
LINE
8
Layer 1
10
28.418735
20
2.410748
11
28.433162
21
2.525694
0
LINE
8
Layer 1
10
28.433162
20
2.525694
11
28.435767
21
2.548810
0
LINE
8
Layer 1
10
28.435767
20
2.548810
11
28.457171
21
3.782860
0
LINE
8
Layer 1
10
28.457171
20
3.782860
11
28.445816
21
3.975861
0
LINE
8
Layer 1
10
28.445816
20
3.975861
11
28.433639
21
4.172702
0
LINE
8
Layer 1
10
28.433639
20
4.172702
11
28.733722
21
7.339922
0
LINE
8
Layer 1
10
28.733722
20
7.339922
11
30.447362
21
4.652632
0
LINE
8
Layer 1
10
30.447362
20
4.652632
11
31.089202
21
3.315432
0
LINE
8
Layer 1
10
31.089202
20
3.315432
11
31.854806
21
2.071607
0
LINE
8
Layer 1
10
31.854806
20
2.071607
11
32.764902
21
0.929702
0
LINE
8
Layer 1
10
32.764902
20
0.929702
11
33.288399
21
0.410335
0
LINE
8
Layer 1
10
33.288399
20
0.410335
11
34.230164
21
-0.246170
0
LINE
8
Layer 1
10
34.230164
20
-0.246170
11
35.292739
21
-0.679905
0
LINE
8
Layer 1
10
35.292739
20
-0.679905
11
36.326539
21
-0.853765
0
LINE
8
Layer 1
10
36.326539
20
-0.853765
11
37.419709
21
-0.841518
0
LINE
8
Layer 1
10
37.419709
20
-0.841518
11
37.445048
21
-0.839425
0
LINE
8
Layer 1
10
37.445048
20
-0.839425
11
37.470621
21
-0.837253
0
LINE
8
Layer 1
10
37.470621
20
-0.837253
11
37.520329
21
-0.832860
0
LINE
8
Layer 1
10
37.520329
20
-0.832860
11
37.546295
21
-0.830465
0
LINE
8
Layer 1
10
37.546295
20
-0.830465
11
38.884365
21
-0.624081
0
LINE
8
Layer 1
10
38.884365
20
-0.624081
11
39.571290
21
-0.405772
0
LINE
8
Layer 1
10
39.571290
20
-0.405772
11
40.565232
21
0.113977
0
LINE
8
Layer 1
10
40.565232
20
0.113977
11
40.978447
21
0.449360
0
LINE
8
Layer 1
10
40.978447
20
0.449360
11
41.915836
21
1.431610
0
LINE
8
Layer 1
10
41.915836
20
1.431610
11
42.279363
21
1.953932
0
LINE
8
Layer 1
10
42.279363
20
1.953932
11
42.932989
21
2.935758
0
LINE
8
Layer 1
10
42.932989
20
2.935758
11
43.964239
21
4.868588
0
LINE
8
Layer 1
10
43.964239
20
4.868588
11
45.522019
21
8.519738
0
LINE
8
Layer 1
10
45.522019
20
8.519738
11
45.998912
21
4.380958
0
LINE
8
Layer 1
10
45.998912
20
4.380958
11
46.187689
21
3.144738
0
LINE
8
Layer 1
10
46.187689
20
3.144738
11
46.192704
21
3.119581
0
LINE
8
Layer 1
10
46.192704
20
3.119581
11
46.747427
21
1.336771
0
LINE
8
Layer 1
10
46.747427
20
1.336771
11
47.582617
21
0.089291
0
LINE
8
Layer 1
10
47.582617
20
0.089291
11
48.753127
21
-0.753058
0
LINE
8
Layer 1
10
48.753127
20
-0.753058
11
50.205987
21
-1.166681
0
LINE
8
Layer 1
10
50.205987
20
-1.166681
11
50.989843
21
-1.196223
0
LINE
8
Layer 1
10
50.989843
20
-1.196223
11
51.979472
21
-1.057260
0
LINE
8
Layer 1
10
51.979472
20
-1.057260
11
52.917363
21
-0.713057
0
LINE
8
Layer 1
10
52.917363
20
-0.713057
11
53.739856
21
-0.178730
0
LINE
8
Layer 1
10
53.739856
20
-0.178730
11
54.335923
21
0.432697
0
LINE
8
Layer 1
10
54.335923
20
0.432697
11
54.934008
21
1.411655
0
LINE
8
Layer 1
10
54.934008
20
1.411655
11
55.358411
21
2.572785
0
LINE
8
Layer 1
10
55.358411
20
2.572785
11
55.365487
21
2.597649
0
LINE
8
Layer 1
10
55.365487
20
2.597649
11
55.373873
21
2.626953
0
LINE
8
Layer 1
10
55.373873
20
2.626953
11
55.380884
21
2.651821
0
LINE
8
Layer 1
10
55.380884
20
2.651821
11
55.625759
21
3.601218
0
LINE
8
Layer 1
10
55.625759
20
3.601218
11
56.441634
21
6.850768
0
LINE
8
Layer 1
10
56.441634
20
6.850768
11
57.598984
21
3.184868
0
LINE
8
Layer 1
10
57.598984
20
3.184868
11
58.069432
21
2.023349
0
LINE
8
Layer 1
10
58.069432
20
2.023349
11
58.712594
21
0.948308
0
LINE
8
Layer 1
10
58.712594
20
0.948308
11
59.493363
21
0.030417
0
LINE
8
Layer 1
10
59.493363
20
0.030417
11
60.418554
21
-0.741362
0
LINE
8
Layer 1
10
60.418554
20
-0.741362
11
61.275811
21
-1.241933
0
LINE
8
Layer 1
10
61.275811
20
-1.241933
11
62.202074
21
-1.598414
0
LINE
8
Layer 1
10
62.202074
20
-1.598414
11
63.154046
21
-1.790505
0
LINE
8
Layer 1
10
63.154046
20
-1.790505
11
64.123505
21
-1.805406
0
LINE
8
Layer 1
10
64.123505
20
-1.805406
11
65.078886
21
-1.638824
0
LINE
8
Layer 1
10
65.078886
20
-1.638824
11
66.417736
21
-1.085093
0
LINE
8
Layer 1
10
66.417736
20
-1.085093
11
67.342620
21
-0.405431
0
LINE
8
Layer 1
10
67.342620
20
-0.405431
11
68.089226
21
0.465797
0
LINE
8
Layer 1
10
68.089226
20
0.465797
11
68.342463
21
0.873483
0
LINE
8
Layer 1
10
68.342463
20
0.873483
11
68.963035
21
1.893393
0
LINE
8
Layer 1
10
68.963035
20
1.893393
11
69.990815
21
0.721063
0
LINE
8
Layer 1
10
69.990815
20
0.721063
11
70.176027
21
0.523372
0
LINE
8
Layer 1
10
70.176027
20
0.523372
11
70.431402
21
0.275357
0
LINE
8
Layer 1
10
70.431402
20
0.275357
11
71.174973
21
-0.306248
0
LINE
8
Layer 1
10
71.174973
20
-0.306248
11
72.002752
21
-0.759473
0
LINE
8
Layer 1
10
72.002752
20
-0.759473
11
73.408212
21
-1.143636
0
LINE
8
Layer 1
10
73.408212
20
-1.143636
11
74.778572
21
-1.110347
0
LINE
8
Layer 1
10
74.778572
20
-1.110347
11
76.114932
21
-0.704534
0
LINE
8
Layer 1
10
76.114932
20
-0.704534
11
77.016266
21
-0.190995
0
LINE
8
Layer 1
10
77.016266
20
-0.190995
11
77.812252
21
0.474666
0
LINE
8
Layer 1
10
77.812252
20
0.474666
11
78.355055
21
1.087482
0
LINE
8
Layer 1
10
78.355055
20
1.087482
11
78.370624
21
1.107631
0
LINE
8
Layer 1
10
78.370624
20
1.107631
11
78.949031
21
1.994137
0
LINE
8
Layer 1
10
78.949031
20
1.994137
11
79.873251
21
3.662697
0
LINE
8
Layer 1
10
79.873251
20
3.662697
11
80.932481
21
1.714287
0
LINE
8
Layer 1
10
80.932481
20
1.714287
11
81.415222
21
0.896211
0
LINE
8
Layer 1
10
81.415222
20
0.896211
11
82.057025
21
0.078587
0
LINE
8
Layer 1
10
82.057025
20
0.078587
11
82.819932
21
-0.626729
0
LINE
8
Layer 1
10
82.819932
20
-0.626729
11
83.604364
21
-1.132666
0
LINE
8
Layer 1
10
83.604364
20
-1.132666
11
84.469032
21
-1.482904
0
LINE
8
Layer 1
10
84.469032
20
-1.482904
11
85.500622
21
-1.650151
0
LINE
8
Layer 1
10
85.500622
20
-1.650151
11
85.952306
21
-1.643041
0
LINE
8
Layer 1
10
85.952306
20
-1.643041
11
86.123696
21
-1.637996
0
LINE
8
Layer 1
10
86.123696
20
-1.637996
11
86.174555
21
-1.636596
0
LINE
8
Layer 1
10
86.174555
20
-1.636596
11
86.879991
21
-1.589631
0
LINE
8
Layer 1
10
86.879991
20
-1.589631
11
88.583421
21
-1.226957
0
LINE
8
Layer 1
10
88.583421
20
-1.226957
11
89.257261
21
-0.965977
0
LINE
8
Layer 1
10
89.257261
20
-0.965977
11
89.458300
21
-0.880619
0
LINE
8
Layer 1
10
89.458300
20
-0.880619
11
89.482708
21
-0.870080
0
LINE
8
Layer 1
10
89.482708
20
-0.870080
11
90.705648
21
-0.277755
0
LINE
8
Layer 1
10
90.705648
20
-0.277755
11
92.243318
21
0.740015
0
LINE
8
Layer 1
10
92.243318
20
0.740015
11
92.263566
21
0.756123
0
LINE
8
Layer 1
10
92.263566
20
0.756123
11
93.337548
21
1.737712
0
LINE
8
Layer 1
10
93.337548
20
1.737712
11
94.257526
21
2.864643
0
LINE
8
Layer 1
10
94.257526
20
2.864643
11
95.091206
21
4.322203
0
LINE
8
Layer 1
10
95.091206
20
4.322203
11
95.403886
21
5.260918
0
LINE
8
Layer 1
10
95.403886
20
5.260918
11
95.436275
21
6.259323
0
LINE
8
Layer 1
10
95.436275
20
6.259323
11
95.135537
21
7.130447
0
LINE
8
Layer 1
10
95.135537
20
7.130447
11
94.502388
21
7.895324
0
LINE
8
Layer 1
10
94.502388
20
7.895324
11
93.963232
21
8.265825
0
LINE
8
Layer 1
10
93.963232
20
8.265825
11
92.628742
21
9.047757
0
LINE
8
Layer 1
10
92.628742
20
9.047757
11
93.970702
21
10.065017
0
LINE
8
Layer 1
10
93.970702
20
10.065017
11
95.012822
21
11.133857
0
LINE
8
Layer 1
10
95.012822
20
11.133857
11
95.750802
21
12.548717
0
LINE
8
Layer 1
10
95.750802
20
12.548717
11
96.052418
21
13.763677
0
LINE
8
Layer 1
10
96.052418
20
13.763677
11
96.104139
21
14.742017
0
LINE
8
Layer 1
10
96.104139
20
14.742017
11
95.964155
21
16.147787
0
LINE
8
Layer 1
10
95.964155
20
16.147787
11
95.552286
21
17.380538
0
LINE
8
Layer 1
10
95.552286
20
17.380538
11
94.907225
21
18.508907
0
LINE
8
Layer 1
10
94.907225
20
18.508907
11
94.118150
21
19.427577
0
LINE
8
Layer 1
10
94.118150
20
19.427577
11
93.174255
21
20.186237
0
LINE
8
Layer 1
10
93.174255
20
20.186237
11
91.575805
21
20.953286
0
LINE
8
Layer 1
10
91.575805
20
20.953286
11
90.089805
21
21.443681
0
LINE
8
Layer 1
10
90.089805
20
21.443681
11
91.200405
21
22.721221
0
LINE
8
Layer 1
10
91.200405
20
22.721221
11
91.925500
21
23.778171
0
LINE
8
Layer 1
10
91.925500
20
23.778171
11
92.609014
21
25.515961
0
LINE
8
Layer 1
10
92.609014
20
25.515961
11
92.726281
21
26.699881
0
LINE
8
Layer 1
10
92.726281
20
26.699881
11
92.488040
21
27.817121
0
LINE
8
Layer 1
10
92.488040
20
27.817121
11
91.859469
21
28.761289
0
LINE
8
Layer 1
10
91.859469
20
28.761289
11
91.185252
21
29.209694
0
LINE
8
Layer 1
10
91.185252
20
29.209694
11
90.864737
21
29.349596
0
LINE
8
Layer 1
10
90.864737
20
29.349596
11
90.689477
21
29.394473
0
LINE
8
Layer 1
10
90.689477
20
29.394473
11
90.590245
21
29.404965
0
LINE
8
Layer 1
10
90.590245
20
29.404965
11
90.334762
21
29.432621
0
LINE
8
Layer 1
10
90.334762
20
29.432621
11
90.114608
21
29.437341
0
LINE
8
Layer 1
10
90.114608
20
29.437341
11
90.114600
21
29.437300
0
LINE
8
Layer 1
10
90.164900
20
28.089800
11
89.732886
21
28.007118
0
LINE
8
Layer 1
10
89.732886
20
28.007118
11
89.120003
21
27.644867
0
LINE
8
Layer 1
10
89.120003
20
27.644867
11
87.737663
21
26.842850
0
LINE
8
Layer 1
10
87.737663
20
26.842850
11
86.177553
21
26.269759
0
LINE
8
Layer 1
10
86.177553
20
26.269759
11
85.138863
21
26.029981
0
LINE
8
Layer 1
10
85.138863
20
26.029981
11
84.355840
21
25.802864
0
LINE
8
Layer 1
10
84.355840
20
25.802864
11
83.703813
21
25.452239
0
LINE
8
Layer 1
10
83.703813
20
25.452239
11
82.870789
21
24.624900
0
LINE
8
Layer 1
10
82.870789
20
24.624900
11
82.450144
21
23.740201
0
LINE
8
Layer 1
10
82.450144
20
23.740201
11
82.383480
21
23.127836
0
LINE
8
Layer 1
10
82.383480
20
23.127836
11
82.536443
21
22.219882
0
LINE
8
Layer 1
10
82.536443
20
22.219882
11
82.817838
21
21.733774
0
LINE
8
Layer 1
10
82.817838
20
21.733774
11
83.228804
21
21.355475
0
LINE
8
Layer 1
10
83.228804
20
21.355475
11
84.345113
21
20.951232
0
LINE
8
Layer 1
10
84.345113
20
20.951232
11
84.526495
21
20.927978
0
LINE
8
Layer 1
10
84.526495
20
20.927978
11
84.954892
21
20.916092
0
LINE
8
Layer 1
10
84.954892
20
20.916092
11
85.414295
21
20.941413
0
LINE
8
Layer 1
10
85.414295
20
20.941413
11
86.817305
21
21.261806
0
LINE
8
Layer 1
10
86.817305
20
21.261806
11
87.975375
21
21.775986
0
LINE
8
Layer 1
10
87.975375
20
21.775986
11
88.987195
21
22.479301
0
LINE
8
Layer 1
10
88.987195
20
22.479301
11
90.040614
21
23.424754
0
LINE
8
Layer 1
10
90.040614
20
23.424754
11
90.702335
21
24.349471
0
LINE
8
Layer 1
10
90.702335
20
24.349471
11
91.216670
21
25.510514
0
LINE
8
Layer 1
10
91.216670
20
25.510514
11
91.381879
21
26.560701
0
LINE
8
Layer 1
10
91.381879
20
26.560701
11
91.200302
21
27.412011
0
LINE
8
Layer 1
10
91.200302
20
27.412011
11
90.965785
21
27.747640
0
LINE
8
Layer 1
10
90.965785
20
27.747640
11
90.626886
21
27.983351
0
LINE
8
Layer 1
10
90.626886
20
27.983351
11
90.534903
21
28.025209
0
LINE
8
Layer 1
10
90.534903
20
28.025209
11
90.381940
21
28.074302
0
LINE
8
Layer 1
10
90.381940
20
28.074302
11
90.308045
21
28.083603
0
LINE
8
Layer 1
10
90.308045
20
28.083603
11
90.164900
21
28.089804
0
LINE
8
Layer 1
10
90.164900
20
28.089804
11
90.164900
21
28.089800
0
LINE
8
Layer 1
10
51.790100
20
27.721400
11
50.660450
21
27.516762
0
LINE
8
Layer 1
10
50.660450
20
27.516762
11
49.930768
21
27.167395
0
LINE
8
Layer 1
10
49.930768
20
27.167395
11
49.308590
21
26.682189
0
LINE
8
Layer 1
10
49.308590
20
26.682189
11
48.709506
21
25.728696
0
LINE
8
Layer 1
10
48.709506
20
25.728696
11
48.472465
21
24.377939
0
LINE
8
Layer 1
10
48.472465
20
24.377939
11
48.475817
21
23.517565
0
LINE
8
Layer 1
10
48.475817
20
23.517565
11
48.644550
21
22.922219
0
LINE
8
Layer 1
10
48.644550
20
22.922219
11
48.984480
21
22.485769
0
LINE
8
Layer 1
10
48.984480
20
22.485769
11
49.463104
21
22.168778
0
LINE
8
Layer 1
10
49.463104
20
22.168778
11
50.956554
21
21.791024
0
LINE
8
Layer 1
10
50.956554
20
21.791024
11
51.831951
21
21.828231
0
LINE
8
Layer 1
10
51.831951
20
21.828231
11
53.129541
21
22.229756
0
LINE
8
Layer 1
10
53.129541
20
22.229756
11
54.151210
21
22.931509
0
LINE
8
Layer 1
10
54.151210
20
22.931509
11
54.776981
21
23.858076
0
LINE
8
Layer 1
10
54.776981
20
23.858076
11
54.942462
21
24.685582
0
LINE
8
Layer 1
10
54.942462
20
24.685582
11
54.843353
21
25.514291
0
LINE
8
Layer 1
10
54.843353
20
25.514291
11
54.499572
21
26.289781
0
LINE
8
Layer 1
10
54.499572
20
26.289781
11
53.931038
21
26.957626
0
LINE
8
Layer 1
10
53.931038
20
26.957626
11
52.904748
21
27.555005
0
LINE
8
Layer 1
10
52.904748
20
27.555005
11
51.790088
21
27.721403
0
LINE
8
Layer 1
10
51.790088
20
27.721403
11
51.790100
21
27.721400
0
LINE
8
Layer 1
10
61.384850
20
27.642852
11
60.263990
21
27.640268
0
LINE
8
Layer 1
10
60.263990
20
27.640268
11
59.478590
21
27.362740
0
LINE
8
Layer 1
10
59.478590
20
27.362740
11
58.825320
21
26.879075
0
LINE
8
Layer 1
10
58.825320
20
26.879075
11
58.198320
21
25.907361
0
LINE
8
Layer 1
10
58.198320
20
25.907361
11
57.987648
21
24.731925
0
LINE
8
Layer 1
10
57.987648
20
24.731925
11
58.214507
21
23.525795
0
LINE
8
Layer 1
10
58.214507
20
23.525795
11
58.937459
21
22.151205
0
LINE
8
Layer 1
10
58.937459
20
22.151205
11
59.503101
21
21.063101
0
LINE
8
Layer 1
10
59.503101
20
21.063101
11
59.864534
21
20.031445
0
LINE
8
Layer 1
10
59.864534
20
20.031445
11
60.110783
21
18.793046
0
LINE
8
Layer 1
10
60.110783
20
18.793046
11
60.183375
21
17.493105
0
LINE
8
Layer 1
10
60.183375
20
17.493105
11
60.059352
21
15.759875
0
LINE
8
Layer 1
10
60.059352
20
15.759875
11
59.730174
21
14.163075
0
LINE
8
Layer 1
10
59.730174
20
14.163075
11
59.482646
21
13.292328
0
LINE
8
Layer 1
10
59.482646
20
13.292328
11
58.797416
21
10.534878
0
LINE
8
Layer 1
10
58.797416
20
10.534878
11
58.747291
21
10.264094
0
LINE
8
Layer 1
10
58.747291
20
10.264094
11
58.480642
21
8.122624
0
LINE
8
Layer 1
10
58.480642
20
8.122624
11
58.442402
21
6.129464
0
LINE
8
Layer 1
10
58.442402
20
6.129464
11
58.606780
21
4.664293
0
LINE
8
Layer 1
10
58.606780
20
4.664293
11
58.960841
21
3.348770
0
LINE
8
Layer 1
10
58.960841
20
3.348770
11
59.507720
21
2.187885
0
LINE
8
Layer 1
10
59.507720
20
2.187885
11
60.250552
21
1.186624
0
LINE
8
Layer 1
10
60.250552
20
1.186624
11
61.266288
21
0.311294
0
LINE
8
Layer 1
10
61.266288
20
0.311294
11
62.426642
21
-0.257726
0
LINE
8
Layer 1
10
62.426642
20
-0.257726
11
63.154245
21
-0.431359
0
LINE
8
Layer 1
10
63.154245
20
-0.431359
11
64.377897
21
-0.412570
0
LINE
8
Layer 1
10
64.377897
20
-0.412570
11
65.573735
21
-0.010714
0
LINE
8
Layer 1
10
65.573735
20
-0.010714
11
66.734782
21
0.897917
0
LINE
8
Layer 1
10
66.734782
20
0.897917
11
67.137696
21
1.489949
0
LINE
8
Layer 1
10
67.137696
20
1.489949
11
67.404625
21
2.158146
0
LINE
8
Layer 1
10
67.404625
20
2.158146
11
67.505910
21
3.076435
0
LINE
8
Layer 1
10
67.505910
20
3.076435
11
67.316260
21
4.423635
0
LINE
8
Layer 1
10
67.316260
20
4.423635
11
67.119889
21
5.030315
0
LINE
8
Layer 1
10
67.119889
20
5.030315
11
67.060977
21
5.194129
0
LINE
8
Layer 1
10
67.060977
20
5.194129
11
67.060976
21
5.194658
0
LINE
8
Layer 1
10
67.060976
20
5.194658
11
67.017053
21
5.310930
0
LINE
8
Layer 1
10
67.017053
20
5.310930
11
66.935921
21
5.512468
0
LINE
8
Layer 1
10
66.935921
20
5.512468
11
66.643432
21
6.230253
0
LINE
8
Layer 1
10
66.643432
20
6.230253
11
66.167492
21
7.684423
0
LINE
8
Layer 1
10
66.167492
20
7.684423
11
66.071367
21
8.796311
0
LINE
8
Layer 1
10
66.071367
20
8.796311
11
66.130803
21
10.300793
0
LINE
8
Layer 1
10
66.130803
20
10.300793
11
66.385051
21
12.562663
0
LINE
8
Layer 1
10
66.385051
20
12.562663
11
66.535945
21
13.652513
0
LINE
8
Layer 1
10
66.535945
20
13.652513
11
66.652735
21
14.524810
0
LINE
8
Layer 1
10
66.652735
20
14.524810
11
66.728181
21
15.104619
0
LINE
8
Layer 1
10
66.728181
20
15.104619
11
66.805179
21
15.802250
0
LINE
8
Layer 1
10
66.805179
20
15.802250
11
66.897680
21
16.865230
0
LINE
8
Layer 1
10
66.897680
20
16.865230
11
66.912153
21
17.079687
0
LINE
8
Layer 1
10
66.912153
20
17.079687
11
66.917842
21
17.147383
0
LINE
8
Layer 1
10
66.917842
20
17.147383
11
66.913714
21
17.130331
0
LINE
8
Layer 1
10
66.913714
20
17.130331
11
66.932843
21
17.296729
0
LINE
8
Layer 1
10
66.932843
20
17.296729
11
66.941098
21
17.492583
0
LINE
8
Layer 1
10
66.941098
20
17.492583
11
66.951946
21
18.034151
0
LINE
8
Layer 1
10
66.951946
20
18.034151
11
66.943162
21
19.161731
0
LINE
8
Layer 1
10
66.943162
20
19.161731
11
66.716403
21
21.165797
0
LINE
8
Layer 1
10
66.716403
20
21.165797
11
66.205345
21
22.980104
0
LINE
8
Layer 1
10
66.205345
20
22.980104
11
65.414381
21
24.579166
0
LINE
8
Layer 1
10
65.414381
20
24.579166
11
64.347900
21
25.937500
0
LINE
8
Layer 1
10
64.347900
20
25.937500
11
62.923313
21
27.066900
0
LINE
8
Layer 1
10
62.923313
20
27.066900
11
61.384800
21
27.642800
0
LINE
8
Layer 1
10
61.384800
20
27.642800
11
61.384850
21
27.642852
0
LINE
8
Layer 1
10
23.184600
20
26.810800
11
22.391557
21
26.595286
0
LINE
8
Layer 1
10
22.391557
20
26.595286
11
21.741800
21
26.241843
0
LINE
8
Layer 1
10
21.741800
20
26.241843
11
21.288333
21
25.787438
0
LINE
8
Layer 1
10
21.288333
20
25.787438
11
20.958386
21
25.210383
0
LINE
8
Layer 1
10
20.958386
20
25.210383
11
20.837980
21
24.796972
0
LINE
8
Layer 1
10
20.837980
20
24.796972
11
20.845214
21
23.712802
0
LINE
8
Layer 1
10
20.845214
20
23.712802
11
21.136434
21
22.924283
0
LINE
8
Layer 1
10
21.136434
20
22.924283
11
21.634312
21
22.259142
0
LINE
8
Layer 1
10
21.634312
20
22.259142
11
22.477421
21
21.668645
0
LINE
8
Layer 1
10
22.477421
20
21.668645
11
23.495182
21
21.382194
0
LINE
8
Layer 1
10
23.495182
20
21.382194
11
24.497182
21
21.419401
0
LINE
8
Layer 1
10
24.497182
20
21.419401
11
25.173939
21
21.609612
0
LINE
8
Layer 1
10
25.173939
20
21.609612
11
25.744652
21
21.918595
0
LINE
8
Layer 1
10
25.744652
20
21.918595
11
26.350942
21
22.575821
0
LINE
8
Layer 1
10
26.350942
20
22.575821
11
26.861892
21
23.610995
0
LINE
8
Layer 1
10
26.861892
20
23.610995
11
27.104771
21
24.599564
0
LINE
8
Layer 1
10
27.104771
20
24.599564
11
27.030873
21
25.108059
0
LINE
8
Layer 1
10
27.030873
20
25.108059
11
26.585424
21
25.760215
0
LINE
8
Layer 1
10
26.585424
20
25.760215
11
25.640203
21
26.432152
0
LINE
8
Layer 1
10
25.640203
20
26.432152
11
24.468800
21
26.809800
0
LINE
8
Layer 1
10
24.468800
20
26.809800
11
23.184600
21
26.810800
0
LINE
8
Layer 1
10
23.184600
20
26.810800
11
23.184600
21
26.810800
0
LINE
8
Layer 1
10
74.553500
20
25.761800
11
73.654433
21
25.677260
0
LINE
8
Layer 1
10
73.654433
20
25.677260
11
72.860580
21
25.413501
0
LINE
8
Layer 1
10
72.860580
20
25.413501
11
72.159848
21
24.902422
0
LINE
8
Layer 1
10
72.159848
20
24.902422
11
71.653897
21
24.258348
0
LINE
8
Layer 1
10
71.653897
20
24.258348
11
70.928918
21
22.935102
0
LINE
8
Layer 1
10
70.928918
20
22.935102
11
70.309836
21
21.579112
0
LINE
8
Layer 1
10
70.309836
20
21.579112
11
69.960504
21
20.437582
0
LINE
8
Layer 1
10
69.960504
20
20.437582
11
69.686718
21
18.839134
0
LINE
8
Layer 1
10
69.686718
20
18.839134
11
69.564145
21
16.838322
0
LINE
8
Layer 1
10
69.564145
20
16.838322
11
69.547106
21
16.324659
0
LINE
8
Layer 1
10
69.547106
20
16.324659
11
69.513517
21
14.885469
0
LINE
8
Layer 1
10
69.513517
20
14.885469
11
69.481476
21
13.484009
0
LINE
8
Layer 1
10
69.481476
20
13.484009
11
69.463379
21
12.860275
0
LINE
8
Layer 1
10
69.463379
20
12.860275
11
69.395166
21
9.828935
0
LINE
8
Layer 1
10
69.395166
20
9.828935
11
69.380191
21
6.137175
0
LINE
8
Layer 1
10
69.380191
20
6.137175
11
69.567775
21
4.608075
0
LINE
8
Layer 1
10
69.567775
20
4.608075
11
70.092808
21
2.987505
0
LINE
8
Layer 1
10
70.092808
20
2.987505
11
70.610751
21
2.103373
0
LINE
8
Layer 1
10
70.610751
20
2.103373
11
71.252938
21
1.351435
0
LINE
8
Layer 1
10
71.252938
20
1.351435
11
72.423828
21
0.529499
0
LINE
8
Layer 1
10
72.423828
20
0.529499
11
73.720998
21
0.180445
0
LINE
8
Layer 1
10
73.720998
20
0.180445
11
74.714735
21
0.247623
0
LINE
8
Layer 1
10
74.714735
20
0.247623
11
75.657274
21
0.567857
0
LINE
8
Layer 1
10
75.657274
20
0.567857
11
76.504506
21
1.105126
0
LINE
8
Layer 1
10
76.504506
20
1.105126
11
77.232903
21
1.835182
0
LINE
8
Layer 1
10
77.232903
20
1.835182
11
77.818935
21
2.733773
0
LINE
8
Layer 1
10
77.818935
20
2.733773
11
78.283499
21
3.872542
0
LINE
8
Layer 1
10
78.283499
20
3.872542
11
78.537754
21
5.056113
0
LINE
8
Layer 1
10
78.537754
20
5.056113
11
78.500728
21
6.121084
0
LINE
8
Layer 1
10
78.500728
20
6.121084
11
78.092302
21
7.324703
0
LINE
8
Layer 1
10
78.092302
20
7.324703
11
77.877328
21
7.851285
0
LINE
8
Layer 1
10
77.877328
20
7.851285
11
77.813767
21
8.011482
0
LINE
8
Layer 1
10
77.813767
20
8.011482
11
77.354880
21
9.367472
0
LINE
8
Layer 1
10
77.354880
20
9.367472
11
77.220006
21
9.842895
0
LINE
8
Layer 1
10
77.220006
20
9.842895
11
77.151794
21
10.110062
0
LINE
8
Layer 1
10
77.151794
20
10.110062
11
76.933719
21
11.095530
0
LINE
8
Layer 1
10
76.933719
20
11.095530
11
76.763187
21
12.175570
0
LINE
8
Layer 1
10
76.763187
20
12.175570
11
76.683642
21
14.982486
0
LINE
8
Layer 1
10
76.683642
20
14.982486
11
77.156442
21
17.573170
0
LINE
8
Layer 1
10
77.156442
20
17.573170
11
77.885080
21
19.404580
0
LINE
8
Layer 1
10
77.885080
20
19.404580
11
78.418381
21
20.959010
0
LINE
8
Layer 1
10
78.418381
20
20.959010
11
78.418910
21
22.265390
0
LINE
8
Layer 1
10
78.418910
20
22.265390
11
78.025136
21
23.478750
0
LINE
8
Layer 1
10
78.025136
20
23.478750
11
77.394355
21
24.420160
0
LINE
8
Layer 1
10
77.394355
20
24.420160
11
76.573949
21
25.139317
0
LINE
8
Layer 1
10
76.573949
20
25.139317
11
75.611231
21
25.598956
0
LINE
8
Layer 1
10
75.611231
20
25.598956
11
74.553516
21
25.761810
0
LINE
8
Layer 1
10
74.553516
20
25.761810
11
74.553500
21
25.761800
0
LINE
8
Layer 1
10
13.704100
20
25.403200
11
12.218412
21
25.386972
0
LINE
8
Layer 1
10
12.218412
20
25.386972
11
11.573401
21
25.200474
0
LINE
8
Layer 1
10
11.573401
20
25.200474
11
11.016930
21
24.884886
0
LINE
8
Layer 1
10
11.016930
20
24.884886
11
10.318266
21
24.051863
0
LINE
8
Layer 1
10
10.318266
20
24.051863
11
9.608409
21
22.493981
0
LINE
8
Layer 1
10
9.608409
20
22.493981
11
8.928176
21
20.262953
0
LINE
8
Layer 1
10
8.928176
20
20.262953
11
8.728188
21
19.465587
0
LINE
8
Layer 1
10
8.728188
20
19.465587
11
8.458437
21
18.422237
0
LINE
8
Layer 1
10
8.458437
20
18.422237
11
8.122024
21
16.949977
0
LINE
8
Layer 1
10
8.122024
20
16.949977
11
7.771141
21
15.414667
0
LINE
8
Layer 1
10
7.771141
20
15.414667
11
7.330858
21
14.484492
0
LINE
8
Layer 1
10
7.330858
20
14.484492
11
7.214069
21
16.193942
0
LINE
8
Layer 1
10
7.214069
20
16.193942
11
7.156550
21
17.274647
0
LINE
8
Layer 1
10
7.156550
20
17.274647
11
6.990310
21
17.984012
0
LINE
8
Layer 1
10
6.990310
20
17.984012
11
6.271551
21
19.266637
0
LINE
8
Layer 1
10
6.271551
20
19.266637
11
5.128410
21
20.180772
0
LINE
8
Layer 1
10
5.128410
20
20.180772
11
3.859760
21
20.615370
0
LINE
8
Layer 1
10
3.859760
20
20.615370
11
2.846900
21
20.567828
0
LINE
8
Layer 1
10
2.846900
20
20.567828
11
1.686002
21
20.079509
0
LINE
8
Layer 1
10
1.686002
20
20.079509
11
0.619130
21
19.228898
0
LINE
8
Layer 1
10
0.619130
20
19.228898
11
-0.081406
21
18.162410
0
LINE
8
Layer 1
10
-0.081406
20
18.162410
11
-0.438170
21
16.727758
0
LINE
8
Layer 1
10
-0.438170
20
16.727758
11
-0.447988
21
14.951128
0
LINE
8
Layer 1
10
-0.447988
20
14.951128
11
-0.410265
21
14.519114
0
LINE
8
Layer 1
10
-0.410265
20
14.519114
11
-0.351354
21
13.859207
0
LINE
8
Layer 1
10
-0.351354
20
13.859207
11
-0.270739
21
12.723357
0
LINE
8
Layer 1
10
-0.270739
20
12.723357
11
-0.068168
21
11.137407
0
LINE
8
Layer 1
10
-0.068168
20
11.137407
11
-0.010290
21
10.862489
0
LINE
8
Layer 1
10
-0.010290
20
10.862489
11
0.132854
21
10.234621
0
LINE
8
Layer 1
10
0.132854
20
10.234621
11
0.215536
21
9.877537
0
LINE
8
Layer 1
10
0.215536
20
9.877537
11
0.256877
21
9.689435
0
LINE
8
Layer 1
10
0.256877
20
9.689435
11
0.347311
21
9.243985
0
LINE
8
Layer 1
10
0.347311
20
9.243985
11
0.723926
21
7.769416
0
LINE
8
Layer 1
10
0.723926
20
7.769416
11
1.452151
21
5.732575
0
LINE
8
Layer 1
10
1.452151
20
5.732575
11
1.846442
21
4.640135
0
LINE
8
Layer 1
10
1.846442
20
4.640135
11
2.777650
21
2.476445
0
LINE
8
Layer 1
10
2.777650
20
2.476445
11
3.367254
21
1.688853
0
LINE
8
Layer 1
10
3.367254
20
1.688853
11
4.071873
21
1.091031
0
LINE
8
Layer 1
10
4.071873
20
1.091031
11
4.882950
21
0.691631
0
LINE
8
Layer 1
10
4.882950
20
0.691631
11
5.791930
21
0.499305
0
LINE
8
Layer 1
10
5.791930
20
0.499305
11
7.255024
21
0.631921
0
LINE
8
Layer 1
10
7.255024
20
0.631921
11
8.698210
21
1.248611
0
LINE
8
Layer 1
10
8.698210
20
1.248611
11
10.291024
21
2.571804
0
LINE
8
Layer 1
10
10.291024
20
2.571804
11
11.976560
21
4.744001
0
LINE
8
Layer 1
10
11.976560
20
4.744001
11
12.458701
21
5.469537
0
LINE
8
Layer 1
10
12.458701
20
5.469537
11
12.921721
21
6.224529
0
LINE
8
Layer 1
10
12.921721
20
6.224529
11
14.571231
21
9.421749
0
LINE
8
Layer 1
10
14.571231
20
9.421749
11
15.905001
21
13.138829
0
LINE
8
Layer 1
10
15.905001
20
13.138829
11
16.260534
21
14.523759
0
LINE
8
Layer 1
10
16.260534
20
14.523759
11
16.318928
21
14.778007
0
LINE
8
Layer 1
10
16.318928
20
14.778007
11
16.869798
21
18.275467
0
LINE
8
Layer 1
10
16.869798
20
18.275467
11
17.006224
21
20.067087
0
LINE
8
Layer 1
10
17.006224
20
20.067087
11
17.021416
21
21.500632
0
LINE
8
Layer 1
10
17.021416
20
21.500632
11
16.883653
21
22.716898
0
LINE
8
Layer 1
10
16.883653
20
22.716898
11
16.569194
21
23.706362
0
LINE
8
Layer 1
10
16.569194
20
23.706362
11
16.054300
21
24.459500
0
LINE
8
Layer 1
10
16.054300
20
24.459500
11
15.048625
21
25.081200
0
LINE
8
Layer 1
10
15.048625
20
25.081200
11
13.704100
21
25.403200
0
LINE
8
Layer 1
10
13.704100
20
25.403200
11
13.704100
21
25.403200
0
LINE
8
Layer 1
10
52.472200
20
21.078400
11
51.735297
21
21.045327
0
LINE
8
Layer 1
10
51.735297
20
21.045327
11
50.144627
21
20.670832
0
LINE
8
Layer 1
10
50.144627
20
20.670832
11
48.712747
21
19.816977
0
LINE
8
Layer 1
10
48.712747
20
19.816977
11
48.047090
21
19.174351
0
LINE
8
Layer 1
10
48.047090
20
19.174351
11
47.558817
21
18.379857
0
LINE
8
Layer 1
10
47.558817
20
18.379857
11
46.946635
21
16.336816
0
LINE
8
Layer 1
10
46.946635
20
16.336816
11
46.687037
21
13.635447
0
LINE
8
Layer 1
10
46.687037
20
13.635447
11
46.722176
21
11.291927
0
LINE
8
Layer 1
10
46.722176
20
11.291927
11
46.748026
21
10.914690
0
LINE
8
Layer 1
10
46.748026
20
10.914690
11
46.806935
21
10.095620
0
LINE
8
Layer 1
10
46.806935
20
10.095620
11
46.889618
21
9.147358
0
LINE
8
Layer 1
10
46.889618
20
9.147358
11
46.931993
21
8.705525
0
LINE
8
Layer 1
10
46.931993
20
8.705525
11
47.090640
21
7.126815
0
LINE
8
Layer 1
10
47.090640
20
7.126815
11
47.157302
21
6.401279
0
LINE
8
Layer 1
10
47.157302
20
6.401279
11
47.308715
21
4.776579
0
LINE
8
Layer 1
10
47.308715
20
4.776579
11
47.728021
21
2.558614
0
LINE
8
Layer 1
10
47.728021
20
2.558614
11
48.058132
21
1.740522
0
LINE
8
Layer 1
10
48.058132
20
1.740522
11
48.491585
21
1.092569
0
LINE
8
Layer 1
10
48.491585
20
1.092569
11
49.292117
21
0.481713
0
LINE
8
Layer 1
10
49.292117
20
0.481713
11
50.321445
21
0.176347
0
LINE
8
Layer 1
10
50.321445
20
0.176347
11
50.776197
21
0.147926
0
LINE
8
Layer 1
10
50.776197
20
0.147926
11
51.766343
21
0.279710
0
LINE
8
Layer 1
10
51.766343
20
0.279710
11
52.654117
21
0.687945
0
LINE
8
Layer 1
10
52.654117
20
0.687945
11
53.381204
21
1.404179
0
LINE
8
Layer 1
10
53.381204
20
1.404179
11
54.043177
21
2.875409
0
LINE
8
Layer 1
10
54.043177
20
2.875409
11
54.275722
21
3.757008
0
LINE
8
Layer 1
10
54.275722
20
3.757008
11
55.235867
21
8.928778
0
LINE
8
Layer 1
10
55.235867
20
8.928778
11
55.310800
21
9.465179
0
LINE
8
Layer 1
10
55.310800
20
9.465179
11
55.387280
21
10.069276
0
LINE
8
Layer 1
10
55.387280
20
10.069276
11
55.512854
21
11.195306
0
LINE
8
Layer 1
10
55.512854
20
11.195306
11
55.622407
21
12.394716
0
LINE
8
Layer 1
10
55.622407
20
12.394716
11
55.647198
21
12.730096
0
LINE
8
Layer 1
10
55.647198
20
12.730096
11
55.748483
21
14.556856
0
LINE
8
Layer 1
10
55.748483
20
14.556856
11
55.919533
21
16.279746
0
LINE
8
Layer 1
10
55.919533
20
16.279746
11
56.003250
21
18.158696
0
LINE
8
Layer 1
10
56.003250
20
18.158696
11
55.725314
21
19.014494
0
LINE
8
Layer 1
10
55.725314
20
19.014494
11
55.171777
21
19.831976
0
LINE
8
Layer 1
10
55.171777
20
19.831976
11
54.244325
21
20.589622
0
LINE
8
Layer 1
10
54.244325
20
20.589622
11
53.103687
21
21.039136
0
LINE
8
Layer 1
10
53.103687
20
21.039136
11
52.472201
21
21.078410
0
LINE
8
Layer 1
10
52.472201
20
21.078410
11
52.472200
21
21.078400
0
LINE
8
Layer 1
10
23.178900
20
20.301187
11
22.674022
21
20.253128
0
LINE
8
Layer 1
10
22.674022
20
20.253128
11
21.794878
21
19.924512
0
LINE
8
Layer 1
10
21.794878
20
19.924512
11
21.003153
21
19.367378
0
LINE
8
Layer 1
10
21.003153
20
19.367378
11
20.322357
21
18.613863
0
LINE
8
Layer 1
10
20.322357
20
18.613863
11
19.776000
21
17.696100
0
LINE
8
Layer 1
10
19.776000
20
17.696100
11
18.950800
21
15.101500
0
LINE
8
Layer 1
10
18.950800
20
15.101500
11
18.876386
21
14.787308
0
LINE
8
Layer 1
10
18.876386
20
14.787308
11
18.466076
21
12.717668
0
LINE
8
Layer 1
10
18.466076
20
12.717668
11
18.282108
21
11.460898
0
LINE
8
Layer 1
10
18.282108
20
11.460898
11
18.107442
21
9.739558
0
LINE
8
Layer 1
10
18.107442
20
9.739558
11
18.009774
21
6.845168
0
LINE
8
Layer 1
10
18.009774
20
6.845168
11
18.181856
21
4.585878
0
LINE
8
Layer 1
10
18.181856
20
4.585878
11
18.526671
21
3.385445
0
LINE
8
Layer 1
10
18.526671
20
3.385445
11
19.104279
21
2.391698
0
LINE
8
Layer 1
10
19.104279
20
2.391698
11
19.818752
21
1.676122
0
LINE
8
Layer 1
10
19.818752
20
1.676122
11
20.693329
21
1.057418
0
LINE
8
Layer 1
10
20.693329
20
1.057418
11
21.626182
21
0.594606
0
LINE
8
Layer 1
10
21.626182
20
0.594606
11
22.559359
21
0.298292
0
LINE
8
Layer 1
10
22.559359
20
0.298292
11
22.744360
21
0.256951
0
LINE
8
Layer 1
10
22.744360
20
0.256951
11
23.322102
21
0.173234
0
LINE
8
Layer 1
10
23.322102
20
0.173234
11
24.228506
21
0.172705
0
LINE
8
Layer 1
10
24.228506
20
0.172705
11
25.240846
21
0.329285
0
LINE
8
Layer 1
10
25.240846
20
0.329285
11
26.154218
21
0.749952
0
LINE
8
Layer 1
10
26.154218
20
0.749952
11
26.753416
21
1.449625
0
LINE
8
Layer 1
10
26.753416
20
1.449625
11
27.060375
21
2.444912
0
LINE
8
Layer 1
10
27.060375
20
2.444912
11
27.089831
21
4.067552
0
LINE
8
Layer 1
10
27.089831
20
4.067552
11
27.046939
21
4.720741
0
LINE
8
Layer 1
10
27.046939
20
4.720741
11
27.013350
21
5.272645
0
LINE
8
Layer 1
10
27.013350
20
5.272645
11
26.972525
21
5.929968
0
LINE
8
Layer 1
10
26.972525
20
5.929968
11
26.930668
21
6.605895
0
LINE
8
Layer 1
10
26.930668
20
6.605895
11
26.872790
21
7.552089
0
LINE
8
Layer 1
10
26.872790
20
7.552089
11
26.854190
21
7.814605
0
LINE
8
Layer 1
10
26.854190
20
7.814605
11
26.839215
21
8.049216
0
LINE
8
Layer 1
10
26.839215
20
8.049216
11
26.821647
21
8.341188
0
LINE
8
Layer 1
10
26.821647
20
8.341188
11
26.780305
21
8.971123
0
LINE
8
Layer 1
10
26.780305
20
8.971123
11
26.722428
21
9.906982
0
LINE
8
Layer 1
10
26.722428
20
9.906982
11
26.698139
21
10.327628
0
LINE
8
Layer 1
10
26.698139
20
10.327628
11
26.672289
21
10.738972
0
LINE
8
Layer 1
10
26.672289
20
10.738972
11
26.647498
21
11.105358
0
LINE
8
Layer 1
10
26.647498
20
11.105358
11
26.613909
21
11.609719
0
LINE
8
Layer 1
10
26.613909
20
11.609719
11
26.637166
21
13.422009
0
LINE
8
Layer 1
10
26.637166
20
13.422009
11
26.788060
21
14.831739
0
LINE
8
Layer 1
10
26.788060
20
14.831739
11
26.742134
21
16.255834
0
LINE
8
Layer 1
10
26.742134
20
16.255834
11
26.398938
21
17.702359
0
LINE
8
Layer 1
10
26.398938
20
17.702359
11
25.833598
21
18.942079
0
LINE
8
Layer 1
10
25.833598
20
18.942079
11
25.048634
21
19.707923
0
LINE
8
Layer 1
10
25.048634
20
19.707923
11
23.754654
21
20.263961
0
LINE
8
Layer 1
10
23.754654
20
20.263961
11
23.178979
21
20.301168
0
LINE
8
Layer 1
10
23.178979
20
20.301168
11
23.178900
21
20.301187
0
LINE
8
Layer 1
10
41.501800
20
19.968391
11
40.274427
21
19.860976
0
LINE
8
Layer 1
10
40.274427
20
19.860976
11
39.258010
21
19.433540
0
LINE
8
Layer 1
10
39.258010
20
19.433540
11
38.649263
21
18.984473
0
LINE
8
Layer 1
10
38.649263
20
18.984473
11
37.949984
21
18.186583
0
LINE
8
Layer 1
10
37.949984
20
18.186583
11
37.347533
21
17.201643
0
LINE
8
Layer 1
10
37.347533
20
17.201643
11
36.771343
21
15.466863
0
LINE
8
Layer 1
10
36.771343
20
15.466863
11
36.495391
21
16.368616
0
LINE
8
Layer 1
10
36.495391
20
16.368616
11
35.925916
21
17.558726
0
LINE
8
Layer 1
10
35.925916
20
17.558726
11
35.327769
21
18.302903
0
LINE
8
Layer 1
10
35.327769
20
18.302903
11
34.641636
21
18.913541
0
LINE
8
Layer 1
10
34.641636
20
18.913541
11
33.883864
21
19.373354
0
LINE
8
Layer 1
10
33.883864
20
19.373354
11
33.070796
21
19.665056
0
LINE
8
Layer 1
10
33.070796
20
19.665056
11
32.291517
21
19.757040
0
LINE
8
Layer 1
10
32.291517
20
19.757040
11
31.550238
21
19.663416
0
LINE
8
Layer 1
10
31.550238
20
19.663416
11
30.840248
21
19.392668
0
LINE
8
Layer 1
10
30.840248
20
19.392668
11
30.170663
21
18.956712
0
LINE
8
Layer 1
10
30.170663
20
18.956712
11
29.550597
21
18.367460
0
LINE
8
Layer 1
10
29.550597
20
18.367460
11
29.005410
21
17.587664
0
LINE
8
Layer 1
10
29.005410
20
17.587664
11
28.722932
21
16.782626
0
LINE
8
Layer 1
10
28.722932
20
16.782626
11
28.635925
21
15.850304
0
LINE
8
Layer 1
10
28.635925
20
15.850304
11
28.710339
21
14.834344
0
LINE
8
Layer 1
10
28.710339
20
14.834344
11
29.135119
21
12.928524
0
LINE
8
Layer 1
10
29.135119
20
12.928524
11
29.247257
21
12.538367
0
LINE
8
Layer 1
10
29.247257
20
12.538367
11
29.965558
21
10.392247
0
LINE
8
Layer 1
10
29.965558
20
10.392247
11
30.398088
21
9.045047
0
LINE
8
Layer 1
10
30.398088
20
9.045047
11
30.566037
21
8.467822
0
LINE
8
Layer 1
10
30.566037
20
8.467822
11
30.691095
21
8.043042
0
LINE
8
Layer 1
10
30.691095
20
8.043042
11
31.696715
21
5.158472
0
LINE
8
Layer 1
10
31.696715
20
5.158472
11
32.684511
21
3.255432
0
LINE
8
Layer 1
10
32.684511
20
3.255432
11
33.893995
21
1.694092
0
LINE
8
Layer 1
10
33.893995
20
1.694092
11
35.007343
21
0.853411
0
LINE
8
Layer 1
10
35.007343
20
0.853411
11
36.316585
21
0.497782
0
LINE
8
Layer 1
10
36.316585
20
0.497782
11
37.386285
21
0.508127
0
LINE
8
Layer 1
10
37.386285
20
0.508127
11
38.643055
21
0.706564
0
LINE
8
Layer 1
10
38.643055
20
0.706564
11
39.881225
21
1.285339
0
LINE
8
Layer 1
10
39.881225
20
1.285339
11
40.825352
21
2.226366
0
LINE
8
Layer 1
10
40.825352
20
2.226366
11
41.111639
21
2.628925
0
LINE
8
Layer 1
10
41.111639
20
2.628925
11
41.773615
21
3.627313
0
LINE
8
Layer 1
10
41.773615
20
3.627313
11
42.832073
21
5.659046
0
LINE
8
Layer 1
10
42.832073
20
5.659046
11
43.611225
21
8.281283
0
LINE
8
Layer 1
10
43.611225
20
8.281283
11
43.726980
21
8.786678
0
LINE
8
Layer 1
10
43.726980
20
8.786678
11
43.836017
21
9.275020
0
LINE
8
Layer 1
10
43.836017
20
9.275020
11
44.160028
21
10.667180
0
LINE
8
Layer 1
10
44.160028
20
10.667180
11
44.516077
21
12.323410
0
LINE
8
Layer 1
10
44.516077
20
12.323410
11
44.715030
21
14.676240
0
LINE
8
Layer 1
10
44.715030
20
14.676240
11
44.632421
21
16.164429
0
LINE
8
Layer 1
10
44.632421
20
16.164429
11
44.364664
21
17.583550
0
LINE
8
Layer 1
10
44.364664
20
17.583550
11
44.108842
21
18.342145
0
LINE
8
Layer 1
10
44.108842
20
18.342145
11
43.748167
21
18.976740
0
LINE
8
Layer 1
10
43.748167
20
18.976740
11
43.151821
21
19.543630
0
LINE
8
Layer 1
10
43.151821
20
19.543630
11
42.428113
21
19.858022
0
LINE
8
Layer 1
10
42.428113
20
19.858022
11
41.501791
21
19.968410
0
LINE
8
Layer 1
10
41.501791
20
19.968410
11
41.501800
21
19.968391
0
LINE
8
Layer 1
10
89.008900
20
19.968391
11
87.230104
21
19.892248
0
LINE
8
Layer 1
10
87.230104
20
19.892248
11
85.656140
21
19.589086
0
LINE
8
Layer 1
10
85.656140
20
19.589086
11
84.367364
21
19.117987
0
LINE
8
Layer 1
10
84.367364
20
19.117987
11
83.229588
21
18.457636
0
LINE
8
Layer 1
10
83.229588
20
18.457636
11
82.272722
21
17.624425
0
LINE
8
Layer 1
10
82.272722
20
17.624425
11
81.526680
21
16.634746
0
LINE
8
Layer 1
10
81.526680
20
16.634746
11
80.912765
21
15.269456
0
LINE
8
Layer 1
10
80.912765
20
15.269456
11
80.488106
21
13.245254
0
LINE
8
Layer 1
10
80.488106
20
13.245254
11
80.404787
21
10.632016
0
LINE
8
Layer 1
10
80.404787
20
10.632016
11
80.422885
21
9.321506
0
LINE
8
Layer 1
10
80.422885
20
9.321506
11
80.422885
21
9.320977
0
LINE
8
Layer 1
10
80.422885
20
9.320977
11
80.603235
21
6.823457
0
LINE
8
Layer 1
10
80.603235
20
6.823457
11
80.860066
21
5.518107
0
LINE
8
Layer 1
10
80.860066
20
5.518107
11
80.942232
21
5.162574
0
LINE
8
Layer 1
10
80.942232
20
5.162574
11
81.361326
21
3.805034
0
LINE
8
Layer 1
10
81.361326
20
3.805034
11
81.815562
21
2.912583
0
LINE
8
Layer 1
10
81.815562
20
2.912583
11
82.142674
21
2.308486
0
LINE
8
Layer 1
10
82.142674
20
2.308486
11
83.199974
21
0.832096
0
LINE
8
Layer 1
10
83.199974
20
0.832096
11
84.230163
21
0.058893
0
LINE
8
Layer 1
10
84.230163
20
0.058893
11
85.371414
21
-0.291864
0
LINE
8
Layer 1
10
85.371414
20
-0.291864
11
85.989980
21
-0.293981
0
LINE
8
Layer 1
10
85.989980
20
-0.293981
11
86.645754
21
-0.260908
0
LINE
8
Layer 1
10
86.645754
20
-0.260908
11
88.258054
21
0.087392
0
LINE
8
Layer 1
10
88.258054
20
0.087392
11
89.627994
21
0.679084
0
LINE
8
Layer 1
10
89.627994
20
0.679084
11
90.942515
21
1.448629
0
LINE
8
Layer 1
10
90.942515
20
1.448629
11
92.072365
21
2.368197
0
LINE
8
Layer 1
10
92.072365
20
2.368197
11
93.010457
21
3.433455
0
LINE
8
Layer 1
10
93.010457
20
3.433455
11
93.749704
21
4.640074
0
LINE
8
Layer 1
10
93.749704
20
4.640074
11
94.091283
21
5.572316
0
LINE
8
Layer 1
10
94.091283
20
5.572316
11
93.988448
21
6.414124
0
LINE
8
Layer 1
10
93.988448
20
6.414124
11
93.723828
21
6.794214
0
LINE
8
Layer 1
10
93.723828
20
6.794214
11
93.346678
21
7.081528
0
LINE
8
Layer 1
10
93.346678
20
7.081528
11
92.319298
21
7.465224
0
LINE
8
Layer 1
10
92.319298
20
7.465224
11
91.201602
21
7.605566
0
LINE
8
Layer 1
10
91.201602
20
7.605566
11
90.068788
21
7.475559
0
LINE
8
Layer 1
10
90.068788
20
7.475559
11
89.290541
21
7.219244
0
LINE
8
Layer 1
10
89.290541
20
7.219244
11
88.552087
21
7.031659
0
LINE
8
Layer 1
10
88.552087
20
7.031659
11
88.244094
21
7.091087
0
LINE
8
Layer 1
10
88.244094
20
7.091087
11
88.121621
21
7.243532
0
LINE
8
Layer 1
10
88.121621
20
7.243532
11
88.003284
21
8.077588
0
LINE
8
Layer 1
10
88.003284
20
8.077588
11
88.013100
21
8.355607
0
LINE
8
Layer 1
10
88.013100
20
8.355607
11
88.017227
21
8.378345
0
LINE
8
Layer 1
10
88.017227
20
8.378345
11
88.441491
21
8.920947
0
LINE
8
Layer 1
10
88.441491
20
8.920947
11
89.161858
21
9.219120
0
LINE
8
Layer 1
10
89.161858
20
9.219120
11
89.843471
21
9.461999
0
LINE
8
Layer 1
10
89.843471
20
9.461999
11
90.069814
21
9.554500
0
LINE
8
Layer 1
10
90.069814
20
9.554500
11
90.312691
21
9.653718
0
LINE
8
Layer 1
10
90.312691
20
9.653718
11
90.413979
21
9.698160
0
LINE
8
Layer 1
10
90.413979
20
9.698160
11
92.422803
21
10.652590
0
LINE
8
Layer 1
10
92.422803
20
10.652590
11
93.546079
21
11.483580
0
LINE
8
Layer 1
10
93.546079
20
11.483580
11
94.266446
21
12.488170
0
LINE
8
Layer 1
10
94.266446
20
12.488170
11
94.712930
21
13.920640
0
LINE
8
Layer 1
10
94.712930
20
13.920640
11
94.756856
21
14.708188
0
LINE
8
Layer 1
10
94.756856
20
14.708188
11
94.635934
21
15.911728
0
LINE
8
Layer 1
10
94.635934
20
15.911728
11
94.097108
21
17.279780
0
LINE
8
Layer 1
10
94.097108
20
17.279780
11
93.224767
21
18.421780
0
LINE
8
Layer 1
10
93.224767
20
18.421780
11
92.077322
21
19.278980
0
LINE
8
Layer 1
10
92.077322
20
19.278980
11
90.713184
21
19.792628
0
LINE
8
Layer 1
10
90.713184
20
19.792628
11
89.008894
21
19.968328
0
LINE
8
Layer 1
10
89.008894
20
19.968328
11
89.008900
21
19.968391
0
LINE
8
Layer 1
10
87.263270
20
15.345941
11
87.939713
21
15.184710
0
LINE
8
Layer 1
10
87.939713
20
15.184710
11
88.574815
21
14.834861
0
LINE
8
Layer 1
10
88.574815
20
14.834861
11
88.762230
21
14.570601
0
LINE
8
Layer 1
10
88.762230
20
14.570601
11
88.755165
21
14.357888
0
LINE
8
Layer 1
10
88.755165
20
14.357888
11
88.718994
21
14.263320
0
LINE
8
Layer 1
10
88.718994
20
14.263320
11
88.524690
21
14.061265
0
LINE
8
Layer 1
10
88.524690
20
14.061265
11
87.722673
21
13.753790
0
LINE
8
Layer 1
10
87.722673
20
13.753790
11
87.332516
21
13.737770
0
LINE
8
Layer 1
10
87.332516
20
13.737770
11
86.736386
21
13.941707
0
LINE
8
Layer 1
10
86.736386
20
13.941707
11
86.433347
21
14.434368
0
LINE
8
Layer 1
10
86.433347
20
14.434368
11
86.408026
21
14.726340
0
LINE
8
Layer 1
10
86.408026
20
14.726340
11
86.420435
21
14.990923
0
LINE
8
Layer 1
10
86.420435
20
14.990923
11
86.537978
21
15.239115
0
LINE
8
Layer 1
10
86.537978
20
15.239115
11
86.809557
21
15.339222
0
LINE
8
Layer 1
10
86.809557
20
15.339222
11
87.263275
21
15.345940
0
LINE
8
Layer 1
10
87.263275
20
15.345940
11
87.263270
21
15.345941
0
LINE
8
Text
10
63.227100
20
0.034719
11
62.575114
21
0.190085
0
LINE
8
Text
10
62.575114
20
0.190085
11
61.527508
21
0.704140
0
LINE
8
Text
10
61.527508
20
0.704140
11
60.598844
21
1.505065
0
LINE
8
Text
10
60.598844
20
1.505065
11
59.911459
21
2.430762
0
LINE
8
Text
10
59.911459
20
2.430762
11
59.402014
21
3.512252
0
LINE
8
Text
10
59.402014
20
3.512252
11
59.069741
21
4.751648
0
LINE
8
Text
10
59.069741
20
4.751648
11
58.913874
21
6.151065
0
LINE
8
Text
10
58.913874
20
6.151065
11
58.950668
21
8.084435
0
LINE
8
Text
10
58.950668
20
8.084435
11
59.210993
21
10.176135
0
LINE
8
Text
10
59.210993
20
10.176135
11
59.261441
21
10.451139
0
LINE
8
Text
10
59.261441
20
10.451139
11
59.935096
21
13.159519
0
LINE
8
Text
10
59.935096
20
13.159519
11
60.186616
21
14.042867
0
LINE
8
Text
10
60.186616
20
14.042867
11
60.526543
21
15.692897
0
LINE
8
Text
10
60.526543
20
15.692897
11
60.655122
21
17.492927
0
LINE
8
Text
10
60.655122
20
17.492927
11
60.578023
21
18.852126
0
LINE
8
Text
10
60.578023
20
18.852126
11
60.320904
21
20.151307
0
LINE
8
Text
10
60.320904
20
20.151307
11
59.935613
21
21.251247
0
LINE
8
Text
10
59.935613
20
21.251247
11
59.342434
21
22.393007
0
LINE
8
Text
10
59.342434
20
22.393007
11
58.655642
21
23.693027
0
LINE
8
Text
10
58.655642
20
23.693027
11
58.459450
21
24.734707
0
LINE
8
Text
10
58.459450
20
24.734707
11
58.637906
21
25.736350
0
LINE
8
Text
10
58.637906
20
25.736350
11
59.159186
21
26.545387
0
LINE
8
Text
10
59.159186
20
26.545387
11
59.697755
21
26.949288
0
LINE
8
Text
10
59.697755
20
26.949288
11
60.360386
21
27.178509
0
LINE
8
Text
10
60.360386
20
27.178509
11
61.302070
21
27.178509
0
LINE
8
Text
10
61.302070
20
27.178509
11
62.688517
21
26.658241
0
LINE
8
Text
10
62.688517
20
26.658241
11
64.010690
21
25.607769
0
LINE
8
Text
10
64.010690
20
25.607769
11
65.015787
21
24.327477
0
LINE
8
Text
10
65.015787
20
24.327477
11
65.766077
21
22.810007
0
LINE
8
Text
10
65.766077
20
22.810007
11
66.253999
21
21.075220
0
LINE
8
Text
10
66.253999
20
21.075220
11
66.471990
21
19.142979
0
LINE
8
Text
10
66.471990
20
19.142979
11
66.452356
21
17.227769
0
LINE
8
Text
10
66.452356
20
17.227769
11
66.427089
21
16.892944
0
LINE
8
Text
10
66.427089
20
16.892944
11
66.336194
21
15.851264
0
LINE
8
Text
10
66.336194
20
15.851264
11
66.260319
21
15.167920
0
LINE
8
Text
10
66.260319
20
15.167920
11
66.184676
21
14.584577
0
LINE
8
Text
10
66.184676
20
14.584577
11
66.068945
21
13.717895
0
LINE
8
Text
10
66.068945
20
13.717895
11
65.917389
21
12.626205
0
LINE
8
Text
10
65.917389
20
12.626205
11
65.660966
21
10.342835
0
LINE
8
Text
10
65.660966
20
10.342835
11
65.597734
21
8.791790
0
LINE
8
Text
10
65.597734
20
8.791790
11
65.704336
21
7.592795
0
LINE
8
Text
10
65.704336
20
7.592795
11
66.206791
21
6.051105
0
LINE
8
Text
10
66.206791
20
6.051105
11
66.611639
21
5.051085
0
LINE
8
Text
10
66.611639
20
5.051085
11
66.677082
21
4.867750
0
LINE
8
Text
10
66.677082
20
4.867750
11
66.860383
21
4.301074
0
LINE
8
Text
10
66.860383
20
4.301074
11
67.034158
21
3.076054
0
LINE
8
Text
10
67.034158
20
3.076054
11
66.949708
21
2.284375
0
LINE
8
Text
10
66.949708
20
2.284375
11
66.375729
21
1.200646
0
LINE
8
Text
10
66.375729
20
1.200646
11
65.358968
21
0.409315
0
LINE
8
Text
10
65.358968
20
0.409315
11
64.295784
21
0.054271
0
LINE
8
Text
10
64.295784
20
0.054271
11
63.227108
21
0.034758
0
LINE
8
Text
10
63.227108
20
0.034758
11
63.227100
21
0.034719
0
LINE
8
Text
10
85.419200
20
0.177634
11
84.446957
21
0.477393
0
LINE
8
Text
10
84.446957
20
0.477393
11
83.534280
21
1.165155
0
LINE
8
Text
10
83.534280
20
1.165155
11
82.561234
21
2.526015
0
LINE
8
Text
10
82.561234
20
2.526015
11
82.227306
21
3.142771
0
LINE
8
Text
10
82.227306
20
3.142771
11
81.795371
21
3.989583
0
LINE
8
Text
10
81.795371
20
3.989583
11
81.402141
21
5.267723
0
LINE
8
Text
10
81.402141
20
5.267723
11
81.319576
21
5.626062
0
LINE
8
Text
10
81.319576
20
5.626062
11
81.070868
21
6.884412
0
LINE
8
Text
10
81.070868
20
6.884412
11
80.894798
21
9.320782
0
LINE
8
Text
10
80.894798
20
9.320782
11
80.876769
21
10.642812
0
LINE
8
Text
10
80.876769
20
10.642812
11
80.956792
21
13.192127
0
LINE
8
Text
10
80.956792
20
13.192127
11
81.360214
21
15.120892
0
LINE
8
Text
10
81.360214
20
15.120892
11
81.932292
21
16.394082
0
LINE
8
Text
10
81.932292
20
16.394082
11
82.617715
21
17.302319
0
LINE
8
Text
10
82.617715
20
17.302319
11
83.504711
21
18.073855
0
LINE
8
Text
10
83.504711
20
18.073855
11
84.567595
21
18.690407
0
LINE
8
Text
10
84.567595
20
18.690407
11
85.780682
21
19.133692
0
LINE
8
Text
10
85.780682
20
19.133692
11
87.283999
21
19.424170
0
LINE
8
Text
10
87.283999
20
19.424170
11
89.002602
21
19.496618
0
LINE
8
Text
10
89.002602
20
19.496618
11
90.610962
21
19.332272
0
LINE
8
Text
10
90.610962
20
19.332272
11
91.851095
21
18.865804
0
LINE
8
Text
10
91.851095
20
18.865804
11
92.893786
21
18.087190
0
LINE
8
Text
10
92.893786
20
18.087190
11
93.686590
21
17.048359
0
LINE
8
Text
10
93.686590
20
17.048359
11
94.177062
21
15.801242
0
LINE
8
Text
10
94.177062
20
15.801242
11
94.285009
21
14.709562
0
LINE
8
Text
10
94.285009
20
14.709562
11
94.248100
21
14.001217
0
LINE
8
Text
10
94.248100
20
14.001217
11
93.844760
21
12.700397
0
LINE
8
Text
10
93.844760
20
12.700397
11
93.211179
21
11.816393
0
LINE
8
Text
10
93.211179
20
11.816393
11
92.180695
21
11.057084
0
LINE
8
Text
10
92.180695
20
11.057084
11
90.227619
21
10.131633
0
LINE
8
Text
10
90.227619
20
10.131633
11
90.119284
21
10.084337
0
LINE
8
Text
10
90.119284
20
10.084337
11
89.894280
21
9.992519
0
LINE
8
Text
10
89.894280
20
9.992519
11
89.652608
21
9.893552
0
LINE
8
Text
10
89.652608
20
9.893552
11
89.019264
21
9.668596
0
LINE
8
Text
10
89.019264
20
9.668596
11
88.144778
21
9.288122
0
LINE
8
Text
10
88.144778
20
9.288122
11
87.574700
21
8.541587
0
LINE
8
Text
10
87.574700
20
8.541587
11
87.531449
21
8.086355
0
LINE
8
Text
10
87.531449
20
8.086355
11
87.695304
21
7.041355
0
LINE
8
Text
10
87.695304
20
7.041355
11
88.016710
21
6.677883
0
LINE
8
Text
10
88.016710
20
6.677883
11
88.552587
21
6.559786
0
LINE
8
Text
10
88.552587
20
6.559786
11
89.457560
21
6.778199
0
LINE
8
Text
10
89.457560
20
6.778199
11
90.177618
21
7.016677
0
LINE
8
Text
10
90.177618
20
7.016677
11
91.199568
21
7.133237
0
LINE
8
Text
10
91.199568
20
7.133237
11
92.202658
21
7.007797
0
LINE
8
Text
10
92.202658
20
7.007797
11
93.095188
21
6.664553
0
LINE
8
Text
10
93.095188
20
6.664553
11
93.561318
21
6.214004
0
LINE
8
Text
10
93.561318
20
6.214004
11
93.626437
21
5.652165
0
LINE
8
Text
10
93.626437
20
5.652165
11
93.327737
21
4.851064
0
LINE
8
Text
10
93.327737
20
4.851064
11
92.631147
21
3.712648
0
LINE
8
Text
10
92.631147
20
3.712648
11
91.746045
21
2.706962
0
LINE
8
Text
10
91.746045
20
2.706962
11
90.674674
21
1.836155
0
LINE
8
Text
10
90.674674
20
1.836155
11
89.419277
21
1.102374
0
LINE
8
Text
10
89.419277
20
1.102374
11
88.094257
21
0.529629
0
LINE
8
Text
10
88.094257
20
0.529629
11
86.594227
21
0.208654
0
LINE
8
Text
10
86.594227
20
0.208654
11
85.419207
21
0.177653
0
LINE
8
Text
10
85.419207
20
0.177653
11
85.419200
21
0.177634
0
LINE
8
Text
10
87.785910
20
13.286334
11
88.820310
21
13.693780
0
LINE
8
Text
10
88.820310
20
13.693780
11
89.112201
21
14.003060
0
LINE
8
Text
10
89.112201
20
14.003060
11
89.203903
21
14.211994
0
LINE
8
Text
10
89.203903
20
14.211994
11
89.207650
21
14.697333
0
LINE
8
Text
10
89.207650
20
14.697333
11
88.910862
21
15.166037
0
LINE
8
Text
10
88.910862
20
15.166037
11
88.085921
21
15.633160
0
LINE
8
Text
10
88.085921
20
15.633160
11
87.320937
21
15.814253
0
LINE
8
Text
10
87.320937
20
15.814253
11
86.716671
21
15.801574
0
LINE
8
Text
10
86.716671
20
15.801574
11
86.231167
21
15.573412
0
LINE
8
Text
10
86.231167
20
15.573412
11
85.966543
21
15.117838
0
LINE
8
Text
10
85.966543
20
15.117838
11
85.936234
21
14.726165
0
LINE
8
Text
10
85.936234
20
14.726165
11
85.983488
21
14.292824
0
LINE
8
Text
10
85.983488
20
14.292824
11
86.450715
21
13.586200
0
LINE
8
Text
10
86.450715
20
13.586200
11
87.277568
21
13.268914
0
LINE
8
Text
10
87.277568
20
13.268914
11
87.785912
21
13.286338
0
LINE
8
Text
10
87.785912
20
13.286338
11
87.785910
21
13.286334
0
LINE
8
Text
10
23.368100
20
0.642992
11
22.851423
21
0.716514
0
LINE
8
Text
10
22.851423
20
0.716514
11
22.659754
21
0.759123
0
LINE
8
Text
10
22.659754
20
0.759123
11
20.933294
21
1.463754
0
LINE
8
Text
10
20.933294
20
1.463754
11
20.121916
21
2.040487
0
LINE
8
Text
10
20.121916
20
2.040487
11
19.471764
21
2.688024
0
LINE
8
Text
10
19.471764
20
2.688024
11
18.964294
21
3.567424
0
LINE
8
Text
10
18.964294
20
3.567424
11
18.646397
21
4.667714
0
LINE
8
Text
10
18.646397
20
4.667714
11
18.481809
21
6.851084
0
LINE
8
Text
10
18.481809
20
6.851084
11
18.577593
21
9.701134
0
LINE
8
Text
10
18.577593
20
9.701134
11
18.750441
21
11.401164
0
LINE
8
Text
10
18.750441
20
11.401164
11
18.932323
21
12.643624
0
LINE
8
Text
10
18.932323
20
12.643624
11
19.334804
21
14.676214
0
LINE
8
Text
10
19.334804
20
14.676214
11
19.410158
21
14.992886
0
LINE
8
Text
10
19.410158
20
14.992886
11
20.201745
21
17.492926
0
LINE
8
Text
10
20.201745
20
17.492926
11
20.701904
21
18.332008
0
LINE
8
Text
10
20.701904
20
18.332008
11
21.316177
21
19.011514
0
LINE
8
Text
10
21.316177
20
19.011514
11
22.016903
21
19.506736
0
LINE
8
Text
10
22.016903
20
19.506736
11
22.776425
21
19.792966
0
LINE
8
Text
10
22.776425
20
19.792966
11
23.193100
21
19.829280
0
LINE
8
Text
10
23.193100
20
19.829280
11
23.659776
21
19.801791
0
LINE
8
Text
10
23.659776
20
19.801791
11
24.786976
21
19.315458
0
LINE
8
Text
10
24.786976
20
19.315458
11
25.441336
21
18.680378
0
LINE
8
Text
10
25.441336
20
18.680378
11
25.952065
21
17.551258
0
LINE
8
Text
10
25.952065
20
17.551258
11
26.274521
21
16.192200
0
LINE
8
Text
10
26.274521
20
16.192200
11
26.317791
21
14.867878
0
LINE
8
Text
10
26.317791
20
14.867878
11
26.168598
21
13.476408
0
LINE
8
Text
10
26.168598
20
13.476408
11
26.143278
21
11.576158
0
LINE
8
Text
10
26.143278
20
11.576158
11
26.176682
21
11.076150
0
LINE
8
Text
10
26.176682
20
11.076150
11
26.201904
21
10.701144
0
LINE
8
Text
10
26.201904
20
10.701144
11
26.226683
21
10.301138
0
LINE
8
Text
10
26.226683
20
10.301138
11
26.251830
21
9.876131
0
LINE
8
Text
10
26.251830
20
9.876131
11
26.309733
21
8.942782
0
LINE
8
Text
10
26.309733
20
8.942782
11
26.351149
21
8.301104
0
LINE
8
Text
10
26.351149
20
8.301104
11
26.368091
21
8.026100
0
LINE
8
Text
10
26.368091
20
8.026100
11
26.384736
21
7.767763
0
LINE
8
Text
10
26.384736
20
7.767763
11
26.401355
21
7.526091
0
LINE
8
Text
10
26.401355
20
7.526091
11
26.459758
21
6.576075
0
LINE
8
Text
10
26.459758
20
6.576075
11
26.501658
21
5.901065
0
LINE
8
Text
10
26.501658
20
5.901065
11
26.542511
21
5.242722
0
LINE
8
Text
10
26.542511
20
5.242722
11
26.576127
21
4.692713
0
LINE
8
Text
10
26.576127
20
4.692713
11
26.618987
21
4.034368
0
LINE
8
Text
10
26.618987
20
4.034368
11
26.595940
21
2.526008
0
LINE
8
Text
10
26.595940
20
2.526008
11
26.330608
21
1.659327
0
LINE
8
Text
10
26.330608
20
1.659327
11
25.875524
21
1.121347
0
LINE
8
Text
10
25.875524
20
1.121347
11
25.117668
21
0.784486
0
LINE
8
Text
10
25.117668
20
0.784486
11
24.193118
21
0.642771
0
LINE
8
Text
10
24.193118
20
0.642771
11
23.368103
21
0.642988
0
LINE
8
Text
10
23.368103
20
0.642988
11
23.368100
21
0.642992
0
LINE
8
Text
10
50.385300
20
0.644259
11
49.502674
21
0.903721
0
LINE
8
Text
10
49.502674
20
0.903721
11
48.848750
21
1.400991
0
LINE
8
Text
10
48.848750
20
1.400991
11
48.180911
21
2.705407
0
LINE
8
Text
10
48.180911
20
2.705407
11
47.777630
21
4.828701
0
LINE
8
Text
10
47.777630
20
4.828701
11
47.627367
21
6.442731
0
LINE
8
Text
10
47.627367
20
6.442731
11
47.559862
21
7.176076
0
LINE
8
Text
10
47.559862
20
7.176076
11
47.401979
21
8.751096
0
LINE
8
Text
10
47.401979
20
8.751096
11
47.359312
21
9.192770
0
LINE
8
Text
10
47.359312
20
9.192770
11
47.277142
21
10.134452
0
LINE
8
Text
10
47.277142
20
10.134452
11
47.218769
21
10.942798
0
LINE
8
Text
10
47.218769
20
10.942798
11
47.193289
21
11.326137
0
LINE
8
Text
10
47.193289
20
11.326137
11
47.159000
21
13.621457
0
LINE
8
Text
10
47.159000
20
13.621457
11
47.415208
21
16.255147
0
LINE
8
Text
10
47.415208
20
16.255147
11
47.984586
21
18.176247
0
LINE
8
Text
10
47.984586
20
18.176247
11
48.411314
21
18.881926
0
LINE
8
Text
10
48.411314
20
18.881926
11
49.002426
21
19.444567
0
LINE
8
Text
10
49.002426
20
19.444567
11
50.319223
21
20.239603
0
LINE
8
Text
10
50.319223
20
20.239603
11
51.782776
21
20.576377
0
LINE
8
Text
10
51.782776
20
20.576377
11
53.002016
21
20.578817
0
LINE
8
Text
10
53.002016
20
20.578817
11
54.004714
21
20.175167
0
LINE
8
Text
10
54.004714
20
20.175167
11
54.812606
21
19.526057
0
LINE
8
Text
10
54.812606
20
19.526057
11
55.302250
21
18.801074
0
LINE
8
Text
10
55.302250
20
18.801074
11
55.536012
21
18.092907
0
LINE
8
Text
10
55.536012
20
18.092907
11
55.451909
21
16.342877
0
LINE
8
Text
10
55.451909
20
16.342877
11
55.277326
21
14.576187
0
LINE
8
Text
10
55.277326
20
14.576187
11
55.177079
21
12.767827
0
LINE
8
Text
10
55.177079
20
12.767827
11
55.151685
21
12.426155
0
LINE
8
Text
10
55.151685
20
12.426155
11
55.043766
21
11.242805
0
LINE
8
Text
10
55.043766
20
11.242805
11
54.919402
21
10.126125
0
LINE
8
Text
10
54.919402
20
10.126125
11
54.844046
21
9.534448
0
LINE
8
Text
10
54.844046
20
9.534448
11
54.768433
21
8.992774
0
LINE
8
Text
10
54.768433
20
8.992774
11
53.817584
21
3.868994
0
LINE
8
Text
10
53.817584
20
3.868994
11
53.590671
21
3.009347
0
LINE
8
Text
10
53.590671
20
3.009347
11
52.996001
21
1.675997
0
LINE
8
Text
10
52.996001
20
1.675997
11
52.393161
21
1.080625
0
LINE
8
Text
10
52.393161
20
1.080625
11
51.636513
21
0.732596
0
LINE
8
Text
10
51.636513
20
0.732596
11
50.780291
21
0.619612
0
LINE
8
Text
10
50.780291
20
0.619612
11
50.385303
21
0.644261
0
LINE
8
Text
10
50.385303
20
0.644261
11
50.385300
21
0.644259
0
LINE
8
Text
10
73.752400
20
0.651270
11
72.626578
21
0.955867
0
LINE
8
Text
10
72.626578
20
0.955867
11
71.579470
21
1.692261
0
LINE
8
Text
10
71.579470
20
1.692261
11
70.997085
21
2.376400
0
LINE
8
Text
10
70.997085
20
2.376400
11
70.519310
21
3.190181
0
LINE
8
Text
10
70.519310
20
3.190181
11
70.029017
21
4.709380
0
LINE
8
Text
10
70.029017
20
4.709380
11
69.851182
21
6.167740
0
LINE
8
Text
10
69.851182
20
6.167740
11
69.867327
21
9.817801
0
LINE
8
Text
10
69.867327
20
9.817801
11
69.935385
21
12.851181
0
LINE
8
Text
10
69.935385
20
12.851181
11
69.952899
21
13.459523
0
LINE
8
Text
10
69.952899
20
13.459523
11
69.985716
21
14.876213
0
LINE
8
Text
10
69.985716
20
14.876213
11
70.018497
21
16.301233
0
LINE
8
Text
10
70.018497
20
16.301233
11
70.036114
21
16.826241
0
LINE
8
Text
10
70.036114
20
16.826241
11
70.155724
21
18.786406
0
LINE
8
Text
10
70.155724
20
18.786406
11
70.419285
21
20.326301
0
LINE
8
Text
10
70.419285
20
20.326301
11
70.753395
21
21.417981
0
LINE
8
Text
10
70.753395
20
21.417981
11
71.348147
21
22.718001
0
LINE
8
Text
10
71.348147
20
22.718001
11
72.040842
21
23.992766
0
LINE
8
Text
10
72.040842
20
23.992766
11
72.493627
21
24.568951
0
LINE
8
Text
10
72.493627
20
24.568951
11
73.070597
21
24.990781
0
LINE
8
Text
10
73.070597
20
24.990781
11
73.747274
21
25.212764
0
LINE
8
Text
10
73.747274
20
25.212764
11
74.552417
21
25.290141
0
LINE
8
Text
10
74.552417
20
25.290141
11
75.472979
21
25.148386
0
LINE
8
Text
10
75.472979
20
25.148386
11
76.316507
21
24.745387
0
LINE
8
Text
10
76.316507
20
24.745387
11
77.040627
21
24.109232
0
LINE
8
Text
10
77.040627
20
24.109232
11
77.602967
21
23.268011
0
LINE
8
Text
10
77.602967
20
23.268011
11
77.955646
21
22.176331
0
LINE
8
Text
10
77.955646
20
22.176331
11
77.954546
21
21.042981
0
LINE
8
Text
10
77.954546
20
21.042981
11
77.456568
21
19.601291
0
LINE
8
Text
10
77.456568
20
19.601291
11
76.704760
21
17.709591
0
LINE
8
Text
10
76.704760
20
17.709591
11
76.387617
21
16.391481
0
LINE
8
Text
10
76.387617
20
16.391481
11
76.213468
21
15.017391
0
LINE
8
Text
10
76.213468
20
15.017391
11
76.295365
21
12.117831
0
LINE
8
Text
10
76.295365
20
12.117831
11
76.469607
21
11.009481
0
LINE
8
Text
10
76.469607
20
11.009481
11
76.695337
21
9.992801
0
LINE
8
Text
10
76.695337
20
9.992801
11
76.762335
21
9.729679
0
LINE
8
Text
10
76.762335
20
9.729679
11
76.902458
21
9.234456
0
LINE
8
Text
10
76.902458
20
9.234456
11
77.376841
21
7.834416
0
LINE
8
Text
10
77.376841
20
7.834416
11
77.436070
21
7.684428
0
LINE
8
Text
10
77.436070
20
7.684428
11
77.660629
21
7.134419
0
LINE
8
Text
10
77.660629
20
7.134419
11
78.043330
21
6.039605
0
LINE
8
Text
10
78.043330
20
6.039605
11
78.069179
21
5.109389
0
LINE
8
Text
10
78.069179
20
5.109389
11
77.831731
21
4.012861
0
LINE
8
Text
10
77.831731
20
4.012861
11
77.400511
21
2.951519
0
LINE
8
Text
10
77.400511
20
2.951519
11
76.866966
21
2.131999
0
LINE
8
Text
10
76.866966
20
2.131999
11
76.211030
21
1.473436
0
LINE
8
Text
10
76.211030
20
1.473436
11
75.454583
21
0.993467
0
LINE
8
Text
10
75.454583
20
0.993467
11
74.619501
21
0.709729
0
LINE
8
Text
10
74.619501
20
0.709729
11
73.752412
21
0.651272
0
LINE
8
Text
10
73.752412
20
0.651272
11
73.752400
21
0.651270
0
LINE
8
Text
10
5.834500
20
0.969060
11
5.030760
21
1.134395
0
LINE
8
Text
10
5.030760
20
1.134395
11
4.324199
21
1.479036
0
LINE
8
Text
10
4.324199
20
1.479036
11
3.709660
21
2.006387
0
LINE
8
Text
10
3.709660
20
2.006387
11
3.181990
21
2.719851
0
LINE
8
Text
10
3.181990
20
2.719851
11
2.292989
21
4.792711
0
LINE
8
Text
10
2.292989
20
4.792711
11
1.893100
21
5.901060
0
LINE
8
Text
10
1.893100
20
5.901060
11
1.174977
21
7.906719
0
LINE
8
Text
10
1.174977
20
7.906719
11
0.810480
21
9.334450
0
LINE
8
Text
10
0.810480
20
9.334450
11
0.717588
21
9.792791
0
LINE
8
Text
10
0.717588
20
9.792791
11
0.677208
21
9.976126
0
LINE
8
Text
10
0.677208
20
9.976126
11
0.592513
21
10.342800
0
LINE
8
Text
10
0.592513
20
10.342800
11
0.451692
21
10.959476
0
LINE
8
Text
10
0.451692
20
10.959476
11
0.393967
21
11.234483
0
LINE
8
Text
10
0.393967
20
11.234483
11
0.200612
21
12.742843
0
LINE
8
Text
10
0.200612
20
12.742843
11
0.118307
21
13.901193
0
LINE
8
Text
10
0.118307
20
13.901193
11
0.060063
21
14.559539
0
LINE
8
Text
10
0.060063
20
14.559539
11
0.021962
21
14.992878
0
LINE
8
Text
10
0.021962
20
14.992878
11
0.029954
21
16.668008
0
LINE
8
Text
10
0.029954
20
16.668008
11
0.347777
21
17.976334
0
LINE
8
Text
10
0.347777
20
17.976334
11
0.955876
21
18.897958
0
LINE
8
Text
10
0.955876
20
18.897958
11
1.934647
21
19.673136
0
LINE
8
Text
10
1.934647
20
19.673136
11
2.951116
21
20.107928
0
LINE
8
Text
10
2.951116
20
20.107928
11
3.771993
21
20.152084
0
LINE
8
Text
10
3.771993
20
20.152084
11
4.909483
21
19.762801
0
LINE
8
Text
10
4.909483
20
19.762801
11
5.912846
21
18.962463
0
LINE
8
Text
10
5.912846
20
18.962463
11
6.542713
21
17.834591
0
LINE
8
Text
10
6.542713
20
17.834591
11
6.742455
21
16.184561
0
LINE
8
Text
10
6.742455
20
16.184561
11
6.887264
21
14.151191
0
LINE
8
Text
10
6.887264
20
14.151191
11
7.070382
21
13.751201
0
LINE
8
Text
10
7.070382
20
13.751201
11
7.247476
21
13.717382
0
LINE
8
Text
10
7.247476
20
13.717382
11
7.499453
21
13.918869
0
LINE
8
Text
10
7.499453
20
13.918869
11
7.929131
21
14.517015
0
LINE
8
Text
10
7.929131
20
14.517015
11
8.226189
21
15.289609
0
LINE
8
Text
10
8.226189
20
15.289609
11
8.585341
21
16.859559
0
LINE
8
Text
10
8.585341
20
16.859559
11
8.912103
21
18.292919
0
LINE
8
Text
10
8.912103
20
18.292919
11
9.185890
21
19.351269
0
LINE
8
Text
10
9.185890
20
19.351269
11
9.384301
21
20.142948
0
LINE
8
Text
10
9.384301
20
20.142948
11
10.054396
21
22.334027
0
LINE
8
Text
10
10.054396
20
22.334027
11
10.723041
21
23.809178
0
LINE
8
Text
10
10.723041
20
23.809178
11
11.301263
21
24.508586
0
LINE
8
Text
10
11.301263
20
24.508586
11
12.306616
21
24.919639
0
LINE
8
Text
10
12.306616
20
24.919639
11
13.642973
21
24.935436
0
LINE
8
Text
10
13.642973
20
24.935436
11
14.878704
21
24.629276
0
LINE
8
Text
10
14.878704
20
24.629276
11
15.718373
21
24.128363
0
LINE
8
Text
10
15.718373
20
24.128363
11
16.133280
21
23.502653
0
LINE
8
Text
10
16.133280
20
23.502653
11
16.409173
21
22.614002
0
LINE
8
Text
10
16.409173
20
22.614002
11
16.543771
21
21.473680
0
LINE
8
Text
10
16.543771
20
21.473680
11
16.534794
21
20.092953
0
LINE
8
Text
10
16.534794
20
20.092953
11
16.399945
21
18.317923
0
LINE
8
Text
10
16.399945
20
18.317923
11
15.858881
21
14.884533
0
LINE
8
Text
10
15.858881
20
14.884533
11
15.800190
21
14.626196
0
LINE
8
Text
10
15.800190
20
14.626196
11
15.451470
21
13.267846
0
LINE
8
Text
10
15.451470
20
13.267846
11
14.138060
21
9.609456
0
LINE
8
Text
10
14.138060
20
9.609456
11
12.517730
21
6.467736
0
LINE
8
Text
10
12.517730
20
6.467736
11
12.062837
21
5.726056
0
LINE
8
Text
10
12.062837
20
5.726056
11
11.586501
21
5.009378
0
LINE
8
Text
10
11.586501
20
5.009378
11
9.949533
21
2.896881
0
LINE
8
Text
10
9.949533
20
2.896881
11
8.455021
21
1.652478
0
LINE
8
Text
10
8.455021
20
1.652478
11
7.136526
21
1.089482
0
LINE
8
Text
10
7.136526
20
1.089482
11
5.834501
21
0.969054
0
LINE
8
Text
10
5.834501
20
0.969054
11
5.834500
21
0.969060
0
LINE
8
Text
10
36.356200
20
0.968194
11
35.212235
21
1.270611
0
LINE
8
Text
10
35.212235
20
1.270611
11
34.236060
21
2.019094
0
LINE
8
Text
10
34.236060
20
2.019094
11
33.082595
21
3.508025
0
LINE
8
Text
10
33.082595
20
3.508025
11
32.130760
21
5.342714
0
LINE
8
Text
10
32.130760
20
5.342714
11
31.143900
21
8.176094
0
LINE
8
Text
10
31.143900
20
8.176094
11
31.018857
21
8.601101
0
LINE
8
Text
10
31.018857
20
8.601101
11
30.851360
21
9.176109
0
LINE
8
Text
10
30.851360
20
9.176109
11
30.410123
21
10.551129
0
LINE
8
Text
10
30.410123
20
10.551129
11
29.701375
21
12.667829
0
LINE
8
Text
10
29.701375
20
12.667829
11
29.588489
21
13.059502
0
LINE
8
Text
10
29.588489
20
13.059502
11
29.177789
21
14.901202
0
LINE
8
Text
10
29.177789
20
14.901202
11
29.107879
21
15.849861
0
LINE
8
Text
10
29.107879
20
15.849861
11
29.180745
21
16.683008
0
LINE
8
Text
10
29.180745
20
16.683008
11
29.427209
21
17.376241
0
LINE
8
Text
10
29.427209
20
17.376241
11
29.902117
21
18.052699
0
LINE
8
Text
10
29.902117
20
18.052699
11
31.050849
21
18.973293
0
LINE
8
Text
10
31.050849
20
18.973293
11
31.662271
21
19.206585
0
LINE
8
Text
10
31.662271
20
19.206585
11
32.292457
21
19.285479
0
LINE
8
Text
10
32.292457
20
19.285479
11
32.960042
21
19.206928
0
LINE
8
Text
10
32.960042
20
19.206928
11
33.679708
21
18.947724
0
LINE
8
Text
10
33.679708
20
18.947724
11
34.361088
21
18.533321
0
LINE
8
Text
10
34.361088
20
18.533321
11
35.536342
21
17.292898
0
LINE
8
Text
10
35.536342
20
17.292898
11
36.048692
21
16.217878
0
LINE
8
Text
10
36.048692
20
16.217878
11
36.387395
21
15.109528
0
LINE
8
Text
10
36.387395
20
15.109528
11
36.594757
21
14.489543
0
LINE
8
Text
10
36.594757
20
14.489543
11
36.840994
21
14.092845
0
LINE
8
Text
10
36.840994
20
14.092845
11
37.229103
21
15.351195
0
LINE
8
Text
10
37.229103
20
15.351195
11
37.768915
21
16.988825
0
LINE
8
Text
10
37.768915
20
16.988825
11
38.343169
21
17.912919
0
LINE
8
Text
10
38.343169
20
17.912919
11
38.960155
21
18.628975
0
LINE
8
Text
10
38.960155
20
18.628975
11
39.508786
21
19.033722
0
LINE
8
Text
10
39.508786
20
19.033722
11
40.386740
21
19.408376
0
LINE
8
Text
10
40.386740
20
19.408376
11
41.490696
21
19.496439
0
LINE
8
Text
10
41.490696
20
19.496439
11
42.307669
21
19.405768
0
LINE
8
Text
10
42.307669
20
19.405768
11
42.890886
21
19.151003
0
LINE
8
Text
10
42.890886
20
19.151003
11
43.371677
21
18.692914
0
LINE
8
Text
10
43.371677
20
18.692914
11
43.907369
21
17.467894
0
LINE
8
Text
10
43.907369
20
17.467894
11
44.164745
21
16.107775
0
LINE
8
Text
10
44.164745
20
16.107775
11
44.243349
21
14.676184
0
LINE
8
Text
10
44.243349
20
14.676184
11
44.050537
21
12.401144
0
LINE
8
Text
10
44.050537
20
12.401144
11
43.703105
21
10.782844
0
LINE
8
Text
10
43.703105
20
10.782844
11
43.375448
21
9.376094
0
LINE
8
Text
10
43.375448
20
9.376094
11
43.267318
21
8.892753
0
LINE
8
Text
10
43.267318
20
8.892753
11
43.151152
21
8.384411
0
LINE
8
Text
10
43.151152
20
8.384411
11
42.394335
21
5.832964
0
LINE
8
Text
10
42.394335
20
5.832964
11
41.384302
21
3.892671
0
LINE
8
Text
10
41.384302
20
3.892671
11
40.710792
21
2.877311
0
LINE
8
Text
10
40.710792
20
2.877311
11
40.462505
21
2.527306
0
LINE
8
Text
10
40.462505
20
2.527306
11
39.585174
21
1.652917
0
LINE
8
Text
10
39.585174
20
1.652917
11
38.512454
21
1.159955
0
LINE
8
Text
10
38.512454
20
1.159955
11
37.343474
21
0.977780
0
LINE
8
Text
10
37.343474
20
0.977780
11
36.356214
21
0.968169
0
LINE
8
Text
10
36.356214
20
0.968169
11
36.356200
21
0.968194
0
LINE
8
Text
10
84.594200
20
21.395200
11
84.402529
21
21.419579
0
LINE
8
Text
10
84.402529
20
21.419579
11
83.496248
21
21.730548
0
LINE
8
Text
10
83.496248
20
21.730548
11
82.976459
21
22.390251
0
LINE
8
Text
10
82.976459
20
22.390251
11
82.855570
21
23.126336
0
LINE
8
Text
10
82.855570
20
23.126336
11
82.907183
21
23.621417
0
LINE
8
Text
10
82.907183
20
23.621417
11
83.255515
21
24.351355
0
LINE
8
Text
10
83.255515
20
24.351355
11
83.969184
21
25.062206
0
LINE
8
Text
10
83.969184
20
25.062206
11
84.533613
21
25.369348
0
LINE
8
Text
10
84.533613
20
25.369348
11
85.235874
21
25.568112
0
LINE
8
Text
10
85.235874
20
25.568112
11
86.291024
21
25.811921
0
LINE
8
Text
10
86.291024
20
25.811921
11
87.927594
21
26.411159
0
LINE
8
Text
10
87.927594
20
26.411159
11
89.402624
21
27.267278
0
LINE
8
Text
10
89.402624
20
27.267278
11
89.902254
21
27.567033
0
LINE
8
Text
10
89.902254
20
27.567033
11
90.164986
21
27.618074
0
LINE
8
Text
10
90.164986
20
27.618074
11
90.323703
21
27.603575
0
LINE
8
Text
10
90.323703
20
27.603575
11
90.434505
21
27.552481
0
LINE
8
Text
10
90.434505
20
27.552481
11
90.785712
21
27.192946
0
LINE
8
Text
10
90.785712
20
27.192946
11
90.910405
21
26.559287
0
LINE
8
Text
10
90.910405
20
26.559287
11
90.766818
21
25.645458
0
LINE
8
Text
10
90.766818
20
25.645458
11
90.288916
21
24.576357
0
LINE
8
Text
10
90.288916
20
24.576357
11
89.690840
21
23.736518
0
LINE
8
Text
10
89.690840
20
23.736518
11
88.694276
21
22.849207
0
LINE
8
Text
10
88.694276
20
22.849207
11
87.735925
21
22.182124
0
LINE
8
Text
10
87.735925
20
22.182124
11
86.669235
21
21.709812
0
LINE
8
Text
10
86.669235
20
21.709812
11
85.360875
21
21.410382
0
LINE
8
Text
10
85.360875
20
21.410382
11
84.594195
21
21.395193
0
LINE
8
Text
10
84.594195
20
21.395193
11
84.594200
21
21.395200
0
LINE
8
Text
10
23.551400
20
21.850800
11
22.677632
21
22.094131
0
LINE
8
Text
10
22.677632
20
22.094131
11
21.967900
21
22.592789
0
LINE
8
Text
10
21.967900
20
22.592789
11
21.548682
21
23.148270
0
LINE
8
Text
10
21.548682
20
23.148270
11
21.305605
21
23.815009
0
LINE
8
Text
10
21.305605
20
23.815009
11
21.298432
21
24.693068
0
LINE
8
Text
10
21.298432
20
24.693068
11
21.392867
21
25.026407
0
LINE
8
Text
10
21.392867
20
25.026407
11
22.025436
21
25.865372
0
LINE
8
Text
10
22.025436
20
25.865372
11
22.562489
21
26.154130
0
LINE
8
Text
10
22.562489
20
26.154130
11
23.268056
21
26.346255
0
LINE
8
Text
10
23.268056
20
26.346255
11
24.384746
21
26.345788
0
LINE
8
Text
10
24.384746
20
26.345788
11
25.431232
21
26.010242
0
LINE
8
Text
10
25.431232
20
26.010242
11
26.251446
21
25.426788
0
LINE
8
Text
10
26.251446
20
25.426788
11
26.590593
21
24.938757
0
LINE
8
Text
10
26.590593
20
24.938757
11
26.633009
21
24.601392
0
LINE
8
Text
10
26.633009
20
24.601392
11
26.424176
21
23.786846
0
LINE
8
Text
10
26.424176
20
23.786846
11
25.963368
21
22.840011
0
LINE
8
Text
10
25.963368
20
22.840011
11
25.465295
21
22.298406
0
LINE
8
Text
10
25.465295
20
22.298406
11
24.409745
21
21.883166
0
LINE
8
Text
10
24.409745
20
21.883166
11
23.551396
21
21.850789
0
LINE
8
Text
10
23.551396
20
21.850789
11
23.551400
21
21.850800
0
LINE
8
Text
10
50.985200
20
22.261672
11
49.668510
21
22.593437
0
LINE
8
Text
10
49.668510
20
22.593437
11
49.064580
21
23.137172
0
LINE
8
Text
10
49.064580
20
23.137172
11
48.939897
21
23.583469
0
LINE
8
Text
10
48.939897
20
23.583469
11
48.943581
21
24.351392
0
LINE
8
Text
10
48.943581
20
24.351392
11
49.141217
21
25.561265
0
LINE
8
Text
10
49.141217
20
25.561265
11
49.641320
21
26.347522
0
LINE
8
Text
10
49.641320
20
26.347522
11
50.818530
21
27.072425
0
LINE
8
Text
10
50.818530
20
27.072425
11
51.798808
21
27.249709
0
LINE
8
Text
10
51.798808
20
27.249709
11
52.754450
21
27.108281
0
LINE
8
Text
10
52.754450
20
27.108281
11
53.618582
21
26.604441
0
LINE
8
Text
10
53.618582
20
26.604441
11
54.100642
21
26.039920
0
LINE
8
Text
10
54.100642
20
26.039920
11
54.389029
21
25.392004
0
LINE
8
Text
10
54.389029
20
25.392004
11
54.471342
21
24.705336
0
LINE
8
Text
10
54.471342
20
24.705336
11
54.335178
21
24.024561
0
LINE
8
Text
10
54.335178
20
24.024561
11
53.819026
21
23.270187
0
LINE
8
Text
10
53.819026
20
23.270187
11
52.920788
21
22.652921
0
LINE
8
Text
10
52.920788
20
22.652921
11
51.760208
21
22.294322
0
LINE
8
Text
10
51.760208
20
22.294322
11
50.985194
21
22.261676
0
LINE
8
Text
10
50.985194
20
22.261676
11
50.985200
21
22.261672
0
LINE
8
Bulbs
10
7.730310
20
9.941640
11
7.486227
21
9.352373
0
LINE
8
Bulbs
10
7.486227
20
9.352373
11
6.896960
21
9.108290
0
LINE
8
Bulbs
10
6.896960
20
9.108290
11
6.307693
21
9.352373
0
LINE
8
Bulbs
10
6.307693
20
9.352373
11
6.063610
21
9.941640
0
LINE
8
Bulbs
10
6.063610
20
9.941640
11
6.307693
21
10.530907
0
LINE
8
Bulbs
10
6.307693
20
10.530907
11
6.896960
21
10.774990
0
LINE
8
Bulbs
10
6.896960
20
10.774990
11
7.486227
21
10.530907
0
LINE
8
Bulbs
10
7.486227
20
10.530907
11
7.730310
21
9.941640
0
LINE
8
Bulbs
10
7.730310
20
9.941640
11
7.730310
21
9.941640
0
LINE
8
Bulbs
10
5.085010
20
7.536300
11
4.840927
21
6.947033
0
LINE
8
Bulbs
10
4.840927
20
6.947033
11
4.251660
21
6.702950
0
LINE
8
Bulbs
10
4.251660
20
6.702950
11
3.662393
21
6.947033
0
LINE
8
Bulbs
10
3.662393
20
6.947033
11
3.418310
21
7.536300
0
LINE
8
Bulbs
10
3.418310
20
7.536300
11
3.662393
21
8.125567
0
LINE
8
Bulbs
10
3.662393
20
8.125567
11
4.251660
21
8.369650
0
LINE
8
Bulbs
10
4.251660
20
8.369650
11
4.840927
21
8.125567
0
LINE
8
Bulbs
10
4.840927
20
8.125567
11
5.085010
21
7.536300
0
LINE
8
Bulbs
10
5.085010
20
7.536300
11
5.085010
21
7.536300
0
LINE
8
Bulbs
10
11.584500
20
10.301200
11
11.340417
21
9.711933
0
LINE
8
Bulbs
10
11.340417
20
9.711933
11
10.751150
21
9.467850
0
LINE
8
Bulbs
10
10.751150
20
9.467850
11
10.161883
21
9.711933
0
LINE
8
Bulbs
10
10.161883
20
9.711933
11
9.917800
21
10.301200
0
LINE
8
Bulbs
10
9.917800
20
10.301200
11
10.161883
21
10.890467
0
LINE
8
Bulbs
10
10.161883
20
10.890467
11
10.751150
21
11.134550
0
LINE
8
Bulbs
10
10.751150
20
11.134550
11
11.340417
21
10.890467
0
LINE
8
Bulbs
10
11.340417
20
10.890467
11
11.584500
21
10.301200
0
LINE
8
Bulbs
10
11.584500
20
10.301200
11
11.584500
21
10.301200
0
LINE
8
Bulbs
10
14.084600
20
22.501500
11
13.840517
21
21.912233
0
LINE
8
Bulbs
10
13.840517
20
21.912233
11
13.251250
21
21.668150
0
LINE
8
Bulbs
10
13.251250
20
21.668150
11
12.661983
21
21.912233
0
LINE
8
Bulbs
10
12.661983
20
21.912233
11
12.417900
21
22.501500
0
LINE
8
Bulbs
10
12.417900
20
22.501500
11
12.661983
21
23.090767
0
LINE
8
Bulbs
10
12.661983
20
23.090767
11
13.251250
21
23.334850
0
LINE
8
Bulbs
10
13.251250
20
23.334850
11
13.840517
21
23.090767
0
LINE
8
Bulbs
10
13.840517
20
23.090767
11
14.084600
21
22.501500
0
LINE
8
Bulbs
10
14.084600
20
22.501500
11
14.084600
21
22.501500
0
LINE
8
Bulbs
10
4.430240
20
12.266700
11
4.186157
21
11.677433
0
LINE
8
Bulbs
10
4.186157
20
11.677433
11
3.596890
21
11.433350
0
LINE
8
Bulbs
10
3.596890
20
11.433350
11
3.007623
21
11.677433
0
LINE
8
Bulbs
10
3.007623
20
11.677433
11
2.763540
21
12.266700
0
LINE
8
Bulbs
10
2.763540
20
12.266700
11
3.007623
21
12.855967
0
LINE
8
Bulbs
10
3.007623
20
12.855967
11
3.596890
21
13.100050
0
LINE
8
Bulbs
10
3.596890
20
13.100050
11
4.186157
21
12.855967
0
LINE
8
Bulbs
10
4.186157
20
12.855967
11
4.430240
21
12.266700
0
LINE
8
Bulbs
10
4.430240
20
12.266700
11
4.430240
21
12.266700
0
LINE
8
Bulbs
10
13.251200
20
14.234600
11
13.007117
21
13.645333
0
LINE
8
Bulbs
10
13.007117
20
13.645333
11
12.417850
21
13.401250
0
LINE
8
Bulbs
10
12.417850
20
13.401250
11
11.828583
21
13.645333
0
LINE
8
Bulbs
10
11.828583
20
13.645333
11
11.584500
21
14.234600
0
LINE
8
Bulbs
10
11.584500
20
14.234600
11
11.828583
21
14.823867
0
LINE
8
Bulbs
10
11.828583
20
14.823867
11
12.417850
21
15.067950
0
LINE
8
Bulbs
10
12.417850
20
15.067950
11
13.007117
21
14.823867
0
LINE
8
Bulbs
10
13.007117
20
14.823867
11
13.251200
21
14.234600
0
LINE
8
Bulbs
10
13.251200
20
14.234600
11
13.251200
21
14.234600
0
LINE
8
Bulbs
10
14.084600
20
18.368000
11
13.840517
21
17.790518
0
LINE
8
Bulbs
10
13.840517
20
17.790518
11
13.251250
21
17.551317
0
LINE
8
Bulbs
10
13.251250
20
17.551317
11
12.661983
21
17.790518
0
LINE
8
Bulbs
10
12.661983
20
17.790518
11
12.417900
21
18.368000
0
LINE
8
Bulbs
10
12.417900
20
18.368000
11
12.661983
21
18.945482
0
LINE
8
Bulbs
10
12.661983
20
18.945482
11
13.251250
21
19.184683
0
LINE
8
Bulbs
10
13.251250
20
19.184683
11
13.840517
21
18.945482
0
LINE
8
Bulbs
10
13.840517
20
18.945482
11
14.084600
21
18.368000
0
LINE
8
Bulbs
10
14.084600
20
18.368000
11
14.084600
21
18.368000
0
LINE
8
Bulbs
10
4.117720
20
16.718000
11
3.873637
21
16.128733
0
LINE
8
Bulbs
10
3.873637
20
16.128733
11
3.284370
21
15.884650
0
LINE
8
Bulbs
10
3.284370
20
15.884650
11
2.695103
21
16.128733
0
LINE
8
Bulbs
10
2.695103
20
16.128733
11
2.451020
21
16.718000
0
LINE
8
Bulbs
10
2.451020
20
16.718000
11
2.695103
21
17.307267
0
LINE
8
Bulbs
10
2.695103
20
17.307267
11
3.284370
21
17.551350
0
LINE
8
Bulbs
10
3.284370
20
17.551350
11
3.873637
21
17.307267
0
LINE
8
Bulbs
10
3.873637
20
17.307267
11
4.117720
21
16.718000
0
LINE
8
Bulbs
10
4.117720
20
16.718000
11
4.117720
21
16.718000
0
LINE
8
Bulbs
10
9.917840
20
6.517810
11
9.673757
21
5.928543
0
LINE
8
Bulbs
10
9.673757
20
5.928543
11
9.084490
21
5.684460
0
LINE
8
Bulbs
10
9.084490
20
5.684460
11
8.495223
21
5.928543
0
LINE
8
Bulbs
10
8.495223
20
5.928543
11
8.251140
21
6.517810
0
LINE
8
Bulbs
10
8.251140
20
6.517810
11
8.495223
21
7.107077
0
LINE
8
Bulbs
10
8.495223
20
7.107077
11
9.084490
21
7.351160
0
LINE
8
Bulbs
10
9.084490
20
7.351160
11
9.673757
21
7.107077
0
LINE
8
Bulbs
10
9.673757
20
7.107077
11
9.917840
21
6.517810
0
LINE
8
Bulbs
10
9.917840
20
6.517810
11
9.917840
21
6.517810
0
LINE
8
Bulbs
10
7.417790
20
3.701090
11
7.173707
21
3.111823
0
LINE
8
Bulbs
10
7.173707
20
3.111823
11
6.584440
21
2.867740
0
LINE
8
Bulbs
10
6.584440
20
2.867740
11
5.995173
21
3.111823
0
LINE
8
Bulbs
10
5.995173
20
3.111823
11
5.751090
21
3.701090
0
LINE
8
Bulbs
10
5.751090
20
3.701090
11
5.995173
21
4.290357
0
LINE
8
Bulbs
10
5.995173
20
4.290357
11
6.584440
21
4.534440
0
LINE
8
Bulbs
10
6.584440
20
4.534440
11
7.173707
21
4.290357
0
LINE
8
Bulbs
10
7.173707
20
4.290357
11
7.417790
21
3.701090
0
LINE
8
Bulbs
10
7.417790
20
3.701090
11
7.417790
21
3.701090
0
LINE
8
Bulbs
10
23.734800
20
4.851110
11
23.490717
21
4.261843
0
LINE
8
Bulbs
10
23.490717
20
4.261843
11
22.901450
21
4.017760
0
LINE
8
Bulbs
10
22.901450
20
4.017760
11
22.312183
21
4.261843
0
LINE
8
Bulbs
10
22.312183
20
4.261843
11
22.068100
21
4.851110
0
LINE
8
Bulbs
10
22.068100
20
4.851110
11
22.312183
21
5.440377
0
LINE
8
Bulbs
10
22.312183
20
5.440377
11
22.901450
21
5.684460
0
LINE
8
Bulbs
10
22.901450
20
5.684460
11
23.490717
21
5.440377
0
LINE
8
Bulbs
10
23.490717
20
5.440377
11
23.734800
21
4.851110
0
LINE
8
Bulbs
10
23.734800
20
4.851110
11
23.734800
21
4.851110
0
LINE
8
Bulbs
10
22.901400
20
8.801190
11
22.657317
21
8.211923
0
LINE
8
Bulbs
10
22.657317
20
8.211923
11
22.068050
21
7.967840
0
LINE
8
Bulbs
10
22.068050
20
7.967840
11
21.478783
21
8.211923
0
LINE
8
Bulbs
10
21.478783
20
8.211923
11
21.234700
21
8.801190
0
LINE
8
Bulbs
10
21.234700
20
8.801190
11
21.478783
21
9.390457
0
LINE
8
Bulbs
10
21.478783
20
9.390457
11
22.068050
21
9.634540
0
LINE
8
Bulbs
10
22.068050
20
9.634540
11
22.657317
21
9.390457
0
LINE
8
Bulbs
10
22.657317
20
9.390457
11
22.901400
21
8.801190
0
LINE
8
Bulbs
10
22.901400
20
8.801190
11
22.901400
21
8.801190
0
LINE
8
Bulbs
10
24.568100
20
24.168200
11
24.324017
21
23.578933
0
LINE
8
Bulbs
10
24.324017
20
23.578933
11
23.734750
21
23.334850
0
LINE
8
Bulbs
10
23.734750
20
23.334850
11
23.145483
21
23.578933
0
LINE
8
Bulbs
10
23.145483
20
23.578933
11
22.901400
21
24.168200
0
LINE
8
Bulbs
10
22.901400
20
24.168200
11
23.145483
21
24.757467
0
LINE
8
Bulbs
10
23.145483
20
24.757467
11
23.734750
21
25.001550
0
LINE
8
Bulbs
10
23.734750
20
25.001550
11
24.324017
21
24.757467
0
LINE
8
Bulbs
10
24.324017
20
24.757467
11
24.568100
21
24.168200
0
LINE
8
Bulbs
10
24.568100
20
24.168200
11
24.568100
21
24.168200
0
LINE
8
Bulbs
10
22.901400
20
12.967900
11
22.657317
21
12.378633
0
LINE
8
Bulbs
10
22.657317
20
12.378633
11
22.068050
21
12.134550
0
LINE
8
Bulbs
10
22.068050
20
12.134550
11
21.478783
21
12.378633
0
LINE
8
Bulbs
10
21.478783
20
12.378633
11
21.234700
21
12.967900
0
LINE
8
Bulbs
10
21.234700
20
12.967900
11
21.478783
21
13.557167
0
LINE
8
Bulbs
10
21.478783
20
13.557167
11
22.068050
21
13.801250
0
LINE
8
Bulbs
10
22.068050
20
13.801250
11
22.657317
21
13.557167
0
LINE
8
Bulbs
10
22.657317
20
13.557167
11
22.901400
21
12.967900
0
LINE
8
Bulbs
10
22.901400
20
12.967900
11
22.901400
21
12.967900
0
LINE
8
Bulbs
10
23.734800
20
16.701300
11
23.490717
21
16.112033
0
LINE
8
Bulbs
10
23.490717
20
16.112033
11
22.901450
21
15.867950
0
LINE
8
Bulbs
10
22.901450
20
15.867950
11
22.312183
21
16.112033
0
LINE
8
Bulbs
10
22.312183
20
16.112033
11
22.068100
21
16.701300
0
LINE
8
Bulbs
10
22.068100
20
16.701300
11
22.312183
21
17.290567
0
LINE
8
Bulbs
10
22.312183
20
17.290567
11
22.901450
21
17.534650
0
LINE
8
Bulbs
10
22.901450
20
17.534650
11
23.490717
21
17.290567
0
LINE
8
Bulbs
10
23.490717
20
17.290567
11
23.734800
21
16.701300
0
LINE
8
Bulbs
10
23.734800
20
16.701300
11
23.734800
21
16.701300
0
LINE
8
Bulbs
10
37.768400
20
4.017760
11
37.524317
21
3.428493
0
LINE
8
Bulbs
10
37.524317
20
3.428493
11
36.935050
21
3.184410
0
LINE
8
Bulbs
10
36.935050
20
3.184410
11
36.345783
21
3.428493
0
LINE
8
Bulbs
10
36.345783
20
3.428493
11
36.101700
21
4.017760
0
LINE
8
Bulbs
10
36.101700
20
4.017760
11
36.345783
21
4.607027
0
LINE
8
Bulbs
10
36.345783
20
4.607027
11
36.935050
21
4.851110
0
LINE
8
Bulbs
10
36.935050
20
4.851110
11
37.524317
21
4.607027
0
LINE
8
Bulbs
10
37.524317
20
4.607027
11
37.768400
21
4.017760
0
LINE
8
Bulbs
10
37.768400
20
4.017760
11
37.768400
21
4.017760
0
LINE
8
Bulbs
10
35.051700
20
7.351160
11
34.807617
21
6.761893
0
LINE
8
Bulbs
10
34.807617
20
6.761893
11
34.218350
21
6.517810
0
LINE
8
Bulbs
10
34.218350
20
6.517810
11
33.629083
21
6.761893
0
LINE
8
Bulbs
10
33.629083
20
6.761893
11
33.385000
21
7.351160
0
LINE
8
Bulbs
10
33.385000
20
7.351160
11
33.629083
21
7.940427
0
LINE
8
Bulbs
10
33.629083
20
7.940427
11
34.218350
21
8.184510
0
LINE
8
Bulbs
10
34.218350
20
8.184510
11
34.807617
21
7.940427
0
LINE
8
Bulbs
10
34.807617
20
7.940427
11
35.051700
21
7.351160
0
LINE
8
Bulbs
10
35.051700
20
7.351160
11
35.051700
21
7.351160
0
LINE
8
Bulbs
10
33.651600
20
11.917900
11
33.407517
21
11.328633
0
LINE
8
Bulbs
10
33.407517
20
11.328633
11
32.818250
21
11.084550
0
LINE
8
Bulbs
10
32.818250
20
11.084550
11
32.228983
21
11.328633
0
LINE
8
Bulbs
10
32.228983
20
11.328633
11
31.984900
21
11.917900
0
LINE
8
Bulbs
10
31.984900
20
11.917900
11
32.228983
21
12.507167
0
LINE
8
Bulbs
10
32.228983
20
12.507167
11
32.818250
21
12.751250
0
LINE
8
Bulbs
10
32.818250
20
12.751250
11
33.407517
21
12.507167
0
LINE
8
Bulbs
10
33.407517
20
12.507167
11
33.651600
21
11.917900
0
LINE
8
Bulbs
10
33.651600
20
11.917900
11
33.651600
21
11.917900
0
LINE
8
Bulbs
10
40.651800
20
7.351160
11
40.407717
21
6.761893
0
LINE
8
Bulbs
10
40.407717
20
6.761893
11
39.818450
21
6.517810
0
LINE
8
Bulbs
10
39.818450
20
6.517810
11
39.229183
21
6.761893
0
LINE
8
Bulbs
10
39.229183
20
6.761893
11
38.985100
21
7.351160
0
LINE
8
Bulbs
10
38.985100
20
7.351160
11
39.229183
21
7.940427
0
LINE
8
Bulbs
10
39.229183
20
7.940427
11
39.818450
21
8.184510
0
LINE
8
Bulbs
10
39.818450
20
8.184510
11
40.407717
21
7.940427
0
LINE
8
Bulbs
10
40.407717
20
7.940427
11
40.651800
21
7.351160
0
LINE
8
Bulbs
10
40.651800
20
7.351160
11
40.651800
21
7.351160
0
LINE
8
Bulbs
10
41.885100
20
11.917900
11
41.641017
21
11.328633
0
LINE
8
Bulbs
10
41.641017
20
11.328633
11
41.051750
21
11.084550
0
LINE
8
Bulbs
10
41.051750
20
11.084550
11
40.462483
21
11.328633
0
LINE
8
Bulbs
10
40.462483
20
11.328633
11
40.218400
21
11.917900
0
LINE
8
Bulbs
10
40.218400
20
11.917900
11
40.462483
21
12.507167
0
LINE
8
Bulbs
10
40.462483
20
12.507167
11
41.051750
21
12.751250
0
LINE
8
Bulbs
10
41.051750
20
12.751250
11
41.641017
21
12.507167
0
LINE
8
Bulbs
10
41.641017
20
12.507167
11
41.885100
21
11.917900
0
LINE
8
Bulbs
10
41.885100
20
11.917900
11
41.885100
21
11.917900
0
LINE
8
Bulbs
10
41.885100
20
15.901300
11
41.641017
21
15.312033
0
LINE
8
Bulbs
10
41.641017
20
15.312033
11
41.051750
21
15.067950
0
LINE
8
Bulbs
10
41.051750
20
15.067950
11
40.462483
21
15.312033
0
LINE
8
Bulbs
10
40.462483
20
15.312033
11
40.218400
21
15.901300
0
LINE
8
Bulbs
10
40.218400
20
15.901300
11
40.462483
21
16.490567
0
LINE
8
Bulbs
10
40.462483
20
16.490567
11
41.051750
21
16.734650
0
LINE
8
Bulbs
10
41.051750
20
16.734650
11
41.641017
21
16.490567
0
LINE
8
Bulbs
10
41.641017
20
16.490567
11
41.885100
21
15.901300
0
LINE
8
Bulbs
10
41.885100
20
15.901300
11
41.885100
21
15.901300
0
LINE
8
Bulbs
10
33.218300
20
15.901300
11
32.974217
21
15.312033
0
LINE
8
Bulbs
10
32.974217
20
15.312033
11
32.384950
21
15.067950
0
LINE
8
Bulbs
10
32.384950
20
15.067950
11
31.795683
21
15.312033
0
LINE
8
Bulbs
10
31.795683
20
15.312033
11
31.551600
21
15.901300
0
LINE
8
Bulbs
10
31.551600
20
15.901300
11
31.795683
21
16.490567
0
LINE
8
Bulbs
10
31.795683
20
16.490567
11
32.384950
21
16.734650
0
LINE
8
Bulbs
10
32.384950
20
16.734650
11
32.974217
21
16.490567
0
LINE
8
Bulbs
10
32.974217
20
16.490567
11
33.218300
21
15.901300
0
LINE
8
Bulbs
10
33.218300
20
15.901300
11
33.218300
21
15.901300
0
LINE
8
Bulbs
10
37.768400
20
10.834600
11
37.524317
21
10.245333
0
LINE
8
Bulbs
10
37.524317
20
10.245333
11
36.935050
21
10.001250
0
LINE
8
Bulbs
10
36.935050
20
10.001250
11
36.345783
21
10.245333
0
LINE
8
Bulbs
10
36.345783
20
10.245333
11
36.101700
21
10.834600
0
LINE
8
Bulbs
10
36.101700
20
10.834600
11
36.345783
21
11.423867
0
LINE
8
Bulbs
10
36.345783
20
11.423867
11
36.935050
21
11.667950
0
LINE
8
Bulbs
10
36.935050
20
11.667950
11
37.524317
21
11.423867
0
LINE
8
Bulbs
10
37.524317
20
11.423867
11
37.768400
21
10.834600
0
LINE
8
Bulbs
10
37.768400
20
10.834600
11
37.768400
21
10.834600
0
LINE
8
Bulbs
10
51.785300
20
5.367790
11
51.541217
21
4.778523
0
LINE
8
Bulbs
10
51.541217
20
4.778523
11
50.951950
21
4.534440
0
LINE
8
Bulbs
10
50.951950
20
4.534440
11
50.362683
21
4.778523
0
LINE
8
Bulbs
10
50.362683
20
4.778523
11
50.118600
21
5.367790
0
LINE
8
Bulbs
10
50.118600
20
5.367790
11
50.362683
21
5.957057
0
LINE
8
Bulbs
10
50.362683
20
5.957057
11
50.951950
21
6.201140
0
LINE
8
Bulbs
10
50.951950
20
6.201140
11
51.541217
21
5.957057
0
LINE
8
Bulbs
10
51.541217
20
5.957057
11
51.785300
21
5.367790
0
LINE
8
Bulbs
10
51.785300
20
5.367790
11
51.785300
21
5.367790
0
LINE
8
Bulbs
10
51.785300
20
9.467870
11
51.541217
21
8.878603
0
LINE
8
Bulbs
10
51.541217
20
8.878603
11
50.951950
21
8.634520
0
LINE
8
Bulbs
10
50.951950
20
8.634520
11
50.362683
21
8.878603
0
LINE
8
Bulbs
10
50.362683
20
8.878603
11
50.118600
21
9.467870
0
LINE
8
Bulbs
10
50.118600
20
9.467870
11
50.362683
21
10.057137
0
LINE
8
Bulbs
10
50.362683
20
10.057137
11
50.951950
21
10.301220
0
LINE
8
Bulbs
10
50.951950
20
10.301220
11
51.541217
21
10.057137
0
LINE
8
Bulbs
10
51.541217
20
10.057137
11
51.785300
21
9.467870
0
LINE
8
Bulbs
10
51.785300
20
9.467870
11
51.785300
21
9.467870
0
LINE
8
Bulbs
10
52.618700
20
24.684800
11
52.374617
21
24.095533
0
LINE
8
Bulbs
10
52.374617
20
24.095533
11
51.785350
21
23.851450
0
LINE
8
Bulbs
10
51.785350
20
23.851450
11
51.196083
21
24.095533
0
LINE
8
Bulbs
10
51.196083
20
24.095533
11
50.952000
21
24.684800
0
LINE
8
Bulbs
10
50.952000
20
24.684800
11
51.196083
21
25.274067
0
LINE
8
Bulbs
10
51.196083
20
25.274067
11
51.785350
21
25.518150
0
LINE
8
Bulbs
10
51.785350
20
25.518150
11
52.374617
21
25.274067
0
LINE
8
Bulbs
10
52.374617
20
25.274067
11
52.618700
21
24.684800
0
LINE
8
Bulbs
10
52.618700
20
24.684800
11
52.618700
21
24.684800
0
LINE
8
Bulbs
10
51.785300
20
13.584600
11
51.541217
21
12.995333
0
LINE
8
Bulbs
10
51.541217
20
12.995333
11
50.951950
21
12.751250
0
LINE
8
Bulbs
10
50.951950
20
12.751250
11
50.362683
21
12.995333
0
LINE
8
Bulbs
10
50.362683
20
12.995333
11
50.118600
21
13.584600
0
LINE
8
Bulbs
10
50.118600
20
13.584600
11
50.362683
21
14.173867
0
LINE
8
Bulbs
10
50.362683
20
14.173867
11
50.951950
21
14.417950
0
LINE
8
Bulbs
10
50.951950
20
14.417950
11
51.541217
21
14.173867
0
LINE
8
Bulbs
10
51.541217
20
14.173867
11
51.785300
21
13.584600
0
LINE
8
Bulbs
10
51.785300
20
13.584600
11
51.785300
21
13.584600
0
LINE
8
Bulbs
10
52.618700
20
17.534700
11
52.374617
21
16.945433
0
LINE
8
Bulbs
10
52.374617
20
16.945433
11
51.785350
21
16.701350
0
LINE
8
Bulbs
10
51.785350
20
16.701350
11
51.196083
21
16.945433
0
LINE
8
Bulbs
10
51.196083
20
16.945433
11
50.952000
21
17.534700
0
LINE
8
Bulbs
10
50.952000
20
17.534700
11
51.196083
21
18.123967
0
LINE
8
Bulbs
10
51.196083
20
18.123967
11
51.785350
21
18.368050
0
LINE
8
Bulbs
10
51.785350
20
18.368050
11
52.374617
21
18.123967
0
LINE
8
Bulbs
10
52.374617
20
18.123967
11
52.618700
21
17.534700
0
LINE
8
Bulbs
10
52.618700
20
17.534700
11
52.618700
21
17.534700
0
LINE
8
Bulbs
10
74.919100
20
4.017760
11
74.675017
21
3.428493
0
LINE
8
Bulbs
10
74.675017
20
3.428493
11
74.085750
21
3.184410
0
LINE
8
Bulbs
10
74.085750
20
3.184410
11
73.496483
21
3.428493
0
LINE
8
Bulbs
10
73.496483
20
3.428493
11
73.252400
21
4.017760
0
LINE
8
Bulbs
10
73.252400
20
4.017760
11
73.496483
21
4.607027
0
LINE
8
Bulbs
10
73.496483
20
4.607027
11
74.085750
21
4.851110
0
LINE
8
Bulbs
10
74.085750
20
4.851110
11
74.675017
21
4.607027
0
LINE
8
Bulbs
10
74.675017
20
4.607027
11
74.919100
21
4.017760
0
LINE
8
Bulbs
10
74.919100
20
4.017760
11
74.919100
21
4.017760
0
LINE
8
Bulbs
10
74.085800
20
8.184510
11
73.841717
21
7.595243
0
LINE
8
Bulbs
10
73.841717
20
7.595243
11
73.252450
21
7.351160
0
LINE
8
Bulbs
10
73.252450
20
7.351160
11
72.663183
21
7.595243
0
LINE
8
Bulbs
10
72.663183
20
7.595243
11
72.419100
21
8.184510
0
LINE
8
Bulbs
10
72.419100
20
8.184510
11
72.663183
21
8.773777
0
LINE
8
Bulbs
10
72.663183
20
8.773777
11
73.252450
21
9.017860
0
LINE
8
Bulbs
10
73.252450
20
9.017860
11
73.841717
21
8.773777
0
LINE
8
Bulbs
10
73.841717
20
8.773777
11
74.085800
21
8.184510
0
LINE
8
Bulbs
10
74.085800
20
8.184510
11
74.085800
21
8.184510
0
LINE
8
Bulbs
10
74.085800
20
12.967900
11
73.841717
21
12.378633
0
LINE
8
Bulbs
10
73.841717
20
12.378633
11
73.252450
21
12.134550
0
LINE
8
Bulbs
10
73.252450
20
12.134550
11
72.663183
21
12.378633
0
LINE
8
Bulbs
10
72.663183
20
12.378633
11
72.419100
21
12.967900
0
LINE
8
Bulbs
10
72.419100
20
12.967900
11
72.663183
21
13.557167
0
LINE
8
Bulbs
10
72.663183
20
13.557167
11
73.252450
21
13.801250
0
LINE
8
Bulbs
10
73.252450
20
13.801250
11
73.841717
21
13.557167
0
LINE
8
Bulbs
10
73.841717
20
13.557167
11
74.085800
21
12.967900
0
LINE
8
Bulbs
10
74.085800
20
12.967900
11
74.085800
21
12.967900
0
LINE
8
Bulbs
10
74.085800
20
17.318000
11
73.841717
21
16.728733
0
LINE
8
Bulbs
10
73.841717
20
16.728733
11
73.252450
21
16.484650
0
LINE
8
Bulbs
10
73.252450
20
16.484650
11
72.663183
21
16.728733
0
LINE
8
Bulbs
10
72.663183
20
16.728733
11
72.419100
21
17.318000
0
LINE
8
Bulbs
10
72.419100
20
17.318000
11
72.663183
21
17.907267
0
LINE
8
Bulbs
10
72.663183
20
17.907267
11
73.252450
21
18.151350
0
LINE
8
Bulbs
10
73.252450
20
18.151350
11
73.841717
21
17.907267
0
LINE
8
Bulbs
10
73.841717
20
17.907267
11
74.085800
21
17.318000
0
LINE
8
Bulbs
10
74.085800
20
17.318000
11
74.085800
21
17.318000
0
LINE
8
Bulbs
10
74.919100
20
21.668100
11
74.675017
21
21.078833
0
LINE
8
Bulbs
10
74.675017
20
21.078833
11
74.085750
21
20.834750
0
LINE
8
Bulbs
10
74.085750
20
20.834750
11
73.496483
21
21.078833
0
LINE
8
Bulbs
10
73.496483
20
21.078833
11
73.252400
21
21.668100
0
LINE
8
Bulbs
10
73.252400
20
21.668100
11
73.496483
21
22.257367
0
LINE
8
Bulbs
10
73.496483
20
22.257367
11
74.085750
21
22.501450
0
LINE
8
Bulbs
10
74.085750
20
22.501450
11
74.675017
21
22.257367
0
LINE
8
Bulbs
10
74.675017
20
22.257367
11
74.919100
21
21.668100
0
LINE
8
Bulbs
10
74.919100
20
21.668100
11
74.919100
21
21.668100
0
LINE
8
Bulbs
10
84.819300
20
6.301140
11
84.575217
21
5.711873
0
LINE
8
Bulbs
10
84.575217
20
5.711873
11
83.985950
21
5.467790
0
LINE
8
Bulbs
10
83.985950
20
5.467790
11
83.396683
21
5.711873
0
LINE
8
Bulbs
10
83.396683
20
5.711873
11
83.152600
21
6.301140
0
LINE
8
Bulbs
10
83.152600
20
6.301140
11
83.396683
21
6.890407
0
LINE
8
Bulbs
10
83.396683
20
6.890407
11
83.985950
21
7.134490
0
LINE
8
Bulbs
10
83.985950
20
7.134490
11
84.575217
21
6.890407
0
LINE
8
Bulbs
10
84.575217
20
6.890407
11
84.819300
21
6.301140
0
LINE
8
Bulbs
10
84.819300
20
6.301140
11
84.819300
21
6.301140
0
LINE
8
Bulbs
10
87.319400
20
3.184410
11
87.075317
21
2.595143
0
LINE
8
Bulbs
10
87.075317
20
2.595143
11
86.486050
21
2.351060
0
LINE
8
Bulbs
10
86.486050
20
2.351060
11
85.896783
21
2.595143
0
LINE
8
Bulbs
10
85.896783
20
2.595143
11
85.652700
21
3.184410
0
LINE
8
Bulbs
10
85.652700
20
3.184410
11
85.896783
21
3.773677
0
LINE
8
Bulbs
10
85.896783
20
3.773677
11
86.486050
21
4.017760
0
LINE
8
Bulbs
10
86.486050
20
4.017760
11
87.075317
21
3.773677
0
LINE
8
Bulbs
10
87.075317
20
3.773677
11
87.319400
21
3.184410
0
LINE
8
Bulbs
10
87.319400
20
3.184410
11
87.319400
21
3.184410
0
LINE
8
Bulbs
10
91.236100
20
4.851110
11
90.992017
21
4.261843
0
LINE
8
Bulbs
10
90.992017
20
4.261843
11
90.402750
21
4.017760
0
LINE
8
Bulbs
10
90.402750
20
4.017760
11
89.813483
21
4.261843
0
LINE
8
Bulbs
10
89.813483
20
4.261843
11
89.569400
21
4.851110
0
LINE
8
Bulbs
10
89.569400
20
4.851110
11
89.813483
21
5.440377
0
LINE
8
Bulbs
10
89.813483
20
5.440377
11
90.402750
21
5.684460
0
LINE
8
Bulbs
10
90.402750
20
5.684460
11
90.992017
21
5.440377
0
LINE
8
Bulbs
10
90.992017
20
5.440377
11
91.236100
21
4.851110
0
LINE
8
Bulbs
10
91.236100
20
4.851110
11
91.236100
21
4.851110
0
LINE
8
Bulbs
10
88.986100
20
11.301200
11
88.742017
21
10.711933
0
LINE
8
Bulbs
10
88.742017
20
10.711933
11
88.152750
21
10.467850
0
LINE
8
Bulbs
10
88.152750
20
10.467850
11
87.563483
21
10.711933
0
LINE
8
Bulbs
10
87.563483
20
10.711933
11
87.319400
21
11.301200
0
LINE
8
Bulbs
10
87.319400
20
11.301200
11
87.563483
21
11.890467
0
LINE
8
Bulbs
10
87.563483
20
11.890467
11
88.152750
21
12.134550
0
LINE
8
Bulbs
10
88.152750
20
12.134550
11
88.742017
21
11.890467
0
LINE
8
Bulbs
10
88.742017
20
11.890467
11
88.986100
21
11.301200
0
LINE
8
Bulbs
10
88.986100
20
11.301200
11
88.986100
21
11.301200
0
LINE
8
Bulbs
10
84.819300
20
15.818000
11
84.575217
21
15.228733
0
LINE
8
Bulbs
10
84.575217
20
15.228733
11
83.985950
21
14.984650
0
LINE
8
Bulbs
10
83.985950
20
14.984650
11
83.396683
21
15.228733
0
LINE
8
Bulbs
10
83.396683
20
15.228733
11
83.152600
21
15.818000
0
LINE
8
Bulbs
10
83.152600
20
15.818000
11
83.396683
21
16.407267
0
LINE
8
Bulbs
10
83.396683
20
16.407267
11
83.985950
21
16.651350
0
LINE
8
Bulbs
10
83.985950
20
16.651350
11
84.575217
21
16.407267
0
LINE
8
Bulbs
10
84.575217
20
16.407267
11
84.819300
21
15.818000
0
LINE
8
Bulbs
10
84.819300
20
15.818000
11
84.819300
21
15.818000
0
LINE
8
Bulbs
10
92.902800
20
14.418000
11
92.658717
21
13.828733
0
LINE
8
Bulbs
10
92.658717
20
13.828733
11
92.069450
21
13.584650
0
LINE
8
Bulbs
10
92.069450
20
13.584650
11
91.480183
21
13.828733
0
LINE
8
Bulbs
10
91.480183
20
13.828733
11
91.236100
21
14.418000
0
LINE
8
Bulbs
10
91.236100
20
14.418000
11
91.480183
21
15.007267
0
LINE
8
Bulbs
10
91.480183
20
15.007267
11
92.069450
21
15.251350
0
LINE
8
Bulbs
10
92.069450
20
15.251350
11
92.658717
21
15.007267
0
LINE
8
Bulbs
10
92.658717
20
15.007267
11
92.902800
21
14.418000
0
LINE
8
Bulbs
10
92.902800
20
14.418000
11
92.902800
21
14.418000
0
LINE
8
Bulbs
10
89.819400
20
17.568000
11
89.575317
21
16.978733
0
LINE
8
Bulbs
10
89.575317
20
16.978733
11
88.986050
21
16.734650
0
LINE
8
Bulbs
10
88.986050
20
16.734650
11
88.396783
21
16.978733
0
LINE
8
Bulbs
10
88.396783
20
16.978733
11
88.152700
21
17.568000
0
LINE
8
Bulbs
10
88.152700
20
17.568000
11
88.396783
21
18.157267
0
LINE
8
Bulbs
10
88.396783
20
18.157267
11
88.986050
21
18.401350
0
LINE
8
Bulbs
10
88.986050
20
18.401350
11
89.575317
21
18.157267
0
LINE
8
Bulbs
10
89.575317
20
18.157267
11
89.819400
21
17.568000
0
LINE
8
Bulbs
10
89.819400
20
17.568000
11
89.819400
21
17.568000
0
LINE
8
Bulbs
10
83.986000
20
11.084600
11
83.741917
21
10.495333
0
LINE
8
Bulbs
10
83.741917
20
10.495333
11
83.152650
21
10.251250
0
LINE
8
Bulbs
10
83.152650
20
10.251250
11
82.563383
21
10.495333
0
LINE
8
Bulbs
10
82.563383
20
10.495333
11
82.319300
21
11.084600
0
LINE
8
Bulbs
10
82.319300
20
11.084600
11
82.563383
21
11.673867
0
LINE
8
Bulbs
10
82.563383
20
11.673867
11
83.152650
21
11.917950
0
LINE
8
Bulbs
10
83.152650
20
11.917950
11
83.741917
21
11.673867
0
LINE
8
Bulbs
10
83.741917
20
11.673867
11
83.986000
21
11.084600
0
LINE
8
Bulbs
10
83.986000
20
11.084600
11
83.986000
21
11.084600
0
LINE
8
Bulbs
10
89.419400
20
25.001500
11
89.175317
21
24.412233
0
LINE
8
Bulbs
10
89.175317
20
24.412233
11
88.586050
21
24.168150
0
LINE
8
Bulbs
10
88.586050
20
24.168150
11
87.996783
21
24.412233
0
LINE
8
Bulbs
10
87.996783
20
24.412233
11
87.752700
21
25.001500
0
LINE
8
Bulbs
10
87.752700
20
25.001500
11
87.996783
21
25.590767
0
LINE
8
Bulbs
10
87.996783
20
25.590767
11
88.586050
21
25.834850
0
LINE
8
Bulbs
10
88.586050
20
25.834850
11
89.175317
21
25.590767
0
LINE
8
Bulbs
10
89.175317
20
25.590767
11
89.419400
21
25.001500
0
LINE
8
Bulbs
10
89.419400
20
25.001500
11
89.419400
21
25.001500
0
LINE
8
Bulbs
10
86.486000
20
23.451500
11
86.241917
21
22.862233
0
LINE
8
Bulbs
10
86.241917
20
22.862233
11
85.652650
21
22.618150
0
LINE
8
Bulbs
10
85.652650
20
22.618150
11
85.063383
21
22.862233
0
LINE
8
Bulbs
10
85.063383
20
22.862233
11
84.819300
21
23.451500
0
LINE
8
Bulbs
10
84.819300
20
23.451500
11
85.063383
21
24.040767
0
LINE
8
Bulbs
10
85.063383
20
24.040767
11
85.652650
21
24.284850
0
LINE
8
Bulbs
10
85.652650
20
24.284850
11
86.241917
21
24.040767
0
LINE
8
Bulbs
10
86.241917
20
24.040767
11
86.486000
21
23.451500
0
LINE
8
Bulbs
10
86.486000
20
23.451500
11
86.486000
21
23.451500
0
LINE
8
Bulbs
10
64.185600
20
3.184410
11
63.941517
21
2.595143
0
LINE
8
Bulbs
10
63.941517
20
2.595143
11
63.352250
21
2.351060
0
LINE
8
Bulbs
10
63.352250
20
2.351060
11
62.762983
21
2.595143
0
LINE
8
Bulbs
10
62.762983
20
2.595143
11
62.518900
21
3.184410
0
LINE
8
Bulbs
10
62.518900
20
3.184410
11
62.762983
21
3.773677
0
LINE
8
Bulbs
10
62.762983
20
3.773677
11
63.352250
21
4.017760
0
LINE
8
Bulbs
10
63.352250
20
4.017760
11
63.941517
21
3.773677
0
LINE
8
Bulbs
10
63.941517
20
3.773677
11
64.185600
21
3.184410
0
LINE
8
Bulbs
10
64.185600
20
3.184410
11
64.185600
21
3.184410
0
LINE
8
Bulbs
10
63.352200
20
7.034490
11
63.108117
21
6.445223
0
LINE
8
Bulbs
10
63.108117
20
6.445223
11
62.518850
21
6.201140
0
LINE
8
Bulbs
10
62.518850
20
6.201140
11
61.929583
21
6.445223
0
LINE
8
Bulbs
10
61.929583
20
6.445223
11
61.685500
21
7.034490
0
LINE
8
Bulbs
10
61.685500
20
7.034490
11
61.929583
21
7.623757
0
LINE
8
Bulbs
10
61.929583
20
7.623757
11
62.518850
21
7.867840
0
LINE
8
Bulbs
10
62.518850
20
7.867840
11
63.108117
21
7.623757
0
LINE
8
Bulbs
10
63.108117
20
7.623757
11
63.352200
21
7.034490
0
LINE
8
Bulbs
10
63.352200
20
7.034490
11
63.352200
21
7.034490
0
LINE
8
Bulbs
10
63.352200
20
11.917900
11
63.108117
21
11.328633
0
LINE
8
Bulbs
10
63.108117
20
11.328633
11
62.518850
21
11.084550
0
LINE
8
Bulbs
10
62.518850
20
11.084550
11
61.929583
21
11.328633
0
LINE
8
Bulbs
10
61.929583
20
11.328633
11
61.685500
21
11.917900
0
LINE
8
Bulbs
10
61.685500
20
11.917900
11
61.929583
21
12.507167
0
LINE
8
Bulbs
10
61.929583
20
12.507167
11
62.518850
21
12.751250
0
LINE
8
Bulbs
10
62.518850
20
12.751250
11
63.108117
21
12.507167
0
LINE
8
Bulbs
10
63.108117
20
12.507167
11
63.352200
21
11.917900
0
LINE
8
Bulbs
10
63.352200
20
11.917900
11
63.352200
21
11.917900
0
LINE
8
Bulbs
10
64.185600
20
16.651300
11
63.941517
21
16.062033
0
LINE
8
Bulbs
10
63.941517
20
16.062033
11
63.352250
21
15.817950
0
LINE
8
Bulbs
10
63.352250
20
15.817950
11
62.762983
21
16.062033
0
LINE
8
Bulbs
10
62.762983
20
16.062033
11
62.518900
21
16.651300
0
LINE
8
Bulbs
10
62.518900
20
16.651300
11
62.762983
21
17.240567
0
LINE
8
Bulbs
10
62.762983
20
17.240567
11
63.352250
21
17.484650
0
LINE
8
Bulbs
10
63.352250
20
17.484650
11
63.941517
21
17.240567
0
LINE
8
Bulbs
10
63.941517
20
17.240567
11
64.185600
21
16.651300
0
LINE
8
Bulbs
10
64.185600
20
16.651300
11
64.185600
21
16.651300
0
LINE
8
Bulbs
10
64.185600
20
20.834800
11
63.941517
21
20.245533
0
LINE
8
Bulbs
10
63.941517
20
20.245533
11
63.352250
21
20.001450
0
LINE
8
Bulbs
10
63.352250
20
20.001450
11
62.762983
21
20.245533
0
LINE
8
Bulbs
10
62.762983
20
20.245533
11
62.518900
21
20.834800
0
LINE
8
Bulbs
10
62.518900
20
20.834800
11
62.762983
21
21.424067
0
LINE
8
Bulbs
10
62.762983
20
21.424067
11
63.352250
21
21.668150
0
LINE
8
Bulbs
10
63.352250
20
21.668150
11
63.941517
21
21.424067
0
LINE
8
Bulbs
10
63.941517
20
21.424067
11
64.185600
21
20.834800
0
LINE
8
Bulbs
10
64.185600
20
20.834800
11
64.185600
21
20.834800
0
LINE
8
Bulbs
10
62.518900
20
24.284800
11
62.274817
21
23.695533
0
LINE
8
Bulbs
10
62.274817
20
23.695533
11
61.685550
21
23.451450
0
LINE
8
Bulbs
10
61.685550
20
23.451450
11
61.096283
21
23.695533
0
LINE
8
Bulbs
10
61.096283
20
23.695533
11
60.852200
21
24.284800
0
LINE
8
Bulbs
10
60.852200
20
24.284800
11
61.096283
21
24.874067
0
LINE
8
Bulbs
10
61.096283
20
24.874067
11
61.685550
21
25.118150
0
LINE
8
Bulbs
10
61.685550
20
25.118150
11
62.274817
21
24.874067
0
LINE
8
Bulbs
10
62.274817
20
24.874067
11
62.518900
21
24.284800
0
LINE
8
Bulbs
10
62.518900
20
24.284800
11
62.518900
21
24.284800
 0 
ENDSEC
 0 
EOF