<?xml version="1.0" encoding="UTF-8" standalone="no"?>
<svg
   id="v"
   width="21380.75"
   height="6262.8662"
   viewBox="0 0 21380.75 6262.8662"
   version="1.1"
   sodipodi:docname="UKEnavn_logo_scale_1to1.svg"
   inkscape:version="1.2.2 (b0a8486541, 2022-12-01)"
   xmlns:inkscape="http://www.inkscape.org/namespaces/inkscape"
   xmlns:sodipodi="http://sodipodi.sourceforge.net/DTD/sodipodi-0.dtd"
   xmlns="http://www.w3.org/2000/svg"
   xmlns:svg="http://www.w3.org/2000/svg"
   xmlns:rdf="http://www.w3.org/1999/02/22-rdf-syntax-ns#"
   xmlns:cc="http://creativecommons.org/ns#"
   xmlns:dc="http://purl.org/dc/elements/1.1/">
  <metadata
     id="metadata68">
    <rdf:RDF>
      <cc:Work
         rdf:about="">
        <dc:format>image/svg+xml</dc:format>
        <dc:type
           rdf:resource="http://purl.org/dc/dcmitype/StillImage" />
        <dc:title />
      </cc:Work>
    </rdf:RDF>
  </metadata>
  <sodipodi:namedview
     pagecolor="#ffffff"
     bordercolor="#666666"
     borderopacity="1"
     objecttolerance="10"
     gridtolerance="10"
     guidetolerance="10"
     inkscape:pageopacity="0"
     inkscape:pageshadow="2"
     inkscape:window-width="2558"
     inkscape:window-height="2071"
     id="namedview66"
     showgrid="false"
     inkscape:zoom="0.044194175"
     inkscape:cx="10046.573"
     inkscape:cy="11528.669"
     inkscape:window-x="1272"
     inkscape:window-y="0"
     inkscape:window-maximized="0"
     inkscape:current-layer="layer1"
     showguides="false"
     inkscape:showpageshadow="2"
     inkscape:pagecheckerboard="0"
     inkscape:deskcolor="#d1d1d1" />
  <defs
     id="defs4">
    <style
       id="style2">
      .cls-1 {
        fill: #949494;
        stroke: #000;
        stroke-width: 1px;
      }

      .cls-2 {
        fill: #cf2e2e;
      }
    </style>
  </defs>
  <g
     inkscape:groupmode="layer"
     id="layer1"
     inkscape:label="Layer 1"
     transform="matrix(3.7795275,0,0,3.7795275,-642.30048,-782.39625)">
    <path
       style="fill:#0000ff;stroke-width:0.999998"
       d="m 3963.4944,1861.9776 c -16.883,-2.6418 -24.2207,-4.3904 -39.1184,-9.3218 -43.7852,-14.4939 -84.3036,-41.4541 -118.5741,-78.8972 -62.1278,-67.8792 -95.6628,-160.3463 -101.0959,-278.7546 -1.0473,-22.8248 0.2747,-92.2916 2.2076,-115.9996 3.7043,-45.4356 9.9549,-95.659 15.6192,-125.4995 0.522,-2.75 1.8841,-10.175 3.0268,-16.4999 8.566,-47.4115 19.0244,-89.4586 40.4185,-162.4994 9.5229,-32.5117 11.7366,-40.2863 15.0909,-52.9998 9.6849,-36.70795 15.4268,-64.57954 20.3952,-98.99961 5.7569,-39.88284 7.7008,-67.09613 7.7146,-107.99957 0.02,-59.51547 -5.6714,-104.78539 -20.0527,-159.49937 -11.4819,-43.68333 -30.5944,-87.47056 -58.707,-134.49947 -25.9377,-43.39043 -33.5429,-57.78618 -41.2067,-77.9997 -8.4845,-22.37791 -11.6491,-39.18034 -11.7713,-62.49975 -0.2233,-42.60983 14.7813,-81.43698 41.9833,-108.63887 20.3048,-20.30472 41.841,-31.65598 72.0703,-37.98655 11.8916,-2.49029 42.4939,-2.48919 56.4999,0 56.4594,10.04246 111.1965,41.78463 162.5141,94.24222 90.3967,92.40494 141.2348,225.93532 147.6749,387.87978 1.2373,31.11358 0.4568,107.25078 -1.178,114.91035 -0.2452,1.14909 -0.9275,10.18916 -1.516,20.08912 -1.0481,17.62863 -2.4261,33.42117 -5.4536,62.49975 -2.7037,25.9683 -3.5269,33.38207 -4.5524,40.99984 -0.5554,4.12498 -2.5977,19.87492 -4.5385,34.99986 -1.9409,15.12507 -5.0655,38.52497 -6.9437,51.99987 -6.956,49.9048 -7.6256,54.7283 -9.0932,65.4998 -6.0756,44.5948 -11.2453,90.6292 -15.3851,136.9994 -5.9621,66.7823 -5.0221,126.3802 2.6022,164.9994 4.8619,24.6264 14.7485,54.9616 30.1467,92.4996 15.0697,36.7371 23.5578,57.7037 24.2904,59.9998 0.4387,1.375 2.2056,6.325 3.9265,10.9999 3.0914,8.3983 9.177,27.2119 10.9978,33.9999 8.5725,31.9581 10.394,44.7983 10.4263,73.4997 0.028,24.5058 -0.7705,31.9882 -5.0669,47.4998 -13.3954,48.3618 -46.6252,87.5309 -95.4426,112.5016 -40.0802,20.5014 -87.3893,28.8135 -127.9091,22.473 z m 1331.4979,-8.5747 c -39.6665,-4.0134 -78.1917,-24.197 -113.093,-59.2501 -22.899,-22.9985 -41.2486,-48.6615 -58.3816,-81.6497 -4.5704,-8.8 -13.5863,-25.452 -20.0353,-37.0046 -13.558,-24.2875 -20.0698,-37.0541 -25.9156,-50.8077 -8.1692,-19.2196 -17.076,-48.1701 -23.5933,-76.6871 -1.9483,-8.5249 -4.1775,-18.1999 -4.9538,-21.4999 -9.2122,-39.1612 -12.0735,-53.6381 -14.9222,-75.4997 -7.201,-55.2634 -10.5784,-101.9981 -10.564,-146.1791 0.01,-17.7761 -0.4809,-53.4701 -1.0817,-79.32 -2.766,-119.0219 5.9007,-199.3007 29.0061,-268.67924 9.6154,-28.87219 20.5084,-53.11519 34.324,-76.3897 46.085,-77.63779 128.5307,-136.32956 230.8989,-164.37305 60.0787,-16.45844 116.0103,-22.75871 193.3112,-21.77512 45.9654,0.5849 62.1257,2.23619 96.4998,9.86056 105.7074,23.44631 188.2161,105.14379 213.9617,211.85777 5.4238,22.48151 6.5303,33.67147 6.4767,65.49974 -0.044,26.08994 -0.3325,31.62904 -2.2145,42.49984 -5.7233,33.0582 -12.3807,54.529 -24.1999,78.0474 -10.8788,21.647 -21.39,36.313 -38.0141,53.0392 -32.149,32.3468 -73.0551,55.4457 -179.0098,101.0834 -2.475,1.0661 -5.4,2.343 -6.5,2.8377 -1.1,0.4947 -7.175,2.9737 -13.5,5.509 -6.325,2.5351 -12.85,5.2073 -14.5,5.9379 -5.6178,2.4877 -24.9656,9.3599 -37.9999,13.4971 -27.5485,8.7441 -43.7876,15.8095 -52.4681,22.828 -13.9589,11.2861 -29.2128,31.2616 -34.204,44.7912 -1.9324,5.2384 -2.2342,8.4148 -2.595,27.3134 -0.55,28.8128 2.2592,46.7283 9.8311,62.6987 4.7599,10.0391 11.274,17.4058 19.284,21.8079 11.2174,6.1648 15.4816,7.1045 32.152,7.0857 18.3226,-0.021 22.154,-0.9454 54.2973,-13.1045 25.0758,-9.4856 30.7011,-11.3487 43.2026,-14.3084 40.1558,-9.507 82.8528,-9.3198 121.4998,0.5328 43.2929,11.037 72.3361,28.0053 81.5179,47.6266 9.4511,20.1965 5.6393,42.4377 -14.0146,81.7747 -48.126,96.3231 -126.7718,171.754 -234.5031,224.9172 -18.0985,8.9312 -61.8163,27.8284 -79.4998,34.364 -26.9702,9.9679 -49.4691,14.7823 -89.9999,19.2581 -13.628,1.505 -61.5207,2.7685 -70.4999,1.86 z m 141.9998,-786.5088 c 22.2973,-3.0122 48.0126,-13.1414 62.0625,-24.4463 5.7905,-4.6591 14.2393,-13.6113 17.5131,-18.5564 1.5399,-2.326 4.0158,-7.9672 5.502,-12.5358 6.2881,-19.3303 0.1721,-39.2418 -17.5821,-57.24143 -12.811,-12.98805 -25.6712,-20.27012 -49.4955,-28.02679 -34.3565,-11.18576 -60.6537,-14.42024 -82.1532,-10.10466 -24.1281,4.84328 -38.5486,17.98753 -45.0068,41.02334 -1.4377,5.12798 -1.8215,10.08806 -1.8185,23.49991 0,15.87183 0.1918,17.59713 2.8352,25.99993 11.2894,35.8872 37.5843,56.6926 77.6433,61.4336 7.8369,0.9275 18.6361,0.5574 30.5,-1.0454 z M 1571.9982,1825.482 c -13.6314,-1.3337 -24.2768,-2.8485 -31,-4.4112 -2.2,-0.5114 -7.3749,-1.6618 -11.4999,-2.5565 -31.5352,-6.8397 -70.5193,-22.7505 -103.5854,-42.277 -33.3173,-19.6746 -67.2707,-48.1159 -87.6903,-73.4545 -23.3427,-28.9656 -41.3438,-72.1424 -49.521,-118.7792 -7.3433,-41.8804 -9.0814,-64.9389 -9.8751,-130.9995 -0.6901,-57.4503 1.2733,-115.8732 5.7469,-170.9993 3.3989,-41.8819 6.1465,-68.906 10.3707,-101.9996 3.0507,-23.8995 5.0042,-37.2447 10.9127,-74.5461 4.6155,-29.1387 17.8657,-96.0542 24.1484,-121.95315 0.8006,-3.29998 2.8351,-11.84995 4.5212,-18.99992 15.7357,-66.72754 31.4203,-116.26354 47.4943,-149.99941 34.7099,-72.84911 92.1028,-124.12011 154.4775,-137.99986 4.6461,-1.03389 14.1591,-1.86289 25,-2.17879 15.3148,-0.4462 18.8111,-0.2402 28,1.64929 22.0502,4.53419 46.3907,15.03604 67.6305,29.17939 13.1409,8.75056 31.6774,26.74089 39.2608,38.10405 10.0999,15.13404 20.9531,39.12815 30.6431,67.74593 18.3733,54.26139 25.9042,109.51677 21.9431,160.99937 -0.7466,9.70426 -5.1803,51.056 -8.9514,83.4864 -5.1574,44.3527 -5.3705,60.3492 -1.5192,114.0128 0.5132,7.15 1.415,20.65 2.0042,29.9999 0.5892,9.35 1.2702,19.4749 1.5133,22.4999 0.2431,3.025 0.9122,13.825 1.4867,23.9999 0.5746,10.175 1.2535,21.6499 1.5088,25.4999 0.6776,10.2193 2.3073,36.4889 3.4741,55.9998 1.5589,26.0671 1.9764,32.5354 2.4849,38.4999 0.258,3.0249 0.7153,10.4499 1.0165,16.4999 0.3011,6.05 0.7505,13.0249 0.9987,15.4999 0.2482,2.475 0.6969,9 0.9971,14.5 0.5368,9.8344 1.4922,25.3757 3.5041,56.9998 0.5598,8.7999 1.6911,27.0248 2.514,40.4998 0.8228,13.4749 1.9258,31.2499 2.4511,39.4998 0.5253,8.25 1.4329,23.0999 2.0169,32.9999 0.584,9.9 1.7412,27.6749 2.5716,39.4999 2.1504,30.6216 1.4859,74.1168 -1.3828,90.4996 -3.7239,21.2672 -8.6661,37.4106 -15.9196,51.9998 -13.0066,26.1605 -35.5472,42.4181 -72.7747,52.4894 -17.1868,4.6496 -29.4408,6.5279 -55.4719,8.5027 -22.7585,1.7265 -31.7434,1.7241 -49.4999,-0.013 z m 1620.9974,-0.076 c -39.3331,-5.3538 -71.1536,-21.0251 -92.1909,-45.403 -32.6348,-37.8168 -52.7953,-102.3329 -64.2661,-205.6587 -1.9467,-17.535 -3.0088,-28.9431 -9.0156,-96.8401 -1.6543,-18.6999 -3.477,-38.4998 -4.0502,-43.9998 -2.8338,-27.1866 -6.7462,-66.2159 -9.4728,-94.4996 -0.8748,-9.075 -2.0268,-21 -2.56,-26.4999 -0.9671,-9.9757 -3.1255,-34.7119 -4.9301,-56.4998 -1.2558,-15.1626 -2.7668,-36.0868 -3.5023,-48.4998 -0.3259,-5.5 -1.0138,-15.85 -1.5288,-22.9999 -2.1428,-29.7508 -3.1832,-99.3947 -2.0573,-137.7164 3.4226,-116.49514 21.0585,-213.79335 49.5342,-273.28202 16.5056,-34.48236 31.413,-53.05819 61.069,-76.0975 56.0277,-43.52713 99.0496,-61.04026 166.8179,-67.90733 23.3356,-2.36459 62.7667,-2.44349 73.1528,-0.1464 39.8272,8.80856 84.3899,34.71936 108.633,63.16405 24.2683,28.47419 39.6053,58.85837 43.4035,85.98716 2.9352,20.96482 1.0766,59.63857 -5.0461,104.99959 -6.9469,51.4664 -9.1847,74.11211 -10.4748,105.99958 -1.8844,46.57587 -3.7681,80.55677 -6.0147,108.49957 -0.5085,6.325 -1.1942,15.55 -1.5236,20.4999 -0.863,12.9659 -3.1238,37.7557 -6.475,70.9998 -2.77,27.4782 -4.0662,39.1174 -7.4617,66.9997 -2.9433,24.1689 -3.5748,29.1278 -4.5213,35.4999 -0.531,3.5749 -2.5725,18.1999 -4.5367,32.4998 -15.9666,116.243 -33.9137,212.9537 -57.0498,307.4208 -7.0235,28.6776 -8.5326,34.3949 -13.6145,51.5778 -9.9227,33.5506 -21.9537,60.5263 -35.6795,79.9997 -7.7684,11.0214 -25.8028,28.8323 -36.1697,35.7216 -27.8312,18.4951 -60.9734,27.9683 -96.7701,27.6602 -7.5343,-0.065 -18.1988,-0.7304 -23.6988,-1.4789 z m 1401.9978,-0.4207 c -45.4847,-3.0106 -91.1855,-24.9045 -130.3732,-62.458 -24.4106,-23.3927 -47.5663,-56.1096 -63.6084,-89.8732 -12.585,-26.4878 -20.7768,-51.8705 -29.417,-91.1503 -4.2659,-19.3932 -8.5067,-54.1704 -10.6699,-87.4996 -1.9571,-30.1524 -1.6023,-110.3672 0.9687,-218.9992 1.7623,-74.4639 3.3047,-143.2075 4.0834,-181.9993 0.2926,-14.5749 0.7655,-30.9998 1.0508,-36.4998 0.2854,-5.5 1.1714,-43.7499 1.969,-84.9997 0.7976,-41.24984 1.6827,-79.72468 1.9668,-85.49966 0.284,-5.77498 0.7597,-19.94992 1.057,-31.49988 2.3359,-90.74374 9.138,-152.8766 22.9898,-209.99917 5.7844,-23.85391 10.4616,-39.13645 20.0462,-65.49974 5.4397,-14.96265 23.6306,-54.72459 35.6844,-77.9997 39.4707,-76.2159 48.4492,-90.72394 68.7272,-111.05496 12.309,-12.34105 20.3856,-18.24593 34.6175,-25.3093 23.183,-11.50576 55.4473,-18.02383 88.9077,-17.96123 75.5948,0.1416 145.644,46.57542 183.0293,121.32562 9.954,19.90282 16.0255,38.69645 21.1603,65.49974 2.5106,13.10485 2.4707,53.95979 -0.066,67.99974 -4.7748,26.42289 -12.3416,48.32951 -29.8781,86.49966 -25.2593,54.97978 -34.3944,77.96539 -45.1076,113.49955 -31.0825,103.09689 -39.335,215.81323 -24.5632,335.49873 2.9768,24.1196 5.1441,37.9055 10.4543,66.4997 2.467,13.2836 10.0075,47.2461 13.5435,60.9998 1.6968,6.5999 3.5057,13.7041 4.0198,15.787 0.8439,3.4196 4.9729,18.0124 8.4072,29.7128 6.8454,23.3219 22.0613,68.228 28.4624,84.0005 1.2275,3.0245 2.8267,7.0741 3.5537,8.9991 2.563,6.7864 10.6438,26.5783 13.4733,32.9999 23.8789,54.1929 29.1811,80.4737 24.5125,121.4995 -4.7513,41.7528 -19.8666,90.5315 -40.1193,129.4696 -37.2038,71.528 -97.4905,120.1254 -166.8574,134.5045 -16.8577,3.4944 -34.3763,4.6754 -52.0243,3.5073 z m -4074.99346,-19.067 c -68.32239,-6.1452 -120.27161,-40.4342 -159.14765,-105.0451 -18.02707,-29.9602 -33.09215,-65.0871 -53.33902,-124.3694 -6.63469,-19.426 -17.13737,-48.5358 -23.99286,-66.4997 -39.45894,-103.3973 -53.78651,-148.8353 -64.956,-205.9992 -2.20299,-11.275 -4.71109,-23.6499 -5.57339,-27.4999 -0.8624,-3.85 -1.95259,-8.8 -2.42279,-10.9999 -0.4702,-2.2 -2.7569,-12.1 -5.0816,-22 -5.57259,-23.7311 -6.70019,-28.669 -8.44908,-36.9998 -0.8083,-3.8502 -2.3668,-11.2752 -3.4634,-16.5001 -6.52809,-31.1039 -10.36158,-61.0085 -11.60108,-90.4997 -0.8181,-19.4628 -2.2029,-38.9524 -4.93819,-69.4997 -1.3543,-15.125 -2.9269,-32.8999 -3.4946,-39.4999 -0.56759,-6.59995 -1.59629,-18.2999 -2.28599,-25.99987 -1.959,-21.87301 -1.6638,-83.74677 0.4795,-100.50561 8.02638,-62.76095 24.30616,-101.96839 55.55421,-133.79447 35.26044,-35.91266 81.43567,-63.91455 119.71221,-72.59651 16.59977,-3.76529 37.45254,-4.88698 49.25162,-2.64929 22.15127,4.20088 49.71002,13.63224 68.2482,23.3565 46.85382,24.57721 81.01707,64.91065 97.99184,115.69005 9.35309,27.97929 10.83218,40.19764 11.98428,98.99961 1.4159,72.26602 3.3669,99.66189 8.68839,121.99949 2.99599,12.576 6.36959,19.9449 10.98688,23.9989 6.49569,5.7033 13.25748,3.061 25.74375,-10.0599 20.33105,-21.3644 33.8815,-46.92284 43.6033,-82.243 7.08718,-25.7483 14.63114,-58.72507 21.54868,-94.19533 7.58524,-38.89405 13.22525,-63.63415 19.60535,-85.99966 4.20379,-14.73654 6.14785,-22.25141 16.42691,-63.49975 5.825,-23.37491 11.18199,-44.74983 11.9044,-47.49982 26.66174,-101.4925 53.77711,-175.7495 80.32297,-219.96923 12.00987,-20.00592 22.62094,-32.84087 34.6926,-41.96363 31.77896,-24.01601 82.24082,-33.21427 140.49978,-25.6105 53.99664,7.04737 102.20914,25.79609 124.52154,48.42341 38.6916,39.23794 55.506,122.34841 48.9843,242.11994 -1.7897,32.86807 -3.4648,54.91729 -8.0908,106.49958 -5.3836,60.02967 -19.6625,150.63831 -32.4632,205.99919 -1.081,4.67498 -2.6656,11.64996 -3.5214,15.49994 -4.0078,18.03036 -14.6033,59.30246 -20.9228,81.49966 -21.3183,74.8803 -46.2562,144.3422 -78.8032,219.4992 -25.63216,59.1894 -63.23652,132.1019 -97.21772,188.4992 -19.369,32.146 -20.68153,34.286 -27.29301,44.4999 -11.96222,18.48 -15.57723,23.919 -28.57958,42.9998 -72.35017,106.1731 -126.93095,164.6828 -187.88517,201.4098 -51.29842,30.9091 -107.24696,45.5003 -157.22818,41.0046 z m 1831.26256,0.052 c -51.4082,-4.3127 -89.2207,-23.0555 -127.206,-63.0528 -50.5249,-53.2009 -91.9206,-118.5523 -126.3154,-199.4135 -18.5534,-43.6184 -41.1653,-108.5394 -59.2104,-169.9994 -2.0993,-7.1499 -5.4754,-18.6249 -7.5024,-25.4999 -2.027,-6.8749 -6.5493,-22.3999 -10.0496,-34.4998 -10.5003,-36.2982 -15.1335,-50.7366 -26.4737,-82.4997 -17.6925,-49.5562 -36.0167,-104.282 -42.524,-126.9995 -0.709,-2.475 -3.7568,-13.05 -6.773,-23.4999 -11.6071,-40.2145 -19.9951,-77.8287 -24.6415,-110.49959 -3.5326,-24.8393 -4.2223,-34.19787 -4.1945,-56.91838 0.048,-39.01615 5.2238,-63.75745 19.1594,-91.58104 7.194,-14.36324 15.0762,-25.5908 28.4939,-40.58664 43.6158,-48.74611 92.3716,-73.89121 143.4177,-73.96561 15.5163,-0.023 25.1522,1.1112 40.0543,4.71298 58.6192,14.16825 114.019,55.32679 154.5748,114.83925 13.703,20.10792 20.6789,34.74487 30.7404,64.49975 4.0697,12.03535 7.4037,22.94531 20.3218,66.49974 4.5665,15.39634 8.7523,27.91139 12.4415,37.19834 5.9603,15.0042 12.7034,25.8677 14.7739,23.8014 3.3404,-3.3336 12.8775,-34.25525 23.2861,-75.49969 14.6049,-57.87187 19.5477,-72.86731 32.3881,-98.25591 17.7787,-35.15306 50.2757,-79.89659 71.4728,-98.40701 8.4421,-7.37207 22.6134,-17.82683 32.9172,-24.28431 34.5181,-21.63301 66.314,-29.05638 118.9122,-27.76249 39.9372,0.9824 62.7727,6.61608 84.0095,20.72572 8.3114,5.52208 22.4421,18.98553 28.8469,27.48479 12.5225,16.61744 24.8992,44.92043 32.1409,73.49971 14.2743,56.33238 20.1855,105.44939 20.1584,167.49934 -0.021,48.56265 -3.2125,86.21815 -11.5685,136.49945 -6.06,36.4659 -9.028,50.2903 -20.8455,97.096 -7.0395,27.8815 -10.5072,42.7695 -19.659,84.4033 -2.1761,9.9 -5.0956,22.9499 -6.4877,28.9999 -4.0058,17.4092 -5.1677,22.4937 -6.9698,30.4999 -26.4123,117.3409 -59.3397,201.0494 -106.0091,269.4989 -17.2792,25.3432 -33.8098,50.2641 -40.4098,60.9205 -4.0607,6.5564 -10.7643,16.0063 -14.8969,20.9999 -10.041,12.1331 -41.4261,43.4129 -52.6388,52.4623 -13.7558,11.1017 -36.5222,21.5639 -64.3622,29.5771 -19.4107,5.5869 -30.2246,7.2721 -70.1376,10.9303 -11.6857,1.071 -49.0104,1.4344 -59.2344,0.5766 z M 5245.4924,580.37404 c -1.375,-0.1986 -6.55,-0.8569 -11.5,-1.46269 -43.8353,-5.36538 -72.646,-24.97571 -85.5622,-58.23917 -5.7594,-14.83235 -7.3155,-24.30711 -7.2532,-44.16423 0.052,-16.71964 0.2727,-18.83253 3.0967,-29.70428 3.7161,-14.30605 11.443,-30.49818 20.8995,-43.79543 8.9527,-12.58895 31.2325,-34.78077 42.8193,-42.65023 23.364,-15.86844 41.6095,-23.15551 75.9998,-30.35378 14.7826,-3.09419 42.528,-9.50517 63.3076,-14.62825 25.0598,-6.17827 56.8314,-17.81153 98.1922,-35.95356 31.1764,-13.67484 62.0375,-31.58687 88.4998,-51.36609 15.442,-11.54206 19.4358,-13.93815 29.9772,-17.98493 6.4375,-2.47139 9.48,-3.06239 15.7636,-3.06239 4.2825,0 8.5677,0.3915 9.5228,0.8699 0.955,0.47849 3.9467,1.85799 6.648,3.06558 18.216,8.14277 28.4583,29.51819 28.5534,59.59047 0.1142,36.09106 -10.658,70.46072 -37.2886,118.97333 -20.8032,37.89665 -42.9949,61.93236 -95.6763,103.62669 -22.5676,17.86093 -37.2443,28.07699 -57.4999,40.02415 -20.6155,12.15935 -36.713,19.28712 -63.9999,28.33818 -31.2038,10.35036 -50.4994,14.76635 -78.4999,17.96543 -11.9363,1.3637 -39.1373,1.9026 -45.9999,0.9113 z M 1582.9982,553.04095 c -38.0971,-4.56398 -70.0333,-19.52863 -95.0078,-44.51843 -20.658,-20.67072 -33.1699,-43.76062 -39.7369,-73.33171 -2.9141,-13.12215 -3.1392,-40.67804 -0.4304,-52.68249 1.8825,-8.34257 4.2164,-16.58064 5.666,-19.99992 9.2364,-21.78582 21.3044,-37.79155 37.9534,-50.3369 17.6625,-13.30895 43.4124,-23.27401 74.5557,-28.85239 14.3223,-2.56539 52.8297,-2.54959 66.9999,0.028 46.2943,8.41937 83.807,26.88729 111.9998,55.13888 11.5012,11.52526 16.0159,18.02173 20.3484,29.28129 2.3441,6.09187 2.5894,8.04266 2.5449,20.24152 -0.058,15.99263 -1.3383,20.98531 -12.5297,48.8718 -19.7153,49.12621 -34.8351,72.59622 -57.5317,89.30445 -15.2419,11.22046 -37.8918,20.13062 -63.3317,24.91391 -11.8933,2.23609 -40.1518,3.30208 -51.4999,1.94259 z m 1645.9974,-24.65181 c -26.4721,-1.59879 -57.2377,-9.35076 -78.9999,-19.90552 -17.2551,-8.36866 -29.4245,-19.32512 -36.2351,-32.62347 -7.9667,-15.55544 -9.5623,-31.56677 -7.2598,-72.85191 3.4211,-61.34336 14.2455,-92.31044 41.8635,-119.76513 18.0971,-17.99023 44.3595,-34.16207 70.6313,-43.49333 37.8123,-13.43035 80.3113,-14.21744 116.1528,-2.15129 15.8338,5.33048 38.8714,18.76272 51.8469,30.22978 45.9801,40.63444 62.9571,101.755 42.9949,154.78969 -12.0366,31.97808 -42.2588,61.28696 -84.8615,82.29698 -21.8533,10.77715 -43.6311,17.50623 -69.6332,21.51551 -9.7585,1.5047 -35.8318,2.60299 -46.4999,1.95869 z"
       id="path97-2"
       inkscape:connector-curvature="0" />
  </g>
  <g
     inkscape:groupmode="layer"
     id="layer2"
     inkscape:label="Layer 2"
     transform="matrix(3.7795275,0,0,3.7795275,-642.30048,-782.39625)">
    <circle
       id="Ellipse_1_kopi_11"
       data-name="Ellipse 1 kopi 11"
       class="cls-2"
       cx="583.75085"
       cy="1267.574"
       r="50"
       style="fill:#cf2e2e" />
    <circle
       id="Ellipse_1_kopi_12"
       data-name="Ellipse 1 kopi 12"
       class="cls-2"
       cx="425.0361"
       cy="1411.8917"
       r="50"
       style="fill:#cf2e2e" />
    <circle
       id="Ellipse_1_kopi_13"
       data-name="Ellipse 1 kopi 13"
       class="cls-2"
       cx="815"
       cy="1246"
       r="50" />
    <circle
       id="Ellipse_1_kopi_2"
       data-name="Ellipse 1 kopi 2"
       class="cls-2"
       cx="965"
       cy="514"
       r="50" />
    <circle
       id="Ellipse_1_kopi_3"
       data-name="Ellipse 1 kopi 3"
       class="cls-2"
       cx="385.75089"
       cy="1128.0721"
       r="50"
       style="fill:#cf2e2e" />
    <circle
       id="Ellipse_1_kopi_8"
       data-name="Ellipse 1 kopi 8"
       class="cls-2"
       cx="915"
       cy="1010"
       r="50" />
    <ellipse
       id="Ellipse_1_kopi_10"
       data-name="Ellipse 1 kopi 10"
       class="cls-2"
       cx="965"
       cy="762"
       rx="50"
       ry="49" />
    <circle
       id="Ellipse_1_kopi"
       data-name="Ellipse 1 kopi"
       class="cls-2"
       cx="367"
       cy="861"
       r="50" />
    <circle
       id="Ellipse_1_kopi_14"
       data-name="Ellipse 1 kopi 14"
       class="cls-2"
       cx="715"
       cy="1473"
       r="50" />
    <circle
       id="Ellipse_1_kopi_15"
       data-name="Ellipse 1 kopi 15"
       class="cls-2"
       cx="565"
       cy="1642"
       r="50" />
    <circle
       id="Ellipse_1_kopi_7"
       data-name="Ellipse 1 kopi 7"
       class="cls-2"
       cx="1544"
       cy="1573"
       r="50" />
    <circle
       id="Ellipse_1_kopi_6"
       data-name="Ellipse 1 kopi 6"
       class="cls-2"
       cx="1494"
       cy="1336"
       r="50" />
    <circle
       class="cls-2"
       cx="1594"
       cy="414"
       r="50"
       id="circle20" />
    <circle
       id="Ellipse_1_kopi_5"
       data-name="Ellipse 1 kopi 5"
       class="cls-2"
       cx="1494"
       cy="1086"
       r="50" />
    <circle
       id="Ellipse_1_kopi_4"
       data-name="Ellipse 1 kopi 4"
       class="cls-2"
       cx="1544"
       cy="862"
       r="50" />
    <circle
       id="Ellipse_1_kopi_7-2"
       data-name="Ellipse 1 kopi 7"
       class="cls-2"
       cx="2386"
       cy="1623"
       r="50" />
    <circle
       id="Ellipse_1_kopi_6-2"
       data-name="Ellipse 1 kopi 6"
       class="cls-2"
       cx="2223"
       cy="1423"
       r="50" />
    <circle
       class="cls-2"
       cx="2139"
       cy="1149"
       r="50"
       id="circle26" />
    <circle
       id="Ellipse_1_kopi_9"
       data-name="Ellipse 1 kopi 9"
       class="cls-2"
       cx="2559"
       cy="1423"
       r="50" />
    <circle
       id="Ellipse_1_kopi_16"
       data-name="Ellipse 1 kopi 16"
       class="cls-2"
       cx="2633"
       cy="1149"
       r="50" />
    <circle
       id="Ellipse_1_kopi_5-2"
       data-name="Ellipse 1 kopi 5"
       class="cls-2"
       cx="2633"
       cy="910"
       r="50" />
    <circle
       id="Ellipse_1_kopi_4-2"
       data-name="Ellipse 1 kopi 4"
       class="cls-2"
       cx="2113"
       cy="910"
       r="50" />
    <circle
       id="Ellipse_1_kopi_17"
       data-name="Ellipse 1 kopi 17"
       class="cls-2"
       cx="2386"
       cy="1214"
       r="50" />
    <circle
       id="Ellipse_1_kopi_7-3"
       data-name="Ellipse 1 kopi 7"
       class="cls-2"
       cx="3227"
       cy="1542"
       r="50" />
    <circle
       id="Ellipse_1_kopi_6-3"
       data-name="Ellipse 1 kopi 6"
       class="cls-2"
       cx="3227"
       cy="1296"
       r="50" />
    <circle
       class="cls-2"
       cx="3277"
       cy="383"
       r="50"
       id="circle35" />
    <circle
       id="Ellipse_1_kopi_5-3"
       data-name="Ellipse 1 kopi 5"
       class="cls-2"
       cx="3227"
       cy="1049"
       r="50" />
    <circle
       id="Ellipse_1_kopi_4-3"
       data-name="Ellipse 1 kopi 4"
       class="cls-2"
       cx="3277"
       cy="812"
       r="50" />
    <circle
       id="Ellipse_1_kopi_7-4"
       data-name="Ellipse 1 kopi 7"
       class="cls-2"
       cx="4615"
       cy="1623"
       r="50" />
    <circle
       id="Ellipse_1_kopi_6-4"
       data-name="Ellipse 1 kopi 6"
       class="cls-2"
       cx="4565"
       cy="1373"
       r="50" />
    <circle
       id="Ellipse_1_kopi_5-4"
       data-name="Ellipse 1 kopi 5"
       class="cls-2"
       cx="4565"
       cy="1086"
       r="50" />
    <circle
       id="Ellipse_1_kopi_4-4"
       data-name="Ellipse 1 kopi 4"
       class="cls-2"
       cx="4565"
       cy="825"
       r="50" />
    <circle
       class="cls-2"
       cx="4615"
       cy="564"
       r="50"
       id="circle43" />
    <circle
       id="Ellipse_1_kopi_7-5"
       data-name="Ellipse 1 kopi 7"
       class="cls-2"
       cx="5209"
       cy="1486"
       r="50" />
    <circle
       id="Ellipse_1_kopi_6-5"
       data-name="Ellipse 1 kopi 6"
       class="cls-2"
       cx="5359"
       cy="1673"
       r="50" />
    <circle
       id="Ellipse_1_kopi_5-5"
       data-name="Ellipse 1 kopi 5"
       class="cls-2"
       cx="5594"
       cy="1573"
       r="50" />
    <circle
       id="Ellipse_1_kopi_19"
       data-name="Ellipse 1 kopi 19"
       class="cls-2"
       cx="5459"
       cy="1186"
       r="50" />
    <circle
       id="Ellipse_1_kopi_20"
       data-name="Ellipse 1 kopi 20"
       class="cls-2"
       cx="5209"
       cy="915"
       r="50" />
    <circle
       id="Ellipse_1_kopi_22"
       data-name="Ellipse 1 kopi 22"
       class="cls-2"
       cx="5694"
       cy="999"
       r="50" />
    <circle
       id="Ellipse_1_kopi_23"
       data-name="Ellipse 1 kopi 23"
       class="cls-2"
       cx="5509"
       cy="810"
       r="50" />
    <circle
       id="Ellipse_1_kopi_21"
       data-name="Ellipse 1 kopi 21"
       class="cls-2"
       cx="5159"
       cy="1199"
       r="50" />
    <circle
       id="Ellipse_1_kopi_4-5"
       data-name="Ellipse 1 kopi 4"
       class="cls-2"
       cx="5485"
       cy="364"
       r="50" />
    <circle
       class="cls-2"
       cx="5309"
       cy="457"
       r="50"
       id="circle54" />
    <circle
       id="Ellipse_1_kopi_18"
       data-name="Ellipse 1 kopi 18"
       class="cls-2"
       cx="3971"
       cy="1673"
       r="50" />
    <circle
       id="Ellipse_1_kopi_7-6"
       data-name="Ellipse 1 kopi 7"
       class="cls-2"
       cx="3921"
       cy="1442"
       r="50" />
    <circle
       id="Ellipse_1_kopi_6-6"
       data-name="Ellipse 1 kopi 6"
       class="cls-2"
       cx="3921"
       cy="1149"
       r="50" />
    <circle
       id="Ellipse_1_kopi_5-6"
       data-name="Ellipse 1 kopi 5"
       class="cls-2"
       cx="3971"
       cy="865"
       r="50" />
    <circle
       id="Ellipse_1_kopi_4-6"
       data-name="Ellipse 1 kopi 4"
       class="cls-2"
       cx="3971"
       cy="614"
       r="50" />
    <circle
       class="cls-2"
       cx="3871"
       cy="407"
       r="50"
       id="circle61" />
  </g>
</svg>
