999
"DXF R12 Output" (www.mydxf.blogspot.com)
 0 
SECTION
 2 
HEADER
 9 
$ACADVER
 1 
AC1009
 9 
$EXTMIN
 10 
 0 
 20 
 0 
 9 
$EXTMAX
 10 
 8.5 
 20 
 11 
 0 
ENDSEC
 0 
SECTION
 2 
ENTITIES
0
LINE
8
Layer 1
10
63.238500
20
0.034633
11
62.586396
21
0.190027
0
LINE
8
Layer 1
10
62.586396
20
0.190027
11
61.538603
21
0.704175
0
LINE
8
Layer 1
10
61.538603
20
0.704175
11
60.609766
21
1.505247
0
LINE
8
Layer 1
10
60.609766
20
1.505247
11
59.922256
21
2.431113
0
LINE
8
Layer 1
10
59.922256
20
2.431113
11
59.412718
21
3.512797
0
LINE
8
Layer 1
10
59.412718
20
3.512797
11
59.080388
21
4.752416
0
LINE
8
Layer 1
10
59.080388
20
4.752416
11
58.924496
21
6.152087
0
LINE
8
Layer 1
10
58.924496
20
6.152087
11
58.961297
21
8.085797
0
LINE
8
Layer 1
10
58.961297
20
8.085797
11
59.221669
21
10.177877
0
LINE
8
Layer 1
10
59.221669
20
10.177877
11
59.272125
21
10.452930
0
LINE
8
Layer 1
10
59.272125
20
10.452930
11
59.945901
21
13.161790
0
LINE
8
Layer 1
10
59.945901
20
13.161790
11
60.197466
21
14.045297
0
LINE
8
Layer 1
10
60.197466
20
14.045297
11
60.537454
21
15.695617
0
LINE
8
Layer 1
10
60.537454
20
15.695617
11
60.666056
21
17.495967
0
LINE
8
Layer 1
10
60.666056
20
17.495967
11
60.588943
21
18.855409
0
LINE
8
Layer 1
10
60.588943
20
18.855409
11
60.331777
21
20.154817
0
LINE
8
Layer 1
10
60.331777
20
20.154817
11
59.946417
21
21.254955
0
LINE
8
Layer 1
10
59.946417
20
21.254955
11
59.353131
21
22.396927
0
LINE
8
Layer 1
10
59.353131
20
22.396927
11
58.666215
21
23.697177
0
LINE
8
Layer 1
10
58.666215
20
23.697177
11
58.469987
21
24.739047
0
LINE
8
Layer 1
10
58.469987
20
24.739047
11
58.648476
21
25.740870
0
LINE
8
Layer 1
10
58.648476
20
25.740870
11
59.169849
21
26.550057
0
LINE
8
Layer 1
10
59.169849
20
26.550057
11
59.708514
21
26.954031
0
LINE
8
Layer 1
10
59.708514
20
26.954031
11
60.371260
21
27.183293
0
LINE
8
Layer 1
10
60.371260
20
27.183293
11
61.313113
21
27.183293
0
LINE
8
Layer 1
10
61.313113
20
27.183293
11
62.699812
21
26.662932
0
LINE
8
Layer 1
10
62.699812
20
26.662932
11
64.022222
21
25.612273
0
LINE
8
Layer 1
10
64.022222
20
25.612273
11
65.027500
21
24.331749
0
LINE
8
Layer 1
10
65.027500
20
24.331749
11
65.777924
21
22.814005
0
LINE
8
Layer 1
10
65.777924
20
22.814005
11
66.265932
21
21.078904
0
LINE
8
Layer 1
10
66.265932
20
21.078904
11
66.483963
21
19.146313
0
LINE
8
Layer 1
10
66.483963
20
19.146313
11
66.464325
21
17.230753
0
LINE
8
Layer 1
10
66.464325
20
17.230753
11
66.439053
21
16.895867
0
LINE
8
Layer 1
10
66.439053
20
16.895867
11
66.348142
21
15.853997
0
LINE
8
Layer 1
10
66.348142
20
15.853997
11
66.272253
21
15.170530
0
LINE
8
Layer 1
10
66.272253
20
15.170530
11
66.196597
21
14.587082
0
LINE
8
Layer 1
10
66.196597
20
14.587082
11
66.080846
21
13.720244
0
LINE
8
Layer 1
10
66.080846
20
13.720244
11
65.929262
21
12.628364
0
LINE
8
Layer 1
10
65.929262
20
12.628364
11
65.672792
21
10.344584
0
LINE
8
Layer 1
10
65.672792
20
10.344584
11
65.609549
21
8.793259
0
LINE
8
Layer 1
10
65.609549
20
8.793259
11
65.716170
21
7.594044
0
LINE
8
Layer 1
10
65.716170
20
7.594044
11
66.218715
21
6.052074
0
LINE
8
Layer 1
10
66.218715
20
6.052074
11
66.623636
21
5.051874
0
LINE
8
Layer 1
10
66.623636
20
5.051874
11
66.689091
21
4.868506
0
LINE
8
Layer 1
10
66.689091
20
4.868506
11
66.872424
21
4.301728
0
LINE
8
Layer 1
10
66.872424
20
4.301728
11
67.046230
21
3.076488
0
LINE
8
Layer 1
10
67.046230
20
3.076488
11
66.961765
21
2.284666
0
LINE
8
Layer 1
10
66.961765
20
2.284666
11
66.387683
21
1.200742
0
LINE
8
Layer 1
10
66.387683
20
1.200742
11
65.370735
21
0.409266
0
LINE
8
Layer 1
10
65.370735
20
0.409266
11
64.307361
21
0.054159
0
LINE
8
Layer 1
10
64.307361
20
0.054159
11
63.238495
21
0.034641
0
LINE
8
Layer 1
10
63.238495
20
0.034641
11
63.238500
21
0.034633
0
LINE
8
Layer 1
10
85.434600
20
0.177573
11
84.462180
21
0.477386
0
LINE
8
Layer 1
10
84.462180
20
0.477386
11
83.549340
21
1.165272
0
LINE
8
Layer 1
10
83.549340
20
1.165272
11
82.576119
21
2.526372
0
LINE
8
Layer 1
10
82.576119
20
2.526372
11
82.242131
21
3.143239
0
LINE
8
Layer 1
10
82.242131
20
3.143239
11
81.810118
21
3.990203
0
LINE
8
Layer 1
10
81.810118
20
3.990203
11
81.416818
21
5.268573
0
LINE
8
Layer 1
10
81.416818
20
5.268573
11
81.334238
21
5.626976
0
LINE
8
Layer 1
10
81.334238
20
5.626976
11
81.085485
21
6.885556
0
LINE
8
Layer 1
10
81.085485
20
6.885556
11
80.909383
21
9.322366
0
LINE
8
Layer 1
10
80.909383
20
9.322366
11
80.891351
21
10.644626
0
LINE
8
Layer 1
10
80.891351
20
10.644626
11
80.971389
21
13.194401
0
LINE
8
Layer 1
10
80.971389
20
13.194401
11
81.374883
21
15.123506
0
LINE
8
Layer 1
10
81.374883
20
15.123506
11
81.947064
21
16.396926
0
LINE
8
Layer 1
10
81.947064
20
16.396926
11
82.632611
21
17.305325
0
LINE
8
Layer 1
10
82.632611
20
17.305325
11
83.519767
21
18.077000
0
LINE
8
Layer 1
10
83.519767
20
18.077000
11
84.582842
21
18.693663
0
LINE
8
Layer 1
10
84.582842
20
18.693663
11
85.796144
21
19.137026
0
LINE
8
Layer 1
10
85.796144
20
19.137026
11
87.299732
21
19.427557
0
LINE
8
Layer 1
10
87.299732
20
19.427557
11
89.018644
21
19.500017
0
LINE
8
Layer 1
10
89.018644
20
19.500017
11
90.627294
21
19.335641
0
LINE
8
Layer 1
10
90.627294
20
19.335641
11
91.867647
21
18.869089
0
LINE
8
Layer 1
10
91.867647
20
18.869089
11
92.910524
21
18.090333
0
LINE
8
Layer 1
10
92.910524
20
18.090333
11
93.703472
21
17.051313
0
LINE
8
Layer 1
10
93.703472
20
17.051313
11
94.194034
21
15.803971
0
LINE
8
Layer 1
10
94.194034
20
15.803971
11
94.302001
21
14.712091
0
LINE
8
Layer 1
10
94.302001
20
14.712091
11
94.265086
21
14.003619
0
LINE
8
Layer 1
10
94.265086
20
14.003619
11
93.861674
21
12.702569
0
LINE
8
Layer 1
10
93.861674
20
12.702569
11
93.227979
21
11.818406
0
LINE
8
Layer 1
10
93.227979
20
11.818406
11
92.197310
21
11.058961
0
LINE
8
Layer 1
10
92.197310
20
11.058961
11
90.243889
21
10.133346
0
LINE
8
Layer 1
10
90.243889
20
10.133346
11
90.135534
21
10.086042
0
LINE
8
Layer 1
10
90.135534
20
10.086042
11
89.910489
21
9.994207
0
LINE
8
Layer 1
10
89.910489
20
9.994207
11
89.668774
21
9.895222
0
LINE
8
Layer 1
10
89.668774
20
9.895222
11
89.035316
21
9.670225
0
LINE
8
Layer 1
10
89.035316
20
9.670225
11
88.160673
21
9.289682
0
LINE
8
Layer 1
10
88.160673
20
9.289682
11
87.590492
21
8.543013
0
LINE
8
Layer 1
10
87.590492
20
8.543013
11
87.547233
21
8.087699
0
LINE
8
Layer 1
10
87.547233
20
8.087699
11
87.711117
21
7.042509
0
LINE
8
Layer 1
10
87.711117
20
7.042509
11
88.032581
21
6.678971
0
LINE
8
Layer 1
10
88.032581
20
6.678971
11
88.568555
21
6.560852
0
LINE
8
Layer 1
10
88.568555
20
6.560852
11
89.473691
21
6.779304
0
LINE
8
Layer 1
10
89.473691
20
6.779304
11
90.193878
21
7.017825
0
LINE
8
Layer 1
10
90.193878
20
7.017825
11
91.216012
21
7.134406
0
LINE
8
Layer 1
10
91.216012
20
7.134406
11
92.219278
21
7.008943
0
LINE
8
Layer 1
10
92.219278
20
7.008943
11
93.111965
21
6.665638
0
LINE
8
Layer 1
10
93.111965
20
6.665638
11
93.578178
21
6.215008
0
LINE
8
Layer 1
10
93.578178
20
6.215008
11
93.643309
21
5.653069
0
LINE
8
Layer 1
10
93.643309
20
5.653069
11
93.344555
21
4.851828
0
LINE
8
Layer 1
10
93.344555
20
4.851828
11
92.647839
21
3.713206
0
LINE
8
Layer 1
10
92.647839
20
3.713206
11
91.762577
21
2.707338
0
LINE
8
Layer 1
10
91.762577
20
2.707338
11
90.691012
21
1.836373
0
LINE
8
Layer 1
10
90.691012
20
1.836373
11
89.435385
21
1.102458
0
LINE
8
Layer 1
10
89.435385
20
1.102458
11
88.110125
21
0.529610
0
LINE
8
Layer 1
10
88.110125
20
0.529610
11
86.609825
21
0.208577
0
LINE
8
Layer 1
10
86.609825
20
0.208577
11
85.434595
21
0.177571
0
LINE
8
Layer 1
10
85.434595
20
0.177571
11
85.434600
21
0.177573
0
LINE
8
Layer 1
10
87.801740
20
13.288673
11
88.836320
21
13.696193
0
LINE
8
Layer 1
10
88.836320
20
13.696193
11
89.128263
21
14.005528
0
LINE
8
Layer 1
10
89.128263
20
14.005528
11
89.219981
21
14.214500
0
LINE
8
Layer 1
10
89.219981
20
14.214500
11
89.223729
21
14.699926
0
LINE
8
Layer 1
10
89.223729
20
14.699926
11
88.926887
21
15.168715
0
LINE
8
Layer 1
10
88.926887
20
15.168715
11
88.101797
21
15.635922
0
LINE
8
Layer 1
10
88.101797
20
15.635922
11
87.336677
21
15.817048
0
LINE
8
Layer 1
10
87.336677
20
15.817048
11
86.732307
21
15.804367
0
LINE
8
Layer 1
10
86.732307
20
15.804367
11
86.246717
21
15.576164
0
LINE
8
Layer 1
10
86.246717
20
15.576164
11
85.982044
21
15.120508
0
LINE
8
Layer 1
10
85.982044
20
15.120508
11
85.951730
21
14.728765
0
LINE
8
Layer 1
10
85.951730
20
14.728765
11
85.998993
21
14.295346
0
LINE
8
Layer 1
10
85.998993
20
14.295346
11
86.466303
21
13.588594
0
LINE
8
Layer 1
10
86.466303
20
13.588594
11
87.293303
21
13.271246
0
LINE
8
Layer 1
10
87.293303
20
13.271246
11
87.801738
21
13.288673
0
LINE
8
Layer 1
10
87.801738
20
13.288673
11
87.801740
21
13.288673
0
LINE
8
Layer 1
10
23.372300
20
0.643015
11
22.855530
21
0.716550
0
LINE
8
Layer 1
10
22.855530
20
0.716550
11
22.663827
21
0.759167
0
LINE
8
Layer 1
10
22.663827
20
0.759167
11
20.937057
21
1.463925
0
LINE
8
Layer 1
10
20.937057
20
1.463925
11
20.125532
21
2.040761
0
LINE
8
Layer 1
10
20.125532
20
2.040761
11
19.475257
21
2.688415
0
LINE
8
Layer 1
10
19.475257
20
2.688415
11
18.967696
21
3.567971
0
LINE
8
Layer 1
10
18.967696
20
3.567971
11
18.649742
21
4.668465
0
LINE
8
Layer 1
10
18.649742
20
4.668465
11
18.485124
21
6.852225
0
LINE
8
Layer 1
10
18.485124
20
6.852225
11
18.580925
21
9.702785
0
LINE
8
Layer 1
10
18.580925
20
9.702785
11
18.753805
21
11.403115
0
LINE
8
Layer 1
10
18.753805
20
11.403115
11
18.935720
21
12.645795
0
LINE
8
Layer 1
10
18.935720
20
12.645795
11
19.338274
21
14.678755
0
LINE
8
Layer 1
10
19.338274
20
14.678755
11
19.413642
21
14.995484
0
LINE
8
Layer 1
10
19.413642
20
14.995484
11
20.205372
21
17.495974
0
LINE
8
Layer 1
10
20.205372
20
17.495974
11
20.705620
21
18.335203
0
LINE
8
Layer 1
10
20.705620
20
18.335203
11
21.320001
21
19.014832
0
LINE
8
Layer 1
10
21.320001
20
19.014832
11
22.020853
21
19.510147
0
LINE
8
Layer 1
10
22.020853
20
19.510147
11
22.780512
21
19.796434
0
LINE
8
Layer 1
10
22.780512
20
19.796434
11
23.197262
21
19.832754
0
LINE
8
Layer 1
10
23.197262
20
19.832754
11
23.664022
21
19.805260
0
LINE
8
Layer 1
10
23.664022
20
19.805260
11
24.791422
21
19.318840
0
LINE
8
Layer 1
10
24.791422
20
19.318840
11
25.445900
21
18.683645
0
LINE
8
Layer 1
10
25.445900
20
18.683645
11
25.956720
21
17.554325
0
LINE
8
Layer 1
10
25.956720
20
17.554325
11
26.279234
21
16.195026
0
LINE
8
Layer 1
10
26.279234
20
16.195026
11
26.322511
21
14.870465
0
LINE
8
Layer 1
10
26.322511
20
14.870465
11
26.173291
21
13.478745
0
LINE
8
Layer 1
10
26.173291
20
13.478745
11
26.147966
21
11.578155
0
LINE
8
Layer 1
10
26.147966
20
11.578155
11
26.181376
21
11.078057
0
LINE
8
Layer 1
10
26.181376
20
11.078057
11
26.206603
21
10.702984
0
LINE
8
Layer 1
10
26.206603
20
10.702984
11
26.231386
21
10.302906
0
LINE
8
Layer 1
10
26.231386
20
10.302906
11
26.256538
21
9.877823
0
LINE
8
Layer 1
10
26.256538
20
9.877823
11
26.314451
21
8.944306
0
LINE
8
Layer 1
10
26.314451
20
8.944306
11
26.355874
21
8.302513
0
LINE
8
Layer 1
10
26.355874
20
8.302513
11
26.372819
21
8.027460
0
LINE
8
Layer 1
10
26.372819
20
8.027460
11
26.389468
21
7.769077
0
LINE
8
Layer 1
10
26.389468
20
7.769077
11
26.406089
21
7.527362
0
LINE
8
Layer 1
10
26.406089
20
7.527362
11
26.464503
21
6.577175
0
LINE
8
Layer 1
10
26.464503
20
6.577175
11
26.506411
21
5.902043
0
LINE
8
Layer 1
10
26.506411
20
5.902043
11
26.547271
21
5.243581
0
LINE
8
Layer 1
10
26.547271
20
5.243581
11
26.580893
21
4.693473
0
LINE
8
Layer 1
10
26.580893
20
4.693473
11
26.623761
21
4.035010
0
LINE
8
Layer 1
10
26.623761
20
4.035010
11
26.600710
21
2.526380
0
LINE
8
Layer 1
10
26.600710
20
2.526380
11
26.335330
21
1.659543
0
LINE
8
Layer 1
10
26.335330
20
1.659543
11
25.880164
21
1.121466
0
LINE
8
Layer 1
10
25.880164
20
1.121466
11
25.122180
21
0.784545
0
LINE
8
Layer 1
10
25.122180
20
0.784545
11
24.197463
21
0.642805
0
LINE
8
Layer 1
10
24.197463
20
0.642805
11
23.372300
21
0.643022
0
LINE
8
Layer 1
10
23.372300
20
0.643022
11
23.372300
21
0.643015
0
LINE
8
Layer 1
10
50.394300
20
0.644282
11
49.511518
21
0.903791
0
LINE
8
Layer 1
10
49.511518
20
0.903791
11
48.857480
21
1.401150
0
LINE
8
Layer 1
10
48.857480
20
1.401150
11
48.189520
21
2.705802
0
LINE
8
Layer 1
10
48.189520
20
2.705802
11
47.786160
21
4.829480
0
LINE
8
Layer 1
10
47.786160
20
4.829480
11
47.635870
21
6.443800
0
LINE
8
Layer 1
10
47.635870
20
6.443800
11
47.568353
21
7.177277
0
LINE
8
Layer 1
10
47.568353
20
7.177277
11
47.410441
21
8.752587
0
LINE
8
Layer 1
10
47.410441
20
8.752587
11
47.367766
21
9.194340
0
LINE
8
Layer 1
10
47.367766
20
9.194340
11
47.285581
21
10.136192
0
LINE
8
Layer 1
10
47.285581
20
10.136192
11
47.227198
21
10.944684
0
LINE
8
Layer 1
10
47.227198
20
10.944684
11
47.201713
21
11.328092
0
LINE
8
Layer 1
10
47.201713
20
11.328092
11
47.167418
21
13.623822
0
LINE
8
Layer 1
10
47.167418
20
13.623822
11
47.423672
21
16.257989
0
LINE
8
Layer 1
10
47.423672
20
16.257989
11
47.993153
21
18.179432
0
LINE
8
Layer 1
10
47.993153
20
18.179432
11
48.419956
21
18.885239
0
LINE
8
Layer 1
10
48.419956
20
18.885239
11
49.011173
21
19.447982
0
LINE
8
Layer 1
10
49.011173
20
19.447982
11
50.328207
21
20.243161
0
LINE
8
Layer 1
10
50.328207
20
20.243161
11
51.792023
21
20.580002
0
LINE
8
Layer 1
10
51.792023
20
20.580002
11
53.011483
21
20.582442
0
LINE
8
Layer 1
10
53.011483
20
20.582442
11
54.014358
21
20.178721
0
LINE
8
Layer 1
10
54.014358
20
20.178721
11
54.822393
21
19.529502
0
LINE
8
Layer 1
10
54.822393
20
19.529502
11
55.312124
21
18.804388
0
LINE
8
Layer 1
10
55.312124
20
18.804388
11
55.545929
21
18.096092
0
LINE
8
Layer 1
10
55.545929
20
18.096092
11
55.461810
21
16.345752
0
LINE
8
Layer 1
10
55.461810
20
16.345752
11
55.287195
21
14.578742
0
LINE
8
Layer 1
10
55.287195
20
14.578742
11
55.186930
21
12.770052
0
LINE
8
Layer 1
10
55.186930
20
12.770052
11
55.161532
21
12.428319
0
LINE
8
Layer 1
10
55.161532
20
12.428319
11
55.053594
21
11.244749
0
LINE
8
Layer 1
10
55.053594
20
11.244749
11
54.929207
21
10.127869
0
LINE
8
Layer 1
10
54.929207
20
10.127869
11
54.853837
21
9.536086
0
LINE
8
Layer 1
10
54.853837
20
9.536086
11
54.778210
21
8.994314
0
LINE
8
Layer 1
10
54.778210
20
8.994314
11
53.827190
21
3.869614
0
LINE
8
Layer 1
10
53.827190
20
3.869614
11
53.600236
21
3.009812
0
LINE
8
Layer 1
10
53.600236
20
3.009812
11
53.005459
21
1.676222
0
LINE
8
Layer 1
10
53.005459
20
1.676222
11
52.402510
21
1.080743
0
LINE
8
Layer 1
10
52.402510
20
1.080743
11
51.645724
21
0.732652
0
LINE
8
Layer 1
10
51.645724
20
0.732652
11
50.789350
21
0.619647
0
LINE
8
Layer 1
10
50.789350
20
0.619647
11
50.394291
21
0.644301
0
LINE
8
Layer 1
10
50.394291
20
0.644301
11
50.394300
21
0.644282
0
LINE
8
Layer 1
10
73.765600
20
0.651295
11
72.639576
21
0.955946
0
LINE
8
Layer 1
10
72.639576
20
0.955946
11
71.592280
21
1.692465
0
LINE
8
Layer 1
10
71.592280
20
1.692465
11
71.009791
21
2.376727
0
LINE
8
Layer 1
10
71.009791
20
2.376727
11
70.531930
21
3.190655
0
LINE
8
Layer 1
10
70.531930
20
3.190655
11
70.041549
21
4.710135
0
LINE
8
Layer 1
10
70.041549
20
4.710135
11
69.863682
21
6.168755
0
LINE
8
Layer 1
10
69.863682
20
6.168755
11
69.879830
21
9.819475
0
LINE
8
Layer 1
10
69.879830
20
9.819475
11
69.947901
21
12.853405
0
LINE
8
Layer 1
10
69.947901
20
12.853405
11
69.965417
21
13.461857
0
LINE
8
Layer 1
10
69.965417
20
13.461857
11
69.998240
21
14.878797
0
LINE
8
Layer 1
10
69.998240
20
14.878797
11
70.031027
21
16.304077
0
LINE
8
Layer 1
10
70.031027
20
16.304077
11
70.048647
21
16.829180
0
LINE
8
Layer 1
10
70.048647
20
16.829180
11
70.168278
21
18.789697
0
LINE
8
Layer 1
10
70.168278
20
18.789697
11
70.431887
21
20.329870
0
LINE
8
Layer 1
10
70.431887
20
20.329870
11
70.766057
21
21.421750
0
LINE
8
Layer 1
10
70.766057
20
21.421750
11
71.360916
21
22.722000
0
LINE
8
Layer 1
10
71.360916
20
22.722000
11
72.053736
21
23.996995
0
LINE
8
Layer 1
10
72.053736
20
23.996995
11
72.506596
21
24.573290
0
LINE
8
Layer 1
10
72.506596
20
24.573290
11
73.083670
21
24.995196
0
LINE
8
Layer 1
10
73.083670
20
24.995196
11
73.760469
21
25.217219
0
LINE
8
Layer 1
10
73.760469
20
25.217219
11
74.565760
21
25.294610
0
LINE
8
Layer 1
10
74.565760
20
25.294610
11
75.486490
21
25.152830
0
LINE
8
Layer 1
10
75.486490
20
25.152830
11
76.330170
21
24.749758
0
LINE
8
Layer 1
10
76.330170
20
24.749758
11
77.054421
21
24.113487
0
LINE
8
Layer 1
10
77.054421
20
24.113487
11
77.616860
21
23.272110
0
LINE
8
Layer 1
10
77.616860
20
23.272110
11
77.969602
21
22.180230
0
LINE
8
Layer 1
10
77.969602
20
22.180230
11
77.968502
21
21.046670
0
LINE
8
Layer 1
10
77.968502
20
21.046670
11
77.470434
21
19.604720
0
LINE
8
Layer 1
10
77.470434
20
19.604720
11
76.718490
21
17.712680
0
LINE
8
Layer 1
10
76.718490
20
17.712680
11
76.401290
21
16.394332
0
LINE
8
Layer 1
10
76.401290
20
16.394332
11
76.227109
21
15.019995
0
LINE
8
Layer 1
10
76.227109
20
15.019995
11
76.309021
21
12.119920
0
LINE
8
Layer 1
10
76.309021
20
12.119920
11
76.483294
21
11.011370
0
LINE
8
Layer 1
10
76.483294
20
11.011370
11
76.709064
21
9.994500
0
LINE
8
Layer 1
10
76.709064
20
9.994500
11
76.776074
21
9.731331
0
LINE
8
Layer 1
10
76.776074
20
9.731331
11
76.916222
21
9.236019
0
LINE
8
Layer 1
10
76.916222
20
9.236019
11
77.390690
21
7.835729
0
LINE
8
Layer 1
10
77.390690
20
7.835729
11
77.449930
21
7.685714
0
LINE
8
Layer 1
10
77.449930
20
7.685714
11
77.674530
21
7.135606
0
LINE
8
Layer 1
10
77.674530
20
7.135606
11
78.057300
21
6.040595
0
LINE
8
Layer 1
10
78.057300
20
6.040595
11
78.083153
21
5.110206
0
LINE
8
Layer 1
10
78.083153
20
5.110206
11
77.845662
21
4.013481
0
LINE
8
Layer 1
10
77.845662
20
4.013481
11
77.414364
21
2.951946
0
LINE
8
Layer 1
10
77.414364
20
2.951946
11
76.880722
21
2.132281
0
LINE
8
Layer 1
10
76.880722
20
2.132281
11
76.224667
21
1.473600
0
LINE
8
Layer 1
10
76.224667
20
1.473600
11
75.468082
21
0.993545
0
LINE
8
Layer 1
10
75.468082
20
0.993545
11
74.632854
21
0.709756
0
LINE
8
Layer 1
10
74.632854
20
0.709756
11
73.765609
21
0.651289
0
LINE
8
Layer 1
10
73.765609
20
0.651289
11
73.765600
21
0.651295
0
LINE
8
Layer 1
10
5.835500
20
0.969142
11
5.031618
21
1.134506
0
LINE
8
Layer 1
10
5.031618
20
1.134506
11
4.324929
21
1.479209
0
LINE
8
Layer 1
10
4.324929
20
1.479209
11
3.710278
21
2.006653
0
LINE
8
Layer 1
10
3.710278
20
2.006653
11
3.182510
21
2.720242
0
LINE
8
Layer 1
10
3.182510
20
2.720242
11
2.293349
21
4.793482
0
LINE
8
Layer 1
10
2.293349
20
4.793482
11
1.893388
21
5.902032
0
LINE
8
Layer 1
10
1.893388
20
5.902032
11
1.175135
21
7.908049
0
LINE
8
Layer 1
10
1.175135
20
7.908049
11
0.810568
21
9.336042
0
LINE
8
Layer 1
10
0.810568
20
9.336042
11
0.717660
21
9.794465
0
LINE
8
Layer 1
10
0.717660
20
9.794465
11
0.677272
21
9.977833
0
LINE
8
Layer 1
10
0.677272
20
9.977833
11
0.592561
21
10.344573
0
LINE
8
Layer 1
10
0.592561
20
10.344573
11
0.451715
21
10.961360
0
LINE
8
Layer 1
10
0.451715
20
10.961360
11
0.393981
21
11.236417
0
LINE
8
Layer 1
10
0.393981
20
11.236417
11
0.200591
21
12.745047
0
LINE
8
Layer 1
10
0.200591
20
12.745047
11
0.118271
21
13.903607
0
LINE
8
Layer 1
10
0.118271
20
13.903607
11
0.060016
21
14.562070
0
LINE
8
Layer 1
10
0.060016
20
14.562070
11
0.021908
21
14.995488
0
LINE
8
Layer 1
10
0.021908
20
14.995488
11
0.029902
21
16.670918
0
LINE
8
Layer 1
10
0.029902
20
16.670918
11
0.347782
21
17.979477
0
LINE
8
Layer 1
10
0.347782
20
17.979477
11
0.955991
21
18.901268
0
LINE
8
Layer 1
10
0.955991
20
18.901268
11
1.934936
21
19.676587
0
LINE
8
Layer 1
10
1.934936
20
19.676587
11
2.951591
21
20.111448
0
LINE
8
Layer 1
10
2.951591
20
20.111448
11
3.772616
21
20.155612
0
LINE
8
Layer 1
10
3.772616
20
20.155612
11
4.910316
21
19.766259
0
LINE
8
Layer 1
10
4.910316
20
19.766259
11
5.913857
21
18.965779
0
LINE
8
Layer 1
10
5.913857
20
18.965779
11
6.543836
21
17.837709
0
LINE
8
Layer 1
10
6.543836
20
17.837709
11
6.743614
21
16.187389
0
LINE
8
Layer 1
10
6.743614
20
16.187389
11
6.888449
21
14.153659
0
LINE
8
Layer 1
10
6.888449
20
14.153659
11
7.071600
21
13.753597
0
LINE
8
Layer 1
10
7.071600
20
13.753597
11
7.248725
21
13.719771
0
LINE
8
Layer 1
10
7.248725
20
13.719771
11
7.500748
21
13.921296
0
LINE
8
Layer 1
10
7.500748
20
13.921296
11
7.930503
21
14.519550
0
LINE
8
Layer 1
10
7.930503
20
14.519550
11
8.227615
21
15.292286
0
LINE
8
Layer 1
10
8.227615
20
15.292286
11
8.586831
21
16.862526
0
LINE
8
Layer 1
10
8.586831
20
16.862526
11
8.913652
21
18.296136
0
LINE
8
Layer 1
10
8.913652
20
18.296136
11
9.187489
21
19.354676
0
LINE
8
Layer 1
10
9.187489
20
19.354676
11
9.385935
21
20.146498
0
LINE
8
Layer 1
10
9.385935
20
20.146498
11
10.056150
21
22.337966
0
LINE
8
Layer 1
10
10.056150
20
22.337966
11
10.724915
21
23.813388
0
LINE
8
Layer 1
10
10.724915
20
23.813388
11
11.303241
21
24.512922
0
LINE
8
Layer 1
10
11.303241
20
24.512922
11
12.308771
21
24.924048
0
LINE
8
Layer 1
10
12.308771
20
24.924048
11
13.645371
21
24.939849
0
LINE
8
Layer 1
10
13.645371
20
24.939849
11
14.881325
21
24.633634
0
LINE
8
Layer 1
10
14.881325
20
24.633634
11
15.721141
21
24.132631
0
LINE
8
Layer 1
10
15.721141
20
24.132631
11
16.136122
21
23.506808
0
LINE
8
Layer 1
10
16.136122
20
23.506808
11
16.412064
21
22.617996
0
LINE
8
Layer 1
10
16.412064
20
22.617996
11
16.546686
21
21.477467
0
LINE
8
Layer 1
10
16.546686
20
21.477467
11
16.537709
21
20.096491
0
LINE
8
Layer 1
10
16.537709
20
20.096491
11
16.402835
21
18.321141
0
LINE
8
Layer 1
10
16.402835
20
18.321141
11
15.861673
21
14.887131
0
LINE
8
Layer 1
10
15.861673
20
14.887131
11
15.802971
21
14.628747
0
LINE
8
Layer 1
10
15.802971
20
14.628747
11
15.454188
21
13.270147
0
LINE
8
Layer 1
10
15.454188
20
13.270147
11
14.140538
21
9.611097
0
LINE
8
Layer 1
10
14.140538
20
9.611097
11
12.519918
21
6.468817
0
LINE
8
Layer 1
10
12.519918
20
6.468817
11
12.064944
21
5.727004
0
LINE
8
Layer 1
10
12.064944
20
5.727004
11
11.588522
21
5.010197
0
LINE
8
Layer 1
10
11.588522
20
5.010197
11
9.951258
21
2.897320
0
LINE
8
Layer 1
10
9.951258
20
2.897320
11
8.456472
21
1.652697
0
LINE
8
Layer 1
10
8.456472
20
1.652697
11
7.137740
21
1.089599
0
LINE
8
Layer 1
10
7.137740
20
1.089599
11
5.835482
21
0.969150
0
LINE
8
Layer 1
10
5.835482
20
0.969150
11
5.835500
21
0.969142
0
LINE
8
Layer 1
10
36.362600
20
0.968275
11
35.218428
21
1.270747
0
LINE
8
Layer 1
10
35.218428
20
1.270747
11
34.242080
21
2.019365
0
LINE
8
Layer 1
10
34.242080
20
2.019365
11
33.088406
21
3.508566
0
LINE
8
Layer 1
10
33.088406
20
3.508566
11
32.136400
21
5.343585
0
LINE
8
Layer 1
10
32.136400
20
5.343585
11
31.149363
21
8.177475
0
LINE
8
Layer 1
10
31.149363
20
8.177475
11
31.024298
21
8.602558
0
LINE
8
Layer 1
10
31.024298
20
8.602558
11
30.856771
21
9.177670
0
LINE
8
Layer 1
10
30.856771
20
9.177670
11
30.415454
21
10.552940
0
LINE
8
Layer 1
10
30.415454
20
10.552940
11
29.706579
21
12.670020
0
LINE
8
Layer 1
10
29.706579
20
12.670020
11
29.593673
21
13.061763
0
LINE
8
Layer 1
10
29.593673
20
13.061763
11
29.182899
21
14.903793
0
LINE
8
Layer 1
10
29.182899
20
14.903793
11
29.112977
21
15.852622
0
LINE
8
Layer 1
10
29.112977
20
15.852622
11
29.185855
21
16.685919
0
LINE
8
Layer 1
10
29.185855
20
16.685919
11
29.432364
21
17.379282
0
LINE
8
Layer 1
10
29.432364
20
17.379282
11
29.907357
21
18.055861
0
LINE
8
Layer 1
10
29.907357
20
18.055861
11
31.056292
21
18.976625
0
LINE
8
Layer 1
10
31.056292
20
18.976625
11
31.667823
21
19.209962
0
LINE
8
Layer 1
10
31.667823
20
19.209962
11
32.298127
21
19.288871
0
LINE
8
Layer 1
10
32.298127
20
19.288871
11
32.965832
21
19.210306
0
LINE
8
Layer 1
10
32.965832
20
19.210306
11
33.685628
21
18.951055
0
LINE
8
Layer 1
10
33.685628
20
18.951055
11
34.367132
21
18.536578
0
LINE
8
Layer 1
10
34.367132
20
18.536578
11
35.542592
21
17.295936
0
LINE
8
Layer 1
10
35.542592
20
17.295936
11
36.055034
21
16.220726
0
LINE
8
Layer 1
10
36.055034
20
16.220726
11
36.393798
21
15.112176
0
LINE
8
Layer 1
10
36.393798
20
15.112176
11
36.601198
21
14.492080
0
LINE
8
Layer 1
10
36.601198
20
14.492080
11
36.847479
21
14.095311
0
LINE
8
Layer 1
10
36.847479
20
14.095311
11
37.235658
21
15.353891
0
LINE
8
Layer 1
10
37.235658
20
15.353891
11
37.775568
21
16.991821
0
LINE
8
Layer 1
10
37.775568
20
16.991821
11
38.349924
21
17.916082
0
LINE
8
Layer 1
10
38.349924
20
17.916082
11
38.967018
21
18.632261
0
LINE
8
Layer 1
10
38.967018
20
18.632261
11
39.515748
21
19.037080
0
LINE
8
Layer 1
10
39.515748
20
19.037080
11
40.393857
21
19.411802
0
LINE
8
Layer 1
10
40.393857
20
19.411802
11
41.498018
21
19.499881
0
LINE
8
Layer 1
10
41.498018
20
19.499881
11
42.315138
21
19.409194
0
LINE
8
Layer 1
10
42.315138
20
19.409194
11
42.898458
21
19.154383
0
LINE
8
Layer 1
10
42.898458
20
19.154383
11
43.379336
21
18.696212
0
LINE
8
Layer 1
10
43.379336
20
18.696212
11
43.915125
21
17.470972
0
LINE
8
Layer 1
10
43.915125
20
17.470972
11
44.172547
21
16.110608
0
LINE
8
Layer 1
10
44.172547
20
16.110608
11
44.251166
21
14.678762
0
LINE
8
Layer 1
10
44.251166
20
14.678762
11
44.058319
21
12.403312
0
LINE
8
Layer 1
10
44.058319
20
12.403312
11
43.710825
21
10.784722
0
LINE
8
Layer 1
10
43.710825
20
10.784722
11
43.383109
21
9.377722
0
LINE
8
Layer 1
10
43.383109
20
9.377722
11
43.274959
21
8.894294
0
LINE
8
Layer 1
10
43.274959
20
8.894294
11
43.158772
21
8.385861
0
LINE
8
Layer 1
10
43.158772
20
8.385861
11
42.401818
21
5.833957
0
LINE
8
Layer 1
10
42.401818
20
5.833957
11
41.391602
21
3.893311
0
LINE
8
Layer 1
10
41.391602
20
3.893311
11
40.717971
21
2.877771
0
LINE
8
Layer 1
10
40.717971
20
2.877771
11
40.469640
21
2.527703
0
LINE
8
Layer 1
10
40.469640
20
2.527703
11
39.592151
21
1.653156
0
LINE
8
Layer 1
10
39.592151
20
1.653156
11
38.519231
21
1.160106
0
LINE
8
Layer 1
10
38.519231
20
1.160106
11
37.350041
21
0.977898
0
LINE
8
Layer 1
10
37.350041
20
0.977898
11
36.362604
21
0.968286
0
LINE
8
Layer 1
10
36.362604
20
0.968286
11
36.362600
21
0.968275
0
LINE
8
Layer 1
10
84.609400
20
21.399000
11
84.417695
21
21.423383
0
LINE
8
Layer 1
10
84.417695
20
21.423383
11
83.511251
21
21.734409
0
LINE
8
Layer 1
10
83.511251
20
21.734409
11
82.991375
21
22.394230
0
LINE
8
Layer 1
10
82.991375
20
22.394230
11
82.870464
21
23.130448
0
LINE
8
Layer 1
10
82.870464
20
23.130448
11
82.922086
21
23.625618
0
LINE
8
Layer 1
10
82.922086
20
23.625618
11
83.270481
21
24.355688
0
LINE
8
Layer 1
10
83.270481
20
24.355688
11
83.984279
21
25.066667
0
LINE
8
Layer 1
10
83.984279
20
25.066667
11
84.548809
21
25.373865
0
LINE
8
Layer 1
10
84.548809
20
25.373865
11
85.251199
21
25.572665
0
LINE
8
Layer 1
10
85.251199
20
25.572665
11
86.306539
21
25.816518
0
LINE
8
Layer 1
10
86.306539
20
25.816518
11
87.943399
21
26.415864
0
LINE
8
Layer 1
10
87.943399
20
26.415864
11
89.418689
21
27.272137
0
LINE
8
Layer 1
10
89.418689
20
27.272137
11
89.918409
21
27.571946
0
LINE
8
Layer 1
10
89.918409
20
27.571946
11
90.181188
21
27.622996
0
LINE
8
Layer 1
10
90.181188
20
27.622996
11
90.339933
21
27.608495
0
LINE
8
Layer 1
10
90.339933
20
27.608495
11
90.450755
21
27.557392
0
LINE
8
Layer 1
10
90.450755
20
27.557392
11
90.802026
21
27.197792
0
LINE
8
Layer 1
10
90.802026
20
27.197792
11
90.926740
21
26.564019
0
LINE
8
Layer 1
10
90.926740
20
26.564019
11
90.783128
21
25.650026
0
LINE
8
Layer 1
10
90.783128
20
25.650026
11
90.305139
21
24.580729
0
LINE
8
Layer 1
10
90.305139
20
24.580729
11
89.706956
21
23.740741
0
LINE
8
Layer 1
10
89.706956
20
23.740741
11
88.710219
21
22.853269
0
LINE
8
Layer 1
10
88.710219
20
22.853269
11
87.751696
21
22.186066
0
LINE
8
Layer 1
10
87.751696
20
22.186066
11
86.684816
21
21.713669
0
LINE
8
Layer 1
10
86.684816
20
21.713669
11
85.376226
21
21.414185
0
LINE
8
Layer 1
10
85.376226
20
21.414185
11
84.609408
21
21.398993
0
LINE
8
Layer 1
10
84.609408
20
21.398993
11
84.609400
21
21.399000
0
LINE
8
Layer 1
10
23.555700
20
21.854600
11
22.681775
21
22.097974
0
LINE
8
Layer 1
10
22.681775
20
22.097974
11
21.971920
21
22.596722
0
LINE
8
Layer 1
10
21.971920
20
22.596722
11
21.552627
21
23.152304
0
LINE
8
Layer 1
10
21.552627
20
23.152304
11
21.309506
21
23.819162
0
LINE
8
Layer 1
10
21.309506
20
23.819162
11
21.302331
21
24.697379
0
LINE
8
Layer 1
10
21.302331
20
24.697379
11
21.396783
21
25.030778
0
LINE
8
Layer 1
10
21.396783
20
25.030778
11
22.029466
21
25.869894
0
LINE
8
Layer 1
10
22.029466
20
25.869894
11
22.566616
21
26.158704
0
LINE
8
Layer 1
10
22.566616
20
26.158704
11
23.272306
21
26.350863
0
LINE
8
Layer 1
10
23.272306
20
26.350863
11
24.389196
21
26.350396
0
LINE
8
Layer 1
10
24.389196
20
26.350396
11
25.435871
21
26.014790
0
LINE
8
Layer 1
10
25.435871
20
26.014790
11
26.256236
21
25.431231
0
LINE
8
Layer 1
10
26.256236
20
25.431231
11
26.595444
21
24.943112
0
LINE
8
Layer 1
10
26.595444
20
24.943112
11
26.637868
21
24.605686
0
LINE
8
Layer 1
10
26.637868
20
24.605686
11
26.428998
21
23.790993
0
LINE
8
Layer 1
10
26.428998
20
23.790993
11
25.968108
21
22.843987
0
LINE
8
Layer 1
10
25.968108
20
22.843987
11
25.469945
21
22.302283
0
LINE
8
Layer 1
10
25.469945
20
22.302283
11
24.414205
21
21.886968
0
LINE
8
Layer 1
10
24.414205
20
21.886968
11
23.555702
21
21.854585
0
LINE
8
Layer 1
10
23.555702
20
21.854585
11
23.555700
21
21.854600
0
LINE
8
Layer 1
10
50.994500
20
22.265546
11
49.677570
21
22.597371
0
LINE
8
Layer 1
10
49.677570
20
22.597371
11
49.073531
21
23.141204
0
LINE
8
Layer 1
10
49.073531
20
23.141204
11
48.948825
21
23.587582
0
LINE
8
Layer 1
10
48.948825
20
23.587582
11
48.952510
21
24.355644
0
LINE
8
Layer 1
10
48.952510
20
24.355644
11
49.150181
21
25.565733
0
LINE
8
Layer 1
10
49.150181
20
25.565733
11
49.650375
21
26.352124
0
LINE
8
Layer 1
10
49.650375
20
26.352124
11
50.827795
21
27.077158
0
LINE
8
Layer 1
10
50.827795
20
27.077158
11
51.808249
21
27.254474
0
LINE
8
Layer 1
10
51.808249
20
27.254474
11
52.764065
21
27.113020
0
LINE
8
Layer 1
10
52.764065
20
27.113020
11
53.628353
21
26.609090
0
LINE
8
Layer 1
10
53.628353
20
26.609090
11
54.110498
21
26.044468
0
LINE
8
Layer 1
10
54.110498
20
26.044468
11
54.398935
21
25.396434
0
LINE
8
Layer 1
10
54.398935
20
25.396434
11
54.481262
21
24.709643
0
LINE
8
Layer 1
10
54.481262
20
24.709643
11
54.345078
21
24.028750
0
LINE
8
Layer 1
10
54.345078
20
24.028750
11
53.828834
21
23.274242
0
LINE
8
Layer 1
10
53.828834
20
23.274242
11
52.930438
21
22.656860
0
LINE
8
Layer 1
10
52.930438
20
22.656860
11
51.769648
21
22.298196
0
LINE
8
Layer 1
10
51.769648
20
22.298196
11
50.994495
21
22.265545
0
LINE
8
Layer 1
10
50.994495
20
22.265545
11
50.994500
21
22.265546
 0 
ENDSEC
 0 
EOF