<?xml version="1.0" encoding="UTF-8" standalone="no"?>
<svg
   id="v"
   width="356.35294"
   height="104.38318"
   viewBox="0 0 356.35294 104.38318"
   version="1.1"
   sodipodi:docname="UKEnavn_logo_scale_1to60_only_offsets_R12.svg"
   inkscape:version="1.2.2 (b0a8486541, 2022-12-01)"
   xmlns:inkscape="http://www.inkscape.org/namespaces/inkscape"
   xmlns:sodipodi="http://sodipodi.sourceforge.net/DTD/sodipodi-0.dtd"
   xmlns="http://www.w3.org/2000/svg"
   xmlns:svg="http://www.w3.org/2000/svg"
   xmlns:rdf="http://www.w3.org/1999/02/22-rdf-syntax-ns#"
   xmlns:cc="http://creativecommons.org/ns#"
   xmlns:dc="http://purl.org/dc/elements/1.1/">
  <metadata
     id="metadata68">
    <rdf:RDF>
      <cc:Work
         rdf:about="">
        <dc:format>image/svg+xml</dc:format>
        <dc:type
           rdf:resource="http://purl.org/dc/dcmitype/StillImage" />
      </cc:Work>
    </rdf:RDF>
  </metadata>
  <sodipodi:namedview
     pagecolor="#ffffff"
     bordercolor="#666666"
     borderopacity="1"
     objecttolerance="10"
     gridtolerance="10"
     guidetolerance="10"
     inkscape:pageopacity="0"
     inkscape:pageshadow="2"
     inkscape:window-width="2558"
     inkscape:window-height="2071"
     id="namedview66"
     showgrid="false"
     inkscape:zoom="2.8284271"
     inkscape:cx="165.81654"
     inkscape:cy="-17.854446"
     inkscape:window-x="1272"
     inkscape:window-y="0"
     inkscape:window-maximized="0"
     inkscape:current-layer="layer3"
     showguides="false"
     inkscape:showpageshadow="2"
     inkscape:pagecheckerboard="0"
     inkscape:deskcolor="#d1d1d1" />
  <defs
     id="defs4">
    <style
       id="style2">
      .cls-1 {
        fill: #949494;
        stroke: #000;
        stroke-width: 1px;
      }

      .cls-2 {
        fill: #cf2e2e;
      }
    </style>
  </defs>
  <path
     id="path3222"
     style="fill:#28170b;stroke-width:0.999998"
     inkscape:label="Black"
     d="m 5576.7109,97.859375 c -8.3368,0.12554 -16.7377,0.03562 -24.979,1.478007 -7.3461,1.440388 -14.3612,4.142928 -21.3571,6.741658 -7.245,2.66498 -14.4161,5.55481 -21.3255,9.00819 -13.6608,6.70522 -26.3841,15.14776 -38.5934,24.19245 -17.2591,12.94794 -35.8421,24.07212 -55.111,33.75171 -11.4429,5.71345 -23.2781,10.58384 -35.0827,15.48798 -15.5909,6.37476 -31.3508,12.36713 -47.3923,17.51525 -6.1463,1.96684 -12.3912,3.60324 -18.6781,5.05227 -18.9613,4.57231 -37.9689,8.9563 -57.0401,13.04688 -30.3397,6.70386 -60.0011,17.0034 -87.3456,31.84931 -16.8276,9.10952 -32.6869,20.01432 -47.14,32.55905 -17.1821,14.8816 -32.5371,31.85229 -45.8042,50.30267 -15.3383,21.39995 -27.4342,45.16454 -35.2938,70.30927 -11.0979,35.474 -22.2453,70.93273 -33.363,106.40062 0,0 -34.7487,9.24202 -34.8184,9.23633 -16.1276,-34.22758 -32.2517,-68.45686 -48.3769,-102.68555 -2.5795,-3.86914 -5.1589,-7.73828 -7.7383,-11.60742 -0.073,-1.25433 -0.028,-2.54127 -0.175,-3.77523 -7.0458,-12.77699 -14.912,-25.10079 -23.5184,-36.88298 0.1156,0.16671 -0.6583,-0.8941 -0.8993,-1.21944 -28.1082,-38.13421 -64.2112,-70.49979 -105.7193,-93.43139 -29.929,-16.57829 -62.6523,-28.17729 -96.4277,-33.73435 -18.474,-3.06409 -37.238,-4.30033 -55.9557,-3.84608 -35.1348,0.64881 -70.3985,6.07615 -103.4491,18.26008 -22.8795,8.41534 -44.6459,20.02923 -63.9469,34.96122 -14.308,11.03324 -27.421,23.6131 -39.0895,37.40568 -15.1641,18.03294 -27.7309,38.05794 -39.5421,58.39237 -10.5952,18.30294 -20.5395,36.97213 -30.3317,55.71387 -0.087,0.17701 -0.5524,1.06328 -0.7859,1.51477 -7.6978,14.62315 -14.9708,29.46337 -22.2219,44.3114 -20.5159,41.83701 -41.02,83.6801 -61.5313,125.51953 -17.6854,-49.50377 -35.3261,-99.02347 -53.0477,-148.51413 -18.6076,-50.97367 -43.2888,-99.84208 -74.453,-144.31263 -27.2326,-38.92802 -59.4481,-74.39731 -95.786,-105.01356 -35.1109,-29.54536 -74.461,-54.40191 -117.2581,-71.19492 -23.0371,-9.03319 -47.0098,-15.75824 -71.46,-19.62476 -14.7562,-2.23539 -29.7095,-2.73719 -44.6143,-2.67532 -16.0166,-0.0361 -32.112,0.88839 -47.8213,4.17251 -11.982,2.49926 -23.7957,5.82133 -35.322,9.93932 -28.4259,10.16027 -55.0787,25.38361 -78.0002,45.0541 -17.8795,15.32536 -33.4921,33.28136 -46.2276,53.08736 -0.2818,0.44105 -0.762,1.17501 -1.1198,1.72833 -17.1755,26.46534 -34.3518,52.93023 -51.5286,79.39472 -18.8915,-27.79467 -37.7292,-55.626 -56.6628,-83.39191 -15.498,-22.19709 -34.3128,-42.13415 -55.9415,-58.44872 -20.2778,-15.3836 -42.7306,-27.94049 -66.5582,-36.91307 -39.3989,-14.76195 -82.2141,-19.63722 -124.0286,-15.77886 -28.2657,2.60849 -56.1419,9.33396 -82.4979,19.87298 -32.4381,12.86672 -62.8222,31.11796 -88.8895,54.36668 -10.1931,9.09293 -19.7893,18.89682 -28.2168,29.66118 -13.9526,17.6908 -25.0464,37.551 -33.4069,58.45111 -12.3596,30.82619 -19.0369,63.68542 -22.0879,96.6814 -0.6084,6.61214 -1.0599,13.23791 -1.4131,19.86835 0.01,-0.19228 -0.056,1.11079 -0.077,1.51623 -0.087,1.64776 -0.1551,3.29637 -0.2295,4.9447 0.01,-0.0668 -0.045,1.13078 -0.06,1.55215 -0.02,0.49526 -0.064,1.63475 -0.068,1.66107 -0.8135,20.77545 -0.6196,41.69538 2.6092,62.27763 2.5893,16.66511 7.3401,33.02775 14.5159,48.30606 4.6907,10.09536 10.5164,19.63187 17.0463,28.63745 10.1665,14.34468 20.3206,28.69815 30.4825,43.04611 -13.6937,12.93068 -27.4218,25.82479 -41.1092,38.76207 -18.8122,17.64065 -35.3723,37.64554 -49.4476,59.24565 -16.9472,25.40958 -33.8944,50.81911 -50.8417,76.22861 -18.8247,-27.80035 -37.5995,-55.63453 -56.4608,-83.41004 -9.4823,-13.72721 -20.8231,-26.09239 -33.0408,-37.421 -11.9732,-11.03694 -25.0489,-20.93545 -39.2582,-28.9225 -21.8368,-12.39093 -45.9014,-20.56416 -70.5075,-25.31989 -12.1908,-2.3722 -24.5292,-3.9476 -36.9084,-4.91485 0.1588,0.009 -1.1148,-0.0844 -1.5234,-0.11589 -14.6898,-1.06501 -29.4313,-1.34849 -44.1549,-1.06647 -37.5629,0.74686 -75.1187,7.64305 -110.1173,21.4302 -16.8664,6.63424 -33.0893,14.90201 -48.3491,24.68288 -17.8441,11.41319 -34.8645,24.17859 -50.4111,38.58305 -9.8099,9.16829 -18.8938,19.06838 -28.2494,28.69011 -9.902,10.29674 -19.8056,20.59203 -29.7085,30.88792 -15.6361,-14.03248 -31.2389,-28.10201 -46.8822,-42.12635 -32.6181,-29.43345 -70.3168,-53.47182 -111.4038,-69.20698 -20.1076,-7.68601 -40.9568,-13.53332 -62.2332,-16.88402 -14.8963,-2.33995 -29.9832,-3.4438 -45.0609,-3.35492 0.2053,0.002 -1.1098,0.0129 -1.5143,0.0185 -25.7724,0.30024 -51.4628,4.60509 -76.0073,12.44014 -33.8808,10.78159 -65.4751,28.14966 -93.6876,49.69008 -15.5833,11.90476 -30.161,25.10669 -43.6947,39.29375 -18.8809,19.62797 -37.7602,39.25753 -56.641,58.88567 -15.5472,-24.88045 -31.0451,-49.7919 -46.6318,-74.64759 -4.2211,-6.33733 -8.9182,-12.33788 -13.3649,-18.51537 -8.2707,-11.26219 -16.5402,-22.52532 -24.8099,-33.78822 13.2346,-13.55377 26.5162,-27.06156 39.7295,-40.63607 17.0998,-17.67419 31.0263,-38.19445 42.7554,-59.74903 10.8823,-20.09234 20.031,-41.08131 28.2026,-62.40661 7.4045,-19.57989 13.4444,-39.84475 15.7129,-60.71783 0.9184,-7.94105 1.1496,-15.94045 1.1406,-23.92868 5e-4,-6.83215 0.2117,-13.67214 -0.1574,-20.49823 -0.188,-4.08974 -0.9257,-8.13074 -2.0064,-12.07449 -2.2395,-8.34233 -5.338,-16.42037 -8.4272,-24.47641 -5.6718,-14.3947 -13.03,-28.17385 -22.3787,-40.52611 -8.8496,-11.76638 -19.0912,-22.41707 -29.8263,-32.46572 -25.9155,-24.01832 -56.3842,-42.93573 -88.9853,-56.45866 -24.7967,-10.29936 -50.8088,-17.62494 -77.2844,-22.05449 -15.4035,-2.48322 -31.0413,-3.02591 -46.6199,-2.94181 -2.1165,-0.002 -4.233,-0.004 -6.3496,-0.005 0.2053,-0.003 -1.1098,0.005 -1.5144,0.006 -13.3025,0.0192 -26.6366,0.55589 -39.8102,2.50392 -5.2812,0.75097 -10.5534,1.74464 -15.7265,2.79038 -30.2131,6.05496 -59.9266,15.71842 -86.8518,30.8779 -20.5095,11.52213 -39.266,26.21663 -55.106,43.62599 -18.6106,20.38537 -33.2871,44.23916 -43.8159,69.72272 -4.696,11.64657 -8.088,23.78524 -10.7048,36.05538 -10.2701,53.55761 -20.5434,107.11461 -30.818,160.67135 -29.5255,-46.51887 -59.0168,-93.05953 -88.5686,-139.5616 -15.6387,-24.14477 -35.3905,-45.72196 -58.6101,-62.76138 -20.1616,-14.86298 -42.7077,-26.31776 -66.2283,-34.83448 -23.9567,-8.69908 -48.8817,-14.48232 -74.0071,-18.59254 -0.2208,-0.031 -1.184,-0.18881 -1.6915,-0.26876 -0.4829,-0.078 -1.6621,-0.26419 -1.628,-0.26217 -19.025,-3.00633 -38.20302,-5.20721 -57.46602,-5.7945 -33.05821,-1.07305 -66.39975,1.90003 -98.38314,10.54932 -24.3964,6.62777 -47.937,16.69494 -69.12591,30.54045 -13.75141,8.91445 -26.47579,19.41987 -37.74302,31.32486 -15.94838,16.76311 -29.1228,35.9543 -40.71351,55.92331 -21.01616,36.13533 -37.04909,74.92481 -50.8114,114.32538 -8.56205,24.59065 -16.16931,49.5013 -23.4183,74.50666 -7.54737,25.7556 -15.0948,51.51119 -22.64225,77.26678 -25.58458,-17.54731 -51.1331,-35.14734 -76.74763,-52.65084 -14.35666,-9.66101 -29.55437,-18.05744 -45.33831,-25.14709 -27.01821,-12.19245 -55.60532,-20.8479 -84.7841,-26.01465 -22.46973,-3.7261 -45.48699,-3.16506 -67.98204,0.0473 -37.28744,5.38194 -73.31072,18.38101 -106.04288,36.9304 -32.62858,18.4231 -62.10047,42.1055 -88.39592,68.72408 -20.32984,20.4588 -37.06874,44.36811 -50.00305,70.11868 -17.856179,35.46998 -28.759518,74.11194 -34.904732,113.24777 -3.213415,20.28733 -5.011203,40.78905 -5.559097,61.31947 -0.583607,21.08862 0.0389,42.19956 1.540962,63.2393 -0.004,-0.11702 0.08329,1.12154 0.115039,1.53525 0.870314,11.82528 2.036773,23.62599 3.03722,35.44054 1.836622,21.19146 3.797131,42.37246 5.565592,63.56966 1.2779,15.5674 2.304003,31.1566 2.936433,46.7641 1.753216,36.6803 6.892807,73.1586 14.614183,109.0466 2.560206,12.3623 5.213065,24.7061 8.137807,36.988 4.028676,17.2981 8.131023,34.5802 11.846163,51.9493 5.14547,23.4264 10.26008,46.8602 15.4248,70.282 0.3662,1.3905 0.7349,2.7804 1.10206,4.1706 -0.012,-0.033 0.29465,1.0969 0.40456,1.5088 0.2115,0.7862 0.423,1.5723 0.6345,2.3584 -0.0214,-0.097 0.29882,1.087 0.41048,1.4891 1.621,5.9411 3.31416,11.8623 5.05046,17.7707 -0.005,-0.035 0.32415,1.0885 0.44704,1.4968 6.75635,22.7855 14.30985,45.3268 22.22483,67.7336 0.0206,0.046 0.38376,1.0785 0.53217,1.4925 4.28192,12.0838 8.66124,24.133 13.11627,36.154 0.0855,0.2399 0.41822,1.1245 0.59892,1.6126 5.63365,15.2012 11.43896,30.3381 17.13281,45.5166 8.01516,21.5362 15.69662,43.1952 23.13473,64.9372 10.04972,28.767 20.6977,57.3671 33.40698,85.0801 -0.0627,-0.1495 0.46976,1.014 0.64298,1.3849 8.96588,19.3911 18.95341,38.34 30.44486,56.3607 29.79291,46.6494 70.98064,86.1972 119.54474,112.912 32.04113,17.6619 67.2615,29.6295 103.51336,34.6988 31.14717,4.358 62.92112,3.8592 93.99069,-0.9041 37.30545,-5.7176 73.56548,-17.5269 107.54872,-33.8622 35.7209,-17.1342 68.96821,-39.2543 99.11755,-64.9196 36.59627,-31.1057 68.78419,-67.0434 98.44652,-104.7248 27.21896,-34.5759 52.36534,-70.7244 76.7874,-107.3118 9.38055,-14.246 18.75795,-28.5013 27.55679,-43.1172 7.33269,-12.0932 14.68589,-24.1747 21.88039,-36.3509 13.4444,-22.8517 26.0943,-46.1565 38.7614,-69.4439 34.1336,-62.635 68.2682,-125.2694 102.4033,-187.9035 3.0403,80.7448 6.0438,161.4911 9.1194,242.2346 0.4954,11.6843 1.1999,23.3603 2.1657,35.0154 -0.013,-0.2067 0.096,1.1053 0.1324,1.5081 1.8529,22.1023 4.8891,44.1004 8.9423,65.9048 7.6856,40.7118 20.6466,80.6642 40.6876,117.0272 10.3261,18.7682 22.548,36.4971 36.4985,52.7565 28.3686,33.3243 62.5834,61.383 99.6398,84.5298 21.035,13.1393 42.961,24.8714 65.6425,34.9111 26.816,11.849 54.765,21.22 83.4525,27.33 8.9047,1.9846 17.8011,4.0587 26.8368,5.3703 11.4037,1.7227 22.8845,2.8976 34.3778,3.8269 26.6823,1.9514 53.4976,0.562 80.0629,-2.2867 24.5426,-2.6688 48.984,-7.204 72.3988,-15.1539 29.6894,-10.0272 57.8573,-25.2604 81.2833,-46.2059 16.8544,-15.0499 31.0897,-33.0477 41.6806,-53.0165 6.8235,-12.833 12.3588,-26.3311 16.8807,-40.1366 6.2042,-19.0695 10.4774,-38.7376 13.28,-58.5838 0.3118,-2.2959 0.6003,-4.5949 0.8656,-6.8966 -0.036,0.3465 0.1185,-1.0557 0.1563,-1.3869 2.7093,-24.5782 2.6363,-49.3779 1.2842,-74.0413 -0.2,-3.811 -0.456,-8.0374 -0.6813,-11.5798 -0.2329,-3.9365 -0.552,-7.8743 -0.7306,-11.8102 6.0011,-63.3432 12.0032,-126.6863 18.0046,-190.0294 34.2717,53.7451 68.5442,107.4896 102.8164,161.2344 11.6038,27.3117 24.3568,54.1442 38.5096,80.2302 27.8349,51.3693 61.1462,99.925 100.54,143.141 9.9038,10.9359 20.2411,21.5065 31.4092,31.1614 34.6697,30.2175 75.9235,53.0168 120.258,65.4133 20.2256,5.6772 41.0587,9.1637 62.0266,10.4314 21.8407,1.4512 43.7802,1.0515 65.5887,-0.7348 -0.1662,0.016 1.1128,-0.092 1.5203,-0.1256 0.564,-0.048 1.4229,-0.1166 1.5344,-0.1303 0.9941,-0.088 1.9882,-0.1757 2.9824,-0.2636 -0.025,0 1.132,-0.1049 1.5579,-0.1437 26.9571,-2.5871 54.0034,-5.6113 80.2828,-12.3828 13.9332,-3.7128 27.7201,-8.0099 41.2147,-13.0983 21.0384,-7.9214 41.3557,-18.0331 59.6353,-31.1843 8.6711,-6.1875 16.7816,-13.1139 24.7924,-20.1226 20.349,-18.028 39.1522,-37.794 56.2422,-58.9338 7.9533,-9.9511 15.0917,-20.5245 21.8112,-31.3387 12.8456,-19.7861 25.9799,-39.3824 39.2168,-58.9084 24.4613,-36.447 44.8571,-75.5328 61.8735,-115.9674 31.1545,-73.0217 62.3095,-146.0432 93.465,-219.0645 9.5384,82.774 19.0415,165.5521 28.613,248.3221 2.9819,24.8354 6.5486,49.6138 11.3264,74.172 -0.019,-0.1172 0.2191,1.1029 0.3009,1.5094 7.2656,36.6795 17.3564,73.035 33.2827,106.9666 12.7864,27.2853 29.5008,52.8218 50.1104,74.8474 19.9072,21.125 44.0074,38.1606 70.2292,50.5399 27.4328,12.996 57.0699,21.1285 87.17,24.8169 15.5985,1.8246 31.3404,2.2844 47.0304,1.7725 39.9991,-1.4521 79.7891,-11.1185 115.6489,-28.9894 17.597,-8.7552 34.3259,-19.3582 49.3486,-32.059 13.0841,-11.0164 25.0446,-23.3594 35.7633,-36.6849 14.3521,-17.9841 26.136,-37.9229 35.8844,-58.7363 10.4974,-22.4272 18.6122,-45.8939 25.4637,-69.6667 -0.025,0.071 0.3103,-1.0871 0.4246,-1.4918 0.1677,-0.5861 0.3354,-1.1721 0.5031,-1.7582 -0.018,0.076 0.3062,-1.0879 0.4207,-1.4921 5.3123,-18.8785 9.8734,-37.9552 14.6922,-56.9627 16.3179,-64.9895 32.6348,-129.9792 48.9515,-194.969 23.1482,73.3161 46.2595,146.644 69.4399,219.9499 15.4614,47.6957 37.5369,93.4133 66.8152,134.1912 28.1014,39.212 62.7004,73.8548 102.3556,101.3782 32.6604,22.6263 68.8284,40.3228 107.0093,51.4221 18.6803,5.3952 37.8046,9.2666 57.1172,11.5252 38.6134,4.3898 78.0009,1.0279 115.488,-9.1007 28.0544,-7.5628 55.1182,-18.7828 80.3293,-33.2232 39.8436,-22.9481 74.7058,-54.7785 100.2876,-93.0514 5.3609,-7.9665 10.1599,-16.2884 15.1939,-24.4607 12.4114,-20.3976 24.8225,-40.7954 37.2336,-61.1931 20.5592,23.4425 41.0699,46.9277 61.6657,70.3381 3.6275,4.0233 7.2753,8.0377 11.1125,11.8612 5.0722,4.9948 9.9991,10.146 15.3222,14.8806 27.8849,25.4863 59.6576,46.8725 94.279,62.0886 26.7713,11.7675 55.2581,19.7142 84.3257,23.0493 27.3259,3.0812 55.0746,2.3923 82.22,-1.9973 27.6478,-4.5204 54.659,-12.8099 80.18,-24.3483 37.8949,-17.1067 72.37,-41.4744 101.8371,-70.7505 11.6311,-11.5392 22.5023,-23.8412 32.5675,-36.7682 -0.1017,0.1226 0.6842,-0.8841 0.9341,-1.2089 12.963,-16.7676 24.5152,-34.6089 34.7037,-53.1893 18.4728,-33.3767 36.9693,-66.7403 55.4521,-100.1116 21.1801,38.9697 42.4077,77.9138 63.5527,116.9024 8.7543,16.8702 18.3251,33.3282 28.9639,49.0836 23.2365,34.4828 51.3562,65.876 84.281,91.3744 29.5253,22.8702 63.0002,40.9549 98.9441,51.3695 20.1219,5.827 40.9496,9.312 61.8941,10.0346 9.0351,0.3111 18.0747,0 27.1005,-0.4266 3.4269,-0.13 6.8553,-0.2088 10.2832,-0.3027 0.8842,-0.021 2.0577,-0.059 3.0515,-0.084 14.1385,-0.3452 28.2864,-1.04 42.3253,-2.8178 34.6368,-4.0187 69.1648,-10.4096 102.2038,-21.76 13.6682,-4.7073 27.0769,-10.1296 40.4296,-15.6585 4.0288,-1.688 8.0494,-3.3953 12.0621,-5.1214 0.085,-0.033 1.0538,-0.4557 1.4644,-0.6323 24.9484,-10.7921 49.5731,-22.3911 73.3749,-35.5388 32.3296,-17.8258 63.2734,-38.1914 92.2583,-61.0652 -0.059,0.039 0.8858,-0.7036 1.2149,-0.9665 45.6374,-36.169 86.3179,-78.7126 119.6353,-126.5089 19.2288,-27.5852 36.0225,-56.8763 50.0198,-87.4521 8.1957,-18.0429 14.9682,-36.8333 18.7604,-56.3218 3.8989,-19.6721 5.0878,-40.0356 1.9433,-59.9031 -2.884,-18.3066 -9.2655,-35.9779 -18.0439,-52.2664 -9.5651,-17.5524 -22.677,-33.0781 -37.9882,-45.8917 -10.0235,-8.4472 -20.97,-15.7438 -32.3487,-22.2296 -26.6893,-15.6383 -53.3786,-31.2766 -80.0679,-46.915 26.8353,-20.3491 53.71,-40.6464 80.5158,-61.0342 23.6674,-18.3517 44.903,-39.8965 62.5258,-64.1293 18.906,-25.8657 33.7889,-54.627 44.2779,-84.8897 8.2598,-23.675 14.0868,-48.1584 18.0966,-72.896 2.8647,-19.423 3.0613,-39.10486 3.1032,-58.69922 -0.035,-28.28808 -2.1871,-56.69811 -8.3989,-84.34429 -11.5321,-50.78394 -33.2274,-99.23069 -63.4148,-141.66442 -28.0892,-39.54733 -63.5016,-73.89113 -103.9762,-100.63796 -29.6626,-19.63293 -62.0362,-35.15318 -95.9051,-46.02203 -29.7193,-9.80804 -59.4387,-19.61573 -89.1582,-29.42311 22.2074,-25.55394 44.4631,-51.06605 66.6348,-76.65087 16.6658,-19.53529 31.5011,-40.69423 43.5048,-63.41549 17.7263,-32.94735 32.6211,-67.70447 41.01,-104.26531 5.3217,-23.24942 7.9659,-47.1782 7.0359,-71.03356 -1.0499,-22.92115 -5.7808,-45.71127 -14.2942,-67.03287 -8.4879,-21.1966 -21.0419,-40.94709 -37.7135,-56.64895 -11.8258,-11.1846 -25.611,-20.24277 -40.4522,-26.90378 -6.3746,-2.87492 -12.5623,-6.2177 -19.2305,-8.39394 -3.4328,-1.14694 -6.949,-2.09134 -10.5154,-2.69255 -2.0021,-0.0385 -3.9824,-0.2917 -5.9538,-0.629539 -5.0613,-0.895053 -10.1993,-1.344808 -15.3287,-1.659313 -4.3981,-0.246055 -8.8044,-0.331514 -13.209,-0.283203 z"
     transform="matrix(0.06299338,0,0,0.06299338,-10.705221,-13.040197)"
     sodipodi:nodetypes="sccccccccccccccccccccccccccccccccccccccccccccccscccccccccccccccccccccccccccccccccccccccccccccccccccccccccccccccccccccccccccccccccccccccccccccccccccccccccccccccccccccccccccccccsccccccccccccccccccccccccccccccccccccccccccccccccccccccccccccccccccccccccccccccccscccccccccccsccccccccccccccccccccccccccccss" />
  <path
     id="path3245"
     style="fill:#ffff00;stroke-width:0.0629933"
     d="m 340.78125,-1.7832031 c -0.50899,0 -1.14061,0.1235421 -1.63281,0.3125 -0.74397,0.2856044 -1.32106,0.62516949 -2.31641,1.3691406 -1.54781,1.1569075 -3.38887,2.2260433 -5.22461,3.03125 -2.55421,1.1203458 -4.48208,1.8173074 -5.89648,2.1660156 -1.28674,0.3172388 -3.04048,0.7209448 -3.92578,0.90625 -2.27884,0.4769849 -3.80513,1.0842013 -5.42383,2.1835938 -1.13896,0.7735555 -2.34787,2.0012191 -3.14844,3.1269531 -0.7265,1.02156 -1.28696,2.177716 -1.58984,3.34375 -0.18623,0.71696 -0.24864,1.245722 -0.25196,2.314453 -0.004,1.345928 0.16197,2.359912 0.57813,3.431641 1.05196,2.709171 3.64754,4.404666 6.83594,4.794922 0.30731,0.03761 0.67862,0.08689 0.68554,0.08789 0.59011,0.08524 1.00641,0.05686 1.61914,0.04492 0.61274,-0.01194 1.23443,-0.03836 1.73633,-0.0957 1.85663,-0.212123 3.27297,-0.537661 5.30274,-1.210937 1.78559,-0.592282 2.99122,-1.126037 4.37695,-1.94336 1.33427,-0.786976 2.36685,-1.504786 3.82422,-2.658203 3.38886,-2.682095 5.06747,-4.490782 6.48242,-7.068359 1.75106,-3.1898757 2.57668,-5.7261814 2.56836,-8.3574222 -0.007,-2.2966856 -0.87189,-4.49113627 -2.85352,-5.3769532 -0.15279,-0.068304 -0.38444,-0.1766353 -0.34765,-0.1582031 -0.40525,-0.2029654 -0.4701,-0.1669355 -0.57813,-0.1855469 -0.10802,-0.018611 -0.19171,-0.027172 -0.27929,-0.035156 -0.17518,-0.015968 -0.35204,-0.023437 -0.54102,-0.023437 z M 195.74219,-0.390625 c -1.43981,0.0266667 -2.89023,0.2835287 -4.26953,0.7734375 -1.91439,0.6799523 -3.73676,1.7897928 -5.10938,3.1542969 -2.04976,2.0376445 -2.93487,4.6693716 -3.16016,8.7089846 -0.14902,2.671905 -0.034,4.165617 0.6504,5.501953 0.64116,1.251934 1.75366,2.197724 3.09375,2.847656 1.6556,0.802976 3.71363,1.311118 5.64453,1.427735 0.96773,0.05845 2.34944,0.0073 3.30859,-0.140626 1.78681,-0.27551 3.37027,-0.761059 4.9043,-1.517578 2.97349,-1.466409 5.24816,-3.554951 6.22656,-6.154296 1.53406,-4.075648 0.20064,-8.7119821 -3.19727,-11.7148442 -1.08417,-0.9581378 -2.51851,-1.79983222 -3.8789,-2.25781255 -1.34127,-0.45154129 -2.77237,-0.65558603 -4.21289,-0.62890625 z m 36.26367,0.296875 c -1.32268,-0.23506976 -2.88656,-0.27289901 -4.23633,0.0097656 -2.1562,0.45154705 -3.94714,1.38660537 -5.4375,2.87695317 -2.08173,2.0817284 -3.18231,5.0068554 -3.16601,8.1152342 0.009,1.626354 0.27048,3.010553 0.85742,4.558594 0.52183,1.376361 1.08809,2.444566 2.73242,5.195312 1.70328,2.849371 2.82972,5.446795 3.50391,8.011719 0.8739,3.324792 1.2063,5.95882 1.20507,9.59375 -8.5e-4,2.520242 -0.11437,4.095698 -0.46875,6.550781 -0.30464,2.110474 -0.64645,3.769808 -1.24414,6.035157 -0.2081,0.788759 -0.33644,1.245661 -0.93554,3.291015 -1.35546,4.627622 -2.03784,7.366589 -2.58985,10.421875 -0.0709,0.39246 -0.15928,0.864534 -0.18945,1.023438 -0.38053,2.004733 -0.76996,5.176391 -1.00781,8.09375 -0.13923,1.707736 -0.22132,5.859971 -0.14453,7.533203 0.35569,7.752224 2.59155,14.046476 6.83398,18.681641 2.34371,2.560682 5.15209,4.441912 8.22461,5.458982 0.9844,0.32586 1.64508,0.48336 2.75,0.65625 2.99723,0.46901 6.28747,-0.12843 9.14453,-1.58984 3.45574,-1.76766 5.93955,-4.657785 6.91992,-8.197268 0.29511,-1.065421 0.38463,-1.888479 0.38281,-3.470703 -0.002,-1.882496 -0.16208,-3.02385 -0.71679,-5.091797 -0.15927,-0.593748 -0.51196,-1.667524 -0.74219,-2.292968 -0.1048,-0.284709 -0.24198,-0.679721 -0.22266,-0.619141 a 1.7834482,1.7834482 0 0 0 0,-0.002 c -0.0753,-0.236111 -0.0917,-0.251809 -0.16601,-0.439453 -0.0743,-0.187644 -0.17674,-0.440623 -0.30664,-0.761719 -0.25981,-0.642192 -0.63017,-1.554208 -1.10547,-2.71289 -0.94349,-2.300067 -1.52751,-4.121849 -1.79883,-5.496094 -0.41819,-2.118243 -0.50441,-5.791972 -0.13867,-9.888672 0.2584,-2.894354 0.58214,-5.768445 0.96094,-8.548828 0.0924,-0.677895 0.13216,-0.975683 0.57031,-4.119141 0.11999,-0.860783 0.31797,-2.334899 0.44141,-3.296875 0.12182,-0.949401 0.25225,-1.947016 0.28515,-2.191406 0.0688,-0.510739 0.12059,-0.999829 0.29102,-2.636719 0.19181,-1.842356 0.28182,-2.877434 0.34961,-4.017578 0.018,-0.302968 0.0383,-0.594045 0.0547,-0.810547 0.008,-0.108251 0.0162,-0.199093 0.0215,-0.255859 0.005,-0.05518 0.0377,-0.186822 -0.0156,0.06445 0.0713,-0.33583 0.0596,-0.421347 0.0723,-0.628906 0.0127,-0.208832 0.022,-0.455736 0.0312,-0.740235 0.0186,-0.568998 0.0332,-1.285059 0.041,-2.046875 0.0156,-1.523631 0.009,-3.209161 -0.0332,-4.261718 C 252.59473,21.426061 249.26625,12.54739 243.20508,6.3515625 239.78059,2.8510106 236.00435,0.61746463 232.00586,-0.09375 Z M 87.626953,3.0507812 c -2.157315,0.3864178 -4.017854,1.0688926 -5.453125,2.1503907 -1.299733,0.9793742 -2.283673,2.3009774 -2.960937,3.8984375 -0.223604,0.5274331 -0.322068,0.9730456 -0.455079,1.5624996 -0.304337,1.348718 -0.266468,2.774624 0.02734,4.097657 0.47506,2.139188 1.465932,3.976716 2.982422,5.49414 1.85923,1.86037 4.293861,2.986284 7.033203,3.314453 1.169243,0.140075 2.633021,0.07636 3.78711,-0.140625 1.809669,-0.340259 3.439584,-0.947925 4.714843,-1.886718 1.766769,-1.300618 2.936336,-3.191244 4.222656,-6.396485 0.71489,-1.781334 0.91397,-2.635345 0.91797,-3.736328 0.003,-0.792811 -0.10053,-1.4572745 -0.2793,-1.9218749 -0.33893,-0.88084 -0.88623,-1.6658141 -1.68359,-2.4648437 C 98.419798,4.9565163 95.681136,3.6367806 92.480469,3.0546875 91.029645,2.7907795 89.076728,2.7910996 87.626953,3.0507812 Z M 281.77734,7.015625 c -2.34118,-0.00438 -4.5875,0.4176329 -6.39843,1.3164062 -1.0103,0.501415 -1.7987,1.0796815 -2.64844,1.9316408 -1.39095,1.394582 -2.15762,2.618361 -4.65235,7.435547 -0.80382,1.552137 -1.90763,3.936158 -2.33984,5.125 -0.61544,1.692849 -0.94495,2.766549 -1.32031,4.314453 -0.91092,3.756499 -1.34915,7.819368 -1.49805,13.603516 -0.0184,0.716449 -0.0488,1.623619 -0.0644,1.941406 -0.0279,0.567085 -0.0766,2.836424 -0.12695,5.439453 -0.0502,2.594684 -0.11556,5.190209 -0.1211,5.296875 -0.0222,0.427611 -0.0497,1.427395 -0.0684,2.357422 -0.0489,2.438374 -0.14682,6.767507 -0.25781,11.457031 -0.16235,6.860048 -0.19405,11.836139 -0.0566,13.953125 0.14081,2.169695 0.3974,4.36278 0.70898,5.779297 0.5605,2.548075 1.1309,4.328662 1.98438,6.125 1.10448,2.324595 2.65415,4.525148 4.38476,6.183594 2.71849,2.605119 5.97323,4.203719 9.32813,4.425779 1.2681,0.0839 2.53141,-8e-5 3.75586,-0.2539 4.95042,-1.02618 9.17741,-4.484217 11.73242,-9.396489 1.38953,-2.671544 2.3871,-5.880052 2.7168,-8.777343 0.32096,-2.820462 -0.13294,-5.05503 -1.6836,-8.574219 -0.13745,-0.311944 -0.68316,-1.64778 -0.8125,-1.990235 -0.0619,-0.163971 -0.1592,-0.405797 -0.24023,-0.605468 -0.32978,-0.812584 -1.32998,-3.747238 -1.73438,-5.125 -0.21222,-0.723026 -0.49785,-1.748621 -0.50976,-1.796875 -0.0412,-0.166728 -0.1507,-0.593156 -0.25781,-1.009766 -0.19826,-0.771142 -0.68793,-2.990743 -0.82422,-3.724609 -0.33181,-1.786678 -0.45994,-2.586297 -0.64453,-4.082032 -0.90394,-7.323919 -0.39322,-14.166166 1.48632,-20.40039 0.6556,-2.174519 1.17359,-3.482139 2.75391,-6.921875 1.13125,-2.462299 1.68677,-4.055161 2.01563,-5.875 0.26694,-1.477512 0.28964,-3.435793 0.002,-4.9375 -0.34326,-1.791782 -0.78998,-3.189709 -1.48828,-4.585938 -2.62147,-5.241517 -7.63099,-8.6186222 -13.1211,-8.628906 z M 51.794922,8.3710938 c -3.984006,-0.5199796 -7.604455,0.03054 -10.15625,1.9589842 -1.002066,0.757278 -1.818931,1.779668 -2.640625,3.148438 -1.849924,3.081578 -3.553254,7.846486 -5.253906,14.320312 -0.07187,0.273576 -0.388554,1.539725 -0.75586,3.013672 -0.647003,2.596329 -0.758681,3.028936 -1.019531,3.943359 -0.420769,1.47501 -0.788962,3.090274 -1.271484,5.564453 -0.428881,2.199119 -0.897183,4.24418 -1.326172,5.802735 -0.422694,1.535682 -0.983828,2.583944 -1.664063,3.515625 -0.219576,-1.160929 -0.362948,-2.456502 -0.441406,-6.460938 -0.07306,-3.728853 -0.224754,-4.908087 -0.845703,-6.765625 -1.207496,-3.612177 -3.690997,-6.547528 -7.03711,-8.302734 -1.391854,-0.730101 -3.18594,-1.337443 -4.794921,-1.642578 -1.226749,-0.232653 -2.542076,-0.112024 -3.828125,0.179687 -2.9157476,0.661355 -5.977998,2.573455 -8.4199222,5.060547 -2.26466252,2.306555 -3.4638407,5.29126 -3.9960938,9.453125 -0.2022975,1.5818 -0.1886599,5.022722 -0.037109,6.714844 0.043281,0.483201 0.1072796,1.222359 0.1425782,1.632812 0.036568,0.42513 0.1372745,1.540587 0.2226562,2.494141 0.1710406,1.910156 0.2545814,3.100933 0.3046875,4.292969 0.0824252,1.961129 0.3359834,3.947059 0.765625,5.99414 0.0695461,0.331363 0.16844164,0.799427 0.21875,1.039063 0.11216312,0.534286 0.18941112,0.875724 0.54101562,2.373047 0.14564241,0.620235 0.30207928,1.300852 0.3125,1.349609 0.0324631,0.151884 0.10034705,0.46137 0.15625,0.710938 0.0378418,0.168956 0.20492058,0.983054 0.34179688,1.683593 0.7245371,3.70808 1.6793517,6.729898 4.1757812,13.271485 0.4194166,1.099026 1.0822764,2.934428 1.4902344,4.128906 1.2931827,3.786405 2.2926781,6.138758 3.5195314,8.177735 2.667067,4.432593 6.579561,7.039762 11.392578,7.472652 3.609999,0.32472 7.474699,-0.71732 10.984375,-2.832028 4.153704,-2.502748 7.769678,-6.429749 12.390625,-13.210937 0.820642,-1.204283 1.065801,-1.573553 1.822266,-2.742187 0.420775,-0.650046 0.529875,-0.828522 1.75,-2.853516 2.190887,-3.636133 4.579042,-8.261515 6.234375,-12.083984 2.077606,-4.797577 3.677442,-9.259292 5.041015,-14.048829 0.413602,-1.452774 1.071773,-4.0108 1.34375,-5.234375 0.05093,-0.229099 0.153459,-0.670129 0.220703,-0.960937 0.837001,-3.619886 1.732104,-9.316897 2.082032,-13.21875 0.292021,-3.256196 0.401952,-4.68388 0.515625,-6.771485 C 64.697698,20.783337 63.817585,15.121687 60.677734,11.9375 58.716448,9.9485318 55.463898,8.8499497 51.794922,8.3710938 Z M 198.32031,24.716797 c -0.93526,0.002 -1.95215,0.04059 -2.78515,0.125 -4.49606,0.455593 -7.72798,1.771319 -11.42383,4.642578 -2.00631,1.558671 -3.24891,3.107647 -4.36133,5.431641 -1.99683,4.17159 -3.07489,10.442489 -3.29492,17.93164 -0.0737,2.509307 -0.0136,6.825223 0.13281,8.857422 0.032,0.444355 0.0784,1.099879 0.0977,1.425781 0.0479,0.807911 0.14213,2.123472 0.22265,3.095703 0.11417,1.378444 0.24886,2.927488 0.3125,3.583985 0.0331,0.341621 0.10485,1.096174 0.16016,1.669922 0.17242,1.788493 0.42046,4.248137 0.59961,5.966797 0.0303,0.291269 0.14803,1.567478 0.25195,2.742187 0.37848,4.278107 0.44819,5.022969 0.57227,6.140625 0.7389,6.655756 1.99695,11.05727 4.4707,13.923832 1.6588,1.92221 4.10422,3.08016 6.91602,3.46289 0.51687,0.0703 1.15714,0.10257 1.71875,0.10742 2.57887,0.0222 5.03468,-0.67008 7.09765,-2.04102 1.03959,-0.69085 2.03178,-1.69083 2.74805,-2.707028 1.02843,-1.459085 1.83934,-3.320157 2.50195,-5.560547 0.32354,-1.093966 0.43552,-1.521662 0.87891,-3.332031 1.47362,-6.016963 2.61674,-12.177965 3.6289,-19.546875 0.12313,-0.896382 0.25496,-1.837177 0.28321,-2.027344 0.0631,-0.425013 0.10364,-0.760633 0.28906,-2.283203 0.21445,-1.761024 0.29955,-2.519239 0.47461,-4.25586 0.21194,-2.102379 0.35596,-3.66038 0.41406,-4.533203 0.0197,-0.295632 0.0626,-0.88028 0.0937,-1.267578 0.14439,-1.795902 0.26358,-3.957353 0.38281,-6.904297 0.0793,-1.959368 0.21135,-3.288 0.64649,-6.511718 0.39724,-2.943041 0.55747,-5.379769 0.31641,-7.101563 -0.30534,-2.180899 -1.44838,-4.336402 -3.14258,-6.324219 -1.8804,-2.20628 -4.86169,-3.909005 -7.81641,-4.5625 -0.79627,-0.176111 -1.45145,-0.150452 -2.38672,-0.148437 z m -110.714841,2.9375 c -0.745843,0.02173 -1.314917,0.04962 -1.908203,0.181641 C 81.086024,28.86204 77.119231,32.51516 74.744141,37.5 73.633823,39.830318 72.63177,43.037414 71.625,47.306641 c -0.105405,0.446975 -0.233685,0.991439 -0.28125,1.1875 -0.426178,1.756819 -1.243491,5.882266 -1.550781,7.822265 -0.372988,2.354734 -0.5016,3.23243 -0.695313,4.75 -0.269292,2.109705 -0.444813,3.852362 -0.660156,6.50586 -0.28659,3.531509 -0.413279,7.264906 -0.369141,10.939453 0.05032,4.187946 0.176926,5.838785 0.650391,8.539062 0.559634,3.191747 1.753563,6.142807 3.486328,8.292969 1.483143,1.840427 3.715903,3.6907 6.00586,5.04297 2.246583,1.32667 4.804498,2.38152 7.052734,2.86914 0.247918,0.0538 0.578624,0.12822 0.699219,0.15625 0.581897,0.13525 1.284984,0.22849 2.183593,0.31641 1.177161,0.11516 1.957459,0.11334 3.425782,0.002 1.682324,-0.12762 2.653216,-0.27448 3.826172,-0.5918 2.637019,-0.71341 4.663042,-2.11494 5.716792,-4.234373 0.54698,-1.100152 0.90591,-2.309714 1.16016,-3.761719 0.26499,-1.513328 0.25689,-4.060044 0.11133,-6.132812 -0.0517,-0.735986 -0.1261,-1.858301 -0.16211,-2.46875 -0.037,-0.627281 -0.0935,-1.560671 -0.12695,-2.085938 -0.0328,-0.515326 -0.10256,-1.636948 -0.1543,-2.484375 -0.0519,-0.850279 -0.12269,-1.99633 -0.1582,-2.554687 -0.12666,-1.990798 -0.18563,-2.969374 -0.21875,-3.576172 -0.02,-0.365564 -0.0448,-0.737614 -0.0703,-0.992188 -0.005,-0.04904 -0.0389,-0.530397 -0.0566,-0.886718 -0.0196,-0.393559 -0.0435,-0.835265 -0.0664,-1.103516 -0.0302,-0.354399 -0.0582,-0.741378 -0.15625,-2.38086 -0.0737,-1.232537 -0.1752,-2.880262 -0.21875,-3.537109 -0.014,-0.210711 -0.0557,-0.949975 -0.0918,-1.589844 -0.0366,-0.648038 -0.0762,-1.287393 -0.0977,-1.554687 -0.0114,-0.141882 -0.057,-0.802128 -0.0937,-1.384766 -0.0376,-0.596738 -0.0939,-1.446445 -0.12695,-1.90625 -0.24046,-3.350534 -0.23196,-4.098932 0.0879,-6.849609 0.23909,-2.056082 0.51151,-4.563753 0.57031,-5.328125 0.27029,-3.512903 -0.24293,-7.223665 -1.470699,-10.84961 -0.642902,-1.898699 -1.344522,-3.498491 -2.136719,-4.685546 -0.739733,-1.108433 -1.844064,-2.146901 -2.966797,-2.894532 -1.521749,-1.013314 -3.221944,-1.758431 -4.890625,-2.101562 -0.64188,-0.131989 -1.187654,-0.169415 -2.175781,-0.140625 z m 69.251951,1.257812 c -3.49903,-0.08607 -6.04453,0.49485 -8.48047,2.021485 -0.75856,0.475397 -1.65244,1.131107 -2.30078,1.697265 -1.72774,1.508747 -3.68014,4.286912 -4.91992,6.738282 -0.85287,1.686326 -1.25272,2.891476 -2.17773,6.55664 -0.48483,-1.624368 -0.82989,-2.778052 -1.04297,-3.408203 -0.65683,-1.942459 -1.22031,-3.130362 -2.15235,-4.498047 -2.76514,-4.057617 -6.58179,-6.943566 -10.79101,-7.960937 -1.02637,-0.248066 -1.87991,-0.349236 -2.94531,-0.347656 -3.79912,0.0055 -7.37475,1.916258 -10.35938,5.251953 -0.90873,1.015615 -1.54043,1.90883 -2.06055,2.947265 -0.98827,1.973172 -1.39326,3.951817 -1.39648,6.566406 -0.002,1.467466 0.0544,2.244892 0.28125,3.839844 0.30799,2.165595 0.85567,4.605333 1.60547,7.203125 0.18971,0.657265 0.38076,1.324263 0.42383,1.47461 0.44528,1.554493 1.59168,4.965389 2.71484,8.111328 0.70868,1.984995 0.97725,2.818863 1.63476,5.091797 0.22112,0.764371 0.5043,1.739145 0.63477,2.18164 0.12717,0.43131 0.34053,1.155453 0.47266,1.605469 1.15463,3.932542 2.58704,8.048887 3.80078,10.902344 2.23289,5.249438 4.95463,9.566262 8.30469,13.09375 2.60783,2.745961 5.56125,4.219901 9.15625,4.521481 1.04781,0.0879 3.00076,0.0565 4.04296,-0.0391 2.53421,-0.23227 3.44884,-0.37549 4.75,-0.75 1.90192,-0.54743 3.49088,-1.22805 4.67969,-2.187499 1.00447,-0.810672 2.73277,-2.546936 3.56836,-3.556641 0.36108,-0.436303 0.7673,-1.01333 1.08203,-1.521484 0.36976,-0.59702 1.42203,-2.18952 2.50196,-3.773438 3.10114,-4.548411 5.2517,-10.065656 6.94531,-17.589844 0.11262,-0.500364 0.18511,-0.813275 0.4375,-1.910156 0.0917,-0.398499 0.27407,-1.217729 0.41211,-1.845703 0.57536,-2.617464 0.78402,-3.516683 1.22461,-5.261719 0.74732,-2.959944 0.96035,-3.940915 1.3457,-6.259765 0.53797,-3.237128 0.7506,-5.75581 0.75195,-8.892579 0.002,-4.022306 -0.39319,-7.314048 -1.32422,-10.988281 -0.50623,-1.997832 -1.29545,-3.89267 -2.33007,-5.265625 -0.61736,-0.819236 -1.39405,-1.571285 -2.25391,-2.142578 -1.64609,-1.09366 -3.56921,-1.539861 -6.23633,-1.605469 z m 179.55469,0 c -4.97711,-0.06333 -8.72696,0.352891 -12.67188,1.433594 -6.82487,1.869658 -12.4293,5.811932 -15.60742,11.166016 -0.93782,1.57991 -1.68163,3.242377 -2.32031,5.160156 -1.54345,4.634508 -2.09661,9.924499 -1.91992,17.527344 0.0375,1.61297 0.069,3.867752 0.0684,4.953125 a 1.7834482,1.7834482 0 0 0 0,0.002 c -9.4e-4,2.874638 0.22062,5.90149 0.68164,9.439453 0.18612,1.428374 0.38675,2.451227 0.9707,4.933594 0.0455,0.193324 0.18844,0.80946 0.31055,1.34375 0.4308,1.885003 0.99985,3.75659 1.58398,5.130859 0.39935,0.939578 0.85154,1.82304 1.7168,3.373047 0.39565,0.708761 0.96653,1.763737 1.23633,2.283203 1.14484,2.204306 2.42139,3.998532 3.99609,5.580077 2.4198,2.43032 5.22754,3.94658 8.20703,4.24805 0.68118,0.0689 1.38258,0.033 2.33789,0.008 0.95532,-0.0252 1.87683,-0.0585 2.47852,-0.125 2.62104,-0.28943 4.26833,-0.64175 6.09375,-1.31641 1.26542,-0.46768 3.91044,-1.61095 5.17773,-2.23632 7.07778,-3.492747 12.36574,-8.541184 15.57813,-14.970707 0.65853,-1.318053 1.10224,-2.421582 1.29101,-3.523437 0.18877,-1.101856 0.0546,-2.234383 -0.38867,-3.181641 -1.02288,-2.185888 -3.34249,-3.216485 -6.30859,-3.972656 -2.73416,-0.697042 -5.69553,-0.704415 -8.50586,-0.03906 -0.83573,0.197858 -1.35233,0.367639 -2.94141,0.96875 -2.00839,0.759731 -1.69519,0.707729 -2.79101,0.708985 -0.98394,0.0011 -0.55878,0.108039 -1.16407,-0.22461 -0.12437,-0.06835 -0.28786,-0.207012 -0.46289,-0.576172 -0.32896,-0.693846 -0.47942,-1.467173 -0.44726,-3.152343 0.0112,-0.588338 0.0249,-0.920324 0.0371,-1.050782 0.0122,-0.130458 -0.0144,-0.0045 0.0156,-0.08594 0.10247,-0.277749 1.02865,-1.585981 1.60352,-2.050781 0.15812,-0.127849 1.05963,-0.599098 2.72265,-1.126954 0.87851,-0.278843 1.94772,-0.63967 2.57618,-0.917968 -0.0269,0.0119 0.46257,-0.192135 0.85547,-0.34961 0.40731,-0.163262 0.65393,-0.256253 0.91796,-0.375 0.0456,-0.02052 0.23693,-0.105129 0.38282,-0.167968 6.72196,-2.895339 9.57851,-4.474768 11.83789,-6.748047 1.14921,-1.156271 1.97536,-2.309881 2.72265,-3.796875 0.81993,-1.631529 1.30958,-3.231147 1.6875,-5.414063 0.1303,-0.752649 0.16322,-1.319535 0.16602,-2.976562 0.003,-2.047125 -0.0967,-3.05524 -0.45703,-4.548828 -1.77687,-7.365008 -7.50387,-13.043854 -14.82617,-14.667969 -2.2275,-0.494071 -3.50854,-0.626742 -6.44141,-0.664063 z m -6.59766,17.470703 c 0.70614,0.08685 1.55497,0.283253 2.55664,0.609376 1.36775,0.445308 1.77793,0.691201 2.40039,1.322265 0.80054,0.811609 0.86116,1.250884 0.68164,1.802735 -0.0485,0.149095 -0.29222,0.592294 -0.13671,0.357421 0.0279,-0.04216 -0.57692,0.636975 -0.73438,0.763672 -0.46274,0.372332 -1.97282,1.019123 -3.03125,1.16211 -0.63886,0.08631 -1.22267,0.09036 -1.47461,0.06055 -2.00953,-0.237829 -2.86591,-0.940001 -3.39844,-2.632813 -0.15226,-0.48402 -0.0957,-0.117037 -0.0957,-1.103516 -1.8e-4,-0.812534 0.0159,-0.889673 0.0469,-1 0.26797,-0.955862 0.42648,-1.106797 1.4707,-1.316406 0.45381,-0.09109 1.00855,-0.112262 1.71484,-0.02539 z" />
  <g
     inkscape:groupmode="layer"
     id="layer3"
     inkscape:label="Offsets" />
  <g
     inkscape:groupmode="layer"
     id="layer2"
     inkscape:label="Bulbs"
     transform="matrix(0.06299338,0,0,0.06299338,-10.705221,-13.040197)">
    <circle
       id="Ellipse_1_kopi_11"
       data-name="Ellipse 1 kopi 11"
       class="cls-2"
       cx="583.75085"
       cy="1267.574"
       r="50"
       style="fill:#cf2e2e" />
    <circle
       id="Ellipse_1_kopi_12"
       data-name="Ellipse 1 kopi 12"
       class="cls-2"
       cx="425.0361"
       cy="1411.8917"
       r="50"
       style="fill:#cf2e2e" />
    <circle
       id="Ellipse_1_kopi_13"
       data-name="Ellipse 1 kopi 13"
       class="cls-2"
       cx="815"
       cy="1246"
       r="50" />
    <circle
       id="Ellipse_1_kopi_2"
       data-name="Ellipse 1 kopi 2"
       class="cls-2"
       cx="965"
       cy="514"
       r="50" />
    <circle
       id="Ellipse_1_kopi_3"
       data-name="Ellipse 1 kopi 3"
       class="cls-2"
       cx="385.75089"
       cy="1128.0721"
       r="50"
       style="fill:#cf2e2e" />
    <circle
       id="Ellipse_1_kopi_8"
       data-name="Ellipse 1 kopi 8"
       class="cls-2"
       cx="915"
       cy="1010"
       r="50" />
    <ellipse
       id="Ellipse_1_kopi_10"
       data-name="Ellipse 1 kopi 10"
       class="cls-2"
       cx="965"
       cy="762"
       rx="50"
       ry="49" />
    <circle
       id="Ellipse_1_kopi"
       data-name="Ellipse 1 kopi"
       class="cls-2"
       cx="367"
       cy="861"
       r="50" />
    <circle
       id="Ellipse_1_kopi_14"
       data-name="Ellipse 1 kopi 14"
       class="cls-2"
       cx="715"
       cy="1473"
       r="50" />
    <circle
       id="Ellipse_1_kopi_15"
       data-name="Ellipse 1 kopi 15"
       class="cls-2"
       cx="565"
       cy="1642"
       r="50" />
    <circle
       id="Ellipse_1_kopi_7"
       data-name="Ellipse 1 kopi 7"
       class="cls-2"
       cx="1544"
       cy="1573"
       r="50" />
    <circle
       id="Ellipse_1_kopi_6"
       data-name="Ellipse 1 kopi 6"
       class="cls-2"
       cx="1494"
       cy="1336"
       r="50" />
    <circle
       class="cls-2"
       cx="1594"
       cy="414"
       r="50"
       id="circle20" />
    <circle
       id="Ellipse_1_kopi_5"
       data-name="Ellipse 1 kopi 5"
       class="cls-2"
       cx="1494"
       cy="1086"
       r="50" />
    <circle
       id="Ellipse_1_kopi_4"
       data-name="Ellipse 1 kopi 4"
       class="cls-2"
       cx="1544"
       cy="862"
       r="50" />
    <circle
       id="Ellipse_1_kopi_7-2"
       data-name="Ellipse 1 kopi 7"
       class="cls-2"
       cx="2386"
       cy="1623"
       r="50" />
    <circle
       id="Ellipse_1_kopi_6-2"
       data-name="Ellipse 1 kopi 6"
       class="cls-2"
       cx="2223"
       cy="1423"
       r="50" />
    <circle
       class="cls-2"
       cx="2139"
       cy="1149"
       r="50"
       id="circle26" />
    <circle
       id="Ellipse_1_kopi_9"
       data-name="Ellipse 1 kopi 9"
       class="cls-2"
       cx="2559"
       cy="1423"
       r="50" />
    <circle
       id="Ellipse_1_kopi_16"
       data-name="Ellipse 1 kopi 16"
       class="cls-2"
       cx="2633"
       cy="1149"
       r="50" />
    <circle
       id="Ellipse_1_kopi_5-2"
       data-name="Ellipse 1 kopi 5"
       class="cls-2"
       cx="2633"
       cy="910"
       r="50" />
    <circle
       id="Ellipse_1_kopi_4-2"
       data-name="Ellipse 1 kopi 4"
       class="cls-2"
       cx="2113"
       cy="910"
       r="50" />
    <circle
       id="Ellipse_1_kopi_17"
       data-name="Ellipse 1 kopi 17"
       class="cls-2"
       cx="2386"
       cy="1214"
       r="50" />
    <circle
       id="Ellipse_1_kopi_7-3"
       data-name="Ellipse 1 kopi 7"
       class="cls-2"
       cx="3227"
       cy="1542"
       r="50" />
    <circle
       id="Ellipse_1_kopi_6-3"
       data-name="Ellipse 1 kopi 6"
       class="cls-2"
       cx="3227"
       cy="1296"
       r="50" />
    <circle
       class="cls-2"
       cx="3277"
       cy="383"
       r="50"
       id="circle35" />
    <circle
       id="Ellipse_1_kopi_5-3"
       data-name="Ellipse 1 kopi 5"
       class="cls-2"
       cx="3227"
       cy="1049"
       r="50" />
    <circle
       id="Ellipse_1_kopi_4-3"
       data-name="Ellipse 1 kopi 4"
       class="cls-2"
       cx="3277"
       cy="812"
       r="50" />
    <circle
       id="Ellipse_1_kopi_7-4"
       data-name="Ellipse 1 kopi 7"
       class="cls-2"
       cx="4615"
       cy="1623"
       r="50" />
    <circle
       id="Ellipse_1_kopi_6-4"
       data-name="Ellipse 1 kopi 6"
       class="cls-2"
       cx="4565"
       cy="1373"
       r="50" />
    <circle
       id="Ellipse_1_kopi_5-4"
       data-name="Ellipse 1 kopi 5"
       class="cls-2"
       cx="4565"
       cy="1086"
       r="50" />
    <circle
       id="Ellipse_1_kopi_4-4"
       data-name="Ellipse 1 kopi 4"
       class="cls-2"
       cx="4565"
       cy="825"
       r="50" />
    <circle
       class="cls-2"
       cx="4615"
       cy="564"
       r="50"
       id="circle43" />
    <circle
       id="Ellipse_1_kopi_7-5"
       data-name="Ellipse 1 kopi 7"
       class="cls-2"
       cx="5209"
       cy="1486"
       r="50" />
    <circle
       id="Ellipse_1_kopi_6-5"
       data-name="Ellipse 1 kopi 6"
       class="cls-2"
       cx="5359"
       cy="1673"
       r="50" />
    <circle
       id="Ellipse_1_kopi_5-5"
       data-name="Ellipse 1 kopi 5"
       class="cls-2"
       cx="5594"
       cy="1573"
       r="50" />
    <circle
       id="Ellipse_1_kopi_19"
       data-name="Ellipse 1 kopi 19"
       class="cls-2"
       cx="5459"
       cy="1186"
       r="50" />
    <circle
       id="Ellipse_1_kopi_20"
       data-name="Ellipse 1 kopi 20"
       class="cls-2"
       cx="5209"
       cy="915"
       r="50" />
    <circle
       id="Ellipse_1_kopi_22"
       data-name="Ellipse 1 kopi 22"
       class="cls-2"
       cx="5694"
       cy="999"
       r="50" />
    <circle
       id="Ellipse_1_kopi_23"
       data-name="Ellipse 1 kopi 23"
       class="cls-2"
       cx="5509"
       cy="810"
       r="50" />
    <circle
       id="Ellipse_1_kopi_21"
       data-name="Ellipse 1 kopi 21"
       class="cls-2"
       cx="5159"
       cy="1199"
       r="50" />
    <circle
       id="Ellipse_1_kopi_4-5"
       data-name="Ellipse 1 kopi 4"
       class="cls-2"
       cx="5485"
       cy="364"
       r="50" />
    <circle
       class="cls-2"
       cx="5309"
       cy="457"
       r="50"
       id="circle54" />
    <circle
       id="Ellipse_1_kopi_18"
       data-name="Ellipse 1 kopi 18"
       class="cls-2"
       cx="3971"
       cy="1673"
       r="50" />
    <circle
       id="Ellipse_1_kopi_7-6"
       data-name="Ellipse 1 kopi 7"
       class="cls-2"
       cx="3921"
       cy="1442"
       r="50" />
    <circle
       id="Ellipse_1_kopi_6-6"
       data-name="Ellipse 1 kopi 6"
       class="cls-2"
       cx="3921"
       cy="1149"
       r="50" />
    <circle
       id="Ellipse_1_kopi_5-6"
       data-name="Ellipse 1 kopi 5"
       class="cls-2"
       cx="3971"
       cy="865"
       r="50" />
    <circle
       id="Ellipse_1_kopi_4-6"
       data-name="Ellipse 1 kopi 4"
       class="cls-2"
       cx="3971"
       cy="614"
       r="50" />
    <circle
       class="cls-2"
       cx="3871"
       cy="407"
       r="50"
       id="circle61" />
  </g>
</svg>
